<svg width="81" height="25" viewBox="0 0 81 25" fill="none" xmlns="http://www.w3.org/2000/svg">
<path d="M45.8628 12.9344C45.5375 15.7453 43.1106 17.9676 40.181 17.9676C37.03 17.9676 34.5149 15.4363 34.5149 12.3009C34.5149 9.16638 37.03 6.61963 40.1673 6.61963C42.2238 6.61963 44.0433 7.6791 45.0349 9.28338L43.2448 10.5494C42.4462 9.37206 41.3214 8.79799 40.182 8.79799C38.3321 8.79799 36.8674 10.3584 36.8674 12.3009C36.8674 14.2288 38.3321 15.7746 40.182 15.7746C41.8388 15.7746 43.2301 14.5826 43.5407 12.9344H45.8628Z" fill="#DEC27F"/>
<path d="M63.3537 6.61963H65.7217L60.147 17.9676L57.7498 13.3717L55.4997 17.9676L49.6454 6.61963H52.2638L55.5883 13.1615L56.6179 11.1402L54.2937 6.61963H56.912L60.2366 13.1615L63.3537 6.61963Z" fill="#DEC27F"/>
<path d="M74.9901 6.61963C78.2222 6.61963 80.8522 9.05646 80.8522 12.286C80.8522 15.5459 78.2213 17.9676 75.005 17.9676H70.45V6.61963H74.9901ZM75.005 15.8344C76.9441 15.8344 78.4622 14.3265 78.4622 12.2851C78.4622 10.2285 76.9441 8.75091 74.9901 8.75091H72.7802V15.8334H75.005V15.8344Z" fill="#DEC27F"/>
<path d="M13.6987 14.0648C14.4963 14.0648 15.1431 14.7108 15.1431 15.5076C15.1431 16.3043 14.4963 16.9504 13.6987 16.9504C12.901 16.9504 12.2543 16.3043 12.2543 15.5076C12.2543 14.7108 12.901 14.0648 13.6987 14.0648Z" fill="#DEC27F"/>
<path d="M4.66052 22.3027L7.68027 16.6777C7.68027 16.6777 10.0987 18.6946 13.6887 18.6946C17.596 18.6946 20.0045 16.6068 20.7844 15.8455L13.6721 2.77593L9.42645 10.5175C8.68316 10.7613 7.96317 11.2345 7.14888 11.8517L13.6721 0L22.7313 16.6234L20.4194 18.0341L22.7502 22.2651L4.66052 22.3027Z" fill="#DEC27F"/>
<path d="M5.19526 15.5198L0 25H13.4469H27.3808L23.4369 17.8369L22.2543 18.5306L25.0355 23.6725H13.4469H2.29532L6.24363 16.4251C8.05748 13.1029 11.4566 12.4136 13.5789 12.4136C16.2991 12.4136 17.7924 13.2491 17.7924 13.2491L13.681 5.65607L10.517 11.4761C10.5181 11.4772 6.94144 12.3815 5.19526 15.5198Z" fill="#DEC27F"/>
</svg>
