<svg width="29" height="26" viewBox="0 0 29 26" fill="none" xmlns="http://www.w3.org/2000/svg">
<path d="M14.2466 14.6273C15.0761 14.6273 15.7488 15.2992 15.7488 16.1279C15.7488 16.9565 15.0761 17.6284 14.2466 17.6284C13.417 17.6284 12.7444 16.9565 12.7444 16.1279C12.7444 15.2992 13.417 14.6273 14.2466 14.6273Z" fill="#DEC27F"/>
<path d="M4.84692 23.1948L7.98747 17.3448C7.98747 17.3448 10.5027 19.4424 14.2362 19.4424C18.2998 19.4424 20.8046 17.2711 21.6157 16.4793L14.2189 2.88697L9.80349 10.9382C9.03047 11.1917 8.28168 11.6839 7.43481 12.3258L14.2189 0L23.6406 17.2884L21.2361 18.7555L23.6602 23.1557L4.84692 23.1948Z" fill="#DEC27F"/>
<path d="M5.40307 16.1406L0 26H13.9848H28.476L24.3744 18.5504L23.1445 19.2719L26.037 24.6194H13.9848H2.38714L6.49338 17.0821C8.37978 13.627 11.9149 12.9102 14.1221 12.9102C16.9511 12.9102 18.504 13.7791 18.504 13.7791L14.2282 5.88232L10.9377 11.9352C10.9388 11.9363 7.21909 12.8767 5.40307 16.1406Z" fill="#DEC27F"/>
</svg>
