<svg width="13" height="18" viewBox="0 0 13 18" fill="none" xmlns="http://www.w3.org/2000/svg">
<path d="M12.2393 5.64031C11.6773 4.70707 9.87903 2.84058 7.1816 2.84058C3.80982 2.84058 1 5.64031 1 9C1 12.3597 3.80982 15.1594 7.1816 15.1594C9.87903 15.1594 11.6773 13.2929 12.2393 12.3597" stroke="#DEC27F" stroke-linecap="round"/>
<path d="M5.49585 0.787415V2.84055" stroke="#DEC27F" stroke-linecap="round"/>
<path d="M5.49585 15.1594V17.2126" stroke="#DEC27F" stroke-linecap="round"/>
<path d="M8.86755 0.787415V2.84055" stroke="#DEC27F" stroke-linecap="round"/>
<path d="M8.86755 15.1594V17.2126" stroke="#DEC27F" stroke-linecap="round"/>
<path d="M9.49159 8.99998C9.49159 9.36859 9.28813 9.74517 8.87362 10.0481C8.45948 10.3507 7.86295 10.5531 7.18177 10.5531C6.50059 10.5531 5.90405 10.3507 5.48992 10.0481C5.0754 9.74517 4.87195 9.36859 4.87195 8.99998C4.87195 8.63136 5.0754 8.25478 5.48992 7.9519C5.90405 7.64929 6.50059 7.44684 7.18177 7.44684C7.86295 7.44684 8.45948 7.64929 8.87362 7.9519C9.28813 8.25478 9.49159 8.63136 9.49159 8.99998Z" stroke="#DEC27F"/>
<path d="M10.7845 9.30126C10.1755 8.21712 8.7916 7.46008 7.1818 7.46008C5.57201 7.46008 4.18806 8.21712 3.5791 9.30126" stroke="#DEC27F" stroke-linecap="round"/>
</svg>
