<svg width="41" height="41" viewBox="0 0 41 41" fill="none" xmlns="http://www.w3.org/2000/svg">
<rect x="0.5" y="0.5" width="10" height="10" rx="1.5" stroke="#DEC27F"/>
<rect x="0.5" y="15.5" width="10" height="10" rx="1.5" stroke="#DEC27F"/>
<rect x="0.5" y="30.5" width="10" height="10" rx="1.5" stroke="#DEC27F"/>
<rect x="15.5" y="0.5" width="10" height="10" rx="1.5" stroke="#DEC27F"/>
<rect x="15.5" y="15.5" width="10" height="10" rx="1.5" stroke="#DEC27F"/>
<rect x="15.5" y="30.5" width="10" height="10" rx="1.5" stroke="white"/>
<rect x="30.5" y="0.5" width="10" height="10" rx="1.5" stroke="#DEC27F"/>
<rect x="30.5" y="15.5" width="10" height="10" rx="1.5" stroke="white"/>
<rect x="30.5" y="30.5" width="10" height="10" rx="1.5" stroke="white"/>
<line x1="5.5" y1="9" x2="5.5" y2="17" stroke="#DEC27F"/>
<line x1="17" y1="20.5" x2="9" y2="20.5" stroke="#DEC27F"/>
<line x1="17" y1="5.5" x2="9" y2="5.5" stroke="#DEC27F"/>
<line x1="17" y1="35.5" x2="9" y2="35.5" stroke="#DEC27F"/>
<line x1="32" y1="20.5" x2="24" y2="20.5" stroke="#DEC27F"/>
<line x1="32" y1="5.5" x2="24" y2="5.5" stroke="#DEC27F"/>
<line x1="32" y1="35.5" x2="24" y2="35.5" stroke="white"/>
<line x1="20.5" y1="9" x2="20.5" y2="17" stroke="#DEC27F"/>
<line x1="35.5" y1="9" x2="35.5" y2="17" stroke="#DEC27F"/>
<line x1="20.5" y1="24" x2="20.5" y2="32" stroke="#DEC27F"/>
<line x1="35.5" y1="24" x2="35.5" y2="32" stroke="white"/>
<line x1="5.5" y1="24" x2="5.5" y2="32" stroke="#DEC27F"/>
</svg>
