<svg width="76" height="61" viewBox="0 0 76 61" fill="none" xmlns="http://www.w3.org/2000/svg">
<path d="M18.1244 52.3195C17.6048 56.867 13.7287 60.4622 9.04972 60.4622C4.01704 60.4622 0 56.3672 0 51.2947C0 46.2236 4.01704 42.1035 9.0277 42.1035C12.3124 42.1035 15.2184 43.8175 16.802 46.4129L13.943 48.4612C12.6676 46.5564 10.8711 45.6277 9.05119 45.6277C6.09675 45.6277 3.75726 48.1521 3.75726 51.2947C3.75726 54.4136 6.09675 56.9144 9.05119 56.9144C11.6974 56.9144 13.9195 54.9859 14.4156 52.3195H18.1244Z" fill="#DEC27F"/>
<path d="M46.48 42.4142H50.2842L41.3285 60.4637L37.4773 53.1537L33.8624 60.4637L24.4575 42.4142H28.6639L34.0048 52.8195L35.6588 49.6044L31.9251 42.4142H36.1314L41.4723 52.8195L46.48 42.4142Z" fill="#DEC27F"/>
<path d="M65.8492 42.4142C70.9303 42.4142 75.0648 46.2237 75.0648 51.2726C75.0648 56.3687 70.9288 60.1546 65.8727 60.1546H58.7119V42.4142H65.8492ZM65.8727 56.8198C68.9211 56.8198 71.3075 54.4625 71.3075 51.2711C71.3075 48.0561 68.9211 45.7461 65.8492 45.7461H62.3752V56.8183H65.8727V56.8198Z" fill="#DEC27F"/>
<path d="M37.5169 18.9634C38.5721 18.9634 39.4278 19.8256 39.4278 20.8889C39.4278 21.9522 38.5721 22.8143 37.5169 22.8143C36.4616 22.8143 35.606 21.9522 35.606 20.8889C35.606 19.8256 36.4616 18.9634 37.5169 18.9634Z" fill="#DEC27F"/>
<path d="M25.5596 29.9572L29.5546 22.4505C29.5546 22.4505 32.7541 25.1421 37.5036 25.1421C42.6727 25.1421 45.8591 22.3559 46.8908 21.3399L37.4815 3.89816L31.8647 14.2295C30.8814 14.5549 29.9289 15.1863 28.8516 16.0101L37.4815 0.193604L49.4666 22.3781L46.408 24.2607L49.4916 29.907L25.5596 29.9572Z" fill="#DEC27F"/>
<path d="M26.2672 20.9052L19.394 33.5569H37.1838H55.6178L50.4002 23.9975L48.8357 24.9233L52.5151 31.7852H37.1838H22.4307L27.6541 22.1134C30.0538 17.6798 34.5507 16.7599 37.3584 16.7599C40.9572 16.7599 42.9327 17.875 42.9327 17.875L37.4934 7.74182L33.3076 15.5088C33.3091 15.5103 28.5773 16.7171 26.2672 20.9052Z" fill="#DEC27F"/>
</svg>
