<svg width="1852" height="18" viewBox="0 0 1852 18" fill="none" xmlns="http://www.w3.org/2000/svg">
<g opacity="0.5">
<path d="M1 1L0.999999 17" stroke="url(#paint0_linear_297_1415)" stroke-linecap="round"/>
<path d="M51 1L51 17" stroke="url(#paint1_linear_297_1415)" stroke-linecap="round"/>
<path d="M101 1L101 17" stroke="url(#paint2_linear_297_1415)" stroke-linecap="round"/>
<path d="M151 1L151 17" stroke="url(#paint3_linear_297_1415)" stroke-linecap="round"/>
<path d="M201 1L201 17" stroke="url(#paint4_linear_297_1415)" stroke-linecap="round"/>
<path d="M251 1L251 17" stroke="url(#paint5_linear_297_1415)" stroke-linecap="round"/>
<path d="M301 1L301 17" stroke="url(#paint6_linear_297_1415)" stroke-linecap="round"/>
<path d="M351 1L351 17" stroke="url(#paint7_linear_297_1415)" stroke-linecap="round"/>
<path d="M401 1L401 17" stroke="url(#paint8_linear_297_1415)" stroke-linecap="round"/>
<path d="M451 1L451 17" stroke="url(#paint9_linear_297_1415)" stroke-linecap="round"/>
<path d="M501 1L501 17" stroke="url(#paint10_linear_297_1415)" stroke-linecap="round"/>
<path d="M551 1L551 17" stroke="url(#paint11_linear_297_1415)" stroke-linecap="round"/>
<path d="M601 1L601 17" stroke="url(#paint12_linear_297_1415)" stroke-linecap="round"/>
<path d="M651 1L651 17" stroke="url(#paint13_linear_297_1415)" stroke-linecap="round"/>
<path d="M701 1L701 17" stroke="url(#paint14_linear_297_1415)" stroke-linecap="round"/>
<path d="M751 1L751 17" stroke="url(#paint15_linear_297_1415)" stroke-linecap="round"/>
<path d="M801 1L801 17" stroke="url(#paint16_linear_297_1415)" stroke-linecap="round"/>
<path d="M851 1L851 17" stroke="url(#paint17_linear_297_1415)" stroke-linecap="round"/>
<path d="M901 1L901 17" stroke="url(#paint18_linear_297_1415)" stroke-linecap="round"/>
<path d="M951 1L951 17" stroke="url(#paint19_linear_297_1415)" stroke-linecap="round"/>
<path d="M1001 1L1001 17" stroke="url(#paint20_linear_297_1415)" stroke-linecap="round"/>
<path d="M1051 1L1051 17" stroke="url(#paint21_linear_297_1415)" stroke-linecap="round"/>
<path d="M1101 1L1101 17" stroke="url(#paint22_linear_297_1415)" stroke-linecap="round"/>
<path d="M1151 1L1151 17" stroke="url(#paint23_linear_297_1415)" stroke-linecap="round"/>
<path d="M1201 1L1201 17" stroke="url(#paint24_linear_297_1415)" stroke-linecap="round"/>
<path d="M1251 1L1251 17" stroke="url(#paint25_linear_297_1415)" stroke-linecap="round"/>
<path d="M1301 1L1301 17" stroke="url(#paint26_linear_297_1415)" stroke-linecap="round"/>
<path d="M1351 1L1351 17" stroke="url(#paint27_linear_297_1415)" stroke-linecap="round"/>
<path d="M1401 1L1401 17" stroke="url(#paint28_linear_297_1415)" stroke-linecap="round"/>
<path d="M1451 1L1451 17" stroke="url(#paint29_linear_297_1415)" stroke-linecap="round"/>
<path d="M1501 1L1501 17" stroke="url(#paint30_linear_297_1415)" stroke-linecap="round"/>
<path d="M1551 1L1551 17" stroke="url(#paint31_linear_297_1415)" stroke-linecap="round"/>
<path d="M1601 1L1601 17" stroke="url(#paint32_linear_297_1415)" stroke-linecap="round"/>
<path d="M1651 1L1651 17" stroke="url(#paint33_linear_297_1415)" stroke-linecap="round"/>
<path d="M1701 1L1701 17" stroke="url(#paint34_linear_297_1415)" stroke-linecap="round"/>
<path d="M1751 1L1751 17" stroke="url(#paint35_linear_297_1415)" stroke-linecap="round"/>
<path d="M1801 1L1801 17" stroke="url(#paint36_linear_297_1415)" stroke-linecap="round"/>
<path d="M1851 1L1851 17" stroke="url(#paint37_linear_297_1415)" stroke-linecap="round"/>
</g>
<defs>
<linearGradient id="paint0_linear_297_1415" x1="0.5" y1="1" x2="0.499999" y2="17" gradientUnits="userSpaceOnUse">
<stop stop-color="#B4A47D"/>
<stop offset="1" stop-color="#B4A47D" stop-opacity="0"/>
</linearGradient>
<linearGradient id="paint1_linear_297_1415" x1="50.5" y1="1" x2="50.5" y2="17" gradientUnits="userSpaceOnUse">
<stop stop-color="#B4A47D"/>
<stop offset="1" stop-color="#B4A47D" stop-opacity="0"/>
</linearGradient>
<linearGradient id="paint2_linear_297_1415" x1="100.5" y1="1" x2="100.5" y2="17" gradientUnits="userSpaceOnUse">
<stop stop-color="#B4A47D"/>
<stop offset="1" stop-color="#B4A47D" stop-opacity="0"/>
</linearGradient>
<linearGradient id="paint3_linear_297_1415" x1="150.5" y1="1" x2="150.5" y2="17" gradientUnits="userSpaceOnUse">
<stop stop-color="#B4A47D"/>
<stop offset="1" stop-color="#B4A47D" stop-opacity="0"/>
</linearGradient>
<linearGradient id="paint4_linear_297_1415" x1="200.5" y1="1" x2="200.5" y2="17" gradientUnits="userSpaceOnUse">
<stop stop-color="#B4A47D"/>
<stop offset="1" stop-color="#B4A47D" stop-opacity="0"/>
</linearGradient>
<linearGradient id="paint5_linear_297_1415" x1="250.5" y1="1" x2="250.5" y2="17" gradientUnits="userSpaceOnUse">
<stop stop-color="#B4A47D"/>
<stop offset="1" stop-color="#B4A47D" stop-opacity="0"/>
</linearGradient>
<linearGradient id="paint6_linear_297_1415" x1="300.5" y1="1" x2="300.5" y2="17" gradientUnits="userSpaceOnUse">
<stop stop-color="#B4A47D"/>
<stop offset="1" stop-color="#B4A47D" stop-opacity="0"/>
</linearGradient>
<linearGradient id="paint7_linear_297_1415" x1="350.5" y1="1" x2="350.5" y2="17" gradientUnits="userSpaceOnUse">
<stop stop-color="#B4A47D"/>
<stop offset="1" stop-color="#B4A47D" stop-opacity="0"/>
</linearGradient>
<linearGradient id="paint8_linear_297_1415" x1="400.5" y1="1" x2="400.5" y2="17" gradientUnits="userSpaceOnUse">
<stop stop-color="#B4A47D"/>
<stop offset="1" stop-color="#B4A47D" stop-opacity="0"/>
</linearGradient>
<linearGradient id="paint9_linear_297_1415" x1="450.5" y1="1" x2="450.5" y2="17" gradientUnits="userSpaceOnUse">
<stop stop-color="#B4A47D"/>
<stop offset="1" stop-color="#B4A47D" stop-opacity="0"/>
</linearGradient>
<linearGradient id="paint10_linear_297_1415" x1="500.5" y1="1" x2="500.5" y2="17" gradientUnits="userSpaceOnUse">
<stop stop-color="#B4A47D"/>
<stop offset="1" stop-color="#B4A47D" stop-opacity="0"/>
</linearGradient>
<linearGradient id="paint11_linear_297_1415" x1="550.5" y1="1" x2="550.5" y2="17" gradientUnits="userSpaceOnUse">
<stop stop-color="#B4A47D"/>
<stop offset="1" stop-color="#B4A47D" stop-opacity="0"/>
</linearGradient>
<linearGradient id="paint12_linear_297_1415" x1="600.5" y1="1" x2="600.5" y2="17" gradientUnits="userSpaceOnUse">
<stop stop-color="#B4A47D"/>
<stop offset="1" stop-color="#B4A47D" stop-opacity="0"/>
</linearGradient>
<linearGradient id="paint13_linear_297_1415" x1="650.5" y1="1" x2="650.5" y2="17" gradientUnits="userSpaceOnUse">
<stop stop-color="#B4A47D"/>
<stop offset="1" stop-color="#B4A47D" stop-opacity="0"/>
</linearGradient>
<linearGradient id="paint14_linear_297_1415" x1="700.5" y1="1" x2="700.5" y2="17" gradientUnits="userSpaceOnUse">
<stop stop-color="#B4A47D"/>
<stop offset="1" stop-color="#B4A47D" stop-opacity="0"/>
</linearGradient>
<linearGradient id="paint15_linear_297_1415" x1="750.5" y1="1" x2="750.5" y2="17" gradientUnits="userSpaceOnUse">
<stop stop-color="#B4A47D"/>
<stop offset="1" stop-color="#B4A47D" stop-opacity="0"/>
</linearGradient>
<linearGradient id="paint16_linear_297_1415" x1="800.5" y1="1" x2="800.5" y2="17" gradientUnits="userSpaceOnUse">
<stop stop-color="#B4A47D"/>
<stop offset="1" stop-color="#B4A47D" stop-opacity="0"/>
</linearGradient>
<linearGradient id="paint17_linear_297_1415" x1="850.5" y1="1" x2="850.5" y2="17" gradientUnits="userSpaceOnUse">
<stop stop-color="#B4A47D"/>
<stop offset="1" stop-color="#B4A47D" stop-opacity="0"/>
</linearGradient>
<linearGradient id="paint18_linear_297_1415" x1="900.5" y1="1" x2="900.5" y2="17" gradientUnits="userSpaceOnUse">
<stop stop-color="#B4A47D"/>
<stop offset="1" stop-color="#B4A47D" stop-opacity="0"/>
</linearGradient>
<linearGradient id="paint19_linear_297_1415" x1="950.5" y1="1" x2="950.5" y2="17" gradientUnits="userSpaceOnUse">
<stop stop-color="#B4A47D"/>
<stop offset="1" stop-color="#B4A47D" stop-opacity="0"/>
</linearGradient>
<linearGradient id="paint20_linear_297_1415" x1="1000.5" y1="1" x2="1000.5" y2="17" gradientUnits="userSpaceOnUse">
<stop stop-color="#B4A47D"/>
<stop offset="1" stop-color="#B4A47D" stop-opacity="0"/>
</linearGradient>
<linearGradient id="paint21_linear_297_1415" x1="1050.5" y1="1" x2="1050.5" y2="17" gradientUnits="userSpaceOnUse">
<stop stop-color="#B4A47D"/>
<stop offset="1" stop-color="#B4A47D" stop-opacity="0"/>
</linearGradient>
<linearGradient id="paint22_linear_297_1415" x1="1100.5" y1="1" x2="1100.5" y2="17" gradientUnits="userSpaceOnUse">
<stop stop-color="#B4A47D"/>
<stop offset="1" stop-color="#B4A47D" stop-opacity="0"/>
</linearGradient>
<linearGradient id="paint23_linear_297_1415" x1="1150.5" y1="1" x2="1150.5" y2="17" gradientUnits="userSpaceOnUse">
<stop stop-color="#B4A47D"/>
<stop offset="1" stop-color="#B4A47D" stop-opacity="0"/>
</linearGradient>
<linearGradient id="paint24_linear_297_1415" x1="1200.5" y1="1" x2="1200.5" y2="17" gradientUnits="userSpaceOnUse">
<stop stop-color="#B4A47D"/>
<stop offset="1" stop-color="#B4A47D" stop-opacity="0"/>
</linearGradient>
<linearGradient id="paint25_linear_297_1415" x1="1250.5" y1="1" x2="1250.5" y2="17" gradientUnits="userSpaceOnUse">
<stop stop-color="#B4A47D"/>
<stop offset="1" stop-color="#B4A47D" stop-opacity="0"/>
</linearGradient>
<linearGradient id="paint26_linear_297_1415" x1="1300.5" y1="1" x2="1300.5" y2="17" gradientUnits="userSpaceOnUse">
<stop stop-color="#B4A47D"/>
<stop offset="1" stop-color="#B4A47D" stop-opacity="0"/>
</linearGradient>
<linearGradient id="paint27_linear_297_1415" x1="1350.5" y1="1" x2="1350.5" y2="17" gradientUnits="userSpaceOnUse">
<stop stop-color="#B4A47D"/>
<stop offset="1" stop-color="#B4A47D" stop-opacity="0"/>
</linearGradient>
<linearGradient id="paint28_linear_297_1415" x1="1400.5" y1="1" x2="1400.5" y2="17" gradientUnits="userSpaceOnUse">
<stop stop-color="#B4A47D"/>
<stop offset="1" stop-color="#B4A47D" stop-opacity="0"/>
</linearGradient>
<linearGradient id="paint29_linear_297_1415" x1="1450.5" y1="1" x2="1450.5" y2="17" gradientUnits="userSpaceOnUse">
<stop stop-color="#B4A47D"/>
<stop offset="1" stop-color="#B4A47D" stop-opacity="0"/>
</linearGradient>
<linearGradient id="paint30_linear_297_1415" x1="1500.5" y1="1" x2="1500.5" y2="17" gradientUnits="userSpaceOnUse">
<stop stop-color="#B4A47D"/>
<stop offset="1" stop-color="#B4A47D" stop-opacity="0"/>
</linearGradient>
<linearGradient id="paint31_linear_297_1415" x1="1550.5" y1="1" x2="1550.5" y2="17" gradientUnits="userSpaceOnUse">
<stop stop-color="#B4A47D"/>
<stop offset="1" stop-color="#B4A47D" stop-opacity="0"/>
</linearGradient>
<linearGradient id="paint32_linear_297_1415" x1="1600.5" y1="1" x2="1600.5" y2="17" gradientUnits="userSpaceOnUse">
<stop stop-color="#B4A47D"/>
<stop offset="1" stop-color="#B4A47D" stop-opacity="0"/>
</linearGradient>
<linearGradient id="paint33_linear_297_1415" x1="1650.5" y1="1" x2="1650.5" y2="17" gradientUnits="userSpaceOnUse">
<stop stop-color="#B4A47D"/>
<stop offset="1" stop-color="#B4A47D" stop-opacity="0"/>
</linearGradient>
<linearGradient id="paint34_linear_297_1415" x1="1700.5" y1="1" x2="1700.5" y2="17" gradientUnits="userSpaceOnUse">
<stop stop-color="#B4A47D"/>
<stop offset="1" stop-color="#B4A47D" stop-opacity="0"/>
</linearGradient>
<linearGradient id="paint35_linear_297_1415" x1="1750.5" y1="1" x2="1750.5" y2="17" gradientUnits="userSpaceOnUse">
<stop stop-color="#B4A47D"/>
<stop offset="1" stop-color="#B4A47D" stop-opacity="0"/>
</linearGradient>
<linearGradient id="paint36_linear_297_1415" x1="1800.5" y1="1" x2="1800.5" y2="17" gradientUnits="userSpaceOnUse">
<stop stop-color="#B4A47D"/>
<stop offset="1" stop-color="#B4A47D" stop-opacity="0"/>
</linearGradient>
<linearGradient id="paint37_linear_297_1415" x1="1850.5" y1="1" x2="1850.5" y2="17" gradientUnits="userSpaceOnUse">
<stop stop-color="#B4A47D"/>
<stop offset="1" stop-color="#B4A47D" stop-opacity="0"/>
</linearGradient>
</defs>
</svg>
