<svg width="58" height="52" viewBox="0 0 58 52" fill="none" xmlns="http://www.w3.org/2000/svg">
<path d="M29.0176 29.2548C30.7071 29.2548 32.0772 30.5985 32.0772 32.2558C32.0772 33.9129 30.7071 35.2568 29.0176 35.2568C27.3278 35.2568 25.9579 33.9129 25.9579 32.2558C25.9579 30.5985 27.3278 29.2548 29.0176 29.2548Z" fill="#DEC27F"/>
<path d="M9.87225 46.3896L16.2689 34.6896C16.2689 34.6896 21.3918 38.8848 28.9964 38.8848C37.2731 38.8848 42.375 34.5421 44.027 32.9586L28.9612 5.77393L19.9678 21.8764C18.3933 22.3835 16.8682 23.3678 15.1433 24.6515L28.9612 0L48.1511 34.5767L43.2539 37.5109L48.1911 46.3114L9.87225 46.3896Z" fill="#DEC27F"/>
<path d="M11.005 32.2812L0 52H58L49.6457 37.1008L47.1407 38.5436L53.032 49.2388H4.86211L13.2257 34.1642C17.0679 27.254 24.2682 25.8203 28.7638 25.8203C34.5259 25.8203 37.6892 27.5581 37.6892 27.5581L28.9801 11.7646L22.2779 23.8703C22.2779 23.8703 14.7039 25.7535 11.005 32.2812Z" fill="#DEC27F"/>
</svg>
