<svg width="26" height="27" viewBox="0 0 26 27" fill="none" xmlns="http://www.w3.org/2000/svg">
<path d="M5 23V25C5 25.5523 5.44772 26 6 26H24C24.5523 26 25 25.5523 25 25V2C25 1.44772 24.5523 1 24 1H6C5.44772 1 5 1.44772 5 2V4.91241" stroke="#8C8C8C"/>
<line x1="12" y1="5.5" x2="21" y2="5.5" stroke="#8C8C8C"/>
<line x1="12" y1="10.5" x2="21" y2="10.5" stroke="#8C8C8C"/>
<line x1="12" y1="15.5" x2="21" y2="15.5" stroke="#8C8C8C"/>
<line x1="12" y1="20.5" x2="21" y2="20.5" stroke="#8C8C8C"/>
<circle cx="5" cy="16" r="4.5" stroke="#8C8C8C"/>
<path d="M7.5 12.5V9C7.5 7.89543 6.38071 7 5 7C3.61929 7 2.5 7.89543 2.5 9V12.5" stroke="#8C8C8C"/>
<path d="M5 15V18" stroke="#8C8C8C"/>
<circle cx="5" cy="15" r="1" fill="#8C8C8C"/>
</svg>
