<svg width="29" height="27" viewBox="0 0 29 27" fill="none" xmlns="http://www.w3.org/2000/svg">
<path d="M19.7393 11.8529C19.1773 10.9197 17.379 9.05316 14.6816 9.05316C11.3098 9.05316 8.5 11.8529 8.5 15.2126C8.5 18.5723 11.3098 21.372 14.6816 21.372C17.379 21.372 19.1773 19.5055 19.7393 18.5723" stroke="#8C8C8C"/>
<path d="M12.9958 7V9.05314" stroke="#8C8C8C"/>
<path d="M12.9958 21.372V23.4251" stroke="#8C8C8C"/>
<path d="M16.3676 7V9.05314" stroke="#8C8C8C"/>
<path d="M16.3676 21.372V23.4251" stroke="#8C8C8C"/>
<path d="M16.9916 15.2125C16.9916 15.5812 16.7881 15.9577 16.3736 16.2606C15.9595 16.5632 15.3629 16.7657 14.6818 16.7657C14.0006 16.7657 13.4041 16.5632 12.9899 16.2606C12.5754 15.9577 12.3719 15.5812 12.3719 15.2125C12.3719 14.8439 12.5754 14.4674 12.9899 14.1645C13.4041 13.8619 14.0006 13.6594 14.6818 13.6594C15.3629 13.6594 15.9595 13.8619 16.3736 14.1645C16.7881 14.4674 16.9916 14.8439 16.9916 15.2125Z" stroke="#8C8C8C"/>
<path d="M18.2845 15.5139C17.6755 14.4297 16.2916 13.6727 14.6818 13.6727C13.072 13.6727 11.6881 14.4297 11.0791 15.5139" stroke="#8C8C8C"/>
<path d="M5.34794 10.354C6.52497 6.29527 10.2707 3.5 14.5 3.5C18.7293 3.5 22.475 6.29526 23.6521 10.354L26.2952 19.4681C27.3154 22.9863 24.6759 26.5 21.0128 26.5H7.98721C4.32406 26.5 1.68457 22.9863 2.70485 19.4681L5.34794 10.354Z" stroke="#8C8C8C"/>
<path d="M10.8605 1.33301C10.5728 1.0108 10.8015 0.5 11.2335 0.5H17.7665C18.1985 0.5 18.4272 1.0108 18.1395 1.33301L16.2047 3.5H12.7953L10.8605 1.33301Z" stroke="#8C8C8C"/>
</svg>
