<svg width="24" height="27" viewBox="0 0 24 27" fill="none" xmlns="http://www.w3.org/2000/svg">
<path d="M1.10879 25.1098L2.99043 6.10979C3.0411 5.59818 3.47145 5.20834 3.98556 5.20834H20.0144C20.5286 5.20834 20.9589 5.59818 21.0096 6.10979L22.8912 25.1098C22.9495 25.6982 22.4873 26.2083 21.8961 26.2083H2.10393C1.51269 26.2083 1.05053 25.6982 1.10879 25.1098Z" stroke="#8C8C8C"/>
<path d="M16.9309 5C16.9763 4.81417 17 4.62326 17 4.42857C17 2.53502 14.7614 1 12 1C9.23858 1 7 2.53502 7 4.42857C7 4.62326 7.02367 4.81417 7.06913 5" stroke="#8C8C8C"/>
</svg>
