<svg width="25" height="25" viewBox="0 0 25 25" fill="none" xmlns="http://www.w3.org/2000/svg">
<path d="M24.1525 12.2444C24.281 12.3973 24.281 12.6027 24.1525 12.7556C23.4283 13.6171 21.8822 15.3137 19.8208 16.7913C17.7543 18.2725 15.217 19.5 12.5 19.5C9.78299 19.5 7.2457 18.2725 5.17918 16.7913C3.11778 15.3137 1.57166 13.6171 0.847513 12.7556C0.719037 12.6027 0.719037 12.3973 0.847512 12.2444C1.57166 11.3829 3.11778 9.68629 5.17918 8.20871C7.2457 6.72746 9.78299 5.5 12.5 5.5C15.217 5.5 17.7543 6.72746 19.8208 8.20871C21.8822 9.68629 23.4283 11.3829 24.1525 12.2444Z" stroke="#8C8C8C"/>
<rect x="11.9048" width="1.19048" height="3.57143" fill="#8C8C8C"/>
<rect x="18.2345" y="1.37707" width="1.19048" height="3.57143" transform="rotate(30 18.2345 1.37707)" fill="#8C8C8C"/>
<rect x="11.9048" y="21.4286" width="1.19048" height="3.57143" fill="#8C8C8C"/>
<rect x="5.7345" y="1.97229" width="1.19048" height="3.57143" transform="rotate(-30 5.7345 1.97229)" fill="#8C8C8C"/>
<rect x="16.4489" y="20.53" width="1.19048" height="3.57143" transform="rotate(-30 16.4489 20.53)" fill="#8C8C8C"/>
<rect x="7.52014" y="19.9347" width="1.19048" height="3.57143" transform="rotate(30 7.52014 19.9347)" fill="#8C8C8C"/>
<mask id="path-8-inside-1" fill="white">
<path fill-rule="evenodd" clip-rule="evenodd" d="M12.5002 16.6666C14.8013 16.6666 16.6668 14.8012 16.6668 12.5C16.6668 10.1988 14.8013 8.33332 12.5002 8.33332C11.6892 8.33332 10.9323 8.565 10.2922 8.96579C10.5556 9.27693 10.7144 9.67943 10.7144 10.119C10.7144 11.1053 9.91496 11.9047 8.92873 11.9047C8.74041 11.9047 8.55889 11.8756 8.38845 11.8216C8.3523 12.0423 8.3335 12.269 8.3335 12.5C8.3335 14.8012 10.199 16.6666 12.5002 16.6666Z"/>
</mask>
<path d="M10.2922 8.96579L9.76151 8.1182L8.78295 8.73086L9.52898 9.61197L10.2922 8.96579ZM8.38845 11.8216L8.69068 10.8683L7.58845 10.5189L7.40159 11.66L8.38845 11.8216ZM15.6668 12.5C15.6668 14.2489 14.2491 15.6666 12.5002 15.6666V17.6666C15.3536 17.6666 17.6668 15.3535 17.6668 12.5H15.6668ZM12.5002 9.33332C14.2491 9.33332 15.6668 10.7511 15.6668 12.5H17.6668C17.6668 9.64651 15.3536 7.33332 12.5002 7.33332V9.33332ZM10.8228 9.81338C11.3086 9.50928 11.8823 9.33332 12.5002 9.33332V7.33332C11.4961 7.33332 10.5561 7.62073 9.76151 8.1182L10.8228 9.81338ZM9.52898 9.61197C9.64525 9.7493 9.71445 9.9248 9.71445 10.119H11.7144C11.7144 9.43406 11.4659 8.80455 11.0554 8.31961L9.52898 9.61197ZM9.71445 10.119C9.71445 10.553 9.36267 10.9047 8.92873 10.9047V12.9047C10.4672 12.9047 11.7144 11.6575 11.7144 10.119H9.71445ZM8.92873 10.9047C8.84416 10.9047 8.76453 10.8917 8.69068 10.8683L8.08622 12.7748C8.35326 12.8595 8.63666 12.9047 8.92873 12.9047V10.9047ZM9.3335 12.5C9.3335 12.3233 9.34787 12.1507 9.37531 11.9832L7.40159 11.66C7.35673 11.934 7.3335 12.2146 7.3335 12.5H9.3335ZM12.5002 15.6666C10.7513 15.6666 9.3335 14.2489 9.3335 12.5H7.3335C7.3335 15.3535 9.64669 17.6666 12.5002 17.6666V15.6666Z" fill="#8C8C8C" mask="url(#path-8-inside-1)"/>
</svg>
