<svg width="26" height="23" viewBox="0 0 26 23" fill="none" xmlns="http://www.w3.org/2000/svg">
<path d="M11.5 19.5C11.5 20.2148 10.9996 20.9544 9.99071 21.543C8.99405 22.1244 7.58424 22.5 6 22.5C4.41576 22.5 3.00595 22.1244 2.00929 21.543C1.00037 20.9544 0.5 20.2148 0.5 19.5C0.5 18.7852 1.00037 18.0456 2.00929 17.457C3.00595 16.8756 4.41576 16.5 6 16.5C7.58424 16.5 8.99405 16.8756 9.99071 17.457C10.9996 18.0456 11.5 18.7852 11.5 19.5Z" fill="#262626" stroke="#8C8C8C"/>
<path d="M25.5 19.5C25.5 20.2148 24.9996 20.9544 23.9907 21.543C22.9941 22.1244 21.5842 22.5 20 22.5C18.4158 22.5 17.0059 22.1244 16.0093 21.543C15.0004 20.9544 14.5 20.2148 14.5 19.5C14.5 18.7852 15.0004 18.0456 16.0093 17.457C17.0059 16.8756 18.4158 16.5 20 16.5C21.5842 16.5 22.9941 16.8756 23.9907 17.457C24.9996 18.0456 25.5 18.7852 25.5 19.5Z" fill="#262626" stroke="#8C8C8C"/>
<path d="M11.5 15.5C11.5 16.2148 10.9996 16.9544 9.99071 17.543C8.99405 18.1244 7.58424 18.5 6 18.5C4.41576 18.5 3.00595 18.1244 2.00929 17.543C1.00037 16.9544 0.5 16.2148 0.5 15.5C0.5 14.7852 1.00037 14.0456 2.00929 13.457C3.00595 12.8756 4.41576 12.5 6 12.5C7.58424 12.5 8.99405 12.8756 9.99071 13.457C10.9996 14.0456 11.5 14.7852 11.5 15.5Z" fill="#262626" stroke="#8C8C8C"/>
<path d="M25.5 15.5C25.5 16.2148 24.9996 16.9544 23.9907 17.543C22.9941 18.1244 21.5842 18.5 20 18.5C18.4158 18.5 17.0059 18.1244 16.0093 17.543C15.0004 16.9544 14.5 16.2148 14.5 15.5C14.5 14.7852 15.0004 14.0456 16.0093 13.457C17.0059 12.8756 18.4158 12.5 20 12.5C21.5842 12.5 22.9941 12.8756 23.9907 13.457C24.9996 14.0456 25.5 14.7852 25.5 15.5Z" fill="#262626" stroke="#8C8C8C"/>
<path d="M25.5 11.5C25.5 12.2148 24.9996 12.9544 23.9907 13.543C22.9941 14.1244 21.5842 14.5 20 14.5C18.4158 14.5 17.0059 14.1244 16.0093 13.543C15.0004 12.9544 14.5 12.2148 14.5 11.5C14.5 10.7852 15.0004 10.0456 16.0093 9.45702C17.0059 8.87563 18.4158 8.5 20 8.5C21.5842 8.5 22.9941 8.87563 23.9907 9.45702C24.9996 10.0456 25.5 10.7852 25.5 11.5Z" fill="#262626" stroke="#8C8C8C"/>
<path d="M11.5 11.5C11.5 12.2148 10.9996 12.9544 9.99071 13.543C8.99405 14.1244 7.58424 14.5 6 14.5C4.41576 14.5 3.00595 14.1244 2.00929 13.543C1.00037 12.9544 0.5 12.2148 0.5 11.5C0.5 10.7852 1.00037 10.0456 2.00929 9.45702C3.00595 8.87563 4.41576 8.5 6 8.5C7.58424 8.5 8.99405 8.87563 9.99071 9.45702C10.9996 10.0456 11.5 10.7852 11.5 11.5Z" fill="#262626" stroke="#8C8C8C"/>
<path d="M11.5 7.5C11.5 8.21484 10.9996 8.95444 9.99071 9.54298C8.99405 10.1244 7.58424 10.5 6 10.5C4.41576 10.5 3.00595 10.1244 2.00929 9.54298C1.00037 8.95444 0.5 8.21484 0.5 7.5C0.5 6.78516 1.00037 6.04556 2.00929 5.45702C3.00595 4.87563 4.41576 4.5 6 4.5C7.58424 4.5 8.99405 4.87563 9.99071 5.45702C10.9996 6.04556 11.5 6.78516 11.5 7.5Z" fill="#262626" stroke="#8C8C8C"/>
<path d="M11.5 3.5C11.5 4.21484 10.9996 4.95444 9.99071 5.54298C8.99405 6.12437 7.58424 6.5 6 6.5C4.41576 6.5 3.00595 6.12437 2.00929 5.54298C1.00037 4.95444 0.5 4.21484 0.5 3.5C0.5 2.78516 1.00037 2.04556 2.00929 1.45702C3.00595 0.875634 4.41576 0.5 6 0.5C7.58424 0.5 8.99405 0.875634 9.99071 1.45702C10.9996 2.04556 11.5 2.78516 11.5 3.5Z" fill="#262626" stroke="#8C8C8C"/>
</svg>
