<svg width="28" height="20" viewBox="0 0 28 20" fill="none" xmlns="http://www.w3.org/2000/svg">
<path d="M8.58333 13.3333V12.8333H8.24921L8.12137 13.142L8.58333 13.3333ZM19.4167 13.3333L19.8786 13.142L19.7508 12.8333H19.4167V13.3333ZM7.5 1.5H12.9167V0.5H7.5V1.5ZM1.5 16.697C1.5 13.9431 2.03438 10.0731 3.09895 6.90549C3.63176 5.32011 4.2866 3.94362 5.04934 2.9733C5.8131 2.00168 6.63169 1.5 7.5 1.5V0.5C6.20164 0.5 5.1244 1.25968 4.26316 2.3553C3.4009 3.45222 2.70158 4.94883 2.15105 6.58693C1.04895 9.86626 0.5 13.8448 0.5 16.697H1.5ZM3.70833 19C3.34051 19 2.7748 18.8815 2.31439 18.5385C1.87845 18.2136 1.5 17.6623 1.5 16.697H0.5C0.5 17.974 1.02433 18.8243 1.71686 19.3403C2.38493 19.8381 3.17338 20 3.70833 20V19ZM8.12137 13.142C7.30406 15.1158 6.64733 16.6023 5.94099 17.5992C5.25039 18.5738 4.57144 19 3.70833 19V20C5.01189 20 5.95794 19.3049 6.75693 18.1773C7.54017 17.0719 8.23761 15.4751 9.04529 13.5246L8.12137 13.142ZM12.9167 12.8333H8.58333V13.8333H12.9167V12.8333ZM12.9167 13.8333H14V12.8333H12.9167V13.8333ZM14 13.8333H19.4167V12.8333H14V13.8333ZM18.9547 13.5246C19.7624 15.4751 20.4598 17.0719 21.2431 18.1773C22.0421 19.3049 22.9881 20 24.2917 20V19C23.4286 19 22.7496 18.5738 22.059 17.5992C21.3527 16.6023 20.6959 15.1158 19.8786 13.142L18.9547 13.5246ZM24.2917 20C24.8266 20 25.6151 19.8381 26.2831 19.3403C26.9757 18.8243 27.5 17.974 27.5 16.697H26.5C26.5 17.6623 26.1216 18.2136 25.6856 18.5385C25.2252 18.8815 24.6595 19 24.2917 19V20ZM27.5 16.697C27.5 13.8448 26.9511 9.86626 25.849 6.58693C25.2984 4.94883 24.5991 3.45222 23.7368 2.3553C22.8756 1.25968 21.7984 0.5 20.5 0.5V1.5C21.3683 1.5 22.1869 2.00168 22.9507 2.9733C23.7134 3.94362 24.3682 5.32011 24.9011 6.90549C25.9656 10.0731 26.5 13.9431 26.5 16.697H27.5ZM20.5 0.5H14V1.5H20.5V0.5ZM14 0.5H12.9167V1.5H14V0.5Z" fill="#8C8C8C"/>
<path fill-rule="evenodd" clip-rule="evenodd" d="M10 7.00003V5.00003H9V7.00003H7V8.00003H9V10H10V8.00003H12V7.00003H10Z" fill="#8C8C8C"/>
<rect x="20" y="5.00003" width="1" height="1" transform="rotate(90 20 5.00003)" fill="#8C8C8C"/>
<rect x="18" y="7.00003" width="1" height="1" transform="rotate(90 18 7.00003)" fill="#8C8C8C"/>
<rect x="20" y="9.00003" width="1" height="1" transform="rotate(90 20 9.00003)" fill="#8C8C8C"/>
<rect x="22" y="7.00003" width="1" height="1" transform="rotate(90 22 7.00003)" fill="#8C8C8C"/>
</svg>
