<svg width="25" height="25" viewBox="0 0 25 25" fill="none" xmlns="http://www.w3.org/2000/svg">
<line x1="2.04492" y1="24.5" x2="23.0449" y2="24.5" stroke="#8C8C8C"/>
<path d="M4.56807 0.978071C4.55607 0.725846 4.76359 0.5 5.04492 0.5H20.0449C20.3284 0.5 20.5307 0.725748 20.5163 0.971482C20.2498 5.5128 18.1804 9.26295 16.8228 11.2638C16.1454 12.2622 15.1704 13.0263 14.0615 13.6203C13.1141 14.1278 11.9757 14.1278 11.0283 13.6203L10.7649 13.4792C9.81192 12.9687 8.9601 12.3613 8.34073 11.5531C6.9944 9.79636 4.81567 6.185 4.56807 0.978071Z" stroke="#8C8C8C"/>
<path d="M20.7396 2.00003C21.0526 2.00003 22.0541 2.00003 23.5564 2.00003C25.4343 2.00003 21.6786 11.2308 16.0449 12" stroke="#8C8C8C"/>
<path d="M4.35023 2.00003C4.03725 2.00003 3.03571 2.00003 1.53341 2.00003C-0.344464 2.00003 2.91129 11.2308 8.54492 12" stroke="#8C8C8C"/>
<rect x="11.5449" y="14.5" width="2" height="5" stroke="#8C8C8C"/>
<rect x="9.54492" y="19.5" width="6" height="2" stroke="#8C8C8C"/>
<rect x="7.54492" y="21.5" width="10" height="3" stroke="#8C8C8C"/>
</svg>
