<svg width="29" height="29" viewBox="0 0 29 29" fill="none" xmlns="http://www.w3.org/2000/svg">
<path d="M20.5615 1.8903C20.0158 1.53843 19.2931 1.62591 18.8137 2.10535L13.5786 7.34041C13.083 7.83606 13.0018 8.59768 13.3824 9.16664C14.176 10.3531 15.3254 11.9821 16.1715 12.8283C17.0177 13.6744 18.6467 14.8238 19.8332 15.6174C20.4021 15.9979 21.1637 15.9168 21.6594 15.4212L26.8944 10.1861C27.3739 9.70668 27.4614 8.98404 27.1095 8.43829C26.4166 7.36359 25.359 5.85418 24.2523 4.74749C23.1456 3.6408 21.6362 2.58321 20.5615 1.8903Z" stroke="#8C8C8C"/>
<circle r="1.24279" transform="matrix(-0.707107 0.707107 0.707107 0.707107 21.0908 7.90906)" fill="#8C8C8C"/>
<path d="M7.4255 24.4788L7.50493 24.177L7.81098 24.1158L9.72342 23.7333L10.5105 21.3722L10.5979 21.1098L10.8666 21.0445L12.9107 20.5473L13.5816 18.3109L13.6679 18.0232L13.9625 17.9643L16.011 17.5546L18.6262 14.9394L14.0605 10.3738L2.53727 21.8971L3.08079 25.9192L6.91028 26.4367L7.4255 24.4788Z" stroke="#8C8C8C"/>
</svg>
