<svg width="25" height="25" viewBox="0 0 25 25" fill="none" xmlns="http://www.w3.org/2000/svg">
<circle cx="12.5" cy="12.5" r="12" stroke="#8C8C8C"/>
<path d="M17.7393 8.8529C17.1773 7.91965 15.379 6.05316 12.6816 6.05316C9.30982 6.05316 6.5 8.8529 6.5 12.2126C6.5 15.5723 9.30982 18.372 12.6816 18.372C15.379 18.372 17.1773 16.5055 17.7393 15.5723" stroke="#8C8C8C"/>
<path d="M10.9958 4V6.05314" stroke="#8C8C8C"/>
<path d="M10.9958 18.372V20.4251" stroke="#8C8C8C"/>
<path d="M14.3676 4V6.05314" stroke="#8C8C8C"/>
<path d="M14.3676 18.372V20.4251" stroke="#8C8C8C"/>
<path d="M14.9916 12.2126C14.9916 12.5812 14.7881 12.9578 14.3736 13.2606C13.9595 13.5633 13.3629 13.7657 12.6818 13.7657C12.0006 13.7657 11.4041 13.5633 10.9899 13.2606C10.5754 12.9578 10.3719 12.5812 10.3719 12.2126C10.3719 11.8439 10.5754 11.4674 10.9899 11.1645C11.4041 10.8619 12.0006 10.6594 12.6818 10.6594C13.3629 10.6594 13.9595 10.8619 14.3736 11.1645C14.7881 11.4674 14.9916 11.8439 14.9916 12.2126Z" stroke="#8C8C8C"/>
<path d="M16.2845 12.5139C15.6755 11.4297 14.2916 10.6727 12.6818 10.6727C11.072 10.6727 9.68806 11.4297 9.0791 12.5139" stroke="#8C8C8C"/>
</svg>
