<svg width="27" height="27" viewBox="0 0 27 27" fill="none" xmlns="http://www.w3.org/2000/svg">
<circle cx="13.5" cy="13.5" r="4.5" stroke="#8C8C8C"/>
<path d="M10.8905 1.87597L11.3866 1.93798V1.93798L10.8905 1.87597ZM16.1095 1.87597L16.6056 1.81395V1.81395L16.1095 1.87597ZM16.4327 4.46129L15.9365 4.52331L15.976 4.83884L16.2785 4.93692L16.4327 4.46129ZM17.8172 5.03534L17.5896 5.48057L17.873 5.62536L18.1241 5.43001L17.8172 5.03534ZM19.8743 3.43537L19.5673 3.04069L19.8743 3.43537ZM21.1953 3.51762L21.5489 3.16406V3.16406L21.1953 3.51762ZM23.4824 5.80471L23.1288 6.15826V6.15826L23.4824 5.80471ZM23.5646 7.12575L23.17 6.81878V6.81878L23.5646 7.12575ZM21.9647 9.18286L21.57 8.87589L21.3746 9.12705L21.5194 9.41039L21.9647 9.18286ZM22.5387 10.5673L22.0631 10.7215L22.1612 11.024L22.4767 11.0635L22.5387 10.5673ZM25.124 10.8905L25.1861 10.3944L25.124 10.8905ZM25.124 16.1095L25.062 15.6134L25.124 16.1095ZM22.5387 16.4327L22.4767 15.9365L22.1612 15.976L22.0631 16.2785L22.5387 16.4327ZM21.9647 17.8171L21.5195 17.5895L21.3747 17.8729L21.57 18.124L21.9647 17.8171ZM23.5647 19.8742L23.9594 19.5672L23.5647 19.8742ZM23.4825 21.1952L23.1289 20.8417H23.1289L23.4825 21.1952ZM21.1954 23.4823L21.5489 23.8359H21.5489L21.1954 23.4823ZM19.8743 23.5646L19.5673 23.9592L19.8743 23.5646ZM17.8172 21.9646L18.1242 21.5699L17.873 21.3746L17.5897 21.5194L17.8172 21.9646ZM16.4327 22.5387L16.2785 22.0631L15.976 22.1612L15.9365 22.4767L16.4327 22.5387ZM16.1095 25.124L15.6134 25.062L16.1095 25.124ZM10.8905 25.124L10.3944 25.1861L10.8905 25.124ZM10.5673 22.5387L11.0635 22.4767L11.024 22.1612L10.7215 22.0631L10.5673 22.5387ZM9.18286 21.9647L9.41039 21.5194L9.12705 21.3746L8.87589 21.57L9.18286 21.9647ZM7.12577 23.5646L7.43274 23.9593H7.43274L7.12577 23.5646ZM5.80473 23.4824L6.15828 23.1288H6.15828L5.80473 23.4824ZM3.51763 21.1953L3.16408 21.5488H3.16408L3.51763 21.1953ZM3.43539 19.8742L3.83006 20.1812H3.83006L3.43539 19.8742ZM5.03534 17.8172L5.43002 18.1241L5.62537 17.873L5.48057 17.5896L5.03534 17.8172ZM4.46129 16.4327L4.93692 16.2785L4.83885 15.976L4.52331 15.9365L4.46129 16.4327ZM1.87596 16.1095L1.93798 15.6134H1.93798L1.87596 16.1095ZM1.87597 10.8905L1.81395 10.3944H1.81395L1.87597 10.8905ZM4.46129 10.5673L4.52331 11.0635L4.83884 11.024L4.93692 10.7215L4.46129 10.5673ZM5.03538 9.18276L5.48061 9.41029L5.62541 9.12696L5.43006 8.87579L5.03538 9.18276ZM3.43545 7.1257L3.83012 6.81873H3.83012L3.43545 7.1257ZM3.51769 5.80465L3.16414 5.4511L3.51769 5.80465ZM5.80478 3.51756L6.15834 3.87111L5.80478 3.51756ZM7.12583 3.43531L6.81886 3.82999L7.12583 3.43531ZM9.18294 5.03529L8.87597 5.42996L9.12713 5.62531L9.41047 5.48052L9.18294 5.03529ZM10.5673 4.46129L10.7215 4.93692L11.024 4.83884L11.0635 4.52331L10.5673 4.46129ZM11.8828 0.5C11.1263 0.5 10.4882 1.0633 10.3944 1.81395L11.3866 1.93798C11.4179 1.68777 11.6306 1.5 11.8828 1.5V0.5ZM15.1172 0.5H11.8828V1.5H15.1172V0.5ZM16.6056 1.81395C16.5118 1.06331 15.8737 0.5 15.1172 0.5V1.5C15.3694 1.5 15.5821 1.68777 15.6134 1.93798L16.6056 1.81395ZM16.9288 4.39928L16.6056 1.81395L15.6134 1.93798L15.9365 4.52331L16.9288 4.39928ZM18.0447 4.59011C17.5788 4.352 17.0916 4.14932 16.5869 3.98567L16.2785 4.93692C16.7323 5.08408 17.1705 5.26635 17.5896 5.48057L18.0447 4.59011ZM19.5673 3.04069L17.5102 4.64066L18.1241 5.43001L20.1812 3.83005L19.5673 3.04069ZM21.5489 3.16406C21.0139 2.62915 20.1644 2.57626 19.5673 3.04069L20.1812 3.83005C20.3803 3.67523 20.6634 3.69286 20.8418 3.87117L21.5489 3.16406ZM23.836 5.45115L21.5489 3.16406L20.8418 3.87117L23.1288 6.15826L23.836 5.45115ZM23.9593 7.43272C24.4238 6.83559 24.3709 5.98607 23.836 5.45115L23.1288 6.15826C23.3071 6.33657 23.3248 6.61974 23.17 6.81878L23.9593 7.43272ZM22.3593 9.48983L23.9593 7.43272L23.17 6.81878L21.57 8.87589L22.3593 9.48983ZM23.0143 10.4131C22.8507 9.90837 22.648 9.42125 22.4099 8.95533L21.5194 9.41039C21.7337 9.82956 21.9159 10.2677 22.0631 10.7215L23.0143 10.4131ZM25.1861 10.3944L22.6007 10.0712L22.4767 11.0635L25.062 11.3866L25.1861 10.3944ZM26.5 11.8828C26.5 11.1263 25.9367 10.4882 25.1861 10.3944L25.062 11.3866C25.3122 11.4179 25.5 11.6306 25.5 11.8828H26.5ZM26.5 15.1172V11.8828H25.5V15.1172H26.5ZM25.1861 16.6056C25.9367 16.5118 26.5 15.8737 26.5 15.1172H25.5C25.5 15.3694 25.3122 15.5821 25.062 15.6134L25.1861 16.6056ZM22.6007 16.9288L25.1861 16.6056L25.062 15.6134L22.4767 15.9365L22.6007 16.9288ZM22.4099 18.0446C22.648 17.5787 22.8507 17.0916 23.0143 16.5869L22.0631 16.2785C21.9159 16.7323 21.7337 17.1704 21.5195 17.5895L22.4099 18.0446ZM23.9594 19.5672L22.3594 17.5101L21.57 18.124L23.17 20.1812L23.9594 19.5672ZM23.836 21.5488C24.3709 21.0139 24.4238 20.1643 23.9594 19.5672L23.17 20.1812C23.3248 20.3802 23.3072 20.6634 23.1289 20.8417L23.836 21.5488ZM21.5489 23.8359L23.836 21.5488L23.1289 20.8417L20.8418 23.1288L21.5489 23.8359ZM19.5673 23.9592C20.1645 24.4237 21.014 24.3708 21.5489 23.8359L20.8418 23.1288C20.6635 23.3071 20.3803 23.3247 20.1813 23.1699L19.5673 23.9592ZM17.5103 22.3593L19.5673 23.9592L20.1813 23.1699L18.1242 21.5699L17.5103 22.3593ZM16.5869 23.0143C17.0917 22.8507 17.5788 22.648 18.0448 22.4098L17.5897 21.5194C17.1705 21.7336 16.7324 21.9159 16.2785 22.0631L16.5869 23.0143ZM16.6056 25.1861L16.9288 22.6007L15.9365 22.4767L15.6134 25.062L16.6056 25.1861ZM15.1172 26.5C15.8737 26.5 16.5118 25.9367 16.6056 25.1861L15.6134 25.062C15.5821 25.3122 15.3694 25.5 15.1172 25.5V26.5ZM11.8828 26.5H15.1172V25.5H11.8828V26.5ZM10.3944 25.1861C10.4882 25.9367 11.1263 26.5 11.8828 26.5V25.5C11.6306 25.5 11.4179 25.3122 11.3866 25.062L10.3944 25.1861ZM10.0712 22.6007L10.3944 25.1861L11.3866 25.062L11.0635 22.4767L10.0712 22.6007ZM8.95533 22.4099C9.42125 22.648 9.90837 22.8507 10.4131 23.0143L10.7215 22.0631C10.2677 21.9159 9.82955 21.7337 9.41039 21.5194L8.95533 22.4099ZM7.43274 23.9593L9.48983 22.3593L8.87589 21.57L6.8188 23.1699L7.43274 23.9593ZM5.45117 23.8359C5.98609 24.3708 6.83561 24.4237 7.43274 23.9593L6.8188 23.1699C6.61976 23.3248 6.33658 23.3071 6.15828 23.1288L5.45117 23.8359ZM3.16408 21.5488L5.45117 23.8359L6.15828 23.1288L3.87119 20.8417L3.16408 21.5488ZM3.04071 19.5673C2.57628 20.1644 2.62916 21.0139 3.16408 21.5488L3.87119 20.8417C3.69288 20.6634 3.67525 20.3803 3.83006 20.1812L3.04071 19.5673ZM4.64066 17.5102L3.04071 19.5673L3.83006 20.1812L5.43002 18.1241L4.64066 17.5102ZM3.98567 16.5869C4.14933 17.0916 4.352 17.5788 4.59011 18.0447L5.48057 17.5896C5.26635 17.1705 5.08408 16.7323 4.93692 16.2785L3.98567 16.5869ZM1.81395 16.6056L4.39928 16.9288L4.52331 15.9365L1.93798 15.6134L1.81395 16.6056ZM0.5 15.1172C0.5 15.8737 1.0633 16.5118 1.81395 16.6056L1.93798 15.6134C1.68777 15.5821 1.5 15.3694 1.5 15.1172H0.5ZM0.5 11.8828V15.1172H1.5V11.8828H0.5ZM1.81395 10.3944C1.06331 10.4882 0.5 11.1263 0.5 11.8828H1.5C1.5 11.6306 1.68777 11.4179 1.93798 11.3866L1.81395 10.3944ZM4.39928 10.0712L1.81395 10.3944L1.93798 11.3866L4.52331 11.0635L4.39928 10.0712ZM4.59016 8.95522C4.35203 9.42118 4.14934 9.90833 3.98567 10.4131L4.93692 10.7215C5.08409 10.2676 5.26638 9.82949 5.48061 9.41029L4.59016 8.95522ZM5.43006 8.87579L3.83012 6.81873L3.04077 7.43267L4.64071 9.48973L5.43006 8.87579ZM3.83012 6.81873C3.67531 6.61968 3.69294 6.33651 3.87124 6.1582L3.16414 5.4511C2.62922 5.98601 2.57633 6.83553 3.04077 7.43267L3.83012 6.81873ZM3.87124 6.1582L6.15834 3.87111L5.45123 3.164L3.16414 5.4511L3.87124 6.1582ZM6.15834 3.87111C6.33664 3.69281 6.61982 3.67518 6.81886 3.82999L7.4328 3.04064C6.83567 2.5762 5.98615 2.62909 5.45123 3.164L6.15834 3.87111ZM6.81886 3.82999L8.87597 5.42996L9.48991 4.64061L7.4328 3.04064L6.81886 3.82999ZM10.4131 3.98567C9.90841 4.14931 9.42131 4.35197 8.95542 4.59006L9.41047 5.48052C9.82961 5.26633 10.2677 5.08407 10.7215 4.93692L10.4131 3.98567ZM10.3944 1.81395L10.0712 4.39928L11.0635 4.52331L11.3866 1.93798L10.3944 1.81395Z" fill="#8C8C8C"/>
</svg>
