<svg width="24" height="27" viewBox="0 0 24 27" fill="none" xmlns="http://www.w3.org/2000/svg">
<path d="M23 6.56982V25C23 25.5523 22.5523 26 22 26H2C1.44772 26 1 25.5523 1 25V2C1 1.44772 1.44772 1 2 1H16.2961" stroke="#8C8C8C"/>
<path d="M18.9705 4.84783V2.13386L20.5133 3.54309L21.9418 4.84783H18.9705Z" stroke="#8C8C8C"/>
<path d="M17.7349 10.3215C17.1729 9.38825 15.3746 7.52176 12.6772 7.52176C9.30542 7.52176 6.49561 10.3215 6.49561 13.6812C6.49561 17.0409 9.30542 19.8406 12.6772 19.8406C15.3746 19.8406 17.1729 17.9741 17.7349 17.0409" stroke="#8C8C8C"/>
<path d="M10.9915 5.4686V7.52174" stroke="#8C8C8C"/>
<path d="M10.9915 19.8406V21.8937" stroke="#8C8C8C"/>
<path d="M14.3632 5.4686V7.52174" stroke="#8C8C8C"/>
<path d="M14.3632 19.8406V21.8937" stroke="#8C8C8C"/>
<path d="M14.9872 13.6811C14.9872 14.0498 14.7837 14.4263 14.3692 14.7292C13.9551 15.0318 13.3586 15.2343 12.6774 15.2343C11.9962 15.2343 11.3997 15.0318 10.9855 14.7292C10.571 14.4263 10.3676 14.0498 10.3676 13.6811C10.3676 13.3125 10.571 12.936 10.9855 12.6331C11.3997 12.3305 11.9962 12.128 12.6774 12.128C13.3586 12.128 13.9551 12.3305 14.3692 12.6331C14.7837 12.936 14.9872 13.3125 14.9872 13.6811Z" stroke="#8C8C8C"/>
<path d="M16.2801 13.9825C15.6712 12.8983 14.2872 12.1413 12.6774 12.1413C11.0676 12.1413 9.68366 12.8983 9.07471 13.9825" stroke="#8C8C8C"/>
</svg>
