<svg width="26" height="26" viewBox="0 0 26 26" fill="none" xmlns="http://www.w3.org/2000/svg">
<rect x="0.5" y="9.22266" width="5.25417" height="14.6354" rx="1.5" stroke="#8C8C8C"/>
<path d="M5.73303 11.3286C7.81776 8.54894 12.1957 2.67697 13.0296 1.42613C14.0719 -0.137411 17.199 2.98967 16.6778 4.55322C16.2609 5.80405 15.4617 8.89639 15.1143 10.2862C16.6778 10.2862 20.0134 10.2862 20.8473 10.2862C21.8896 10.2862 26.0591 11.8497 23.9744 15.498C21.8896 19.1463 20.3261 21.7522 19.2837 23.3157C18.2414 24.8793 16.6778 24.8793 15.1143 24.8793C13.5507 24.8793 11.466 24.8793 10.4237 24.8793C9.3813 24.8793 5.73303 22.7945 5.73303 21.231" stroke="#8C8C8C"/>
</svg>
