<svg width="55" height="40" viewBox="0 0 55 40" fill="none" xmlns="http://www.w3.org/2000/svg">
<mask id="path-1-inside-1" fill="white">
<path fill-rule="evenodd" clip-rule="evenodd" d="M47 20C47 31.0457 38.0457 40 27 40C15.9543 40 7 31.0457 7 20C7 8.9543 15.9543 0 27 0C38.0457 0 47 8.9543 47 20ZM24.4064 4.16064H26.7618V7.95338C26.9991 7.93862 27.2377 7.93112 27.4773 7.93112C27.8443 7.93112 28.1993 7.94075 28.5426 7.95932V4.16064H30.8979V8.2535C35.346 9.15993 37.3322 11.7835 38.7121 13.6062L38.7147 13.6096L35.8294 14.6969C35.7415 14.5623 35.6471 14.4073 35.5434 14.2369L35.5433 14.2368L35.5432 14.2367C34.5455 12.5983 32.6844 9.54203 27.4773 9.54203C22.775 9.54203 19.0251 14.4644 19.0167 19.6933H19.0179V20.4867H19.0168C19.0286 25.7129 22.7772 30.6307 27.4773 30.6307C32.6844 30.6307 34.5456 27.5744 35.5433 25.936L35.5433 25.936C35.6471 25.7656 35.7415 25.6105 35.8294 25.4758L38.7147 26.5631L38.7121 26.5665C37.3323 28.3892 35.3461 31.0128 30.8979 31.9192V35.8394H28.5426V32.2134C28.1993 32.2319 27.8444 32.2416 27.4773 32.2416C27.2377 32.2416 26.9991 32.2341 26.7618 32.2193V35.8394H24.4064V31.8292C19.3109 30.4479 15.298 25.7721 15.2854 20.4867H15.2854V20.4618V19.8904V19.7109H15.2854C15.2854 14.4152 19.3029 9.72696 24.4064 8.34348V4.16064ZM23.595 18.2211C22.0714 18.7968 20.7576 19.7009 20.0943 20.9736C21.5855 18.1124 24.5803 15.5175 28.0329 15.5175C31.4855 15.5175 34.4803 18.1124 35.9715 20.9736C35.3082 19.7009 33.9943 18.7967 32.4706 18.221C33.028 18.942 33.3527 19.8068 33.3527 20.7366C33.3527 23.2549 30.9709 25.2965 28.0328 25.2965C25.0947 25.2965 22.713 23.2549 22.713 20.7366C22.713 19.8069 23.0376 18.9421 23.595 18.2211ZM31.8327 20.7366C31.8327 22.2041 30.3597 23.7765 28.0328 23.7765C25.7059 23.7765 24.2329 22.2041 24.2329 20.7366C24.2329 19.2691 25.7059 17.6967 28.0328 17.6967C30.3597 17.6967 31.8327 19.2691 31.8327 20.7366ZM29.2008 20.7367C29.2008 21.3818 28.6779 21.9047 28.0328 21.9047C27.3878 21.9047 26.8649 21.3818 26.8649 20.7367C26.8649 20.0917 27.3878 19.5687 28.0328 19.5687C28.6779 19.5687 29.2008 20.0917 29.2008 20.7367Z"/>
</mask>
<path fill-rule="evenodd" clip-rule="evenodd" d="M47 20C47 31.0457 38.0457 40 27 40C15.9543 40 7 31.0457 7 20C7 8.9543 15.9543 0 27 0C38.0457 0 47 8.9543 47 20ZM24.4064 4.16064H26.7618V7.95338C26.9991 7.93862 27.2377 7.93112 27.4773 7.93112C27.8443 7.93112 28.1993 7.94075 28.5426 7.95932V4.16064H30.8979V8.2535C35.346 9.15993 37.3322 11.7835 38.7121 13.6062L38.7147 13.6096L35.8294 14.6969C35.7415 14.5623 35.6471 14.4073 35.5434 14.2369L35.5433 14.2368L35.5432 14.2367C34.5455 12.5983 32.6844 9.54203 27.4773 9.54203C22.775 9.54203 19.0251 14.4644 19.0167 19.6933H19.0179V20.4867H19.0168C19.0286 25.7129 22.7772 30.6307 27.4773 30.6307C32.6844 30.6307 34.5456 27.5744 35.5433 25.936L35.5433 25.936C35.6471 25.7656 35.7415 25.6105 35.8294 25.4758L38.7147 26.5631L38.7121 26.5665C37.3323 28.3892 35.3461 31.0128 30.8979 31.9192V35.8394H28.5426V32.2134C28.1993 32.2319 27.8444 32.2416 27.4773 32.2416C27.2377 32.2416 26.9991 32.2341 26.7618 32.2193V35.8394H24.4064V31.8292C19.3109 30.4479 15.298 25.7721 15.2854 20.4867H15.2854V20.4618V19.8904V19.7109H15.2854C15.2854 14.4152 19.3029 9.72696 24.4064 8.34348V4.16064ZM23.595 18.2211C22.0714 18.7968 20.7576 19.7009 20.0943 20.9736C21.5855 18.1124 24.5803 15.5175 28.0329 15.5175C31.4855 15.5175 34.4803 18.1124 35.9715 20.9736C35.3082 19.7009 33.9943 18.7967 32.4706 18.221C33.028 18.942 33.3527 19.8068 33.3527 20.7366C33.3527 23.2549 30.9709 25.2965 28.0328 25.2965C25.0947 25.2965 22.713 23.2549 22.713 20.7366C22.713 19.8069 23.0376 18.9421 23.595 18.2211ZM31.8327 20.7366C31.8327 22.2041 30.3597 23.7765 28.0328 23.7765C25.7059 23.7765 24.2329 22.2041 24.2329 20.7366C24.2329 19.2691 25.7059 17.6967 28.0328 17.6967C30.3597 17.6967 31.8327 19.2691 31.8327 20.7366ZM29.2008 20.7367C29.2008 21.3818 28.6779 21.9047 28.0328 21.9047C27.3878 21.9047 26.8649 21.3818 26.8649 20.7367C26.8649 20.0917 27.3878 19.5687 28.0328 19.5687C28.6779 19.5687 29.2008 20.0917 29.2008 20.7367Z" fill="#F2CB96"/>
<path d="M26.7618 4.16064H27.7618V3.16064H26.7618V4.16064ZM24.4064 4.16064V3.16064H23.4064V4.16064H24.4064ZM26.7618 7.95338H25.7618V9.0175L26.8238 8.95145L26.7618 7.95338ZM28.5426 7.95932L28.4886 8.95786L29.5426 9.01486V7.95932H28.5426ZM28.5426 4.16064V3.16064H27.5426V4.16064H28.5426ZM30.8979 4.16064H31.8979V3.16064H30.8979V4.16064ZM30.8979 8.2535H29.8979V9.07027L30.6982 9.23336L30.8979 8.2535ZM38.7121 13.6062L37.9148 14.2098L37.9149 14.21L38.7121 13.6062ZM38.7147 13.6096L39.0673 14.5453L40.3203 14.0731L39.5118 13.0058L38.7147 13.6096ZM35.8294 14.6969L34.9919 15.2434L35.4307 15.9158L36.182 15.6327L35.8294 14.6969ZM35.5434 14.2369L36.3975 13.7168L36.397 13.7161L35.5434 14.2369ZM35.5433 14.2368L36.3969 13.7159L36.3966 13.7153L35.5433 14.2368ZM35.5432 14.2367L34.6891 14.7568L34.6899 14.7581L35.5432 14.2367ZM19.0167 19.6933L18.0167 19.6917L18.0151 20.6933H19.0167V19.6933ZM19.0179 19.6933H20.0179V18.6933H19.0179V19.6933ZM19.0179 20.4867V21.4867H20.0179V20.4867H19.0179ZM19.0168 20.4867V19.4867H18.0145L18.0168 20.4889L19.0168 20.4867ZM35.5433 25.936L36.3974 26.4562L36.4008 26.4505L35.5433 25.936ZM35.5433 25.936L34.6892 25.4159L34.6858 25.4215L35.5433 25.936ZM35.8294 25.4758L36.1821 24.54L35.4307 24.2568L34.9919 24.9293L35.8294 25.4758ZM38.7147 26.5631L39.5117 27.1671L40.3207 26.0997L39.0673 25.6274L38.7147 26.5631ZM38.7121 26.5665L37.9152 25.9625L37.9148 25.9629L38.7121 26.5665ZM30.8979 31.9192L30.6982 30.9393L29.8979 31.1024V31.9192H30.8979ZM30.8979 35.8394V36.8394H31.8979V35.8394H30.8979ZM28.5426 35.8394H27.5426V36.8394H28.5426V35.8394ZM28.5426 32.2134H29.5426V31.1579L28.4886 31.2148L28.5426 32.2134ZM26.7618 32.2193L26.8238 31.2212L25.7618 31.1552V32.2193H26.7618ZM26.7618 35.8394V36.8394H27.7618V35.8394H26.7618ZM24.4064 35.8394H23.4064V36.8394H24.4064V35.8394ZM24.4064 31.8292H25.4064V31.0642L24.6681 30.864L24.4064 31.8292ZM15.2854 20.4867L16.2854 20.4843L16.2831 19.4867H15.2854V20.4867ZM15.2854 20.4867H14.2854V21.4867H15.2854V20.4867ZM15.2854 19.7109H16.2854V18.7109H15.2854V19.7109ZM15.2854 19.7109H14.2854V20.7109H15.2854V19.7109ZM24.4064 8.34348L24.6681 9.30865L25.4064 9.10849V8.34348H24.4064ZM23.595 18.2211L24.3861 18.8327L26.548 16.0362L23.2415 17.2857L23.595 18.2211ZM32.4706 18.221L32.824 17.2856L29.5175 16.0362L31.6794 18.8326L32.4706 18.221ZM27 41C38.598 41 48 31.598 48 20H46C46 30.4934 37.4934 39 27 39V41ZM6 20C6 31.598 15.402 41 27 41V39C16.5066 39 8 30.4934 8 20H6ZM27 -1C15.402 -1 6 8.40202 6 20H8C8 9.50659 16.5066 1 27 1V-1ZM48 20C48 8.40202 38.598 -1 27 -1V1C37.4934 1 46 9.50659 46 20H48ZM26.7618 3.16064H24.4064V5.16064H26.7618V3.16064ZM27.7618 7.95338V4.16064H25.7618V7.95338H27.7618ZM27.4773 6.93112C27.2168 6.93112 26.9575 6.93927 26.6997 6.9553L26.8238 8.95145C27.0406 8.93797 27.2585 8.93112 27.4773 8.93112V6.93112ZM28.5966 6.96077C28.2348 6.94121 27.8618 6.93112 27.4773 6.93112V8.93112C27.8268 8.93112 28.1638 8.94029 28.4886 8.95786L28.5966 6.96077ZM27.5426 4.16064V7.95932H29.5426V4.16064H27.5426ZM30.8979 3.16064H28.5426V5.16064H30.8979V3.16064ZM31.8979 8.2535V4.16064H29.8979V8.2535H31.8979ZM39.5094 13.0026C38.1035 11.1455 35.9258 8.25752 31.0976 7.27364L30.6982 9.23336C34.7663 10.0623 36.561 12.4215 37.9148 14.2098L39.5094 13.0026ZM39.5118 13.0058L39.5092 13.0024L37.9149 14.21L37.9175 14.2134L39.5118 13.0058ZM36.182 15.6327L39.0673 14.5453L38.362 12.6738L35.4767 13.7612L36.182 15.6327ZM34.6893 14.757C34.7908 14.9237 34.8938 15.0931 34.9919 15.2434L36.6669 14.1505C36.5892 14.0315 36.5035 13.8909 36.3975 13.7168L34.6893 14.757ZM34.6897 14.7576L34.6898 14.7578L36.397 13.7161L36.3969 13.7159L34.6897 14.7576ZM34.6899 14.7581L34.69 14.7582L36.3966 13.7153L36.3965 13.7152L34.6899 14.7581ZM27.4773 10.542C29.8651 10.542 31.4139 11.236 32.4734 12.0631C33.5565 12.9088 34.1908 13.9384 34.6891 14.7568L36.3973 13.7165C35.898 12.8965 35.1028 11.5788 33.7042 10.4867C32.2819 9.37621 30.2965 8.54203 27.4773 8.54203V10.542ZM20.0167 19.6949C20.0205 17.3103 20.8806 14.9938 22.2638 13.2863C23.6463 11.5796 25.4941 10.542 27.4773 10.542V8.54203C24.7582 8.54203 22.3798 9.96566 20.7097 12.0274C19.0403 14.0882 18.0213 16.8473 18.0167 19.6917L20.0167 19.6949ZM19.0179 18.6933H19.0167V20.6933H19.0179V18.6933ZM20.0179 20.4867V19.6933H18.0179V20.4867H20.0179ZM19.0168 21.4867H19.0179V19.4867H19.0168V21.4867ZM27.4773 29.6307C25.495 29.6307 23.6481 28.5941 22.2658 26.8888C20.8828 25.1826 20.0222 22.8678 20.0168 20.4844L18.0168 20.4889C18.0232 23.3317 19.0428 26.0889 20.7121 28.1482C22.3821 30.2083 24.7595 31.6307 27.4773 31.6307V29.6307ZM34.6892 25.4159C34.1908 26.2343 33.5565 27.2639 32.4734 28.1096C31.414 28.9367 29.8652 29.6307 27.4773 29.6307V31.6307C30.2966 31.6307 32.2819 30.7965 33.7042 29.686C35.1029 28.5939 35.898 27.2762 36.3974 26.4562L34.6892 25.4159ZM34.6858 25.4215L34.6858 25.4216L36.4008 26.4505L36.4008 26.4505L34.6858 25.4215ZM34.9919 24.9293C34.8938 25.0797 34.7907 25.2492 34.6892 25.4159L36.3974 26.4561C36.5034 26.282 36.5892 26.1413 36.6669 26.0222L34.9919 24.9293ZM39.0673 25.6274L36.1821 24.54L35.4768 26.4115L38.362 27.4989L39.0673 25.6274ZM39.5091 27.1705L39.5117 27.1671L37.9177 25.9591L37.9152 25.9625L39.5091 27.1705ZM31.0976 32.8991C35.9258 31.9152 38.1035 29.0272 39.5094 27.1701L37.9148 25.9629C36.561 27.7512 34.7663 30.1104 30.6982 30.9393L31.0976 32.8991ZM31.8979 35.8394V31.9192H29.8979V35.8394H31.8979ZM28.5426 36.8394H30.8979V34.8394H28.5426V36.8394ZM27.5426 32.2134V35.8394H29.5426V32.2134H27.5426ZM27.4773 33.2416C27.8618 33.2416 28.2348 33.2315 28.5965 33.2119L28.4886 31.2148C28.1638 31.2324 27.8269 31.2416 27.4773 31.2416V33.2416ZM26.6997 33.2174C26.9575 33.2334 27.2168 33.2416 27.4773 33.2416V31.2416C27.2586 31.2416 27.0407 31.2347 26.8238 31.2212L26.6997 33.2174ZM27.7618 35.8394V32.2193H25.7618V35.8394H27.7618ZM24.4064 36.8394H26.7618V34.8394H24.4064V36.8394ZM23.4064 31.8292V35.8394H25.4064V31.8292H23.4064ZM14.2854 20.489C14.2992 26.2786 18.6681 31.3097 24.1448 32.7944L24.6681 30.864C19.9537 29.586 16.2968 25.2657 16.2854 20.4843L14.2854 20.489ZM15.2854 21.4867H15.2854V19.4867H15.2854V21.4867ZM14.2854 20.4618V20.4867H16.2854V20.4618H14.2854ZM14.2854 19.8904V20.4618H16.2854V19.8904H14.2854ZM14.2854 19.7109V19.8904H16.2854V19.7109H14.2854ZM15.2854 20.7109H15.2854V18.7109H15.2854V20.7109ZM24.1448 7.37832C18.6597 8.86524 14.2854 13.9099 14.2854 19.7109H16.2854C16.2854 14.9206 19.9461 10.5887 24.6681 9.30865L24.1448 7.37832ZM23.4064 4.16064V8.34348H25.4064V4.16064H23.4064ZM20.981 21.4358C21.4856 20.4678 22.5429 19.6877 23.9485 19.1565L23.2415 17.2857C21.5999 17.906 20.0296 18.9341 19.2075 20.5114L20.981 21.4358ZM28.0329 14.5175C24.0784 14.5175 20.8018 17.4525 19.2075 20.5114L20.981 21.4358C22.3693 18.7723 25.0822 16.5175 28.0329 16.5175V14.5175ZM36.8583 20.5114C35.264 17.4525 31.9874 14.5175 28.0329 14.5175V16.5175C30.9836 16.5175 33.6965 18.7723 35.0847 21.4358L36.8583 20.5114ZM32.1171 19.1565C33.5228 19.6876 34.5802 20.4678 35.0847 21.4358L36.8583 20.5114C36.0361 18.934 34.4657 17.9059 32.824 17.2856L32.1171 19.1565ZM34.3527 20.7366C34.3527 19.5664 33.9424 18.4898 33.2617 17.6094L31.6794 18.8326C32.1136 19.3943 32.3527 20.0473 32.3527 20.7366H34.3527ZM28.0328 26.2965C31.373 26.2965 34.3527 23.9463 34.3527 20.7366H32.3527C32.3527 22.5636 30.5688 24.2965 28.0328 24.2965V26.2965ZM21.713 20.7366C21.713 23.9463 24.6926 26.2965 28.0328 26.2965V24.2965C25.4968 24.2965 23.713 22.5636 23.713 20.7366H21.713ZM22.8038 17.6095C22.1232 18.4899 21.713 19.5664 21.713 20.7366H23.713C23.713 20.0473 23.952 19.3943 24.3861 18.8327L22.8038 17.6095ZM28.0328 24.7765C30.782 24.7765 32.8327 22.8779 32.8327 20.7366H30.8327C30.8327 21.5303 29.9373 22.7765 28.0328 22.7765V24.7765ZM23.2329 20.7366C23.2329 22.8779 25.2836 24.7765 28.0328 24.7765V22.7765C26.1283 22.7765 25.2329 21.5303 25.2329 20.7366H23.2329ZM28.0328 16.6967C25.2836 16.6967 23.2329 18.5953 23.2329 20.7366H25.2329C25.2329 19.9429 26.1283 18.6967 28.0328 18.6967V16.6967ZM32.8327 20.7366C32.8327 18.5953 30.782 16.6967 28.0328 16.6967V18.6967C29.9373 18.6967 30.8327 19.9429 30.8327 20.7366H32.8327ZM28.0328 22.9047C29.2302 22.9047 30.2008 21.9341 30.2008 20.7367H28.2008C28.2008 20.8295 28.1256 20.9047 28.0328 20.9047V22.9047ZM25.8649 20.7367C25.8649 21.9341 26.8355 22.9047 28.0328 22.9047V20.9047C27.9401 20.9047 27.8649 20.8295 27.8649 20.7367H25.8649ZM28.0328 18.5687C26.8355 18.5687 25.8649 19.5394 25.8649 20.7367H27.8649C27.8649 20.6439 27.9401 20.5687 28.0328 20.5687V18.5687ZM30.2008 20.7367C30.2008 19.5394 29.2302 18.5687 28.0328 18.5687V20.5687C28.1256 20.5687 28.2008 20.6439 28.2008 20.7367H30.2008Z" fill="#F2CB96" mask="url(#path-1-inside-1)"/>
<rect y="20" width="8" height="2" fill="#F2CB96"/>
<path fill-rule="evenodd" clip-rule="evenodd" d="M50.5 23.5981L55 21L50.5 18.4019V20H45V22H50.5V23.5981Z" fill="#F2CB96"/>
</svg>
