<svg width="14" height="18" viewBox="0 0 14 18" fill="none" xmlns="http://www.w3.org/2000/svg">
<path d="M9.43852 3.07285H1.54508C0.692623 3.07285 0 3.79437 0 4.67718V16.3999C0 17.2827 0.692623 18 1.54508 18H9.43443C10.2869 18 10.9795 17.2827 10.9795 16.3999V4.67294C10.9795 3.79013 10.2869 3.07285 9.43852 3.07285ZM1.34426 16.3957V4.67718C1.34426 4.56259 1.43443 4.47346 1.54098 4.47346H9.43033C9.54098 4.47346 9.62705 4.56683 9.62705 4.67718V16.3957C9.62705 16.5102 9.53689 16.5994 9.43033 16.5994H1.54508C1.43443 16.6036 1.34426 16.5102 1.34426 16.3957Z" fill="black"/>
<path d="M12.4549 0H4.56558C3.70902 0 3.0164 0.717284 3.0164 1.60009H4.36476C4.36476 1.4855 4.45492 1.39637 4.56148 1.39637H12.4508C12.5615 1.39637 12.6476 1.48974 12.6476 1.60009V13.327C12.6476 13.4416 12.4508 13.5308 12.4508 13.5308V14.9271C13.3033 14.9271 13.9959 14.2099 13.9959 13.327V1.60009C14 0.717284 13.3074 0 12.4549 0Z" fill="black"/>
</svg>
