<?xml version="1.0" encoding="utf-8"?>
<!-- Generator: Adobe Illustrator 24.0.1, SVG Export Plug-In . SVG Version: 6.00 Build 0)  -->
<svg version="1.1" id="Layer_1" xmlns="http://www.w3.org/2000/svg" xmlns:xlink="http://www.w3.org/1999/xlink" x="0px" y="0px"
	 viewBox="0 0 40 40" style="enable-background:new 0 0 40 40;" xml:space="preserve">
<style type="text/css">
	.st0{fill:#F2CB96;}
</style>
<g>
	<path class="st0" d="M25.9,19.3h1.8V20c0,2.1-0.8,4-2.3,5.4c-1.5,1.5-3.4,2.3-5.4,2.3c-4.2,0-7.7-3.4-7.7-7.7c0-2.1,0.8-4,2.3-5.5
		c2.1-2.1,5.3-2.8,8.1-1.8l0.4,0.1l1.9-2.8l-0.6-0.2C22.9,9.2,21.5,9,20,9c-3,0-5.7,1.1-7.8,3.2C10.1,14.3,9,17,9,20
		c0,6.1,5,11,11,11c3,0,5.7-1.1,7.8-3.2C29.9,25.7,31,23,31,20v-0.7h1.8l-3.4-5.1L25.9,19.3z"/>
	<path class="st0" d="M20,0C9,0,0,9,0,20s9,20,20,20s20-9,20-20S31,0,20,0z M32.8,21.2c-0.3,3-1.6,5.8-3.7,7.9
		c-2.4,2.4-5.7,3.8-9.1,3.8c-7.1,0-12.9-5.8-12.9-12.9c0-3.4,1.3-6.7,3.8-9.1s5.7-3.8,9.1-3.8c2.3,0,4.5,0.6,6.4,1.7l1.1,0.6
		l-3.9,5.8l-0.9-0.5c-2.2-1.1-5-0.7-6.8,1.1c-1.1,1.1-1.7,2.6-1.7,4.2c0,3.2,2.6,5.8,5.9,5.8c1.6,0,3-0.6,4.1-1.7
		c0.8-0.8,1.4-1.9,1.6-3h-3.2l6.9-10.3l7,10.3H32.8z"/>
</g>
</svg>
