<svg width="19" height="26" viewBox="0 0 19 26" fill="none" xmlns="http://www.w3.org/2000/svg">
<path fill-rule="evenodd" clip-rule="evenodd" d="M7.39671 0H9.30678V3.07575C9.49924 3.06378 9.69272 3.0577 9.88702 3.0577C10.1847 3.0577 10.4725 3.06551 10.7509 3.08057V0H12.661V3.31913C16.2682 4.0542 17.8789 6.18181 18.9979 7.65989L19 7.66264L16.6602 8.54443C16.5889 8.43518 16.5123 8.30939 16.4281 8.17117C15.619 6.84251 14.1097 4.36407 9.88702 4.36407C6.0737 4.36407 3.03272 8.35588 3.02593 12.5963H3.02687V13.2397H3.02598C3.03563 17.4778 6.07553 21.4659 9.88706 21.4659C14.1098 21.4659 15.619 18.9874 16.4281 17.6588L16.4281 17.6587C16.5123 17.5205 16.5889 17.3947 16.6602 17.2855L19 18.1673L18.9979 18.17C17.8789 19.6481 16.2682 21.7757 12.661 22.5108V25.6899H10.7509V22.7494C10.4725 22.7644 10.1847 22.7722 9.88706 22.7722C9.69274 22.7722 9.49925 22.7661 9.30678 22.7542V25.6899H7.39671V22.4378C3.26452 21.3176 0.0102703 17.5259 5.82092e-05 13.2397H3.41079e-05V13.2194V12.7561V12.6105H0C0 8.31598 3.25801 4.51404 7.39671 3.3921V0Z" fill="#F2CB96"/>
<path fill-rule="evenodd" clip-rule="evenodd" d="M4.33235 13.6346C4.87024 12.6025 5.93561 11.8693 7.17112 11.4024C6.71918 11.9871 6.45597 12.6883 6.45597 13.4422C6.45597 15.4845 8.38747 17.14 10.7701 17.14C13.1527 17.14 15.0842 15.4845 15.0842 13.4422C15.0842 12.6883 14.821 11.9871 14.369 11.4024C15.6046 11.8692 16.6701 12.6024 17.208 13.6346C15.9987 11.3142 13.5701 9.20987 10.7702 9.20987C7.97027 9.20987 5.54168 11.3142 4.33235 13.6346ZM10.7701 15.9074C12.6571 15.9074 13.8516 14.6323 13.8516 13.4422C13.8516 12.2521 12.6571 10.977 10.7701 10.977C8.88312 10.977 7.68858 12.2521 7.68858 13.4422C7.68858 14.6323 8.88312 15.9074 10.7701 15.9074ZM10.7701 14.3896C11.2933 14.3896 11.7173 13.9655 11.7173 13.4424C11.7173 12.9193 11.2933 12.4952 10.7701 12.4952C10.247 12.4952 9.82295 12.9193 9.82295 13.4424C9.82295 13.9655 10.247 14.3896 10.7701 14.3896Z" fill="#F2CB96"/>
</svg>
