<svg width="54" height="40" viewBox="0 0 54 40" fill="none" xmlns="http://www.w3.org/2000/svg">
<path fill-rule="evenodd" clip-rule="evenodd" d="M48 20C48 31.0457 39.0457 40 28 40C16.9543 40 8 31.0457 8 20C8 8.9543 16.9543 0 28 0C39.0457 0 48 8.9543 48 20ZM25.4064 4.16064H27.7618V7.95338C27.9991 7.93862 28.2377 7.93112 28.4773 7.93112C28.8443 7.93112 29.1993 7.94075 29.5426 7.95932V4.16064H31.8979V8.2535C36.346 9.15993 38.3322 11.7835 39.7121 13.6062L39.7147 13.6096L36.8294 14.6969C36.7415 14.5622 36.647 14.4071 36.5432 14.2367C35.5455 12.5983 33.6844 9.54203 28.4773 9.54203C23.775 9.54203 20.0251 14.4644 20.0167 19.6933H20.0179V20.4867H20.0168C20.0286 25.7129 23.7772 30.6307 28.4773 30.6307C33.6844 30.6307 35.5456 27.5744 36.5433 25.936C36.6471 25.7656 36.7415 25.6105 36.8294 25.4758L39.7147 26.5631L39.7121 26.5665C38.3323 28.3892 36.3461 31.0128 31.8979 31.9192V35.8394H29.5426V32.2134C29.1993 32.2319 28.8444 32.2416 28.4773 32.2416C28.2377 32.2416 27.9991 32.2341 27.7618 32.2193V35.8394H25.4064V31.8292C20.3109 30.4479 16.298 25.7721 16.2854 20.4867H16.2854V20.4618V19.8904V19.7109H16.2854C16.2854 14.4152 20.3029 9.72696 25.4064 8.34348V4.16064ZM24.595 18.2211C23.0714 18.7968 21.7576 19.7009 21.0943 20.9736C22.5855 18.1124 25.5803 15.5175 29.0329 15.5175C32.4855 15.5175 35.4803 18.1124 36.9715 20.9736C36.3082 19.7009 34.9943 18.7967 33.4706 18.221C34.028 18.942 34.3527 19.8068 34.3527 20.7366C34.3527 23.2549 31.9709 25.2965 29.0328 25.2965C26.0947 25.2965 23.713 23.2549 23.713 20.7366C23.713 19.8069 24.0376 18.9421 24.595 18.2211ZM32.8327 20.7366C32.8327 22.2041 31.3597 23.7765 29.0328 23.7765C26.7059 23.7765 25.2329 22.2041 25.2329 20.7366C25.2329 19.2691 26.7059 17.6967 29.0328 17.6967C31.3597 17.6967 32.8327 19.2691 32.8327 20.7366ZM30.2008 20.7367C30.2008 21.3818 29.6779 21.9047 29.0328 21.9047C28.3878 21.9047 27.8649 21.3818 27.8649 20.7367C27.8649 20.0917 28.3878 19.5687 29.0328 19.5687C29.6779 19.5687 30.2008 20.0917 30.2008 20.7367Z" fill="#F2CB96"/>
<rect x="54" y="22" width="8" height="2" transform="rotate(-180 54 22)" fill="#F2CB96"/>
<path fill-rule="evenodd" clip-rule="evenodd" d="M4.5 18.4019L2.27131e-07 21L4.5 23.5981L4.5 22L10 22L10 20L4.5 20L4.5 18.4019Z" fill="#F2CB96"/>
</svg>
