<svg width="19" height="19" viewBox="0 0 19 19" fill="none" xmlns="http://www.w3.org/2000/svg">
<path d="M17.2104 1.79009C14.8229 -0.597374 10.9384 -0.597337 8.55093 1.79013C6.92016 3.4209 6.35372 5.82414 7.05984 8.00451L0.164103 14.9003C0.0597141 15.0047 0.00100708 15.146 0.00100708 15.2939V18.4429C0.00100708 18.7506 0.249974 18.9995 0.557648 18.9995H3.70667C3.85452 18.9995 3.99587 18.9408 4.10022 18.8364L4.88735 18.0487C5.00747 17.9286 5.06618 17.7601 5.04662 17.591L4.94876 16.7452L6.12075 16.6348C6.38712 16.6098 6.59749 16.3995 6.62251 16.1331L6.73287 14.9611L7.5787 15.0595C7.73579 15.0807 7.89398 15.0279 8.01303 14.9225C8.13152 14.8165 8.19947 14.6654 8.19947 14.5067V13.4702H9.21708C9.36493 13.4702 9.50628 13.4115 9.61063 13.3071L11.0381 11.8985C13.2179 12.6052 15.5796 12.0815 17.2104 10.4496C19.5978 8.06214 19.5978 4.17756 17.2104 1.79009ZM15.6356 5.72629C14.9844 6.37752 13.9255 6.37752 13.2742 5.72629C12.623 5.07505 12.623 4.01614 13.2742 3.36491C13.9255 2.71367 14.9844 2.71367 15.6356 3.36491C16.2869 4.01614 16.2868 5.07505 15.6356 5.72629Z" fill="white"/>
</svg>
