<?xml version="1.0" encoding="utf-8"?>
<!-- Generator: Adobe Illustrator 23.0.3, SVG Export Plug-In . SVG Version: 6.00 Build 0)  -->
<svg version="1.1" id="Layer_1" xmlns="http://www.w3.org/2000/svg" xmlns:xlink="http://www.w3.org/1999/xlink" x="0px" y="0px"
	 viewBox="0 0 20.01 21.37" style="enable-background:new 0 0 20.01 21.37;" xml:space="preserve">
<path d="M18.77,8.6h-0.87c-0.41,0-0.76-0.27-0.92-0.65c0,0,0-0.01-0.01-0.01c-0.16-0.38-0.1-0.82,0.19-1.11l0.61-0.61
	c0.38-0.38,0.38-1.01,0-1.39l-1.77-1.77c-0.38-0.38-1.01-0.38-1.39,0l-0.61,0.61c-0.29,0.29-0.73,0.35-1.11,0.19
	c0,0-0.01,0-0.01-0.01c-0.38-0.16-0.65-0.51-0.65-0.92V2.07c0-0.54-0.44-0.98-0.98-0.98h-2.5c-0.54,0-0.98,0.44-0.98,0.98v0.87
	c0,0.41-0.27,0.76-0.65,0.92c0,0-0.01,0-0.01,0.01C6.73,4.02,6.29,3.96,6,3.67L5.39,3.06C5,2.67,4.38,2.67,4,3.06L2.23,4.83
	c-0.38,0.38-0.38,1.01,0,1.39l0.61,0.61C3.14,7.12,3.2,7.56,3.04,7.94c0,0,0,0.01-0.01,0.01C2.87,8.34,2.52,8.6,2.11,8.6H1.24
	c-0.54,0-0.98,0.44-0.98,0.98v2.5c0,0.54,0.44,0.98,0.98,0.98h0.87c0.41,0,0.76,0.27,0.92,0.65c0,0,0,0.01,0.01,0.01
	c0.16,0.38,0.1,0.82-0.19,1.11l-0.61,0.61c-0.38,0.38-0.38,1.01,0,1.39L4,18.61C4.38,19,5,19,5.39,18.61L6,18
	c0.29-0.29,0.73-0.35,1.11-0.19c0,0,0.01,0,0.01,0.01c0.38,0.16,0.65,0.51,0.65,0.92v0.87c0,0.54,0.44,0.98,0.98,0.98h2.5
	c0.54,0,0.98-0.44,0.98-0.98v-0.87c0-0.41,0.27-0.76,0.65-0.92c0,0,0.01,0,0.01-0.01c0.38-0.16,0.82-0.1,1.11,0.19l0.61,0.61
	c0.38,0.38,1.01,0.38,1.39,0l1.77-1.77c0.38-0.38,0.38-1.01,0-1.39l-0.61-0.61c-0.29-0.29-0.35-0.73-0.19-1.11c0,0,0-0.01,0.01-0.01
	c0.16-0.38,0.51-0.65,0.92-0.65h0.87c0.54,0,0.98-0.44,0.98-0.98v-2.5C19.75,9.04,19.31,8.6,18.77,8.6z M10.01,15.62
	c-2.64,0-4.78-2.14-4.78-4.78c0-2.64,2.14-4.78,4.78-4.78c2.64,0,4.78,2.14,4.78,4.78C14.79,13.48,12.65,15.62,10.01,15.62z"/>
</svg>
