<?xml version="1.0" encoding="utf-8"?>
<!-- Generator: Adobe Illustrator 23.0.3, SVG Export Plug-In . SVG Version: 6.00 Build 0)  -->
<svg version="1.1" id="Layer_1" xmlns="http://www.w3.org/2000/svg" xmlns:xlink="http://www.w3.org/1999/xlink" x="0px" y="0px"
	 viewBox="0 0 20.01 21.37" style="enable-background:new 0 0 20.01 21.37;" xml:space="preserve">
<path d="M0.41,2.09v16.79c0,0.98,0.79,1.77,1.77,1.77h15.45c0.98,0,1.77-0.79,1.77-1.77V2.09c0-0.98-0.79-1.77-1.77-1.77H2.18
	C1.2,0.33,0.41,1.12,0.41,2.09z M3,9.26c0.01-0.19,0.11-0.37,0.27-0.48c0.8-0.5,1.59-0.75,2.24-0.89C4.88,7.31,4.46,6.38,4.46,5.31
	c0-1.76,1.13-2.7,2.53-2.7c1.4,0,2.53,0.94,2.53,2.7c0,1.06-0.42,2-1.06,2.58c0.65,0.14,1.44,0.39,2.24,0.89
	c0.16,0.1,0.26,0.28,0.27,0.48c0.01,0.26,0.03,0.69,0.04,1.23H2.96C2.97,9.95,2.99,9.52,3,9.26z M10.42,17.95H3.57
	c-0.5,0-0.9-0.4-0.9-0.9c0-0.5,0.4-0.9,0.9-0.9h6.85c0.5,0,0.9,0.4,0.9,0.9C11.32,17.55,10.91,17.95,10.42,17.95z M14.66,14.83H3.57
	c-0.5,0-0.9-0.4-0.9-0.9s0.4-0.9,0.9-0.9h11.1c0.5,0,0.9,0.4,0.9,0.9S15.16,14.83,14.66,14.83z"/>
</svg>
