<svg width="23" height="21" viewBox="0 0 23 21" fill="none" xmlns="http://www.w3.org/2000/svg">
<mask id="path-1-inside-1_912_10770" fill="white">
<path fill-rule="evenodd" clip-rule="evenodd" d="M11.3773 17.2803C17.2926 17.2803 22.088 13.6359 22.088 9.14017C22.088 4.64448 17.2926 1 11.3773 1C5.46187 1 0.666504 4.64448 0.666504 9.14017C0.666504 11.0745 1.55423 12.8512 3.03695 14.2479L2.11171 19L6.54104 16.4052C7.9938 16.9649 9.63706 17.2803 11.3773 17.2803Z"/>
</mask>
<path d="M3.03695 14.2479L4.01852 14.439L4.12386 13.8979L3.72262 13.52L3.03695 14.2479ZM2.11171 19L1.13015 18.8089L0.707084 20.9819L2.61719 19.8629L2.11171 19ZM6.54104 16.4052L6.90054 15.4721L6.45112 15.299L6.03557 15.5424L6.54104 16.4052ZM21.088 9.14017C21.088 11.0084 20.0941 12.7713 18.3458 14.1C16.5968 15.4292 14.1364 16.2803 11.3773 16.2803V18.2803C14.5335 18.2803 17.4284 17.3092 19.556 15.6923C21.6842 14.0748 23.088 11.7677 23.088 9.14017H21.088ZM11.3773 2C14.1364 2 16.5968 2.85112 18.3458 4.18036C20.0941 5.50904 21.088 7.27197 21.088 9.14017H23.088C23.088 6.51268 21.6842 4.20553 19.556 2.58804C17.4284 0.971115 14.5335 0 11.3773 0V2ZM1.6665 9.14017C1.6665 7.27197 2.66044 5.50904 4.40869 4.18036C6.15769 2.85112 8.61813 2 11.3773 2V0C8.22099 0 5.32606 0.971115 3.19853 2.58804C1.07025 4.20553 -0.333496 6.51268 -0.333496 9.14017H1.6665ZM3.72262 13.52C2.4027 12.2766 1.6665 10.7509 1.6665 9.14017H-0.333496C-0.333496 11.398 0.705765 13.4258 2.35128 14.9758L3.72262 13.52ZM2.05538 14.0568L1.13015 18.8089L3.09328 19.1911L4.01852 14.439L2.05538 14.0568ZM2.61719 19.8629L7.04651 17.2681L6.03557 15.5424L1.60624 18.1372L2.61719 19.8629ZM11.3773 16.2803C9.75704 16.2803 8.23588 15.9866 6.90054 15.4721L6.18154 17.3384C7.75172 17.9433 9.51708 18.2803 11.3773 18.2803V16.2803Z" fill="#DEC27F" mask="url(#path-1-inside-1_912_10770)"/>
</svg>
