<svg width="21" height="21" viewBox="0 0 21 21" fill="none" xmlns="http://www.w3.org/2000/svg">
<circle cx="10.4615" cy="10.4615" r="9.96154" stroke="#DEC27F"/>
<path d="M14.8205 7.96506C14.3846 7.27159 12.9897 5.88464 10.8974 5.88464C8.28203 5.88464 6.10254 7.96506 6.10254 10.4616C6.10254 12.9581 8.28203 15.0385 10.8974 15.0385C12.9897 15.0385 14.3846 13.6515 14.8205 12.9581" stroke="#DEC27F"/>
<path d="M9.58984 4.35895V5.88459" stroke="#DEC27F"/>
<path d="M9.58984 15.0385V16.5641" stroke="#DEC27F"/>
<path d="M12.2053 4.35895V5.88459" stroke="#DEC27F"/>
<path d="M12.2053 15.0385V16.5641" stroke="#DEC27F"/>
<path d="M12.577 10.6795C12.577 11.268 11.9349 11.9231 10.8975 11.9231C9.86007 11.9231 9.21802 11.268 9.21802 10.6795C9.21802 10.091 9.86007 9.43591 10.8975 9.43591C11.9349 9.43591 12.577 10.091 12.577 10.6795Z" stroke="#DEC27F"/>
<path d="M13.692 10.6855C13.2197 9.87986 12.1462 9.31732 10.8975 9.31732C9.64886 9.31732 8.57537 9.87986 8.10303 10.6855" stroke="#DEC27F"/>
</svg>
