<svg width="28" height="29" viewBox="0 0 28 29" fill="none" xmlns="http://www.w3.org/2000/svg">
<path d="M19.1349 0.95166H9.1287C4.41339 0.95166 0.57251 4.82616 0.57251 9.58274V19.6765C0.57251 24.4331 4.41339 28.3076 9.1287 28.3076H19.1349C23.8502 28.3076 27.6911 24.4331 27.6911 19.6765V9.58274C27.6911 4.82616 23.8502 0.95166 19.1349 0.95166ZM24.7468 9.58274V19.6765C24.7468 22.8029 22.2231 25.3375 19.1349 25.3375H9.1287C6.02943 25.3375 3.51681 22.7918 3.51681 19.6765V9.58274C3.51681 6.45635 6.0405 3.92174 9.1287 3.92174H19.1349C22.2342 3.92174 24.7468 6.46751 24.7468 9.58274Z" fill="#DEC27F"/>
<path d="M14.1317 7.68506C10.3351 7.68506 7.23584 10.8003 7.23584 14.6413C7.23584 18.4711 10.324 21.5975 14.1317 21.5975C17.9394 21.5975 21.0276 18.4823 21.0276 14.6413C21.0276 10.8003 17.9283 7.68506 14.1317 7.68506ZM18.0833 14.6301C18.0833 16.8298 16.3123 18.6163 14.1317 18.6163C11.9512 18.6163 10.1801 16.8298 10.1801 14.6301C10.1801 12.4305 11.9512 10.644 14.1317 10.644C16.3123 10.644 18.0833 12.4416 18.0833 14.6301Z" fill="#DEC27F"/>
<path d="M21.3043 8.5222C21.9156 8.5222 22.4111 8.0223 22.4111 7.40563C22.4111 6.78897 21.9156 6.28906 21.3043 6.28906C20.693 6.28906 20.1974 6.78897 20.1974 7.40563C20.1974 8.0223 20.693 8.5222 21.3043 8.5222Z" fill="#DEC27F"/>
</svg>
