<svg width="27" height="25" viewBox="0 0 27 25" fill="none" xmlns="http://www.w3.org/2000/svg">
<g clip-path="url(#clip0)">
<path d="M1.53703 12.6827L7.49331 14.6548L9.7083 22.6062C9.93166 23.4454 10.8809 23.6971 11.4207 23.0677L14.4919 19.5221L20.5227 24.5153C21.2672 25.1238 22.3095 24.6622 22.4957 23.6552L26.4976 2.10884C26.7023 1.05984 25.7716 0.178689 24.8782 0.577307L1.46258 10.8574C0.699429 11.1931 0.755269 12.41 1.53703 12.6827ZM8.77763 13.8366L21.6209 4.8572C21.9001 4.62642 22.2165 5.08798 21.9559 5.36072L11.0857 16.2073C10.974 16.3122 10.8996 16.4591 10.8996 16.6269L10.4901 20.8229C10.4714 20.9697 10.3039 20.9697 10.2667 20.8439L8.53566 14.5919C8.4612 14.2981 8.55427 14.0044 8.77763 13.8366Z" fill="#DEC27F"/>
</g>
<defs>
<clipPath id="clip0">
<rect width="25.612" height="24.3157" fill="white" transform="translate(0.923828 0.471924)"/>
</clipPath>
</defs>
</svg>
