<svg width="26" height="24" viewBox="0 0 26 24" fill="none" xmlns="http://www.w3.org/2000/svg">
<path d="M8.85748 17.5003C9.43077 19.1088 10.492 20.5014 11.895 21.4863C13.2981 22.4712 14.9741 23 16.6923 23H24.3077C24.4913 23 24.6674 22.9276 24.7972 22.7986C24.9271 22.6697 25 22.4948 25 22.3125V14.75C25 12.64 24.1859 10.6102 22.7251 9.07791C21.2643 7.54567 19.2678 6.62746 17.1463 6.51209M9.30769 17.5H1.69231C1.5087 17.5 1.3326 17.4276 1.20277 17.2986C1.07294 17.1697 1 16.9948 1 16.8125V9.24998C1 7.06195 1.87527 4.96354 3.43326 3.41636C4.99125 1.86919 7.10433 1 9.30766 1C11.511 1 13.6241 1.86919 15.1821 3.41637C16.7401 4.96355 17.6154 7.06197 17.6154 9.25001C17.6154 11.438 16.7401 13.5365 15.1821 15.0836C13.6241 16.6308 11.511 17.5 9.30769 17.5Z" stroke="#DEC27F" stroke-width="1.5" stroke-linecap="round" stroke-linejoin="round"/>
</svg>
