<svg width="28" height="28" viewBox="0 0 28 28" fill="none" xmlns="http://www.w3.org/2000/svg">
<path d="M13.9873 18.3509C16.9818 18.3509 19.4093 15.9233 19.4093 12.9287C19.4093 9.93415 16.9818 7.50657 13.9873 7.50657C10.9928 7.50657 8.56533 9.93415 8.56533 12.9287C8.56533 15.9233 10.9928 18.3509 13.9873 18.3509ZM13.9873 18.3509C12.1855 18.3509 10.4179 18.8495 8.88197 19.7915C7.34605 20.7335 6.10075 22.0821 5.28391 23.6882M13.9873 18.3509C15.7891 18.3509 17.5547 18.8495 19.0906 19.7915C20.6265 20.7334 21.8718 22.0821 22.6887 23.6881M20.4936 4.25329H27M23.7468 1V7.50657M26.8381 11.9606C27.2689 14.6724 26.8299 17.451 25.5842 19.898C24.3385 22.3449 22.35 24.3346 19.9038 25.5817C17.4576 26.8289 14.6794 27.2694 11.9674 26.8402C9.25544 26.4109 6.74901 25.134 4.80748 23.1924C2.86596 21.2508 1.58905 18.7443 1.15983 16.0322C0.730609 13.3201 1.17112 10.5418 2.41821 8.09551C3.6653 5.64924 5.65492 3.66068 8.10181 2.41493C10.5487 1.16918 13.3272 0.730219 16.0389 1.16098" stroke="#DEC27F" stroke-width="1.5" stroke-linecap="round" stroke-linejoin="round"/>
</svg>
