<svg width="26" height="26" viewBox="0 0 26 26" fill="none" xmlns="http://www.w3.org/2000/svg">
<path d="M12.9832 13.0059L24.995 1M21.4769 4.5165C19.3491 2.39398 16.5018 1.14699 13.4983 1.02224C10.4947 0.897483 7.55369 1.90405 5.25707 3.8428C2.96045 5.78154 1.47551 8.51125 1.09603 11.4919C0.716549 14.4725 1.47017 17.4869 3.2078 19.9388C4.94544 22.3907 7.5405 24.1013 10.4796 24.7324C13.4187 25.3635 16.4877 24.869 19.0795 23.3468C21.6713 21.8245 23.5971 19.3854 24.4758 16.512C25.3546 13.6386 25.1223 10.5402 23.825 7.82971M17.23 8.76118C16.2371 7.76879 14.9276 7.15551 13.5293 7.02795C12.1309 6.90039 10.732 7.26661 9.57573 8.06295C8.41947 8.8593 7.57892 10.0354 7.2002 11.3869C6.82148 12.7384 6.92853 14.1798 7.50273 15.4606C8.07693 16.7414 9.08199 17.7805 10.3432 18.3975C11.6044 19.0145 13.0421 19.1703 14.4063 18.8378C15.7705 18.5053 16.975 17.7055 17.8105 16.5774C18.646 15.4494 19.0595 14.0644 18.9794 12.6632" stroke="#DEC27F" stroke-width="1.5" stroke-linecap="round" stroke-linejoin="round"/>
</svg>
