<svg width="19" height="13" viewBox="0 0 19 13" fill="none" xmlns="http://www.w3.org/2000/svg">
<circle cx="9.24992" cy="6.83329" r="3.35417" stroke="#DEC27F"/>
<path d="M17.9822 6.78928C17.9893 6.80891 17.9937 6.82342 17.9965 6.83329C17.9937 6.84316 17.9893 6.85767 17.9822 6.87731C17.9613 6.93479 17.9259 7.01381 17.8718 7.11415C17.764 7.31441 17.5976 7.57133 17.3742 7.86704C16.9281 8.45735 16.2756 9.17438 15.4658 9.86699C13.8362 11.2606 11.6359 12.5 9.25 12.5C6.86413 12.5 4.66384 11.2606 3.03423 9.86699C2.22436 9.17438 1.5719 8.45735 1.12582 7.86704C0.902363 7.57133 0.735996 7.31441 0.628166 7.11415C0.574135 7.01381 0.538657 6.93479 0.517819 6.87731C0.510701 6.85767 0.506254 6.84316 0.503516 6.83329C0.506254 6.82342 0.510701 6.80891 0.517819 6.78928C0.538657 6.7318 0.574135 6.65278 0.628166 6.55243C0.735996 6.35217 0.902363 6.09525 1.12582 5.79954C1.5719 5.20923 2.22436 4.4922 3.03423 3.79959C4.66384 2.40594 6.86413 1.16663 9.25 1.16663C11.6359 1.16663 13.8362 2.40594 15.4658 3.79959C16.2756 4.4922 16.9281 5.20923 17.3742 5.79954C17.5976 6.09525 17.764 6.35217 17.8718 6.55243C17.9259 6.65278 17.9613 6.7318 17.9822 6.78928Z" stroke="#DEC27F"/>
</svg>
