<svg width="19" height="15" viewBox="0 0 19 15" fill="none" xmlns="http://www.w3.org/2000/svg">
<line x1="15.9991" y1="0.353553" x2="1.99906" y2="14.3536" stroke="#DEC27F"/>
<circle cx="9.25016" cy="7.16667" r="3.35417" stroke="#DEC27F"/>
<path d="M17.9822 7.12265C17.9893 7.14228 17.9937 7.15679 17.9965 7.16667C17.9937 7.17654 17.9893 7.19105 17.9822 7.21068C17.9613 7.26816 17.9259 7.34718 17.8718 7.44753C17.764 7.64779 17.5976 7.9047 17.3742 8.20041C16.9281 8.79073 16.2756 9.50776 15.4658 10.2004C13.8362 11.594 11.6359 12.8333 9.25 12.8333C6.86413 12.8333 4.66384 11.594 3.03423 10.2004C2.22436 9.50776 1.5719 8.79073 1.12582 8.20041C0.902363 7.9047 0.735996 7.64779 0.628166 7.44753C0.574135 7.34718 0.538657 7.26816 0.517819 7.21068C0.510701 7.19105 0.506254 7.17654 0.503516 7.16667C0.506254 7.15679 0.510701 7.14228 0.517819 7.12265C0.538657 7.06517 0.574135 6.98615 0.628166 6.88581C0.735996 6.68554 0.902363 6.42863 1.12582 6.13292C1.5719 5.5426 2.22436 4.82558 3.03423 4.13297C4.66384 2.73932 6.86413 1.5 9.25 1.5C11.6359 1.5 13.8362 2.73932 15.4658 4.13297C16.2756 4.82558 16.9281 5.5426 17.3742 6.13292C17.5976 6.42863 17.764 6.68554 17.8718 6.88581C17.9259 6.98615 17.9613 7.06517 17.9822 7.12265Z" stroke="#DEC27F"/>
</svg>
