<svg width="24" height="22" viewBox="0 0 24 22" fill="none" xmlns="http://www.w3.org/2000/svg">
<path d="M8.20274 16.0003C8.72825 17.4626 9.70102 18.7285 10.9872 19.6239C12.2733 20.5192 13.8096 21 15.3846 21H22.3654C22.5337 21 22.6951 20.9342 22.8141 20.8169C22.9331 20.6997 23 20.5408 23 20.375V13.5C23 11.5818 22.2537 9.7365 20.9147 8.34356C19.5756 6.95061 17.7455 6.11587 15.8008 6.01099M8.61536 16H1.63461C1.4663 16 1.30489 15.9342 1.18587 15.817C1.06686 15.6997 1 15.5408 1 15.375V8.49998C1 6.51086 1.80233 4.60321 3.23048 3.19669C4.65863 1.79017 6.59562 1 8.61533 1C10.6351 1 12.5721 1.79018 14.0002 3.1967C15.4284 4.60322 16.2307 6.51088 16.2307 8.5C16.2307 10.4891 15.4284 12.3968 14.0002 13.8033C12.5721 15.2098 10.6351 16 8.61536 16Z" stroke="#DEC27F" stroke-width="1.5" stroke-linecap="round" stroke-linejoin="round"/>
</svg>
