<svg width="24" height="22" viewBox="0 0 24 22" fill="none" xmlns="http://www.w3.org/2000/svg">
<path d="M19.7917 14.6364C18.0198 14.6364 16.5834 16.0609 16.5834 17.8182C16.5834 19.5755 18.0198 21 19.7917 21C21.5636 21 23 19.5755 23 17.8182C23 16.0609 21.5636 14.6364 19.7917 14.6364ZM19.7917 14.6364L19.7915 10.0774C19.7914 8.63084 19.212 7.24355 18.1806 6.22067L13.8332 1.90909M13.8332 1.90909V6.45455M13.8332 1.90909H18.4164M4.20829 7.36364C5.98018 7.36364 7.41658 5.93909 7.41658 4.18182C7.41658 2.42455 5.98018 1 4.20829 1C2.4364 1 1 2.42455 1 4.18182C1 5.93909 2.4364 7.36364 4.20829 7.36364ZM4.20829 7.36364L4.20848 11.9226C4.20854 13.3692 4.78799 14.7565 5.81937 15.7793L10.1668 20.0909M10.1668 20.0909L10.1668 15.5455M10.1668 20.0909H5.58349" stroke="#DEC27F" stroke-width="1.5" stroke-linecap="round" stroke-linejoin="round"/>
</svg>
