<svg width="24" height="24" viewBox="0 0 24 24" fill="none" xmlns="http://www.w3.org/2000/svg">
<path d="M4.49995 16C2.56698 16 1 17.567 1 19.5C1 21.433 2.56698 23 4.49995 23C6.43292 23 7.9999 21.433 7.9999 19.5C7.9999 17.567 6.43292 16 4.49995 16ZM4.49995 16V8M4.49995 8C6.43292 8 7.9999 6.433 7.9999 4.5C7.9999 2.567 6.43292 1 4.49995 1C2.56698 1 1 2.567 1 4.5C1 6.433 2.56698 8 4.49995 8ZM4.49995 8L7.70082 11.8411C8.26391 12.5168 8.96866 13.0605 9.76519 13.4335C10.5617 13.8066 11.4305 14 12.3101 14H16.0001M23 13.5C23 15.433 21.433 17 19.5001 17C17.5671 17 16.0001 15.433 16.0001 13.5C16.0001 11.567 17.5671 10 19.5001 10C21.433 10 23 11.567 23 13.5Z" stroke="#DEC27F" stroke-width="1.5" stroke-linecap="round" stroke-linejoin="round"/>
</svg>
