<svg width="920" height="40" viewBox="0 0 920 40" fill="none" xmlns="http://www.w3.org/2000/svg">
<rect width="920" height="40" rx="4" fill="#363636"/>
<mask id="mask0" mask-type="alpha" maskUnits="userSpaceOnUse" x="0" y="0" width="920" height="40">
<rect width="920" height="40" rx="4" fill="#363636"/>
</mask>
<g mask="url(#mask0)">
<path d="M273 47L301 19.5L273 -8" stroke="#3A3A3A" stroke-width="20"/>
<path d="M649 47L677 19.5L649 -8" stroke="#3A3A3A" stroke-width="20"/>
<path d="M86 47L113 19.5L86 -8" stroke="#3A3A3A" stroke-width="20"/>
<path d="M461 47L488 19.5L461 -8" stroke="#3A3A3A" stroke-width="20"/>
<path d="M836 47L863 19.5L836 -8" stroke="#3A3A3A" stroke-width="20"/>
<path d="M-39 47L-11 19.5L-39 -8" stroke="#3A3A3A" stroke-width="20"/>
<path d="M336 47L364 19.5L336 -8" stroke="#3A3A3A" stroke-width="20"/>
<path d="M712 47L739 19.5L712 -8" stroke="#3A3A3A" stroke-width="20"/>
<path d="M148 47L175 19.5L148 -8" stroke="#3A3A3A" stroke-width="20"/>
<path d="M523 47L551 19.5L523 -8" stroke="#3A3A3A" stroke-width="20"/>
<path d="M898 47L926 19.5L898 -8" stroke="#3A3A3A" stroke-width="20"/>
<path d="M24 47L51 19.5L24 -8" stroke="#3A3A3A" stroke-width="20"/>
<path d="M399 47L426 19.5L399 -8" stroke="#3A3A3A" stroke-width="20"/>
<path d="M774 47L801 19.5L774 -8" stroke="#3A3A3A" stroke-width="20"/>
<path d="M210 47L238 19.5L210 -8" stroke="#3A3A3A" stroke-width="20"/>
<path d="M586 47L614 19.5L586 -8" stroke="#3A3A3A" stroke-width="20"/>
</g>
</svg>
