<svg width="918" height="21" viewBox="0 0 918 21" fill="none" xmlns="http://www.w3.org/2000/svg">
<line x1="1" y1="10.5" x2="918" y2="10.5001" stroke="#848484"/>
<circle cx="33.5" cy="10.5" r="2.5" fill="#848484"/>
<circle cx="490.5" cy="10.5" r="2.5" fill="#848484"/>
<circle cx="596.5" cy="10.5" r="2.5" fill="#848484"/>
<circle cx="175.5" cy="10.5" r="2.5" fill="#848484"/>
<circle cx="632.5" cy="10.5" r="2.5" fill="#848484"/>
<circle cx="281.5" cy="10.5" r="2.5" fill="#848484"/>
<circle cx="738.5" cy="10.5" r="2.5" fill="#848484"/>
<circle cx="317.5" cy="10.5" r="2.5" fill="#848484"/>
<circle cx="774.5" cy="10.5" r="2.5" fill="#848484"/>
<circle cx="425.5" cy="10.5" r="2.5" fill="#848484"/>
<circle cx="882.5" cy="10.5" r="2.5" fill="#848484"/>
<circle cx="459.5" cy="10.5" r="2.5" fill="#848484"/>
<circle cx="915.5" cy="10.5" r="2.5" fill="#848484"/>
<line x1="459.5" y1="21" x2="459.5" y2="2.18557e-08" stroke="#848484"/>
<line x1="915.5" y1="21" x2="915.5" y2="2.18557e-08" stroke="#848484"/>
<line x1="2.5" y1="21" x2="2.5" y2="2.18557e-08" stroke="#848484"/>
<line x1="3" y1="10.5" x2="135" y2="10.5" stroke="#848484"/>
<circle cx="2.5" cy="10.5" r="2.5" fill="#848484"/>
<circle cx="139.5" cy="10.5" r="2.5" fill="#848484"/>
</svg>
