<svg width="921" height="218" viewBox="0 0 921 218" fill="none" xmlns="http://www.w3.org/2000/svg">
<g clip-path="url(#clip0)">
<path d="M920.5 0.856018H0.5V217.856H920.5V0.856018Z" fill="#262626"/>
<g opacity="0.6">
<path opacity="0.6" d="M661.447 155.797L654.178 176.876L662.9 166.7L667.261 173.968L674.53 150.709L665.808 163.065L661.447 155.797Z" stroke="#F20D94" stroke-width="2" stroke-linecap="round" stroke-linejoin="round"/>
<path opacity="0.6" d="M281.961 40.0874L289.229 61.1663L280.507 50.9903L276.146 58.2589L268.877 34.9993L277.599 47.356L281.961 40.0874Z" stroke="#F20D94" stroke-width="2" stroke-linecap="round" stroke-linejoin="round"/>
<path opacity="0.6" d="M747.688 36.0329L762.901 31.7462L759.869 47.258L747.688 36.0329Z" stroke="#249FF0" stroke-width="2"/>
<path opacity="0.6" d="M140.864 110.85L144.806 126.155L129.367 122.775L140.864 110.85Z" stroke="#249FF0" stroke-width="2"/>
<path opacity="0.6" d="M347.118 182.888L352.699 168.101L363.383 179.748L347.118 182.888Z" stroke="#249FF0" stroke-width="2"/>
<path opacity="0.6" d="M500.369 157.761L484.255 162.85L489.344 178.964L505.458 173.875L500.369 157.761Z" stroke="#790ECC" stroke-width="2"/>
<path opacity="0.6" d="M808.64 90.2547L792.526 95.3433L797.615 111.457L813.729 106.369L808.64 90.2547Z" stroke="#790ECC" stroke-width="2"/>
<path opacity="0.6" d="M173.829 23.3413L157.719 18.2385L152.616 34.348L168.726 39.4508L173.829 23.3413Z" stroke="#790ECC" stroke-width="2"/>
<path opacity="0.6" d="M437.917 46.7699L437.641 39.55L430.421 39.8256L430.697 47.0455L437.917 46.7699Z" stroke="white" stroke-width="2"/>
<path opacity="0.6" d="M69.2478 149.165L68.9722 141.945L61.7523 142.221L62.0279 149.44L69.2478 149.165Z" stroke="white" stroke-width="2"/>
<path opacity="0.6" d="M569.794 200.298L574.369 194.706L568.777 190.131L564.202 195.723L569.794 200.298Z" stroke="white" stroke-width="2"/>
<path opacity="0.6" d="M243.856 169.014C246.026 169.014 247.784 167.256 247.784 165.086C247.784 162.916 246.026 161.158 243.856 161.158C241.686 161.158 239.928 162.916 239.928 165.086C239.928 167.256 241.686 169.014 243.856 169.014Z" stroke="white" stroke-width="2"/>
<path opacity="0.6" d="M850.572 60.1664C852.742 60.1664 854.5 58.4075 854.5 56.2379C854.5 54.0683 852.742 52.3094 850.572 52.3094C848.402 52.3094 846.643 54.0683 846.643 56.2379C846.643 58.4075 848.402 60.1664 850.572 60.1664Z" stroke="white" stroke-width="2"/>
<path opacity="0.6" d="M757.956 183.87H774.976" stroke="#E9ED3A" stroke-width="2" stroke-linecap="round"/>
<path opacity="0.6" d="M766.629 175.528V192.212" stroke="#E9ED3A" stroke-width="2" stroke-linecap="round"/>
<path opacity="0.6" d="M532.293 34.9993H549.313" stroke="#E9ED3A" stroke-width="2" stroke-linecap="round"/>
<path opacity="0.6" d="M540.966 26.6572V43.3415" stroke="#E9ED3A" stroke-width="2" stroke-linecap="round"/>
<path opacity="0.6" d="M84.9016 70.1007H101.922" stroke="#E9ED3A" stroke-width="2" stroke-linecap="round"/>
<path opacity="0.6" d="M93.5746 61.7586V78.4429" stroke="#E9ED3A" stroke-width="2" stroke-linecap="round"/>
<path opacity="0.6" d="M632.53 69.2078C637.196 69.2078 640.979 65.4249 640.979 60.7586C640.979 56.0922 637.196 52.3094 632.53 52.3094C627.864 52.3094 624.081 56.0922 624.081 60.7586C624.081 65.4249 627.864 69.2078 632.53 69.2078Z" stroke="#0ECC71" stroke-width="2"/>
<path opacity="0.6" d="M824.433 159.158C829.099 159.158 832.882 155.375 832.882 150.709C832.882 146.043 829.099 142.26 824.433 142.26C819.767 142.26 815.984 146.043 815.984 150.709C815.984 155.375 819.767 159.158 824.433 159.158Z" stroke="#0ECC71" stroke-width="2"/>
<path opacity="0.6" d="M160.811 192.426C165.477 192.426 169.26 188.643 169.26 183.977C169.26 179.311 165.477 175.528 160.811 175.528C156.145 175.528 152.362 179.311 152.362 183.977C152.362 188.643 156.145 192.426 160.811 192.426Z" stroke="#0ECC71" stroke-width="2"/>
</g>
<path opacity="0.1" d="M897.871 85.447H27.9699V140.908H897.871V85.447Z" fill="url(#paint0_radial)"/>
<path opacity="0.1" d="M897.871 96.3523H27.9699V130.002H897.871V96.3523Z" fill="url(#paint1_radial)"/>
<path opacity="0.1" d="M897.871 107.247H27.9699V119.107H897.871V107.247Z" fill="url(#paint2_radial)"/>
<path d="M224.108 124.5C225.188 124.5 226.088 123.6 226.088 122.52V112.656C226.088 111.576 225.188 110.676 224.108 110.676H214.28C212.984 110.676 211.904 111.756 211.904 113.052C211.904 114.348 212.984 115.428 214.28 115.428H221.192V119.748H212.948C209.96 119.748 207.764 117.444 207.764 114.456V111.648C207.764 108.66 209.96 106.356 212.948 106.356H223.82C225.116 106.356 226.196 105.276 226.196 103.98C226.196 102.684 225.116 101.604 223.82 101.604H212.84C207.152 101.604 202.796 105.96 202.796 111.648V114.456C202.796 120.144 207.152 124.5 212.84 124.5H224.108ZM290.363 122.412C290.363 123.78 291.479 124.896 292.847 124.896C294.215 124.896 295.331 123.78 295.331 122.412V110.748C295.331 105.492 291.299 101.604 286.151 101.604H281.903C276.755 101.604 272.723 105.492 272.723 110.748V122.412C272.723 123.78 273.839 124.896 275.207 124.896C276.575 124.896 277.691 123.78 277.691 122.412V110.748C277.691 108.084 279.455 106.356 281.903 106.356H286.151C288.599 106.356 290.363 108.084 290.363 110.748V112.584H281.435C280.139 112.584 279.059 113.664 279.059 114.96C279.059 116.256 280.139 117.336 281.435 117.336H290.363V122.412ZM371.497 122.412C371.497 123.78 372.613 124.896 373.981 124.896C375.349 124.896 376.465 123.78 376.465 122.412V109.2C376.465 104.556 373.333 101.604 369.049 101.604C364.765 101.604 361.633 104.556 361.633 109.2V117.66C361.633 119.1 360.553 120.216 359.185 120.216C357.817 120.216 356.737 119.1 356.737 117.66V109.2C356.737 104.556 353.605 101.604 349.321 101.604C345.037 101.604 341.905 104.556 341.905 109.2V122.412C341.905 123.78 343.021 124.896 344.389 124.896C345.757 124.896 346.873 123.78 346.873 122.412V108.912C346.873 107.472 347.953 106.356 349.321 106.356C350.689 106.356 351.769 107.472 351.769 108.912V117.372C351.769 122.016 354.901 124.968 359.185 124.968C363.469 124.968 366.601 122.016 366.601 117.372V108.912C366.601 107.472 367.681 106.356 369.049 106.356C370.417 106.356 371.497 107.472 371.497 108.912V122.412ZM440.389 124.5C441.685 124.5 442.765 123.42 442.765 122.124C442.765 120.828 441.685 119.748 440.389 119.748H428.077V115.428H439.417C440.713 115.428 441.793 114.348 441.793 113.052C441.793 111.756 440.713 110.676 439.417 110.676H428.077V106.356H440.389C441.685 106.356 442.765 105.276 442.765 103.98C442.765 102.684 441.685 101.604 440.389 101.604H425.089C424.009 101.604 423.109 102.504 423.109 103.584V122.52C423.109 123.6 424.009 124.5 425.089 124.5H440.389ZM507.569 124.5C508.865 124.5 509.945 123.42 509.945 122.124C509.945 120.828 508.865 119.748 507.569 119.748H495.797L509.297 105.816C509.693 105.384 509.945 104.772 509.945 104.124C509.945 102.72 508.829 101.604 507.425 101.604H490.361C489.065 101.604 487.985 102.684 487.985 103.98C487.985 105.276 489.065 106.356 490.361 106.356H502.133L488.633 120.288C488.237 120.72 487.985 121.332 487.985 121.98C487.985 123.384 489.101 124.5 490.505 124.5H507.569ZM569.21 124.5C574.898 124.5 579.254 120.144 579.254 114.456V111.648C579.254 105.96 574.898 101.604 569.21 101.604H563.594C557.906 101.604 553.55 105.96 553.55 111.648V114.456C553.55 120.144 557.906 124.5 563.594 124.5H569.21ZM574.286 114.456C574.286 117.444 572.09 119.748 569.102 119.748H563.702C560.714 119.748 558.518 117.444 558.518 114.456V111.648C558.518 108.66 560.714 106.356 563.702 106.356H569.102C572.09 106.356 574.286 108.66 574.286 111.648V114.456ZM646.939 117.336C646.939 118.92 645.679 120.216 644.095 120.216C642.511 120.216 641.179 118.92 641.179 117.336V109.632C641.179 104.952 637.795 101.604 633.331 101.604C628.867 101.604 625.483 104.952 625.483 109.632V122.412C625.483 123.78 626.599 124.896 627.967 124.896C629.335 124.896 630.451 123.78 630.451 122.412V109.236C630.451 107.652 631.711 106.356 633.295 106.356C634.879 106.356 636.211 107.652 636.211 109.236V116.94C636.211 121.62 639.595 124.968 644.059 124.968C648.523 124.968 651.907 121.62 651.907 116.94V104.16C651.907 102.792 650.791 101.676 649.423 101.676C648.055 101.676 646.939 102.792 646.939 104.16V117.336ZM715.845 124.5C717.141 124.5 718.221 123.42 718.221 122.124C718.221 120.828 717.141 119.748 715.845 119.748H703.533V115.428H714.873C716.169 115.428 717.249 114.348 717.249 113.052C717.249 111.756 716.169 110.676 714.873 110.676H703.533V106.356H715.845C717.141 106.356 718.221 105.276 718.221 103.98C718.221 102.684 717.141 101.604 715.845 101.604H700.545C699.465 101.604 698.565 102.504 698.565 103.584V122.52C698.565 123.6 699.465 124.5 700.545 124.5H715.845Z" fill="url(#paint3_linear)" stroke="url(#paint4_radial)"/>
</g>
<defs>
<radialGradient id="paint0_radial" cx="0" cy="0" r="1" gradientUnits="userSpaceOnUse" gradientTransform="translate(462.92 113.177) rotate(90) scale(27.7304 434.951)">
<stop stop-color="#2E8EEB"/>
<stop offset="1" stop-color="#2E8EEB" stop-opacity="0"/>
</radialGradient>
<radialGradient id="paint1_radial" cx="0" cy="0" r="1" gradientUnits="userSpaceOnUse" gradientTransform="translate(462.92 113.177) rotate(90) scale(16.825 434.951)">
<stop stop-color="#2E8EEB"/>
<stop offset="1" stop-color="#2E8EEB" stop-opacity="0"/>
</radialGradient>
<radialGradient id="paint2_radial" cx="0" cy="0" r="1" gradientUnits="userSpaceOnUse" gradientTransform="translate(462.92 113.177) rotate(90) scale(5.92995 434.951)">
<stop stop-color="#2E8EEB"/>
<stop offset="1" stop-color="#2E8EEB" stop-opacity="0"/>
</radialGradient>
<linearGradient id="paint3_linear" x1="719.5" y1="99.9861" x2="215.892" y2="198.574" gradientUnits="userSpaceOnUse">
<stop stop-color="#790ECC"/>
<stop offset="0.505208" stop-color="#249FF0"/>
<stop offset="1" stop-color="#F20D94"/>
</linearGradient>
<radialGradient id="paint4_radial" cx="0" cy="0" r="1" gradientUnits="userSpaceOnUse" gradientTransform="translate(460.509 113.286) rotate(90) scale(11.682 257.712)">
<stop stop-color="white" stop-opacity="0.47"/>
<stop offset="1" stop-color="white" stop-opacity="0.1"/>
</radialGradient>
<clipPath id="clip0">
<rect width="920" height="218" fill="white" transform="translate(0.5)"/>
</clipPath>
</defs>
</svg>
