<svg width="27" height="41" viewBox="0 0 27 41" fill="none" xmlns="http://www.w3.org/2000/svg">
<path d="M4.35 1.7V0.699997H3.35V1.7H4.35ZM4.35 8.25H3.35V9.25H4.35V8.25ZM13.5 8.25L14.3889 8.70812L15.1404 7.25H13.5V8.25ZM6.8 21.25L5.91111 20.7919L5.15962 22.25H6.8V21.25ZM8.05 29.8L8.9026 29.2774L8.33565 28.3524L7.45981 28.9927L8.05 29.8ZM2.1 34.15L1.50981 33.3427L0.706768 33.9298L1.28965 34.7359L2.1 34.15ZM17.55 14.9L16.6638 14.4367L16.1398 15.4392L17.1989 15.8363L17.55 14.9ZM24.45 1.7L25.3362 2.16325L26.1011 0.699997H24.45V1.7ZM3.35 1.7V8.25H5.35V1.7H3.35ZM4.35 9.25H13.5V7.25H4.35V9.25ZM12.6111 7.79188L5.91111 20.7919L7.68889 21.7081L14.3889 8.70812L12.6111 7.79188ZM6.8 22.25H12.45V20.25H6.8V22.25ZM12.45 22.25C14.8678 22.25 16.8 24.0719 16.8 26.9H18.8C18.8 23.0281 16.0322 20.25 12.45 20.25V22.25ZM16.8 26.9C16.8 29.3464 14.9003 31.4 12.45 31.4V33.4C16.0997 33.4 18.8 30.3536 18.8 26.9H16.8ZM12.45 31.4C11.0012 31.4 9.70051 30.5793 8.9026 29.2774L7.1974 30.3226C8.29949 32.1207 10.1988 33.4 12.45 33.4V31.4ZM7.45981 28.9927L1.50981 33.3427L2.69019 34.9573L8.64019 30.6073L7.45981 28.9927ZM1.28965 34.7359C3.80546 38.2153 7.84296 40.6 12.45 40.6V38.6C8.55704 38.6 5.09454 36.5847 2.91035 33.5641L1.28965 34.7359ZM12.45 40.6C20.2222 40.6 26.35 34.4321 26.35 26.3H24.35C24.35 33.3679 19.0778 38.6 12.45 38.6V40.6ZM26.35 26.3C26.35 20.746 23.1033 15.9145 17.9011 13.9637L17.1989 15.8363C21.5967 17.4855 24.35 21.554 24.35 26.3H26.35ZM18.4362 15.3633L25.3362 2.16325L23.5638 1.23674L16.6638 14.4367L18.4362 15.3633ZM24.45 0.699997H4.35V2.7H24.45V0.699997Z" fill="#909090"/>
</svg>
