<svg width="29" height="41" viewBox="0 0 29 41" fill="none" xmlns="http://www.w3.org/2000/svg">
<path d="M14.25 1.75V0.749997H13.6695L13.3816 1.25411L14.25 1.75ZM3.8 20.05L4.66824 20.5461L4.66839 20.5459L3.8 20.05ZM15.05 14.1L14.1785 13.6096L13.3736 15.0399L15.0138 15.0993L15.05 14.1ZM22 1.75L22.8715 2.24043L23.7102 0.749997H22V1.75ZM13.3816 1.25411L2.93161 19.5541L4.66839 20.5459L15.1184 2.24588L13.3816 1.25411ZM2.93176 19.5539C1.6693 21.7632 0.8 24.3334 0.8 26.95H2.8C2.8 24.7666 3.5307 22.5368 4.66824 20.5461L2.93176 19.5539ZM0.8 26.95C0.8 34.4523 6.99772 40.65 14.5 40.65V38.65C8.10229 38.65 2.8 33.3477 2.8 26.95H0.8ZM14.5 40.65C22.2497 40.65 28.35 34.4548 28.35 26.95H26.35C26.35 33.3452 21.1503 38.65 14.5 38.65V40.65ZM28.35 26.95C28.35 19.4692 22.5314 13.3704 15.0862 13.1007L15.0138 15.0993C21.3686 15.3296 26.35 20.5308 26.35 26.95H28.35ZM15.9215 14.5904L22.8715 2.24043L21.1285 1.25957L14.1785 13.6096L15.9215 14.5904ZM22 0.749997H14.25V2.75H22V0.749997ZM14.5 22.35C16.9175 22.35 18.8 24.1215 18.8 26.95H20.8C20.8 23.0785 18.0825 20.35 14.5 20.35V22.35ZM18.8 26.95C18.8 29.453 16.944 31.45 14.5 31.45V33.45C18.156 33.45 20.8 30.447 20.8 26.95H18.8ZM14.5 31.45C12.256 31.45 10.3 29.453 10.3 26.95H8.3C8.3 30.447 11.044 33.45 14.5 33.45V31.45ZM10.3 26.95C10.3 24.1152 12.2387 22.35 14.5 22.35V20.35C11.0613 20.35 8.3 23.0848 8.3 26.95H10.3Z" fill="#909090"/>
</svg>
