<?xml version="1.0" encoding="utf-8"?>
<!-- Generator: Adobe Illustrator 25.4.1, SVG Export Plug-In . SVG Version: 6.00 Build 0)  -->
<svg version="1.1" id="Layer_1" xmlns="http://www.w3.org/2000/svg" xmlns:xlink="http://www.w3.org/1999/xlink" x="0px" y="0px"
	 viewBox="0 0 215.4 281.2" style="enable-background:new 0 0 215.4 281.2;" xml:space="preserve">
<style type="text/css">
	.st0{fill:url(#SVGID_1_);}
	.st1{fill:#FFD3AD;}
</style>
<linearGradient id="SVGID_1_" gradientUnits="userSpaceOnUse" x1="199.0338" y1="14.0334" x2="15.6684" y2="194.9756">
	<stop  offset="8.022210e-02" style="stop-color:#FFD3AD"/>
	<stop  offset="0.4256" style="stop-color:#E8BE99"/>
	<stop  offset="0.8705" style="stop-color:#C59D79"/>
</linearGradient>
<path class="st0" d="M14.2,13.1v184.6h184.6V13.1H14.2z M171.5,173.6l-42,17.1h-8l-26.2-22.9l-42.4,22.9H21.1v-10.9h33.6l39.7-21.4
	l24.6,21.4h11.9l39.8-16.2l21.2,14.6v9.5L171.5,173.6z M184.4,190.8h-37l23.2-9.5L184.4,190.8z M111.2,190.8h-44l27.2-14.7
	L111.2,190.8z M171.5,155.8l-42,17.1h-8L95.3,150l-42.4,22.9H21.1V162h33.6l39.7-21.4L119,162h11.9l39.8-16.2l21.2,14.6v9.5
	L171.5,155.8z M171.5,138l-42,17.1h-8l-26.2-22.9l-42.4,22.9H21.1v-10.9h33.6l39.7-21.4l24.6,21.4h11.9l39.8-16.2l21.2,14.6v9.5
	L171.5,138z M171.5,120.2l-42,17.1h-8l-26.2-22.9l-42.4,22.9H21.1v-10.9h33.6L94.4,105l24.6,21.4h11.9l39.8-16.2l21.2,14.6v9.5
	L171.5,120.2z M171.5,102.4l-42,17.1h-8L95.3,96.6l-42.4,22.9H21.1v-10.9h33.6l39.7-21.4l24.6,21.4h11.9l39.8-16.2l21.2,14.6v9.5
	L171.5,102.4z M21.1,101.7V90.8h52.1l-20.2,10.9H21.1z M171.5,84.6l-42,17.1h-8L109,90.8h21.8l39.8-16.2l21.2,14.6v9.5L171.5,84.6z
	 M171.5,66.9l-42,17.1h-28.3l-5.8-5.1L85.9,84H21.1V73h109.8l39.8-16.2l21.2,14.6v9.5L171.5,66.9z M171.5,49.1l-42,17.1H21.1V55.3
	h109.8L170.7,39l21.2,14.6v9.5L171.5,49.1z M171.5,31.3l-42,17.1H21.1V37.5h109.8l39.8-16.2l21.2,14.6v9.5L171.5,31.3z M191.9,27.5
	l-11-7.6h11V27.5z M155.7,19.9l-26.2,10.7H21.1V19.9H155.7z"/>
<g>
	<path class="st1" d="M35.5,219.3c1.2,1.5,1.7,3.4,1.7,5.7c0,5.9-3.8,9.4-10.2,9.4H14.2V204h1.6v28.8h11.3c5.6,0,8.6-2.8,8.6-7.9
		c0-2.1-0.3-3.5-0.8-4.1l-0.8-1l-0.6-0.6l0.5-0.5l0.4-0.7c0.7-1.4,1.1-2.8,1.1-4.5c0-5.2-3-8-8.4-8h-8.4v10h8.7
		c1.4,0,2.1-0.7,2.1-2.1c0-1.5-0.9-2.4-2.1-2.4h-5.7v3.1h-1.6v-4.6h7.3c0.9,0,1.8,0.3,2.4,0.8c0.9,0.8,1.3,1.8,1.3,3.1
		c0,2.3-1.4,3.6-3.7,3.6H17.2v-13.2h10.1c6.2,0,9.8,3.5,9.8,9.5C37,215.8,36.5,217.8,35.5,219.3z M17.2,231.6v-10.1h10.3
		c2.3,0,3.8,1.4,3.8,3.7c0,0.7-0.1,1.3-0.4,1.8c-0.6,1.3-1.7,1.9-3.5,1.9h-7.3v-4.5h1.6v2.9h5.7c1.5,0,2.3-0.7,2.3-2.1
		c0-1.4-0.7-2.1-2.3-2.1h-8.7v6.9h9.4c0.9,0,1.7-0.2,2.4-0.7c1.5-0.9,2.3-2.3,2.3-4c0-3.2-1.9-5.2-4.8-5.2H17.2v-1.6H28
		c2.8,0,4.6-2.1,4.6-5.2c0-1.7-0.9-3.3-2.3-4.2c-0.7-0.4-1.4-0.7-2.2-0.7h-7.9v-1.6h7.9c2.4,0,4.3,1.1,5.3,3.1
		c0.5,1,0.8,2.1,0.8,3.3c0,2.8-1.2,4.9-3.1,5.9l1.1,0.8c1.4,1.3,2.1,3,2.1,5.2c0,1.7-0.7,3.3-1.9,4.5c-1.4,1.2-2.8,1.7-4.3,1.7H17.2
		z"/>
	<path class="st1" d="M43.3,231.2c-2.1-2.1-3.2-5.2-3.2-8.9v-18.4h7.4v18.4c0,3.3,1.6,4.7,5.2,4.7c3.5,0,5.3-1.7,5.3-4.7v-18.4h4.5
		v18.4c0,2.3-0.6,4.5-1.8,6.1c-1.6,2.1-4.1,3.1-7.9,3.1c-2.2,0-4-0.3-5.4-1c-2.8-1.3-4.4-4.1-4.4-8.3v-15.6h1.6v15.6
		c0,4.9,2.8,7.7,8.2,7.7c5.4,0,8.1-2.7,8.1-7.7v-16.8h-1.4v16.8c0,3.8-2.6,6.3-6.9,6.3c-4.4,0-6.7-2.2-6.7-6.3v-16.8h-4.3v16.8
		c0,7,3.8,10.6,11.2,10.6c3.8,0,6.5-0.9,8.3-2.8c1.8-1.9,2.8-4.6,2.8-7.8v-18.4h1.6v18.4c0,3.7-1.1,6.7-3.2,8.9
		c-2.1,2.2-5.2,3.3-9.4,3.3C48.7,234.5,45.5,233.4,43.3,231.2z"/>
	<path class="st1" d="M71.9,226.6l-2.2,3.5l1.2,0.7c2.7,1.3,5.6,2.1,7.8,2.1c0.2,0,1.1-0.1,2.6-0.3c2.1-0.7,3.8-2,4.8-4l0.1-0.2
		c0.5-0.9,0.7-2,0.7-3.3c0-1-0.2-2-0.7-2.9c-0.7-1.4-1.9-2.7-3.6-3.6c-1.3-0.6-2-0.9-2.1-1l-1.1-0.3l-0.6-0.2
		c-2.4-0.7-3.8-1.7-4.4-2.8c-0.1-0.2-0.2-0.6-0.2-1c0-0.7,0.1-1.2,0.3-1.6l0-0.1c0.5-0.9,1.2-1.5,2.1-1.7c0.2-0.1,0.7-0.2,1.5-0.2
		c1.7,0,3.9,0.7,6.8,2.1l0.7-1.1c-2.8-1.5-5.3-2.3-7.6-2.3l-1.7,0.2c-1.3,0.4-2.3,1.2-3,2.5c-0.3,0.6-0.4,1.2-0.4,2.1
		c0,0.7,0.1,1.2,0.4,1.7c0.7,1.5,2.4,2.7,5.2,3.5l0.6,0.2c3.4,1.2,6.6,2.4,6.6,6.6c0,2.6-1.3,4.7-3.3,5.7c-1,0.5-2.2,0.8-3.5,0.8
		c-2.3,0-4.6-0.6-7.1-1.9l0-0.1l0.7-1.3c2.7,1.1,4.8,1.7,6.3,1.7c2.2,0,3.8-0.8,4.7-2.4c0.4-0.7,0.6-1.6,0.6-2.4
		c0-1.6-0.7-2.8-2.1-3.6c-0.8-0.4-1.5-0.8-2.1-1l-1.2-0.4l-0.6-0.2c-3.2-1-5.2-2.4-6.2-4.4c-0.3-0.7-0.5-1.5-0.5-2.4
		c0-1.1,0.2-2,0.6-2.7c0.9-1.7,2.2-2.8,4-3.4c0.4-0.2,1.1-0.3,2.3-0.3c2.7,0,6.3,1.2,9,3l0.7,0.4l-2.4,3.8l-0.7-0.4
		c-2.1-1.4-4.8-2.3-6.7-2.3c-1.4,0-1.7,0.2-2.1,0.8c-0.2,0.3-0.3,0.7-0.3,1.1l0.1,0.5c0.1,0.2,0.4,0.5,1,0.9
		c0.4,0.3,1.2,0.7,2.4,1.1l0.6,0.2c3.9,1.2,6.4,3,7.6,5.4c0.7,1.6,1,2.9,1,4c0,1.2-0.3,2.4-0.8,3.8l-0.2,0.3
		c-1.3,2.4-3.2,4.1-5.8,4.8c-0.9,0.3-1.9,0.4-3,0.4c-3.3,0-7.4-1.3-10.5-3.4l-0.7-0.4l3.8-6.2l0.7,0.4c2.1,1.4,4.8,2.3,6.7,2.3
		c1.2,0,1.9-0.3,2.2-1c0.1-0.2,0.2-0.5,0.2-0.9c0-0.2,0-0.4-0.1-0.5l0-0.1c-0.4-0.7-1.4-1.3-3.2-1.9l-0.5-0.2
		c-3.9-1.2-6.6-3.1-7.9-5.8c-0.5-1-0.8-2.2-0.8-3.6c0-1.3,0.3-2.5,0.8-3.8l0.1-0.3c1.3-2.5,3.2-4.1,5.8-4.8c0.7-0.3,1.8-0.4,3.1-0.4
		c3.2,0,6.9,1.3,11.1,3.8l-0.8,1.4c-3.9-2.4-7.3-3.6-10.3-3.6c-0.2,0-1.1,0.1-2.6,0.4c-2.1,0.7-3.8,2-4.8,4l-0.1,0.2
		c-0.4,1.1-0.7,2.1-0.7,3.2c0,1,0.2,2,0.7,2.9c1.1,2.3,3.4,4,6.9,5l0.1,0l0.4,0.1c2.3,0.7,3.6,1.5,4.2,2.7l0.1,0.2
		c0.2,0.4,0.3,0.8,0.3,1.1c0,0.6-0.1,1.1-0.3,1.5l0,0.1c-0.4,0.9-1.1,1.4-2.1,1.7c-0.2,0.1-0.7,0.2-1.5,0.2c-1.6,0-3.5-0.5-5.6-1.4
		L71.9,226.6z"/>
	<path class="st1" d="M92.1,203.8h4.6v27.7h-1.6v-26.1h-1.4v27.5h4.4v-29h1.6v30.6h-7.6V203.8z"/>
	<path class="st1" d="M103.4,234.5v-29.4l22.5,22.7v2.3l-21-21.3v25.6H103.4z M124.4,206.9h1.6v18.9l-21.7-22h2.2l17.9,18.2V206.9z
		 M121.3,216.8v-12.9h7.6v30.6h-2.8L108,216.3v16.6h1.4v-13l1.6,1.7v12.9h-4.6v-22l20,20.3l0.2,0.2h0.7v-27.5h-4.5v13.1L121.3,216.8
		z"/>
	<path class="st1" d="M132,203.9h1.6v29h16.8v-4.4H138v-4.2h1.6v2.6h12.3v7.5H132V203.9z M134.9,203.9h16.7v7.5h-10.5v-1.6h8.9v-4.3
		h-13.6v12.6h10.2v1.6h-11.8V203.9z M134.9,221.1h13.3v-4.4H138v-9.9h10.6v1.6h-9v6.8h10.3v7.5h-13.3v7.3h12.2v1.6h-13.8V221.1z"/>
	<path class="st1" d="M158.3,226.6l-2.2,3.5l1.2,0.7c2.7,1.3,5.6,2.1,7.8,2.1c0.2,0,1.1-0.1,2.6-0.3c2.1-0.7,3.8-2,4.8-4l0.1-0.2
		c0.5-0.9,0.7-2,0.7-3.3c0-1-0.2-2-0.7-2.9c-0.7-1.4-1.9-2.7-3.6-3.6c-1.3-0.6-2-0.9-2.1-1l-1.1-0.3l-0.6-0.2
		c-2.4-0.7-3.8-1.7-4.4-2.8c-0.1-0.2-0.2-0.6-0.2-1c0-0.7,0.1-1.2,0.3-1.6l0-0.1c0.5-0.9,1.2-1.5,2.1-1.7c0.2-0.1,0.7-0.2,1.5-0.2
		c1.7,0,3.9,0.7,6.8,2.1l0.7-1.1c-2.8-1.5-5.3-2.3-7.6-2.3l-1.7,0.2c-1.3,0.4-2.3,1.2-3,2.5c-0.3,0.6-0.4,1.2-0.4,2.1
		c0,0.7,0.1,1.2,0.4,1.7c0.7,1.5,2.4,2.7,5.2,3.5l0.6,0.2c3.4,1.2,6.6,2.4,6.6,6.6c0,2.6-1.3,4.7-3.3,5.7c-1,0.5-2.2,0.8-3.5,0.8
		c-2.3,0-4.6-0.6-7.1-1.9l0-0.1l0.7-1.3c2.7,1.1,4.8,1.7,6.3,1.7c2.2,0,3.8-0.8,4.7-2.4c0.4-0.7,0.6-1.6,0.6-2.4
		c0-1.6-0.7-2.8-2.1-3.6c-0.8-0.4-1.5-0.8-2.1-1L165,220l-0.6-0.2c-3.2-1-5.2-2.4-6.2-4.4c-0.3-0.7-0.5-1.5-0.5-2.4
		c0-1.1,0.2-2,0.6-2.7c0.9-1.7,2.2-2.8,4-3.4c0.4-0.2,1.1-0.3,2.3-0.3c2.7,0,6.3,1.2,9,3l0.7,0.4l-2.4,3.8l-0.7-0.4
		c-2.1-1.4-4.8-2.3-6.7-2.3c-1.4,0-1.7,0.2-2.1,0.8c-0.2,0.3-0.3,0.7-0.3,1.1l0.1,0.5c0.1,0.2,0.4,0.5,1,0.9
		c0.4,0.3,1.2,0.7,2.4,1.1l0.6,0.2c3.9,1.2,6.4,3,7.6,5.4c0.7,1.6,1,2.9,1,4c0,1.2-0.3,2.4-0.8,3.8l-0.2,0.3
		c-1.3,2.4-3.2,4.1-5.8,4.8c-0.9,0.3-1.9,0.4-3,0.4c-3.3,0-7.4-1.3-10.5-3.4l-0.7-0.4l3.8-6.2l0.7,0.4c2.1,1.4,4.8,2.3,6.7,2.3
		c1.2,0,1.9-0.3,2.2-1c0.1-0.2,0.2-0.5,0.2-0.9c0-0.2,0-0.4-0.1-0.5l0-0.1c-0.4-0.7-1.4-1.3-3.2-1.9l-0.5-0.2
		c-3.9-1.2-6.6-3.1-7.9-5.8c-0.5-1-0.8-2.2-0.8-3.6c0-1.3,0.3-2.5,0.8-3.8l0.1-0.3c1.3-2.5,3.2-4.1,5.8-4.8c0.7-0.3,1.8-0.4,3.1-0.4
		c3.2,0,6.9,1.3,11.1,3.8l-0.8,1.4c-3.9-2.4-7.3-3.6-10.3-3.6c-0.2,0-1.1,0.1-2.6,0.4c-2.1,0.7-3.8,2-4.8,4l-0.1,0.2
		c-0.4,1.1-0.7,2.1-0.7,3.2c0,1,0.2,2,0.7,2.9c1.1,2.3,3.4,4,6.9,5l0.1,0l0.4,0.1c2.3,0.7,3.6,1.5,4.2,2.7l0.1,0.2
		c0.2,0.4,0.3,0.8,0.3,1.1c0,0.6-0.1,1.1-0.3,1.5l0,0.1c-0.4,0.9-1.1,1.4-2.1,1.7c-0.2,0.1-0.7,0.2-1.5,0.2c-1.6,0-3.5-0.5-5.6-1.4
		L158.3,226.6z"/>
	<path class="st1" d="M181.3,226.6l-2.2,3.5l1.2,0.7c2.7,1.3,5.6,2.1,7.8,2.1c0.2,0,1.1-0.1,2.6-0.3c2.1-0.7,3.8-2,4.8-4l0.1-0.2
		c0.5-0.9,0.7-2,0.7-3.3c0-1-0.2-2-0.7-2.9c-0.7-1.4-1.9-2.7-3.6-3.6c-1.3-0.6-2-0.9-2.1-1l-1.1-0.3l-0.6-0.2
		c-2.4-0.7-3.8-1.7-4.4-2.8c-0.1-0.2-0.2-0.6-0.2-1c0-0.7,0.1-1.2,0.3-1.6l0-0.1c0.5-0.9,1.2-1.5,2.1-1.7c0.2-0.1,0.7-0.2,1.5-0.2
		c1.7,0,3.9,0.7,6.8,2.1l0.7-1.1c-2.8-1.5-5.3-2.3-7.6-2.3l-1.7,0.2c-1.3,0.4-2.3,1.2-3,2.5c-0.3,0.6-0.4,1.2-0.4,2.1
		c0,0.7,0.1,1.2,0.4,1.7c0.7,1.5,2.4,2.7,5.2,3.5l0.6,0.2c3.4,1.2,6.6,2.4,6.6,6.6c0,2.6-1.3,4.7-3.3,5.7c-1,0.5-2.2,0.8-3.5,0.8
		c-2.3,0-4.6-0.6-7.1-1.9l0-0.1l0.7-1.3c2.7,1.1,4.8,1.7,6.3,1.7c2.2,0,3.8-0.8,4.7-2.4c0.4-0.7,0.6-1.6,0.6-2.4
		c0-1.6-0.7-2.8-2.1-3.6c-0.8-0.4-1.5-0.8-2.1-1L188,220l-0.6-0.2c-3.2-1-5.2-2.4-6.2-4.4c-0.3-0.7-0.5-1.5-0.5-2.4
		c0-1.1,0.2-2,0.6-2.7c0.9-1.7,2.2-2.8,4-3.4c0.4-0.2,1.1-0.3,2.3-0.3c2.7,0,6.3,1.2,9,3l0.7,0.4l-2.4,3.8l-0.7-0.4
		c-2.1-1.4-4.8-2.3-6.7-2.3c-1.4,0-1.7,0.2-2.1,0.8c-0.2,0.3-0.3,0.7-0.3,1.1l0.1,0.5c0.1,0.2,0.4,0.5,1,0.9
		c0.4,0.3,1.2,0.7,2.4,1.1l0.6,0.2c3.9,1.2,6.4,3,7.6,5.4c0.7,1.6,1,2.9,1,4c0,1.2-0.3,2.4-0.8,3.8l-0.2,0.3
		c-1.3,2.4-3.2,4.1-5.8,4.8c-0.9,0.3-1.9,0.4-3,0.4c-3.3,0-7.4-1.3-10.5-3.4l-0.7-0.4l3.8-6.2l0.7,0.4c2.1,1.4,4.8,2.3,6.7,2.3
		c1.2,0,1.9-0.3,2.2-1c0.1-0.2,0.2-0.5,0.2-0.9c0-0.2,0-0.4-0.1-0.5l0-0.1c-0.4-0.7-1.4-1.3-3.2-1.9l-0.5-0.2
		c-3.9-1.2-6.6-3.1-7.9-5.8c-0.5-1-0.8-2.2-0.8-3.6c0-1.3,0.3-2.5,0.8-3.8l0.1-0.3c1.3-2.5,3.2-4.1,5.8-4.8c0.7-0.3,1.8-0.4,3.1-0.4
		c3.2,0,6.9,1.3,11.1,3.8l-0.8,1.4c-3.9-2.4-7.3-3.6-10.3-3.6c-0.2,0-1.1,0.1-2.6,0.4c-2.1,0.7-3.8,2-4.8,4l-0.1,0.2
		c-0.4,1.1-0.7,2.1-0.7,3.2c0,1,0.2,2,0.7,2.9c1.1,2.3,3.4,4,6.9,5l0.1,0l0.4,0.1c2.3,0.7,3.6,1.5,4.2,2.7l0.1,0.2
		c0.2,0.4,0.3,0.8,0.3,1.1c0,0.6-0.1,1.1-0.3,1.5l0,0.1c-0.4,0.9-1.1,1.4-2.1,1.7c-0.2,0.1-0.7,0.2-1.5,0.2c-1.6,0-3.5-0.5-5.6-1.4
		L181.3,226.6z"/>
</g>
<g>
	<path class="st1" d="M52.2,244.3H26.6c-2.1,0-3.7,0.2-4.5,0.9c-0.4,0.4-0.6,1-0.6,1.7c0,1.8,1.4,2.4,4.1,2.6l16.8,1.3
		c5.4,0.4,8.5,1.1,10.5,3.1c1.3,1.3,2.1,3.1,2.1,5.8c0,2.6-0.8,4.7-2.3,6.1c-2.1,2.1-5.5,3-11,3H16V263h26.7c3.4,0,4.8-0.9,4.8-2.9
		c0-1.7-1-2.4-4.1-2.6l-15.5-1.2c-4.5-0.3-8.5-0.9-11.1-3.2c-1.5-1.3-2.6-3.4-2.6-6c0-2.6,1-4.5,2.4-5.9c2.1-2,5.7-2.8,10.5-2.8
		h25.1V244.3z"/>
	<path class="st1" d="M61.2,238.4h40.3v6H85.2v24.4h-7.7v-24.4H61.2V238.4z"/>
	<path class="st1" d="M147.4,268.9h-35.9v-30.5h35.7v6h-28v5.9h18.9v5.8h-18.9v6.7h28.2V268.9z"/>
	<path class="st1" d="M166.1,260.3v8.6h-7.7v-30.5h26.9c5.2,0,8.4,1,10.5,3c1.9,1.8,2.9,4.5,2.9,7.9s-0.9,6.1-2.9,7.9
		c-2.1,2-5.4,3-10.5,3H166.1z M184.6,254.2c2.8,0,4.3-0.3,5.2-1.3c0.8-0.8,1.1-2,1.1-3.6c0-1.6-0.3-2.8-1.1-3.6
		c-0.9-1-2.4-1.3-5.2-1.3h-18.5v9.8H184.6z"/>
</g>
</svg>
