<svg version="1.1" id="монета" xmlns="http://www.w3.org/2000/svg" x="0" y="0" viewBox="0 0 124.9 124.9" xml:space="preserve"><style>.st0{fill:#846e45}.st1{fill:#e8c27c}.st2{fill:#55472c}.st3{fill:#37474f}.st4{fill:#455a64}.st6{fill:#263238}.st7{fill:#1c2529}</style><path id="Фигура_10" class="st0" d="M58.3 70.6l.2-.7-2.3-.6c-1.8-.5-3.9.3-5.9 2.3-4 4.1-6.1 11.9-4.6 17.4.7 2.7 2.2 4.4 4 4.9h.2l2.3.6.2-.7c1.1-.3 2.3-1.1 3.5-2.2 4-4.1 6.1-11.9 4.6-17.4-.7-1.5-1.3-2.8-2.2-3.6z"/><path id="Фигура_12" class="st1" d="M47.6 89.6c1.5 5.5 6 6.7 10.1 2.7s6.1-11.9 4.6-17.4-6-6.7-10.1-2.7-6.1 11.8-4.6 17.4z"/><path id="Фигура_12_копия" class="st2" d="M48 89.1c1.4 5.3 5.7 6.4 9.5 2.5s5.8-11.3 4.4-16.5c-1.4-5.3-5.7-6.4-9.5-2.5-3.9 3.8-5.8 11.2-4.4 16.5z"/><path id="Фигура_12_копия_2" class="st0" d="M48.1 89c1.4 5.2 5.5 6.3 9.2 2.5 3.7-3.8 5.5-11 4.1-16.1-1.4-5.2-5.5-6.3-9.2-2.5-3.6 3.7-5.5 10.9-4.1 16.1z"/><path id="Фигура_12_копия-2" class="st1" d="M48.8 88.4c1.3 4.7 5.1 5.8 8.6 2.3s5.2-10.1 3.9-14.9c-1.3-4.7-5.1-5.8-8.6-2.3s-5.2 10.2-3.9 14.9z"/><path id="Фигура_12_копия-3" class="st2" d="M49.2 88.1c1.2 4.4 4.8 5.4 8 2.1 3.2-3.3 4.9-9.5 3.7-13.9-1.2-4.4-4.8-5.4-8-2.1-3.2 3.2-4.9 9.4-3.7 13.9z"/><path id="Фигура_12_копия-4" class="st0" d="M49.2 87.9c1.2 4.3 4.7 5.3 7.8 2.1 3.1-3.2 4.7-9.3 3.5-13.6s-4.7-5.3-7.8-2.1c-3.1 3.2-4.7 9.3-3.5 13.6z"/><path id="валюта" class="st2" d="M52.3 76l.7-.6.3 1.2.1.5.3-.4.2-.1c0-.1-.1-.5-.4-1.6l.7-.6.3 1.2.1.6.3-.1h.2l.2-.1c.2-.1.5-.1.7-.1l.3.1h.4l.3.2V76l.1.1h.1l.1.1.1.1c-.1.2-.3.5-.6 1.1l-.1.2-.2-.2c-.7-.7-1.7-.8-2.5.1-1.4 1.3-2 4.4-1.4 6.8.6 2.4 2.2 3.3 3.6 2 .9-.8 1.4-2.3 1.6-3.9v-.7l.1-.1c.1-.1.3-.1.4-.2l.4-.2-.1.7c-.2 1.2-.6 2.3-1.1 3.3l-.5.8c0 .2.1.6.4 1.7l-.7.6-.3-1.1-.1-.4-.1.2-.3.3v.1c.1.2.2.6.4 1.5l-.7.6-.3-1.5-.1-.5-.4.2c-.5.2-1 .2-1.4 0h-.1c-.4-.1-.8-.4-1.1-.9-.3-.4-.6-1-.7-1.6-.1-.5-.2-1-.2-1.4 0-.5 0-1 .1-1.5 0-.5.2-1 .3-1.5v-.1c.2-.8.5-1.5.9-2.2l.3-.5c-.2-.4-.3-.8-.6-2zm1.2 6.3c-.2.4-.3.8-.5 1.2.6-3.8 2.4-4.8 3.8-3.7h-.7c0 .1 0 .2.1.3.4.9.2 2.1-.4 2.9-.5.7-1 1.1-1.6.9-.5-.1-.7-.5-.7-1.6zm1.7.9c.2-.3.4-.6.6-1 .4-.9.3-1.7-.2-1.8-.5-.1-1.2.5-1.6 1.4-.4 1-.2 1.9.5 1.8.2-.2.5-.3.7-.4zm0-1.4c0 .2 0 .5-.2.6-.2.1-.3.1-.3-.1s0-.5.2-.6c.1-.2.3-.1.3.1z"/><path id="валюта_копия" class="st1" d="M53 76.1l.7-.6.3 1.2.1.5.3-.4.2-.1c0-.1-.1-.5-.4-1.6l.7-.6.3 1.2.1.6.3-.1h.2l.2-.1c.2-.1.5-.1.7-.1l.3.1h.4l.3.2.2.1.1.1h.1l.1.1.1.1c-.1.2-.3.5-.6 1.1l-.1.2-.2-.2c-.7-.7-1.7-.8-2.5.1-1.4 1.3-2 4.4-1.4 6.8.6 2.4 2.2 3.3 3.6 2 .9-.8 1.4-2.3 1.6-3.9v-.7l.1-.1c.1-.1.3-.1.4-.2l.4-.2-.1.7c-.2 1.2-.6 2.3-1.1 3.3l-.7.4c0 .2.1.6.4 1.7l-.7.6-.3-1.1-.1-.5-.1.2-.3.3v.1c.1.2.2.6.4 1.5l-.7.6-.3-1.2-.1-.5-.4.2c-.5.2-1 .2-1.4 0H54c-.4-.1-.8-.4-1.1-.9-.3-.4-.6-1-.7-1.6-.1-.5-.2-1-.2-1.4 0-.5 0-1 .1-1.5 0-.5.2-1 .3-1.6v-.1c.2-.8.5-1.5.9-2.2l.3-.5c-.2-.4-.3-.8-.6-2zm1.2 6.3c-.2.4-.3.8-.5 1.2.6-3.8 2.4-4.8 3.8-3.7h-.8c0 .1 0 .2.1.3.4.9.2 2.1-.4 2.9-.5.7-1 1.1-1.6.9-.4-.1-.6-.5-.6-1.6zm1.8.9c.2-.3.4-.6.6-1 .4-.9.3-1.7-.2-1.8-.5-.1-1.2.5-1.6 1.4-.4 1-.2 1.9.5 1.8.2-.1.4-.3.7-.4zm-.1-1.4c0 .2 0 .5-.2.6-.2.1-.3.1-.3-.1s0-.5.2-.6c.1-.2.3-.1.3.1z"/><path id="Фигура_10-2" class="st0" d="M55.9 98.9l-.5-.4-1.6 1.7c-1.2 1.4-1.5 3.6-.7 6.3 1.8 5.4 7.8 10.8 13.4 12 2.8.6 4.9 0 6.2-1.3v-.1l1.6-1.7-.5-.5c.2-1.2.1-2.6-.4-4.1-1.8-5.4-7.8-10.8-13.4-12-1.5-.3-2.9-.3-4.1.1z"/><path id="Фигура_12-2" class="st1" d="M67.9 117.1c5.6 1.2 8.7-2.3 6.9-7.7-1.8-5.5-7.8-10.8-13.4-12-5.6-1.2-8.7 2.3-6.9 7.7 1.8 5.4 7.8 10.8 13.4 12z"/><path id="Фигура_12_копия-5" class="st2" d="M67.7 116.5c5.3 1.1 8.3-2.2 6.6-7.3-1.7-5.2-7.4-10.3-12.7-11.4-5.3-1.1-8.3 2.2-6.6 7.3 1.7 5.1 7.4 10.2 12.7 11.4z"/><path id="Фигура_12_копия_2-2" class="st0" d="M67.6 116.3c5.2 1.1 8.1-2 6.4-7-1.7-5-7.3-9.9-12.5-11s-8.1 2-6.4 7c1.7 5 7.3 9.9 12.5 11z"/><path id="Фигура_12_копия-6" class="st1" d="M67.4 115.5c4.8 1 7.5-1.9 5.9-6.6s-6.7-9.3-11.5-10.3-7.5 1.9-5.9 6.6c1.6 4.7 6.7 9.3 11.5 10.3z"/><path id="Фигура_12_копия-7" class="st2" d="M67.3 114.9c4.5.9 7-1.8 5.6-6.2s-6.2-8.7-10.7-9.6-7 1.8-5.6 6.2c1.4 4.4 6.3 8.7 10.7 9.6z"/><path id="Фигура_12_копия-8" class="st0" d="M67.2 114.9c4.4.9 6.8-1.7 5.4-5.9-1.4-4.2-6.1-8.4-10.5-9.3-4.4-.9-6.8 1.7-5.4 5.9 1.4 4.2 6.1 8.3 10.5 9.3z"/><path id="валюта-2" class="st2" d="M58 106.7l-.3-.9 1.2.3.5.1-.2-.5v-.2c-.1 0-.5-.1-1.6-.4l-.3-.9 1.2.3.6.1v-.8c0-.2.1-.5.2-.7l.2-.2v-.1h.1l.1-.2.3-.2.1-.1H60.4l.1-.1c.1.1.3.4.7 1l.1.2-.3.1c-1 .3-1.5 1.1-1.1 2.3.6 1.8 3 3.8 5.4 4.4 2.4.6 3.9-.5 3.4-2.3-.4-1.1-1.4-2.3-2.8-3.2l-.6-.4v-.2-.9l.6.4c1 .7 1.8 1.6 2.5 2.5l.5.8c.2 0 .6.1 1.7.4l.3.9-1.1-.3-.5-.1.1.2.1.4h.1c.2.1.6.2 1.5.4l.3.9-1.3-.3-.5-.1v.5c-.1.5-.3.9-.6 1.2l-.1.1c-.3.3-.7.5-1.3.6-.5.1-1.1.1-1.8-.1-.5-.1-.9-.3-1.4-.5-.5-.2-.9-.5-1.3-.7-.5-.3-.9-.6-1.2-1l-.1-.1c-.6-.5-1.1-1.1-1.6-1.8l-.3-.5c-.3.1-.7 0-1.9-.3zm6.2 1.8c.3.4.5.7.8 1-3.1-2.3-3.2-4.3-1.5-5.1-.1.2-.2.4-.3.7.1 0 .2.1.3.1 1 0 2 .8 2.4 1.7.4.8.5 1.4.1 1.8-.4.3-.9.3-1.8-.2zm1.5-1.2c-.2-.3-.3-.7-.6-1-.6-.8-1.4-1-1.7-.6-.3.4-.1 1.3.5 2 .7.8 1.6 1 1.8.4v-.8zm-1.2-.6c.2.1.4.3.5.4 0 .2 0 .3-.3.2-.2 0-.5-.3-.5-.4-.1-.1.1-.2.3-.2z"/><path id="валюта_копия-2" class="st1" d="M58.4 106.1l-.3-.9 1.2.3.5.1-.2-.5v-.2c-.1 0-.5-.1-1.6-.4l-.3-.9 1.2.3.6.1v-.8c0-.2.1-.5.2-.7l.2-.2v-.1h.1l.1-.2.3-.2.1-.1H60.8l.1-.1c.1.1.3.4.7 1l.1.2-.3.1c-1 .3-1.5 1.1-1.1 2.3.6 1.8 3 3.8 5.4 4.4 2.4.6 3.9-.5 3.4-2.3-.4-1.1-1.4-2.3-2.8-3.2l-.6-.4v-.2-.9l.6.4c1 .7 1.8 1.6 2.5 2.5l.5.8c.2 0 .6.1 1.7.4l.3.9-1.1-.3-.5-.1.1.2.1.4h.1c.2.1.6.2 1.5.4l.3.9-1.3-.3-.5-.1v.5c-.1.5-.3.9-.6 1.2l-.1.1c-.3.3-.7.5-1.3.6-.5.1-1.1.1-1.8-.1-.5-.1-.9-.3-1.4-.5-.5-.2-.9-.5-1.3-.7-.5-.3-.9-.6-1.2-1l-.1-.1c-.6-.5-1.1-1.1-1.6-1.8l-.3-.5c-.3.1-.7 0-1.9-.3zm6.2 1.8c.3.4.5.7.8 1-3.1-2.3-3.2-4.3-1.5-5.1-.1.2-.2.4-.3.7.1 0 .2.1.3.1 1 0 2 .8 2.4 1.7.4.8.5 1.4.1 1.8-.4.3-.9.3-1.8-.2zm1.5-1.1c-.2-.3-.3-.7-.6-1-.6-.8-1.4-1-1.7-.6-.3.4-.1 1.3.5 2 .7.8 1.6 1 1.8.4.1-.3 0-.6 0-.8zm-1.2-.7c.2.1.4.3.5.4 0 .2 0 .3-.3.2-.2 0-.5-.3-.5-.4-.1-.1.1-.2.3-.2z"/><path id="Фигура_10-3" class="st0" d="M74.1 76.3l-.2-.6 2.2-.7c1.8-.5 3.9.1 6 2 4.2 3.9 6.6 11.6 5.4 17.2-.6 2.8-2 4.5-3.7 5.1h-.1-.1l-2.2.7-.2-.7c-1.2-.3-2.4-.9-3.6-2.1-4.2-3.9-6.6-11.6-5.4-17.2.5-1.5 1.1-2.8 1.9-3.7z"/><path id="Фигура_12-3" class="st1" d="M85.8 94.7c-1.2 5.6-5.7 7-9.9 3.1s-6.7-11.6-5.4-17.2c1.2-5.6 5.7-7 9.9-3.1s6.6 11.6 5.4 17.2z"/><path id="Фигура_12_копия-9" class="st2" d="M85.3 94.3c-1.2 5.3-5.4 6.6-9.4 3s-6.3-11-5.1-16.3c1.2-5.3 5.4-6.7 9.4-3s6.3 11 5.1 16.3z"/><path id="Фигура_12_копия_2-3" class="st0" d="M85.2 94.2c-1.2 5.2-5.2 6.5-9 2.9s-6-10.7-4.9-15.9c1.2-5.2 5.2-6.5 9-2.9 3.9 3.5 6.1 10.7 4.9 15.9z"/><path id="Фигура_12_копия-10" class="st1" d="M84.5 93.6c-1.1 4.8-4.9 6-8.5 2.7-3.6-3.3-5.7-9.9-4.6-14.7 1.1-4.8 4.9-6 8.5-2.7 3.6 3.4 5.7 9.9 4.6 14.7z"/><path id="Фигура_12_копия-11" class="st2" d="M84.1 93.3c-1 4.5-4.5 5.6-7.9 2.5s-5.3-9.3-4.3-13.7c1-4.5 4.5-5.6 7.9-2.5 3.3 3.1 5.3 9.2 4.3 13.7z"/><path id="Фигура_12_копия-12" class="st0" d="M84.1 93.2c-1 4.4-4.4 5.5-7.6 2.5s-5.1-9-4.1-13.4 4.4-5.5 7.6-2.5c3.2 3 5 9 4.1 13.4z"/><path id="валюта_копия_2" class="st2" d="M77.1 79.4l.8.5v1.7l.4.2.2.1v-1.7l.8.5v1.9l.3.3h.1l.1.1.3.3c.3.3.5.6.7.9l.3.4.1.1.1.1.2.4.3.6.1.3.1.2v.2l.1.2h-1l-.1-.5c-.5-1.6-1.4-2.9-2.4-3.5-1.6-.9-3 .5-3 3.1s1.3 5.5 2.9 6.4c1 .6 1.9.2 2.4-.7l.2-.5.1.2.5.5.4.4-.2.4c-.4.6-1.1 1-1.8 1l-.7-.1v1.8l-.8-.4v-1.7l-.2-.1-.4-.3V94.4l-1-.5v-2l-.4-.4c-.5-.6-.9-1.2-1.3-1.9l-.1-.2c-.4-.7-.7-1.4-.9-2.2-.2-.7-.3-1.5-.3-2.2 0-.5.1-1 .2-1.4.1-.4.2-.7.4-1 .2-.3.4-.5.6-.7l.1-.1c.4-.3.8-.4 1.3-.4l.4.1c.1-.3.1-.8.1-2.1zm-.4 6.4c-.3.1-.5.1-.8.2 1.5-2 3.4-.2 4.5 2.6-.2-.3-.5-.7-.7-1v.3c.2 1.2-.3 1.8-1.1 1.6-.6-.2-1.2-.6-1.7-1.5-.4-.8-.4-1.4-.2-2.2zm1.4 3.1c.3 0 .6.2.8.1.6-.1.7-.9.2-1.7-.5-.8-1.3-1.3-1.8-1.2-.6.2-.6 1.2.1 2 .2.3.5.5.7.8zm.4-1.1c0 .2-.2.3-.3.2-.2-.1-.3-.3-.3-.6 0-.2.2-.3.3-.3.1.2.3.5.3.7z"/><path id="валюта-3" class="st1" d="M76.6 79.8l.8.5V82l.4.2.2.1v-1.7l.8.5V83l.3.3h.1l.1.1.3.3c.3.3.5.6.7.9l.3.4.1.1.1.1.2.4.3.6.1.3.1.2v.2l.1.2h-1l-.1-.5c-.5-1.6-1.4-2.9-2.4-3.5-1.6-.9-3 .5-3 3.1s1.3 5.5 2.9 6.4c1 .6 1.9.2 2.4-.7l.2-.5.1.2.5.5.4.4-.2.4c-.4.6-1.1 1-1.8 1l-.7-.1v1.8l-1-.6v-1.7l-.2-.1-.4-.3V94.6l-.8-.4v-2l-.4-.4c-.5-.6-.9-1.2-1.3-1.9l-.1-.2c-.4-.7-.7-1.4-.9-2.2-.2-.8-.3-1.5-.3-2.2 0-.5.1-1 .2-1.4.1-.4.2-.7.4-1 .2-.3.4-.5.6-.7l.1-.1c.4-.3.8-.4 1.3-.4l.4.1c.1-.3.1-.7.1-2zm-.4 6.3c-.3.1-.5.1-.8.2 1.5-2 3.4-.2 4.5 2.6-.2-.3-.5-.7-.7-1v.3c.2 1.2-.3 1.8-1.1 1.6-.6-.2-1.2-.6-1.7-1.5-.3-.8-.4-1.4-.2-2.2zm1.5 3.1c.3 0 .6.2.8.1.6-.1.7-.9.2-1.7-.5-.8-1.3-1.3-1.8-1.2-.6.2-.6 1.2.1 2 .1.3.4.5.7.8zm.3-1.1c0 .2-.2.3-.3.2-.2-.1-.3-.3-.3-.6 0-.2.2-.3.3-.3.2.2.3.5.3.7z"/><g id="основа"><path id="основа-2" class="st1" d="M64 19.4l-24.3 14c-.5.3-.9 1-.9 1.6v27.1c0 .6.4 1.3.9 1.6l24.3 14c.5.3 1.3.3 1.8 0l24.3-14c.5-.3.9-1 .9-1.6V35c0-.6-.4-1.3-.9-1.6l-24.3-14c-.5-.3-1.3-.3-1.8 0z"/><path id="основа_копия" class="st3" d="M64.3 20.3L40.6 34c-.5.3-.9 1-.9 1.5v26.4c0 .6.4 1.2.9 1.5L64.3 77c.5.3 1.3.3 1.7 0l23.6-13.7c.5-.3.9-1 .9-1.5V35.5c0-.6-.4-1.2-.9-1.5L66 20.3c-.4-.3-1.2-.3-1.7 0z"/><path id="верх" class="st1" d="M90.1 33.5L65.8 19.4c-.5-.3-1.3-.3-1.8 0L39.7 33.5c-.5.3-.5.8 0 1L64 48.6c.5.3 1.3.3 1.8 0l24.3-14.1c.5-.3.5-.8 0-1z"/><path id="верх_копия" class="st4" d="M89.3 33.4L65.9 19.8c-.5-.3-1.3-.3-1.7 0L40.7 33.4c-.5.3-.5.7 0 1l23.4 13.5c.5.3 1.3.3 1.7 0l23.4-13.5c.6-.3.6-.7.1-1z"/><path id="левая_сторона" class="st1" d="M65.2 48.7v29.2c-.3 0-.7-.1-.9-.2L40 63.7c-.5-.3-.9-1-.9-1.6V35c0-.5.4-1.2.8-1.5-.4.3-.4.7.1 1l24.3 14c.3.2.6.2.9.2z"/><path id="левая_сторона_копия" class="st3" d="M64.7 48.8v28.3c-.3 0-.6-.1-.9-.2L40.2 63.3c-.5-.3-.9-1-.9-1.5V35.5c0-.5.3-1.1.8-1.5-.4.3-.4.7.1.9l23.6 13.6c.3.2.6.3.9.3z"/><path id="Фигура_1" class="st1" d="M67.2 49.7L89 37.1c.2-.1.4 0 .4.3v24.3c0 .3-.2.6-.4.8L67.2 75c-.2.1-.4 0-.4-.3V50.5c-.1-.3.1-.6.4-.8z"/><path id="Фигура_2" class="st3" d="M67.1 50.5c0-.1.1-.3.2-.4L89 37.6v24.1c0 .1-.1.3-.2.4L67.1 74.6V50.5z"/></g><g id="вертушка"><path id="Прямоугольник_2" d="M64.6 77.1v-.4h.2v.4h-.2zm-.5-1v-.5h.5l.2.2v.8h-.2l-.5-.5zm.5-1h.2v.7l-.2-.2v-.5zm-.5-.7v-.5h.5l.2.2v.9h-.2l-.5-.6zm.5-1h.2v.7l-.2-.2v-.5zm-.5-.6v-.5h.5l.2.2v.8h-.2l-.5-.5zm.5-1.1h.2v.7l-.2-.2v-.5zm-.6-.6v-.5h.5l.2.2v.8h-.2l-.5-.5zm.6-1h.2v.7l-.2-.2v-.5zm-.6-.7v-.5h.5l.2.2v.9h-.2l-.5-.6zm.6-1h.2v.7l-.2-.2v-.5zm-.6-.6v-.5h.5l.2.2v.8h-.2l-.5-.5zm.6-1h.2v.7l-.2-.2v-.5zm-.6-.7v-.5h.5l.2.2v.8h-.2l-.5-.5zm.6-1h.2v.7l-.2-.2v-.5zm-.6-.6V64h.5l.2.2v.8h-.2l-.5-.5zm.6-1.1h.2v.7l-.2-.2v-.5zm-.6-.6v-.5h.5l.2.2v.8h-.2l-.5-.5zm.6-1h.2v.7l-.2-.2v-.5zm-.6-.6v-.5h.5l.2.2v.8h-.2l-.5-.5zm.6-1.1h.2v.7l-.2-.2v-.5zm-.6-.6V59h.5l.2.2v.8h-.2l-.5-.5zm.6-1h.2v.7l-.2-.2v-.5zm-.5-.7v-.5h.5l.2.2v.8h-.2l-.5-.5zm.5-1h.2v.7l-.2-.2v-.5zm-.5-.6v-.5h.5l.2.2v.8h-.2l-.5-.5zm.5-1.1h.2v.7l-.2-.2v-.5zm-.5-.6V54h.5l.2.2v.8h-.2l-.5-.5zm.5-1h.2v.7l-.2-.2v-.5zm-.5-.6v-.5h.5l.2.2v.8h-.2l-.5-.5zm.5-1.1h.2v.7l-.2-.2v-.5zm-.5-.6v-.5h.5l.2.2v.8h-.2l-.5-.5zm.5-1h.2v.7l-.2-.2v-.5zm-.5-.7V49h.5l.2.2v.8h-.2l-.5-.5zm.5-.7h.2v.4l-.2-.2v-.2zm-1.1-.4l.4.2c.2.1.4.2.6.2v.2H64l-.5-.6zm.5 1.1h-.5l-.5-.6v-.5h.5l.5.6v.5zm-1.6-1.7l1 .5h-.5l-.5-.5zm.5 1.1h-.5l-.5-.5v-.5h.5l.5.5v.5zm-1.6-1.7l1 .5h-.5l-.5-.5zm.5 1h-.5l-.5-.5v-.5h.5l.5.5v.5zm-1.5-1.7l1 .5h-.5l-.5-.5zm.4 1.1h-.5l-.5-.5v-.5h.5l.5.5v.5zm-1.5-1.7l1 .5h-.5l-.5-.5zm.4 1.1h-.5l-.5-.5V46h.5l.5.5v.5zm-1.5-1.7l1 .5h-.5l-.5-.5zm.5 1.1h-.5l-.5-.5v-.5h.5l.5.5v.5zM57 44.7l1 .5h-.5l-.5-.5zm.5 1.1H57l-.5-.5v-.5h.5l.5.5v.5zm-1.6-1.7l1 .5h-.5l-.5-.5zm.5 1.1h-.5l-.5-.5v-.5h.5l.5.5v.5zm-1.5-1.8l1 .5h-.5l-.5-.5zm.4 1.1h-.5l-.5-.5v-.5h.5l.5.5v.5zm-1.5-1.7l1 .5h-.5l-.5-.5zm.4 1.1h-.5l-.5-.5v-.5h.5l.5.5v.5zm-1.5-1.7l1 .5h-.5l-.5-.5zm.5 1.1h-.5l-.5-.5v-.5h.5l.5.5v.5zm-1.6-1.7l1 .5h-.5l-.5-.5zm.5 1.1h-.5l-.5-.5v-.5h.5l.5.5v.5zM50.6 41l1 .5v.1h-.5l-.5-.6zm.4 1.1h-.5l-.5-.6V41h.5l.5.5v.6zm-1.5-1.8l1 .5v.1H50l-.5-.6zm.4 1.1h-.5l-.5-.5v-.5h.5l.5.5v.5zm-1.5-1.7l1 .5v.1h-.5l-.5-.6zm.4 1.1h-.5l-.5-.5v-.5h.5l.5.5v.5zm-1.5-1.7l1 .5v.1h-.5l-.5-.6zm.5 1.1h-.5l-.5-.5v-.5h.5l.5.5v.5zm-1.6-1.7l1 .5h-.5l-.5-.5zm.5 1.1h-.5l-.5-.6v-.5h.5l.5.5v.6zm-1.6-1.7l1 .5v.1h-.5l-.5-.6zm.5 1h-.5l-.5-.5v-.5h.5l.5.5v.5zm-1.5-1.7l1 .5v.1h-.5l-.5-.6zm.4 1.1H44l-.5-.5v-.5h.5l.5.5v.5zM43 36.6l1 .5v.1h-.5l-.5-.6zm.4 1.1h-.5l-.5-.5v-.5h.5l.5.5v.5zM41.9 36l1 .5v.1h-.5l-.5-.6zm.5 1.1h-.5l-.5-.5V36h.5l.5.5v.6zm-1.6-1.7l1 .5v.1h-.5l-.5-.6zm.5 1.1h-.5l-.5-.5v-.5h.5l.5.5v.5zm-1.6-1.7v-.3c.1-.1.1-.2.2-.2-.1.2 0 .5.3.7l.5.3v.1h-.5l-.5-.6zm.3-.6c0-.1.1-.1.2-.1-.1 0-.1 0-.2.1zm.2 1.6h-.5l-.3-.3c0-.2.1-.5.2-.7h.1l.5.5v.5zm-.5-1.2c-.1.1-.1.1 0 0zm0 1.8h-.3v-.8l.3.3v.5zm.5.6v.5h-.5l-.3-.3v-.7h.3l.5.5zm-.5 1h-.3v-.8l.3.3v.5zm.5.7v.5h-.5l-.3-.3v-.7h.3l.5.5zm-.5 1h-.3v-.8l.3.3v.5zm.5.6v.5h-.5l-.3-.3v-.7h.3l.5.5zm-.5 1h-.3v-.8l.3.3v.5zm.5.7v.5h-.5l-.3-.3v-.7h.3l.5.5zm-.5 1h-.3v-.8l.3.3v.5zm.5.6v.5h-.5l-.3-.3v-.7h.3l.5.5zm-.5 1.1h-.3v-.8l.3.3v.5zm.5.6v.5h-.5l-.3-.3v-.7h.3l.5.5zm-.6 1h-.2v-.8l.2.3v.5zm.6.6v.5h-.5l-.3-.3v-.7h.3l.5.5zm-.6 1.1h-.2v-.8l.2.3v.5zm.6.6v.5h-.5l-.3-.3v-.7h.3l.5.5zm-.6 1h-.2v-.8l.2.3v.5zm.6.7v.5h-.5l-.3-.3v-.7h.3l.5.5zm-.6 1h-.2v-.8l.2.3v.5zm.6.6v.5h-.5l-.3-.3v-.7h.3l.5.5zm-.5 1h-.2v-.8l.2.3v.5zm.5.7v.5h-.5l-.3-.3V53h.3l.5.6zm-.5 1h-.2v-.8l.2.3v.5zm.5.6v.5h-.5l-.3-.3v-.7h.3l.5.5zm-.5 1.1h-.2v-.8l.2.3v.5zm.5.6v.5h-.5l-.3-.3v-.7h.3l.5.5zm-.5 1h-.2v-.8l.2.3v.5zm.5.7v.5h-.5l-.3-.3V58h.3l.5.6zm-.5 1h-.3v-.8l.3.3v.5zm.5.6v.5h-.5l-.3-.3v-.7h.3l.5.5zm-.5 1h-.3v-.8l.3.3v.5zm.5.7v.5h-.5l-.3-.3v-.7h.3l.5.5zm-.5.7c-.1-.1-.1-.3-.2-.4l.2.2v.2zm1 .4v.5l-.4-.3c-.2-.1-.4-.3-.5-.5v-.3h.5l.4.6zm-.4-1.1h.5l.5.5v.6h-.5l-.5-.5v-.6zm1.5 1.7v.5l-.9-.5v-.5h.5l.4.5zm-.4-1h.5l.5.5v.5h-.5l-.5-.5v-.5zm1.5 1.7v.5l-.9-.6v-.5h.5l.4.6zm-.4-1.1h.5l.5.5v.5H43l-.5-.5v-.5zm1.5 1.7v.5h-.1l-.9-.5v-.5h.5l.5.5zm-.5-1.1h.5l.5.5v.5H44l-.5-.5v-.5zm1.6 1.7v.5H45l-.9-.5v-.6h.5l.5.6zm-.5-1.1h.5l.5.5v.5h-.5l-.5-.5v-.5zm1.5 1.7v.5H46l-.9-.5-.1-.1v-.5h.5l.6.6zm-.4-1.1h.5l.5.5v.5h-.5l-.5-.5V65zm1.5 1.7v.5h-.1l-.9-.5-.1-.1v-.5h.5l.6.6zm-.4-1h.5l.5.5v.5h-.5l-.5-.5v-.5zm1.5 1.7v.5h-.1l-.9-.5-.1-.1v-.5h.5l.6.6zm-.4-1.1h.5l.5.5v.5h-.5l-.5-.5v-.5zm1.5 1.7v.5h-.1l-.8-.5-.1-.1v-.5h.5l.5.6zm-.5-1.1h.5l.5.5v.6h-.5l-.5-.5v-.6zm1.6 1.7v.5h-.1l-.8-.5-.1-.1V68h.5l.5.6zm-.5-1.1h.5l.5.5v.5h-.5L50 68v-.5zm1.5 1.7v.5h-.1l-.8-.5-.1-.1v-.5h.5l.5.6zm-.4-1.1h.5l.5.5v.5h-.5l-.5-.5v-.5zm1.5 1.7v.5h-.1l-.8-.5-.1-.1v-.5h.5l.5.6zm-.4-1h.5l.5.5v.5h-.5l-.5-.5v-.5zm1.5 1.7v.5h-.1l-.8-.5-.1-.1v-.5h.5l.5.6zm-.4-1.1h.5l.5.5v.5h-.5l-.5-.5v-.5zm1.5 1.7v.5h-.1l-.8-.5-.1-.1v-.5h.5l.5.6zm-.5-1.1h.5l.5.5v.5h-.5l-.5-.5V70zm1.6 1.7v.5h-.1l-.8-.5-.1-.1v-.5h.5l.5.6zm-.5-1.1h.5l.5.5v.5h-.5l-.5-.5v-.5zm1.5 1.7v.5h-.1l-.8-.4v-.6h.5l.4.5zm-.4-1.1h.5l.5.5v.5H57l-.5-.5v-.5zm1.5 1.7v.5h-.1l-.8-.4-.1-.1v-.5h.5l.5.5zm-.4-1h.5l.5.5v.5h-.5l-.5-.5v-.5zm1.5 1.7v.5H59l-.8-.4-.1-.1V73h.5l.5.6zm-.4-1.1h.5l.5.5v.5h-.5l-.5-.5v-.5zm1.5 1.7v.5h-.1l-.7-.4-.1-.1v-.5h.5l.4.5zm-.5-1.1h.5l.5.5v.5h-.5l-.5-.5v-.5zm1.6 1.7v.5h-.1l-.7-.4-.1-.1v-.5h.5l.4.5zm-.5-1.1h.5l.5.5v.5h-.5l-.5-.5v-.5zm1.5 1.7v.5h-.1l-.7-.4-.1-.1v-.5h.5l.4.5zm.1.6zm1 0v.5h-.1l-.7-.4-.2-.1v-.5h.5l.5.5zm-.4-1h.5l.5.5v.5h-.5l-.5-.5V75zm1.5.5H64l-.5-.5v-.5h.5l.5.5v.5zm0-1.7H64l-.5-.5v-.5h.5l.5.5v.5zm0-1.6H64l-.5-.5v-.5h.5l.5.5v.5zm0-1.7H64l-.5-.5v-.5h.5l.5.5v.5zm0-1.6H64l-.5-.5v-.5h.5l.5.5v.5zm0-1.7H64l-.5-.5v-.5h.5l.5.5v.5zm0-1.6H64l-.5-.6v-.5h.5l.5.5v.6zm0-1.7H64l-.5-.5v-.5h.5l.5.5v.5zm0-1.7H64l-.5-.5v-.5h.5l.5.5v.5zm0-1.6H64l-.5-.6v-.5h.5l.5.5v.6zm0-1.7H64l-.5-.5v-.5h.5l.5.5v.5zm0-1.6H64l-.5-.5v-.5h.5l.5.5v.5zm0-1.7H64l-.5-.6v-.5h.5l.5.5v.6zm0-1.7H64l-.5-.5v-.5h.5l.5.5v.5zm0-1.6H64l-.5-.5v-.5h.5l.5.5v.5zm0-2.2v.5H64l-.5-.5v-.5h.5l.5.5zm-.5.5v.5h-.5l-.5-.5v-.5h.5l.5.5zm-.6-1.1v.5h-.5l-.5-.5V49h.5l.5.5zm-.5.5v.5h-.5l-.5-.5v-.5h.5l.5.5zm-.6-1.1v.5h-.5l-.5-.5v-.5h.5l.5.5zm-.5.5v.5h-.5l-.5-.5v-.5h.5l.5.5zm-.5-1.1v.5h-.5l-.5-.5v-.5h.5l.5.5zm-.6.5v.5h-.5l-.5-.5v-.5h.5l.5.5zm-.5-1.2v.5h-.5l-.5-.5v-.5h.5l.5.5zm-.6.6v.5h-.5l-.5-.5v-.5h.5l.5.5zm-.5-1.2v.5h-.5l-.5-.5v-.5h.5l.5.5zm-.5.5v.5h-.5l-.5-.5V47h.5l.5.5zm-.6-1.1v.5h-.5l-.5-.6v-.5h.5l.5.6zm-.5.5v.5H57l-.5-.5v-.5h.5l.5.5zm-.6-1.1v.5h-.5l-.4-.6v-.5h.5l.4.6zm-.5.5v.5h-.5l-.5-.5v-.5h.5l.5.5zm-.5-1.1v.5h-.5l-.5-.5v-.5h.5l.5.5zm-.6.5v.5h-.5l-.5-.5v-.5h.5l.5.5zm-.5-1.2v.5h-.5l-.5-.5V44h.5l.5.5zm-.6.6v.5h-.5l-.4-.6v-.5h.5l.4.6zm-.5-1.2v.5h-.5l-.5-.5v-.5h.5l.5.5zm-.5.5v.5h-.5l-.5-.5v-.5h.5l.5.5zm-.6-1.1v.5h-.5l-.5-.5v-.5h.5l.5.5zm-.5.5v.5h-.5l-.5-.5v-.5h.5l.5.5zm-.6-1.1v.5H51l-.5-.5v-.5h.5l.5.5zm-.5.5v.5h-.5l-.5-.6v-.5h.5l.5.6zm-.5-1.1v.5H50l-.5-.6v-.5h.5l.5.6zm-.6.5v.5h-.5l-.5-.5V42h.5l.5.6zm-.5-1.2v.5h-.5l-.5-.5v-.5h.5l.5.5zm-.6.6v.5h-.5l-.5-.5v-.5h.5l.5.5zm-.5-1.2v.5h-.5l-.5-.5v-.5h.5l.5.5zm-.5.5v.5h-.5l-.5-.5v-.5h.5l.5.5zm-.6-1.1v.5h-.5l-.5-.5v-.5h.5l.5.5zm-.5.5v.5h-.5l-.5-.5v-.5h.5l.5.5zm-.6-1.1v.5h-.5l-.5-.5V39h.5l.5.6zm-.5.5v.5h-.5l-.5-.6v-.5h.5l.5.6zm-.5-1.1v.5h-.5l-.5-.5v-.5h.5l.5.5zm-.6.5v.5H44l-.5-.5V39h.5l.5.5zm-.5-1.2v.5h-.5l-.5-.5v-.5h.5l.5.5zm-.6.6v.5h-.5l-.5-.5v-.5h.5l.5.5zm-.5-1.2v.5h-.5l-.5-.5v-.5h.5l.5.5zm-.5.5v.5h-.5l-.5-.5v-.5h.5l.5.5zm-.6-1.1v.5h-.5l-.5-.6v-.5h.5l.5.6zm-.5.5v.5h-.5l-.5-.5v-.5h.5l.5.5zm-1.5-1.7h.5l.5.5v.6h-.5l-.5-.5v-.6zm0 1.7h.5l.5.5v.5h-.5l-.5-.5v-.5zm0 1.6h.5l.5.5v.5h-.5l-.5-.5v-.5zm0 1.7h.5l.5.5v.6h-.5l-.5-.5v-.6zm0 1.6h.5l.5.5v.5h-.5l-.5-.5v-.5zm0 1.7h.5l.5.5v.5h-.5l-.5-.5v-.5zm-.1 1.7h.5l.5.5v.5h-.5l-.5-.5v-.5zm0 1.6h.5l.5.5v.5h-.5l-.5-.5v-.5zm0 1.7h.5l.5.5v.5h-.5l-.5-.5v-.5zm0 1.6h.5l.5.5v.5h-.5l-.5-.5v-.5zm0 1.7h.5l.5.5v.5h-.5l-.5-.5v-.5zm0 1.7h.5l.5.5v.5h-.5l-.5-.5v-.5zm.1 1.6h.5l.5.5v.5h-.5l-.5-.5v-.5zm-.1 1.7h.5l.5.5v.5h-.5l-.5-.5v-.5zm.1 1.6h.5l.5.5v.5h-.5l-.5-.5v-.5zm0 2.2v-.5h.5l.5.5v.5h-.5l-.5-.5zm.5-.5v-.5h.5l.5.5v.5h-.5l-.5-.5zm.5 1.1v-.5h.5l.5.5v.5h-.5l-.5-.5zm.6-.5v-.5h.5l.5.5v.6h-.5l-.5-.6zm.5 1.1V62h.5l.5.5v.5h-.5l-.5-.5zm.6-.5v-.5h.5l.5.5v.5H43l-.5-.5zm.5 1.2v-.5h.5l.5.5v.5h-.5l-.5-.5zm.5-.6v-.5h.5l.5.5v.5H44l-.5-.5zm.6 1.2v-.5h.5l.5.5v.5h-.5l-.5-.5zm.5-.5v-.5h.5l.5.5v.5h-.5l-.5-.5zm.5 1.1v-.5h.5l.5.5v.6h-.5l-.5-.6zm.6-.5v-.5h.5l.5.5v.5h-.5l-.5-.5zm.5 1.1v-.5h.5l.5.5v.5h-.5l-.5-.5zm.6-.5V64h.5l.5.5v.5h-.5l-.5-.5zm.5 1.1v-.5h.5l.5.5v.5h-.5l-.5-.5zm.6-.5v-.5h.5l.5.5v.5h-.5l-.5-.5zm.5 1.2v-.5h.5l.5.5v.5h-.5l-.5-.5zm.5-.6v-.5h.5l.5.5v.5h-.5l-.5-.5zm.6 1.2v-.5h.5l.5.5v.5H50l-.5-.5zm.5-.5v-.5h.5l.5.5v.5h-.5l-.5-.5zm.6 1.1V67h.5l.5.5v.5h-.5l-.5-.5zm.5-.5v-.5h.5l.5.5v.5h-.5l-.5-.5zm.5 1.1v-.5h.5l.5.5v.5h-.5l-.5-.5zm.6-.5v-.5h.5l.5.5v.5h-.5l-.5-.5zm.5 1.1v-.5h.5l.5.5v.5h-.5l-.5-.5zm.6-.5v-.5h.5l.5.5v.5h-.5l-.5-.5zm.5 1.2v-.5h.5l.5.5v.5h-.5l-.5-.5zm.5-.6v-.5h.5l.5.5v.5h-.5l-.5-.5zm.6 1.2v-.5h.5l.5.5v.5h-.5l-.5-.5zm.5-.5V69h.5l.5.5v.5h-.5l-.5-.5zm.6 1.1v-.5h.5l.5.5v.5h-.5l-.5-.5zm.5-.5v-.5h.5l.5.5v.5H57l-.5-.5zm.5 1.1v-.5h.5l.5.5v.5h-.5l-.5-.5zm.6-.5v-.5h.5l.5.5v.5h-.5l-.5-.5zm.5 1.1v-.5h.5l.5.5v.5h-.5l-.5-.5zm.6-.5v-.5h.5l.5.5v.5h-.5l-.5-.5zm.5 1.2V72h.5l.5.5v.5h-.5l-.5-.5zm.5-.6v-.5h.5l.5.5v.5h-.5l-.5-.5zm.6 1.2v-.5h.5l.5.5v.5h-.5l-.5-.5zm.5-.5v-.5h.5l.5.5v.5h-.5l-.5-.5zm.5 1.1v-.5h.5l.5.5v.5h-.5l-.5-.5zm.6 1.1v-.5h.5l.5.5v.5h-.5l-.5-.5zm.5-.5v-.5h.5l.5.5v.5h-.5l-.5-.5zm1.6.1h-.5l-.5-.6v-.5h.5l.5.5v.6zm0-1.7h-.5l-.5-.6v-.5h.5l.5.5v.6zm0-1.6h-.5l-.5-.6V70h.5l.5.5v.6zm0-1.7h-.5l-.5-.6v-.5h.5l.5.5v.6zm-.1-1.7h-.5l-.4-.5v-.5h.5l.5.5v.5zm0-1.6h-.5l-.4-.6V65h.5l.5.5v.6zm0-1.7h-.5l-.4-.5v-.5h.5l.5.5v.5zm0-1.6h-.5l-.4-.6v-.5h.5l.5.5v.6zm0-1.7h-.5l-.4-.6V60h.5l.5.5v.6zm0-1.7h-.5l-.4-.5v-.5h.5l.5.5v.5zm.1-1.6h-.5l-.5-.6v-.5h.5l.5.5v.6zm0-1.7h-.5l-.5-.5v-.5h.5l.5.5v.5zm0-1.6h-.5l-.5-.6v-.5h.5l.5.6v.5zm0-2.2v.5h-.5l-.5-.6v-.5h.5l.5.6zm-.6-1.2v.5h-.5l-.5-.5v-.5h.5l.5.5zm-.5.6v.5h-.5l-.5-.5v-.5h.5l.5.5zm-.6-1.2v.5h-.5l-.5-.5V50h.5l.5.5zm-.5.6v.5h-.5l-.5-.6v-.5h.5l.5.6zm-.5-1.2v.5h-.5l-.5-.5v-.5h.5l.5.5zm-.6.5v.5h-.5l-.5-.5v-.5h.5l.5.5zm-.5-1.1v.5h-.5l-.5-.5v-.5h.5l.5.5zm-.6.5v.5h-.5l-.5-.5v-.5h.5l.5.5zm-.5-1.1v.5h-.5l-.5-.5v-.5h.5l.5.5zm-.5.5v.5h-.5l-.5-.5v-.5h.5l.5.5zm-.6-1.1v.5h-.5L57 48v-.5h.5l.5.6zm-.5.5v.5H57l-.5-.5V48h.5l.5.6zm-.6-1.2v.5h-.5l-.4-.5v-.5h.5l.4.5zm-.5.6v.5h-.5l-.5-.5v-.5h.5l.5.5zm-.5-1.2v.5h-.5l-.5-.5v-.5h.5l.5.5zm-.6.5v.5h-.5l-.5-.5v-.5h.5l.5.5zm-.5-1.1v.5h-.5l-.5-.5v-.5h.5l.5.5zm-.6.5v.5h-.5l-.5-.5v-.5h.5l.5.5zm-.5-1.1v.5h-.5l-.5-.5V45h.5l.5.6zm-.5.5v.5h-.5l-.5-.6v-.5h.5l.5.6zm-.6-1.1v.5h-.5l-.5-.5v-.5h.5l.5.5zm-.5.5v.5h-.5l-.5-.5V45h.5l.5.5zm-.6-1.2v.5H51l-.5-.5v-.5h.5l.5.5zm-.5.6v.5h-.5l-.5-.6v-.5h.5l.5.6zm-.5-1.2v.5H50l-.5-.5v-.5h.5l.5.5zm-.6.5v.5h-.5l-.5-.5v-.5h.5l.5.5zm-.5-1.1v.5h-.5l-.5-.6v-.5h.5l.5.6zm-.6.5v.5h-.5l-.5-.5v-.5h.5l.5.5zm-.5-1.1v.5h-.5l-.5-.5V42h.5l.5.5zm-.5.5v.5h-.5l-.5-.5v-.5h.5l.5.5zm-.6-1.1v.5h-.5l-.5-.5v-.5h.5l.5.5zm-.5.5v.5h-.5l-.5-.5v-.5h.5l.5.5zm-.6-1.2v.5h-.5l-.5-.5v-.5h.5l.5.5zm-.5.6v.5h-.5l-.5-.5v-.5h.5l.5.5zm-.5-1.2v.5h-.5l-.5-.5V40h.5l.5.6zm-.6.5v.5H44l-.5-.5v-.5h.5l.5.5zM44 40v.5h-.5l-.5-.6v-.5h.5l.5.6zm-.6.5v.5h-.5l-.5-.5V40h.5l.5.5zm-.5-1.1v.5h-.5l-.5-.5v-.5h.5l.5.5zm-.5.5v.5h-.5l-.5-.5v-.5h.5l.5.5zm-.6-1.1v.5h-.5l-.5-.5v-.5h.5l.5.5zm-1.5-.1h.5l.5.5v.5h-.5l-.5-.5v-.5zm0 1.7h.5l.5.5v.5h-.5l-.5-.5v-.5zm0 1.6h.5l.5.5v.5h-.5l-.5-.5V42zm0 1.7h.5l.5.5v.5h-.5l-.5-.5v-.5zm0 1.6h.5l.5.5v.5h-.5l-.5-.5v-.5zm0 1.7h.5l.5.5v.5h-.5l-.5-.5V47zm0 1.7h.5l.5.5v.5h-.5l-.5-.5v-.5zm0 1.6h.5l.5.5v.5h-.5l-.5-.5v-.5zm0 1.7h.5l.5.5v.5h-.5l-.5-.5V52zm0 1.6h.5l.5.5v.5h-.5l-.5-.5v-.5zm0 1.7h.5l.5.5v.5h-.5l-.5-.5v-.5zm0 1.7h.5l.5.5v.5h-.5l-.5-.5V57zm0 2.1v-.5h.5l.5.5v.5h-.5l-.5-.5zm.5 1.2v-.5h.5l.5.5v.5h-.5l-.5-.5zm.6-.6v-.5h.5l.5.5v.5h-.5l-.5-.5zm.5 1.2v-.5h.5l.5.5v.5h-.5l-.5-.5zm.6-.5v-.5h.5l.5.5v.5H43l-.5-.5zm.5 1.1V61h.5l.5.5v.5h-.5l-.5-.5zm.5-.5v-.5h.5l.5.5v.5H44l-.5-.5zm.6 1.1v-.5h.5l.5.5v.5h-.5l-.5-.5zm.5-.5v-.5h.5l.5.5v.5h-.5l-.5-.5zm.6 1.1v-.5h.5l.5.5v.5h-.5l-.5-.5zm.5-.5v-.5h.5l.5.5v.5h-.5l-.5-.5zm.5 1.2v-.5h.5l.5.5v.5h-.5l-.5-.5zm.6-.6v-.5h.5l.5.5v.5h-.5l-.5-.5zm.5 1.2v-.5h.5l.5.5v.5h-.5l-.5-.5zm.6-.5V63h.5l.5.5v.5h-.5l-.5-.5zm.5 1.1v-.5h.5l.5.5v.5h-.5l-.5-.5zm.5-.5v-.5h.5l.5.5v.5h-.5l-.5-.5zm.6 1.1v-.5h.5l.5.5v.5H50l-.5-.5zm.5-.5v-.5h.5l.5.5v.5h-.5l-.5-.5zm.6 1.1v-.5h.5l.5.5v.5h-.5l-.5-.5zm.5-.5v-.5h.5l.5.5v.5h-.5l-.5-.5zm.5 1.2V66h.5l.5.5v.5h-.5l-.5-.5zm.6-.6v-.5h.5l.5.5v.5h-.5l-.5-.5zm.5 1.2v-.5h.5l.5.5v.5h-.5l-.5-.5zm.6-.5v-.5h.5l.5.5v.5h-.5l-.5-.5zm.5 1.1v-.5h.5l.5.5v.5h-.5l-.5-.5zm.5-.5v-.5h.5l.5.5v.5h-.5l-.5-.5zm.6 1.1v-.5h.5l.5.5v.5h-.5l-.5-.5zm.5-.5v-.5h.5l.5.5v.5h-.5l-.5-.5zm.6 1.1v-.5h.5l.5.5v.5h-.5l-.5-.5zm.5-.5v-.5h.5l.5.5v.6H57l-.5-.6zm.5 1.2v-.5h.5l.5.5v.5h-.5l-.5-.5zm.6-.5v-.5h.5l.5.5v.5h-.5l-.5-.5zm.5 1.1v-.5h.5l.5.5v.5h-.5l-.5-.5zm.6-.5v-.5h.5l.5.5v.5h-.5l-.5-.5zm.5 1.1v-.5h.5l.5.5v.5h-.5l-.5-.5zm.5-.5v-.5h.5l.5.5v.5h-.5l-.5-.5zm.6 1.1v-.5h.5l.5.5v.6h-.5l-.5-.6zm.5-.5v-.5h.5l.5.5v.5h-.5l-.5-.5zm.6 1.1v-.5h.5l.5.5v.5h-.5l-.5-.5zm.5 1.2v-.5h.5l.5.5v.5h-.5l-.5-.5zm1.5 0h-.5l-.5-.5v-.5h.5l.5.5v.5zm0-1.6h-.5l-.5-.6v-.5h.5l.5.5v.6zm0-1.7h-.5l-.5-.5v-.5h.5l.5.5v.5zm0-1.7h-.5l-.5-.5v-.5h.5l.5.5v.5zm0-1.6h-.5l-.5-.6v-.5h.5l.5.5v.6zm0-1.7h-.5l-.5-.5v-.5h.5l.5.5v.5zm0-1.6h-.5l-.5-.5v-.5h.5l.5.5v.5zm0-1.7h-.5l-.5-.6v-.5h.5l.5.5v.6zm0-1.6h-.5l-.5-.5V59h.5l.5.5v.5zm0-1.7h-.5l-.5-.5v-.5h.5l.5.5v.5zm0-1.7h-.5l-.5-.5v-.5h.5l.5.5v.5zm0-1.6h-.5l-.5-.5V54h.5l.5.5v.5zm0-2.2v.5h-.5l-.5-.5v-.5h.5l.5.5zm-.5.5v.5h-.5l-.5-.5v-.5h.5l.5.5zm-.6-1.1v.5h-.5l-.5-.5v-.5h.5l.5.5zm-.5.5v.5h-.5l-.5-.5v-.5h.5l.5.5zm-.5-1.1v.5h-.5l-.5-.5V51h.5l.5.6zm-.6.5v.5h-.5l-.5-.6v-.5h.5l.5.6zm-.5-1.1v.5h-.5l-.5-.5v-.5h.5l.5.5zm-.6.5v.5h-.5l-.5-.5V51h.5l.5.5zm-.5-1.2v.5h-.5l-.5-.5v-.5h.5l.5.5zm-.5.6v.5h-.5l-.5-.5v-.5h.5l.5.5zm-.6-1.2v.5h-.5l-.5-.5v-.5h.5l.5.5zm-.5.5v.5H57l-.5-.5v-.5h.5l.5.5zm-.6-1.1v.5h-.5L56 49v-.5h.5l.4.6zm-.5.5v.5h-.5l-.5-.5v-.5h.5l.5.5zm-.5-1.1v.5h-.5l-.5-.5V48h.5l.5.5zm-.6.5v.5h-.5l-.5-.5v-.5h.5l.5.5zm-.5-1.2v.5h-.5l-.5-.5v-.5h.5l.5.5zm-.6.6v.5h-.5l-.5-.5v-.5h.5l.5.5zm-.5-1.2v.5h-.5l-.5-.5v-.5h.5l.5.5zm-.5.6v.5h-.5l-.5-.5v-.5h.5l.5.5zm-.6-1.2v.5h-.5l-.5-.5V46h.5l.5.6zm-.5.5v.5h-.5l-.5-.5v-.5h.5l.5.5zm-.6-1.1v.5H51l-.5-.5v-.5h.5l.5.5zm-.5.5v.5h-.5l-.5-.5V46h.5l.5.5zm-.5-1.1v.5H50l-.5-.5v-.5h.5l.5.5zm-.6.5v.5h-.5l-.5-.5v-.5h.5l.5.5zm-.5-1.2v.5h-.5l-.5-.5v-.5h.5l.5.5zm-.6.6v.5h-.5l-.5-.5v-.5h.5l.5.5zm-.5-1.2v.5h-.5l-.5-.5v-.5h.5l.5.5zm-.5.6v.5h-.5l-.5-.5v-.5h.5l.5.5zm-.6-1.2v.5h-.5l-.5-.5V43h.5l.5.5zm-.5.5v.5h-.5l-.5-.5v-.5h.5l.5.5zm-.6-1.1v.5h-.5l-.5-.5v-.5h.5l.5.5zm-.5.5v.5h-.5l-.5-.5v-.5h.5l.5.5zm-.5-1.1v.5h-.5l-.5-.5v-.5h.5l.5.5zm-.6.5v.5H44l-.5-.5v-.5h.5l.5.5zm-.5-1.2v.5h-.5l-.5-.5v-.5h.5l.5.5zm-.6.6v.5h-.5l-.5-.5v-.5h.5l.5.5zm-.5-1.2v.5h-.5l-.5-.5v-.5h.5l.5.5zm-.5.6v.5h-.5l-.5-.5V41h.5l.5.6zm-1.6-1.8h.5l.5.5v.5h-.5l-.5-.5v-.5zm0 1.7h.5l.5.5v.5h-.5l-.5-.5v-.5zm0 1.7h.5l.5.5v.5h-.5l-.5-.5v-.5zm0 1.6h.5l.5.5v.5h-.5l-.5-.5v-.5zm0 1.7h.5l.5.5v.5h-.5l-.5-.5v-.5zm0 1.6h.5l.5.5v.5h-.5l-.5-.5v-.5zm0 1.7h.5l.5.5v.5h-.5l-.5-.5v-.5zm0 1.7h.5l.5.5v.5h-.5l-.5-.5v-.5zm0 1.6h.5l.5.5v.5h-.5l-.5-.5v-.5zm0 1.7h.5l.5.5v.5h-.5l-.5-.5v-.5zm0 1.6h.5l.5.5v.5h-.5l-.5-.5v-.5zm0 2.2v-.5h.5l.5.5v.5h-.5l-.5-.5zm.6-.5v-.5h.5l.5.5v.5h-.5l-.5-.5zm.5 1.1v-.5h.5l.5.5v.5h-.5l-.5-.5zm.6-.5v-.5h.5l.5.5v.5H43l-.5-.5zm.5 1.1v-.5h.5l.5.5v.5h-.5l-.5-.5zm.5-.5v-.5h.5l.5.5v.5H44l-.5-.5zm.6 1.2V60h.5l.5.5v.5h-.5l-.5-.5zm.5-.6v-.5h.5l.5.5v.5h-.5l-.5-.5zm.5 1.2v-.5h.5l.5.5v.5h-.5l-.5-.5zm.6-.5v-.5h.5l.5.5v.5h-.5l-.5-.5zm.5 1.1v-.5h.5l.5.5v.5h-.5l-.5-.5zm.6-.5v-.5h.5l.5.5v.5h-.5l-.5-.5zm.5 1.1v-.5h.5l.5.5v.5h-.5l-.5-.5zm.5-.5v-.5h.5l.5.5v.5h-.5l-.5-.5zm.6 1.1v-.5h.5l.5.5v.5h-.5l-.5-.5zm.5-.5v-.5h.5l.5.5v.6h-.5l-.5-.6zm.6 1.2v-.5h.5l.5.5v.5H50l-.5-.5zm.5-.6v-.5h.5l.5.5v.5h-.5L50 63zm.6 1.2v-.5h.5l.5.5v.5h-.5l-.5-.5zm.5-.5v-.5h.5l.5.5v.5h-.5l-.5-.5zm.5 1.1v-.5h.5l.5.5v.5h-.5l-.5-.5zm.6-.5v-.5h.5l.5.5v.5h-.5l-.5-.5zm.5 1.1v-.5h.5l.5.5v.6h-.5l-.5-.6zm.6-.5v-.5h.5l.5.5v.5h-.5l-.5-.5zm.5 1.1v-.5h.5l.5.5v.5h-.5l-.5-.5zm.5-.5V65h.5l.5.5v.5h-.5l-.5-.5zm.6 1.2v-.5h.5l.5.5v.5h-.5l-.5-.5zm.5-.6v-.5h.5l.5.5v.5h-.5l-.5-.5zm.6 1.2v-.5h.5l.5.5v.5h-.5l-.5-.5zm.5-.5v-.5h.5l.5.5v.5H57l-.5-.5zm.5 1.1v-.5h.5l.5.6v.5h-.5l-.5-.6zm.6-.5v-.5h.5l.5.5v.6h-.5l-.5-.6zm.5 1.1V68h.5l.5.5v.5h-.5l-.5-.5zm.6-.5v-.5h.5l.5.5v.5h-.5l-.5-.5zm.5 1.1v-.5h.5l.5.5v.5h-.5l-.5-.5zm.5-.5v-.5h.5l.5.5v.5h-.5l-.5-.5zm.6 1.2v-.5h.5l.5.5v.5h-.5l-.5-.5zm.5-.6v-.5h.5l.5.5v.5h-.5l-.5-.5zm.5 1.2v-.5h.5l.5.5v.5h-.5l-.5-.5zm1.6 1.7h-.5l-.5-.5V71h.5l.5.5v.6zm0-1.7h-.5l-.5-.5v-.5h.5l.5.5v.5zm0-1.6h-.5l-.5-.5v-.5h.5l.5.5v.5zm0-1.7h-.5l-.5-.5V66h.5l.5.5v.6zm0-1.6h-.5l-.5-.5v-.5h.5l.5.5v.5zm0-1.7h-.5l-.5-.5v-.5h.5l.5.5v.5zm0-1.7h-.5l-.5-.5v-.5h.5l.5.5v.5zm0-1.6h-.5l-.5-.5v-.5h.5l.5.5v.5zm0-1.7h-.5l-.5-.5v-.5h.5l.5.5v.5zm0-1.6h-.5l-.5-.5v-.5h.5l.5.5v.5zm0-2.2v.5h-.5l-.5-.5v-.5h.5l.5.5zm-.6-1.2v.5h-.5l-.5-.5v-.5h.5l.5.5zm-.5.6v.5h-.5l-.5-.5v-.5h.5l.5.5zm-.5-1.2v.5h-.5l-.5-.5v-.5h.5l.5.5zm-.6.6v.5h-.5l-.5-.5v-.5h.5l.5.5zm-.5-1.2v.5h-.5l-.5-.5V52h.5l.5.6zm-.6.5v.5h-.5l-.5-.5v-.5h.5l.5.5zm-.5-1.1v.5h-.5l-.5-.5v-.5h.5l.5.5zm-.5.5v.5h-.5l-.5-.5V52h.5l.5.5zm-.6-1.1v.5h-.5l-.5-.6v-.5h.5l.5.6zm-.5.5v.5H57l-.5-.5v-.5h.5l.5.5zm-.6-1.1v.5h-.5l-.4-.6v-.5h.5l.4.6zm-.5.5v.5h-.5l-.5-.5v-.5h.5l.5.5zm-.5-1.2v.5h-.5l-.5-.5v-.5h.5l.5.5zm-.6.6v.5h-.5l-.5-.5v-.5h.5l.5.5zm-.5-1.2v.5h-.5l-.5-.5V49h.5l.5.5zm-.6.5v.5h-.5l-.4-.5v-.5h.5l.4.5zm-.5-1.1v.5h-.5l-.5-.5v-.5h.5l.5.5zm-.5.5v.5h-.5l-.5-.5v-.5h.5l.5.5zm-.6-1.1v.5h-.5l-.5-.5v-.5h.5l.5.5zm-.5.5v.5h-.5l-.5-.5v-.5h.5l.5.5zm-.6-1.1v.5H51l-.5-.5v-.5h.5l.5.5zm-.5.5v.5h-.5l-.5-.6v-.5h.5l.5.6zm-.5-1.2v.5H50l-.5-.5v-.5h.5l.5.5zm-.6.6v.5h-.5l-.5-.5V47h.5l.5.6zm-.5-1.2v.5h-.5l-.5-.5v-.5h.5l.5.5zm-.6.5v.5h-.5l-.5-.5v-.5h.5l.5.5zm-.5-1.1v.5h-.5l-.5-.5v-.5h.5l.5.5zm-.5.5v.5h-.5l-.5-.5v-.5h.5l.5.5zm-.6-1.1v.5h-.5l-.5-.5v-.5h.5l.5.5zm-.5.5v.5h-.5l-.5-.5v-.5h.5l.5.5zm-.6-1.2v.5h-.5l-.5-.5V44h.5l.5.5zm-.5.6v.5h-.5l-.5-.6v-.5h.5l.5.6zm-.5-1.2v.5h-.5l-.5-.5v-.5h.5l.5.5zm-.6.5v.6H44l-.5-.5V44h.5l.5.4zm-.5-1.1v.5h-.5l-.5-.6v-.5h.5l.5.6zm-.6.5v.5h-.5l-.5-.5v-.5h.5l.5.5zm-.5-1.1v.5h-.5l-.5-.5v-.5h.5l.5.5zm-1.5-.1h.5l.5.5v.5h-.5l-.5-.5v-.5zm0 1.7h.5l.5.5v.5h-.5l-.5-.5v-.5zm0 1.7h.5l.5.5v.5h-.5l-.5-.5V46zm0 1.6h.5l.5.5v.5h-.5l-.5-.5v-.5zm0 1.7h.5l.5.5v.5h-.5l-.5-.5v-.5zm0 1.6h.5l.5.5v.6h-.5l-.5-.5v-.6zm0 1.7h.5l.5.5v.5h-.5l-.5-.5v-.5zm0 1.7h.5l.5.5v.5h-.5l-.5-.5v-.5zm0 2.1v-.5h.5l.5.5v.6h-.5l-.5-.6zm.5 1.2v-.5h.5l.5.5v.5h-.5l-.5-.5zm.6-.6v-.5h.5l.5.5v.5H43l-.5-.5zm.5 1.2v-.5h.5l.5.5v.5h-.5l-.5-.5zm.5-.5v-.5h.5l.5.5v.5H44l-.5-.5zm.6 1.1v-.5h.5l.5.5v.5h-.5l-.5-.5zm.5-.5v-.5h.5l.5.5v.5h-.5l-.5-.5zm.5 1.1v-.5h.5l.5.5v.6h-.5l-.5-.6zm.6-.5v-.5h.5l.5.5v.5h-.5l-.5-.5zm.5 1.1v-.5h.5l.5.5v.5h-.5l-.5-.5zm.6-.5V59h.5l.5.5v.5h-.5l-.5-.5zm.5 1.2v-.5h.5l.5.5v.5h-.5l-.5-.5zm.5-.6v-.5h.5l.5.5v.5h-.5l-.5-.5zm.6 1.2v-.5h.5l.5.5v.5h-.5l-.5-.5zm.5-.5v-.5h.5l.5.5v.5h-.5l-.5-.5zm.6 1.1v-.5h.5l.5.5v.5H50l-.5-.5zm.5-.5v-.5h.5l.5.5v.6h-.5l-.5-.6zm.6 1.1V62h.5l.5.5v.5h-.5l-.5-.5zm.5-.5v-.5h.5l.5.5v.5h-.5l-.5-.5zm.5 1.1v-.5h.5l.5.5v.5h-.5l-.5-.5zm.6-.5v-.5h.5l.5.5v.5h-.5l-.5-.5zm.5 1.2v-.5h.5l.5.5v.5h-.5l-.5-.5zm.6-.6v-.5h.5l.5.5v.5h-.5l-.5-.5zm.5 1.2v-.5h.5l.5.5v.5h-.5l-.5-.5zm.5-.5v-.5h.5l.5.5v.5h-.5l-.5-.5zm.6 1.1v-.5h.5l.5.5v.5h-.5l-.5-.5zm.5-.5V64h.5l.5.5v.5h-.5l-.5-.5zm.6 1.1v-.5h.5l.5.5v.5h-.5l-.5-.5zm.5-.5v-.5h.5l.5.5v.5H57l-.5-.5zm.5 1.1v-.5h.5l.5.5v.5h-.5l-.5-.5zm.6-.5v-.5h.5l.5.5v.5h-.5l-.5-.5zm.5 1.2v-.5h.5l.5.5v.5h-.5l-.5-.5zm.6-.6v-.5h.5l.5.5v.5h-.5l-.5-.5zm.5 1.2V67h.5l.5.5v.5h-.5l-.5-.5zm.5-.5v-.5h.5l.5.5v.5h-.5l-.5-.5zm.6 1.1v-.5h.5l.5.5v.5h-.5l-.5-.5zm.5-.5v-.5h.5l.5.5v.5h-.5l-.5-.5zm1.5 1.7h-.5l-.5-.5v-.5h.5l.5.5v.5zm0-1.7h-.5l-.5-.5v-.5h.5l.5.5v.5zm0-1.6h-.5l-.5-.5V65h.5l.5.5v.5zm0-1.7h-.5l-.5-.5v-.5h.5l.5.5v.5zm0-1.6h-.5l-.5-.5v-.5h.5l.5.5v.5zm0-1.7h-.5l-.5-.5V60h.5l.5.5v.5zm0-1.7h-.5l-.5-.5v-.5h.5l.5.5v.5zm0-1.6h-.5l-.5-.5v-.5h.5l.5.5v.5zm0-2.2v.5h-.5l-.5-.5V55h.5l.5.5zm-.5.5v.5h-.5l-.5-.5v-.5h.5l.5.5zm-.5-1.1v.5h-.5l-.5-.5v-.5h.5l.5.5zm-.6.5v.5h-.5l-.5-.5v-.5h.5l.5.5zm-.5-1.1v.5h-.5l-.5-.5v-.5h.5l.5.5zm-.6.5v.5h-.5l-.5-.5v-.5h.5l.5.5zm-.5-1.1v.5h-.5l-.5-.5v-.5h.5l.5.5zm-.5.5v.5h-.5l-.5-.5v-.5h.5l.5.5zM58 53v.5h-.5L57 53v-.5h.5l.5.5zm-.5.6v.5L57 54l-.5-.5V53h.5l.5.6zm-.6-1.2v.5h-.5l-.4-.5v-.5h.5l.4.5zm-.5.5v.5h-.5l-.5-.5v-.5h.5l.5.5zm-.5-1.1v.5h-.5l-.5-.5v-.5h.5l.5.5zm-.6.5v.5h-.5l-.5-.5v-.5h.5l.5.5zm-.5-1.1v.5h-.5l-.5-.5v-.5h.5l.5.5zm-.6.5v.5h-.5l-.5-.5v-.5h.5l.5.5zm-.5-1.2v.5h-.5l-.5-.5V50h.5l.5.5zm-.5.6v.5h-.5l-.5-.6v-.5h.5l.5.6zm-.6-1.2v.5h-.5l-.5-.5v-.5h.5l.5.5zm-.5.6v.5h-.5l-.5-.5V50h.5l.5.5zm-.6-1.2v.5H51l-.5-.5v-.5h.5l.5.5zm-.5.5v.5h-.5l-.5-.5v-.5h.5l.5.5zm-.5-1.1v.5H50l-.5-.5v-.5h.5l.5.5zm-.6.5v.5h-.5l-.5-.5v-.5h.5l.5.5zm-.5-1.1v.5h-.5l-.5-.6v-.5h.5l.5.6zm-.6.5v.5h-.5l-.5-.5V48h.5l.5.6zm-.5-1.2v.6h-.5l-.5-.5V47h.5l.5.4zm-.5.6v.5h-.5l-.5-.5v-.5h.5l.5.5zm-.6-1.2v.5h-.5l-.5-.5v-.5h.5l.5.5zm-.5.6v.5h-.5l-.5-.5v-.5h.5l.5.5zm-.6-1.2v.5h-.5l-.5-.5v-.5h.5l.5.5zm-.5.5v.5h-.5l-.5-.5v-.5h.5l.5.5zm-.5-1.1v.5h-.5l-.5-.5V45h.5l.5.6zm-.6.5v.5H44l-.5-.5v-.5h.5l.5.5zM44 45v.5h-.5l-.5-.6v-.5h.5l.5.6zm-.6.5v.5H43l-.5-.5V45h.5l.4.5zm-1.5-1.7h.5l.5.5v.5h-.5l-.5-.5v-.5zm0 1.6h.5l.5.5v.5h-.5l-.5-.5v-.5zm0 1.7h.5l.5.5v.5h-.5l-.5-.5v-.5zm0 1.7h.5l.5.5v.5h-.5l-.5-.5v-.5zm0 1.6h.5l.5.5v.5h-.5l-.5-.5v-.5zm0 1.7h.5l.5.5v.5h-.5l-.5-.5v-.5zm0 1.6h.5l.5.5v.5h-.5l-.5-.5v-.5zm0 2.2v-.5h.5l.5.5v.5h-.5l-.5-.5zm.5-.5v-.5h.5l.5.5v.5h-.5l-.5-.5zm.6 1.1V56h.5l.5.5v.5h-.5l-.5-.5zm.5-.5v-.5h.5l.5.5v.5H44l-.5-.5zm.6 1.1v-.5h.5l.5.5v.5h-.5l-.5-.5zm.5-.5v-.5h.5l.5.5v.5h-.5l-.5-.5zm.5 1.2v-.5h.5l.5.5v.5h-.5l-.5-.5zm.6-.6v-.5h.5l.5.5v.5h-.5l-.5-.5zm.5 1.2v-.5h.5l.5.5v.5h-.5l-.5-.5zm.6-.5v-.5h.5l.5.5v.5h-.5l-.5-.5zm.5 1.1v-.5h.5l.5.5v.5h-.5l-.5-.5zm.5-.5V58h.5l.5.5v.5h-.5l-.5-.5zm.6 1.1v-.5h.5l.5.5v.5h-.5l-.5-.5zm.5-.5v-.5h.5l.5.5v.5h-.5l-.5-.5zm.6 1.1v-.5h.5l.5.5v.5H50l-.5-.5zm.5-.5v-.5h.5l.5.5v.5h-.5l-.5-.5zm.6 1.2v-.5h.5l.5.5v.5h-.5l-.5-.5zm.5-.6v-.5h.5l.5.5v.5h-.5l-.5-.5zm.5 1.2V61h.5l.5.5v.5h-.5l-.5-.5zm.6-.5v-.5h.5l.5.5v.5h-.5l-.5-.5zm.5 1.1v-.5h.5l.5.5v.5h-.5l-.5-.5zm.6-.5v-.5h.5l.5.5v.5h-.5l-.5-.5zm.5 1.1v-.5h.5l.5.5v.5h-.5l-.5-.5zm.5-.5v-.5h.5l.5.5v.5h-.5l-.5-.5zm.6 1.1v-.5h.5l.5.5v.5h-.5l-.5-.5zm.5-.5v-.5h.5l.5.5v.5h-.5l-.5-.5zm.5 1.2v-.5h.5l.5.5v.5h-.5l-.5-.5zm.6-.6v-.5h.5l.5.5v.6H57l-.5-.6zm.5 1.2v-.5h.5l.5.5v.5h-.5l-.5-.5zm.6-.5v-.5h.5l.5.5v.5h-.5l-.5-.5zm.5 1.1v-.5h.5l.5.5v.5h-.5l-.5-.5zm.5-.5v-.5h.5l.5.5v.5h-.5l-.5-.5zm.6 1.1v-.5h.5l.5.5v.5h-.5l-.5-.5zm.5-.5v-.5h.5l.5.5v.5h-.5l-.5-.5zm.6 1.1v-.5h.5l.5.5v.6h-.5l-.5-.6zm1.5.1h-.5l-.5-.5v-.5h.5l.5.5v.5zm0-1.7h-.5l-.5-.5v-.5h.5l.5.5v.5zm0-1.6h-.5l-.5-.5v-.5h.5l.5.5v.5zm0-1.7h-.5l-.5-.5v-.5h.5l.5.5v.5zm0-1.6h-.5l-.5-.5v-.5h.5l.5.5v.5zm0-2.2v.5h-.5l-.5-.5v-.5h.5l.5.5zm-.5-1.2v.5h-.5l-.5-.5V56h.5l.5.5zm-.6.6v.5h-.5l-.5-.6v-.5h.5l.5.6zm-.5-1.2v.5h-.5l-.5-.5v-.5h.5l.5.5zm-.6.6v.5h-.5l-.5-.5V56h.5l.5.5zm-.5-1.2v.5h-.5l-.5-.5v-.5h.5l.5.5zm-.5.5v.5h-.5l-.5-.5v-.5h.5l.5.5zm-.6-1.1v.5h-.5l-.5-.6v-.5h.5l.5.6zm-.5.5v.5H57l-.5-.5v-.5h.5l.5.5zm-.6-1.1v.5h-.5L56 54v-.5h.5l.4.6zm-.5.5v.5h-.5l-.5-.5V54h.5l.5.6zm-.5-1.2v.6h-.5l-.5-.5V53h.5l.5.4zm-.6.6v.5h-.5l-.5-.5v-.5h.5l.5.5zm-.5-1.2v.5h-.5l-.5-.5v-.5h.5l.5.5zm-.6.6v.5h-.5l-.5-.5v-.5h.5l.5.5zm-.5-1.2v.5h-.5l-.5-.5v-.5h.5l.5.5zm-.5.5v.5h-.5l-.5-.5v-.5h.5l.5.5zm-.6-1.1v.5h-.5l-.5-.5V51h.5l.5.6zm-.5.5v.5h-.5l-.5-.5v-.5h.5l.5.5zm-.6-1.1v.5H51l-.5-.5v-.5h.5l.5.5zm-.5.5v.5h-.5l-.5-.6v-.5h.5l.5.6zm-.5-1.2v.5H50l-.5-.5v-.5h.5l.5.5zm-.6.6v.5h-.5l-.5-.5v-.5h.5l.5.5zm-.5-1.2v.5h-.5l-.5-.5v-.5h.5l.5.5zm-.6.6v.5h-.5l-.5-.5v-.5h.5l.5.5zm-.5-1.2v.5h-.5l-.5-.6v-.5h.5l.5.6zm-.6.5v.5h-.5l-.5-.5v-.5h.5l.5.5zm-.5-1.1v.5h-.5l-.5-.5V48h.5l.5.5zm-.5.5v.5h-.5l-.5-.5v-.5h.5l.5.5zm-.6-1.1v.5h-.5l-.5-.5v-.5h.5l.5.5zm-.5.5v.5h-.5l-.5-.5v-.5h.5l.5.5zm-.5-1.2v.5h-.5l-.5-.5v-.5h.5l.5.5zm-.6.6v.5H44l-.5-.5v-.5h.5l.5.5zm-.5-1.2v.5h-.5l-.5-.5v-.5h.5l.5.5zm-1.6 0h.5l.5.5v.5h-.5l-.5-.5v-.5zm0 1.6h.5l.5.5v.5h-.5l-.5-.5v-.5zm0 1.7h.5l.5.5v.6h-.5l-.5-.5v-.6zm0 1.7h.5l.5.5v.5h-.5l-.5-.5v-.5zm0 2.1v-.5h.5l.5.5v.5h-.5l-.5-.5zm.6 1.2v-.5h.5l.5.5v.5h-.5l-.5-.5zm.5-.6v-.5h.5l.5.5v.5H44l-.5-.5zm.6 1.2V55h.5l.5.5v.5h-.5l-.5-.5zm.5-.5v-.5h.5l.5.5v.5h-.5l-.5-.5zm.5 1.1v-.5h.5l.5.5v.5h-.5l-.5-.5zm.6-.5v-.5h.5l.5.5v.5h-.5l-.5-.5zm.5 1.1v-.5h.5l.5.5v.5h-.5l-.5-.5zm.6-.5v-.5h.5l.5.5v.5h-.5l-.5-.5zm.5 1.1v-.5h.5l.5.5v.5h-.5l-.5-.5zm.5-.5v-.5h.5l.5.5v.5h-.5l-.5-.5zm.6 1.2v-.5h.5l.5.5v.5h-.5l-.5-.5zm.5-.6v-.5h.5l.5.5v.6h-.5l-.5-.6zm.6 1.2v-.5h.5l.5.5v.5H50l-.5-.5zm.5-.5v-.5h.5l.5.5v.5h-.5l-.5-.5zm.6 1.1v-.5h.5l.5.5v.5h-.5l-.5-.5zm.5-.5v-.5h.5l.5.5v.5h-.5l-.5-.5zm.5 1.1v-.5h.5l.5.5v.5h-.5l-.5-.5zm.6-.5v-.5h.5l.5.5v.5h-.5l-.5-.5zm.5 1.1v-.5h.5l.5.5v.6h-.5l-.5-.6zm.6-.5v-.5h.5l.5.5v.5h-.5l-.5-.5zm.5 1.2v-.5h.5l.5.5v.5h-.5l-.5-.5zm.5-.5V60h.5l.5.5v.5h-.5l-.5-.4zm.6 1.1v-.5h.5l.5.5v.5h-.5l-.5-.5zm.5-.5v-.5h.5l.5.5v.5h-.5l-.5-.5zm.5 1.1v-.5h.5l.5.5v.5h-.5l-.5-.5zm.6-.5v-.5h.5l.5.5v.5H57l-.5-.5zm.5 1.1v-.5h.5l.5.6v.5h-.5l-.5-.6zm.6-.5v-.5h.5l.5.5v.6h-.5l-.5-.6zm.5 1.1V63h.5l.5.5v.5h-.5l-.5-.5zm.5-.5v-.5h.5l.5.5v.5h-.5l-.5-.5zm.6 1.2v-.5h.5l.5.5v.5h-.5l-.5-.5zm.5-.6v-.5h.5l.5.5v.5h-.5l-.5-.5zm1.5 1.7h-.5l-.5-.5v-.5h.5l.5.5v.5zm0-1.6h-.5l-.5-.5v-.5h.5l.5.5v.5zm0-1.7h-.5l-.5-.5V61h.5l.5.5v.5zm0-1.6h-.5l-.5-.5v-.5h.5l.5.5v.5zm0-2.2v.5h-.5l-.5-.5v-.5h.5l.5.5zm-.5.5v.5h-.5l-.5-.5v-.5h.5l.5.5zm-.5-1.1v.5h-.5l-.5-.5V57h.5l.5.6zm-.6.5v.5h-.5l-.5-.5v-.5h.5l.5.5zm-.5-1.1v.5h-.5l-.5-.5v-.5h.5l.5.5zm-.5.5v.5h-.5l-.5-.5V57h.5l.5.5zm-.6-1.2v.5h-.5l-.5-.5v-.5h.5l.5.5zm-.5.6v.5H57l-.5-.5v-.5h.5l.5.5zm-.6-1.2v.5h-.5l-.5-.5v-.5h.5l.5.5zm-.5.6v.5h-.5l-.5-.5v-.5h.5l.5.5zm-.6-1.2v.5h-.5l-.5-.5v-.5h.5l.5.5zm-.5.5v.5h-.5l-.5-.5v-.5h.5l.5.5zm-.5-1.1v.5h-.5l-.5-.5V54h.5l.5.5zm-.6.5v.5h-.5l-.5-.5v-.5h.5l.5.5zm-.5-1.1v.5h-.5l-.5-.5v-.5h.5l.5.5zm-.5.5v.5h-.5l-.5-.5v-.5h.5l.5.5zm-.6-1.2v.5h-.5l-.5-.5v-.5h.5l.5.5zm-.5.6v.5h-.5l-.5-.5v-.5h.5l.5.5zm-.6-1.2v.5H51l-.5-.5v-.5h.5l.5.5zm-.5.6v.5h-.5l-.5-.6v-.5h.5l.5.6zm-.6-1.2v.5h-.5l-.5-.5v-.5h.5l.5.5zm-.5.5v.5h-.5l-.5-.5V52h.5l.5.5zm-.5-1.1v.5h-.5l-.5-.5v-.5h.5l.5.5zm-.6.5v.5h-.5l-.5-.5v-.5h.5l.5.5zm-.5-1.1v.5h-.5l-.5-.5v-.5h.5l.5.5zm-.6.5v.5h-.5l-.5-.5v-.5h.5l.5.5zm-.5-1.2v.5h-.5l-.5-.5v-.5h.5l.5.5zm-.5.6v.5h-.5l-.5-.5v-.5h.5l.5.5zm-.6-1.2v.5h-.5l-.5-.5V49h.5l.5.5zm-.5.5v.5h-.5l-.5-.5v-.5h.5l.5.5zm-.6-1.1v.5h-.5l-.5-.5v-.5h.5l.5.5zm-.5.5v.5H44l-.5-.5v-.5h.5l.5.5zM43 47.7h.5l.5.5v.5h-.5l-.5-.5v-.5zm0 1.7h.5l.5.5v.5h-.5l-.5-.5v-.5zm0 1.6h.5l.5.5v.5h-.5l-.5-.5V51zm0 2.2v-.5h.5l.5.5v.5h-.5l-.5-.5zm.5-.5v-.5h.5l.5.5v.5H44l-.5-.5zm.6 1.1v-.5h.5l.5.5v.5h-.5l-.5-.5zm.5-.5v-.5h.5l.5.5v.5h-.5l-.5-.5zm.5 1.1v-.5h.5l.5.5v.6h-.5l-.5-.6zm.6-.5v-.5h.5l.5.5v.5h-.5l-.5-.5zm.5 1.2v-.5h.5l.5.5v.5h-.5l-.5-.5zm.6-.6V54h.5l.5.5v.5h-.5l-.5-.5zm.5 1.2v-.5h.5l.5.5v.5h-.5l-.5-.5zm.5-.5v-.5h.5l.5.5v.5h-.5l-.5-.5zm.6 1.1v-.5h.5l.5.5v.5h-.5l-.5-.5zm.5-.5v-.5h.5l.5.5v.5h-.5l-.5-.5zm.6 1.1v-.5h.5l.5.5v.5H50l-.5-.5zm.5-.5v-.5h.5l.5.5v.6h-.5l-.5-.6zm.6 1.1V57h.5l.5.5v.5h-.5l-.5-.5zm.5-.5v-.5h.5l.5.5v.5h-.5l-.5-.5zm.5 1.2v-.5h.5l.5.5v.5h-.5l-.5-.5zm.6-.5v-.5h.5l.5.5v.5h-.5l-.5-.5zm.5 1.1v-.5h.5l.5.5v.5h-.5l-.5-.5zm.6-.5v-.5h.5l.5.5v.5h-.5l-.5-.5zm.5 1.1v-.5h.5l.5.5v.6h-.5l-.5-.6zm.5-.5v-.5h.5l.5.5v.5h-.5l-.5-.5zm.6 1.1v-.5h.5l.5.5v.5h-.5l-.5-.5zm.5-.5V59h.5l.5.5v.5h-.5l-.5-.5zm.5 1.1v-.5h.5l.5.5v.5h-.5l-.5-.5zm.6-.5v-.5h.5l.5.5v.5H57l-.5-.5zm.5 1.2v-.5h.5l.5.5v.5h-.5l-.5-.5zm.6-.5v-.5h.5l.5.5v.5h-.5l-.5-.5zm.5 1.1v-.5h.5l.5.5v.5h-.5l-.5-.5zm.5-.5v-.5h.5l.5.5v.5h-.5l-.5-.5zm.6 1.1V62h.5l.5.5v.5h-.5l-.5-.5zm1.5.1h-.5l-.5-.6v-.5h.5l.5.5v.6zm0-2.2v.5h-.5l-.5-.5v-.5h.5l.5.5zm-.5-1.2v.5h-.5l-.5-.5v-.5h.5l.5.5zm0 1.7v.5h-.5l-.5-.5v-.5h.5l.5.5zm-.6-1.1v.5h-.5l-.5-.5v-.5h.5l.5.5zm-.5-1.2v.5h-.5l-.5-.5v-.5h.5l.5.5zm0 1.7v.5h-.5l-.5-.5v-.5h.5l.5.5zm-.5-1.1v.5h-.5l-.5-.5v-.5h.5l.5.5zM58 58v.5h-.5L57 58v-.5h.5l.5.5zm0 1.7v.5h-.5l-.5-.6v-.5h.5l.5.6zm-.5-1.2v.5H57l-.5-.5V58h.5l.5.5zm-.6-1.1v.5h-.5l-.5-.5v-.5h.5l.5.5zm0 1.6v.5h-.5l-.5-.5v-.5h.5l.5.5zm-.5-1.1v.5h-.5l-.5-.5v-.5h.5l.5.5zm-.6-1.1v.5h-.5l-.5-.5v-.5h.5l.5.5zm.1 1.6v.5h-.5l-.5-.5v-.5h.5l.5.5zm-.6-1.1v.5h-.5l-.5-.5v-.5h.5l.5.5zm-.5-1.2v.5h-.5l-.5-.5v-.5h.5l.5.5zm0 1.7v.5h-.5l-.5-.5v-.5h.5l.5.5zm-.6-1.1v.5h-.5l-.5-.5v-.5h.5l.5.5zm-.5-1.2v.5h-.5l-.5-.5V55h.5l.5.5zm0 1.7v.5h-.5l-.5-.5v-.5h.5l.5.5zm-.5-1.1v.5h-.5l-.5-.6v-.5h.5l.5.6zm-.6-1.2v.5h-.5l-.5-.5v-.5h.5l.5.5zm0 1.7v.5h-.5l-.5-.5V56h.5l.5.6zm-.5-1.2v.5h-.5l-.5-.5v-.5h.5l.5.5zm-.6-1.1v.5H51l-.5-.5v-.5h.5l.5.5zm0 1.6v.5H51l-.5-.5v-.5h.5l.5.5zm-.5-1.1v.5h-.5l-.5-.5v-.5h.5l.5.5zm-.6-1.1v.5h-.5l-.5-.5v-.5h.5l.5.5zm0 1.6v.5h-.5l-.5-.5v-.5h.5l.5.5zm-.5-1.1v.5h-.5l-.5-.5v-.5h.5l.5.5zm-.5-1.2v.5h-.5l-.5-.5v-.5h.5l.5.5zm0 1.7v.5h-.5l-.5-.5v-.5h.5l.5.5zm-.6-1.1v.5h-.5l-.5-.5V53h.5l.5.6zm-.5-1.2v.5h-.5l-.5-.5v-.5h.5l.5.5zm0 1.7v.5h-.5l-.5-.6v-.5h.5l.5.6zm-.6-1.2v.5h-.5l-.5-.5v-.5h.5l.5.5zm-.5-1.1v.5h-.5l-.5-.5v-.5h.5l.5.5zm0 1.7v.5h-.5l-.5-.5V53h.5l.5.5zm-.5-1.2v.5h-.5l-.5-.5v-.5h.5l.5.5zm-.6-1.1v.5h-.5l-.5-.5v-.5h.5l.5.5zm0 1.6v.5h-.5l-.5-.5v-.5h.5l.5.5zm-.5-1.1v.5h-.5l-.5-.5v-.5h.5l.5.5zm-.6-1.1v.5h-.5l-.5-.5V50h.5l.5.6zm0 1.6v.5h-.5l-.5-.5v-.5h.5l.5.5zM43.5 51v-.5h.5l.5.5v.5H44l-.5-.5zm21 25.7v.4c-.2 0-.4-.1-.6-.2l-.2-.1-.1-.1v-.5h.5l.4.5z" fill="#6a8998"/><path id="Прямоугольник_2_копия" class="st6" d="M64.6 77.1v-.4h.2v.4h-.2zm-.6-1v-.5h.5l.2.2v.8h-.2l-.5-.5zm.5-1h.2v.7l-.2-.2v-.5zm-.5-.7v-.5h.5l.2.2v.9h-.2l-.5-.6zm.5-1h.2v.7l-.2-.2v-.5zm-.5-.6v-.5h.5l.2.2v.8h-.2l-.5-.5zm.5-1.1h.2v.7l-.2-.2v-.5zm-.5-.6v-.5h.5l.2.2v.8h-.2l-.5-.5zm.5-1h.2v.7l-.2-.2v-.5zm-.5-.7v-.5h.5l.2.2v.9h-.2l-.5-.6zm.5-1h.2v.7l-.2-.2v-.5zm-.5-.6v-.5h.5l.2.2v.8h-.2l-.5-.5zm.5-1h.2v.7l-.2-.2v-.5zm-.5-.7v-.5h.5l.2.2v.8h-.2l-.5-.5zm.5-1h.2v.7l-.2-.2v-.5zm-.5-.6V64h.5l.2.2v.8h-.2l-.5-.5zm.5-1.1h.2v.7l-.2-.2v-.5zm-.5-.6v-.5h.5l.2.2v.8h-.2l-.5-.5zm.5-1h.2v.7l-.2-.2v-.5zm-.5-.6v-.5h.5l.2.2v.8h-.2l-.5-.5zm.5-1.1h.2v.7l-.2-.2v-.5zm-.5-.6V59h.5l.2.2v.8h-.2l-.5-.5zm.5-1h.2v.7l-.2-.2v-.5zm-.5-.7v-.5h.5l.2.2v.8h-.2l-.5-.5zm.5-1h.2v.7l-.2-.2v-.5zm-.5-.6v-.5h.5l.2.2v.8h-.2l-.5-.5zm.5-1.1h.2v.7l-.2-.2v-.5zm-.5-.6V54h.5l.2.2v.8h-.2l-.5-.5zm.5-1h.2v.7l-.2-.2v-.5zm-.5-.6v-.5h.5l.2.2v.8h-.2l-.5-.5zm.5-1.1h.2v.7l-.2-.2v-.5zm-.5-.6v-.5h.5l.2.2v.8h-.2l-.5-.5zm.5-1h.2v.7l-.2-.2v-.5zm-.5-.7V49h.5l.2.2v.8h-.2l-.5-.5zm.5-.7h.2v.4l-.2-.2v-.2zm-1-.4l.4.2c.2.1.4.2.6.2v.2H64l-.5-.6zm.4 1.1h-.5l-.5-.5v-.5h.5l.5.5v.5zm-1.5-1.7l1 .5h-.5l-.5-.5zm.4 1.1h-.5l-.5-.5v-.5h.5l.5.5v.5zm-1.5-1.7l1 .5h-.5l-.5-.5zm.5 1h-.5l-.5-.5v-.5h.5l.5.5v.5zm-1.6-1.7l1 .5h-.5l-.5-.5zm.5 1.1h-.5l-.5-.5v-.5h.5l.5.5v.5zm-1.6-1.7l1 .5h-.5l-.5-.5zm.5 1.1h-.5l-.5-.5V46h.5l.5.5v.5zm-1.5-1.7l1 .5h-.5l-.5-.5zm.4 1.1H58l-.5-.5v-.5h.5l.5.5v.5zM57 44.7l1 .5h-.5l-.5-.5zm.4 1.1h-.5l-.5-.5v-.5h.5l.5.5v.5zm-1.5-1.7l1 .5h-.5l-.5-.5zm.5 1.1h-.5l-.5-.5v-.5h.5l.5.5v.5zm-1.6-1.8l1 .5h-.5l-.5-.5zm.5 1.1h-.5l-.5-.5v-.5h.5l.5.5v.5zm-1.5-1.7l1 .5h-.5l-.5-.5zm.4 1.1h-.5l-.5-.5v-.5h.5l.5.5v.5zm-1.5-1.7l1 .5h-.5l-.5-.5zm.4 1.1h-.5l-.5-.5v-.5h.5l.5.5v.5zm-1.5-1.7l1 .5h-.5l-.5-.5zm.4 1.1h-.5l-.5-.5v-.5h.5l.5.5v.5zM50.5 41l1 .5v.1H51l-.5-.6zm.5 1.1h-.5l-.5-.6V41h.5l.5.5v.6zm-1.6-1.8l1 .5v.1h-.5l-.5-.6zm.5 1.1h-.5l-.5-.5v-.5h.5l.5.5v.5zm-1.6-1.7l1 .5v.1h-.5l-.5-.6zm.5 1.1h-.5l-.5-.5v-.5h.5l.5.5v.5zm-1.5-1.7l1 .5v.1h-.5l-.5-.6zm.4 1.1h-.5l-.5-.5v-.5h.5l.5.5v.5zm-1.5-1.7l1 .5h-.5l-.5-.5zm.4 1.1h-.5l-.5-.6v-.5h.5l.5.5v.6zm-1.5-1.7l1 .5v.1h-.5l-.5-.6zm.5 1h-.5l-.5-.5v-.5h.5l.5.5v.5zM44 37.2l1 .5v.1h-.5l-.5-.6zm.5 1.1H44l-.5-.5v-.5h.5l.5.5v.5zm-1.6-1.7l1 .5v.1h-.5l-.5-.6zm.5 1.1h-.5l-.5-.5v-.5h.5l.5.5v.5zM41.9 36l1 .5v.1h-.5l-.5-.6zm.4 1.1h-.5l-.5-.5V36h.5l.5.5v.6zm-1.5-1.7l1 .5v.1h-.5l-.5-.6zm.4 1.1h-.5l-.5-.5v-.5h.5l.5.5v.5zm-1.5-1.7v-.3c.1-.1.1-.2.2-.2-.1.2 0 .5.3.7l.5.3v.1h-.5l-.5-.6zm.3-.6c0-.1.1-.1.2-.1-.1 0-.2 0-.2.1zm.2 1.6h-.5l-.3-.3c0-.2.1-.5.2-.7h.1l.5.5v.5zm-.6-1.2c0 .1 0 .1 0 0zm0 1.8h-.3v-.8l.3.3v.5zm.6.6v.5h-.5l-.3-.3v-.7h.3l.5.5zm-.6 1h-.3v-.8l.3.3v.5zm.6.7v.5h-.5l-.3-.3v-.7h.3l.5.5zm-.6 1h-.3v-.8l.3.3v.5zm.6.6v.5h-.5l-.3-.3v-.7h.3l.5.5zm-.6 1h-.3v-.8l.3.3v.5zm.6.7v.5h-.5l-.3-.3v-.7h.3l.5.5zm-.6 1h-.3v-.8l.3.3v.5zm.6.6v.5h-.5l-.3-.3v-.7h.3l.5.5zm-.6 1.1h-.3v-.8l.3.3v.5zm.5.6v.5h-.5l-.3-.3v-.7h.3l.5.5zm-.5 1h-.2v-.8l.2.3v.5zm.5.6v.5h-.5l-.3-.3v-.7h.3l.5.5zm-.5 1.1h-.2v-.8l.2.3v.5zm.6.6v.5h-.5l-.3-.3v-.7h.3l.5.5zm-.6 1h-.2v-.8l.2.3v.5zm.6.7v.5h-.5l-.3-.3v-.7h.3l.5.5zm-.6 1h-.2v-.8l.2.3v.5zm.6.6v.5h-.5l-.3-.3v-.7h.3l.5.5zm-.6 1h-.2v-.8l.2.3v.5zm.6.7v.5h-.5l-.3-.3V53h.3l.5.6zm-.6 1h-.2v-.8l.2.3v.5zm.6.6v.5h-.5l-.3-.3v-.7h.3l.5.5zm-.6 1.1h-.2v-.8l.2.3v.5zm.6.6v.5h-.5l-.3-.3v-.7h.3l.5.5zm-.6 1h-.2v-.8l.2.3v.5zm.6.7v.5h-.5l-.3-.3V58h.3l.5.6zm-.6 1h-.3v-.8l.3.3v.5zm.6.6v.5h-.5l-.3-.3v-.7h.3l.5.5zm-.6 1h-.3v-.8l.3.3v.5zm.6.7v.5h-.5l-.3-.3v-.7h.3l.5.5zm-.6.7c-.1-.1-.1-.3-.2-.4l.2.2v.2zm1.1.4v.5l-.4-.3c-.2-.1-.4-.3-.5-.5v-.3h.5l.4.6zm-.4-1.1h.5l.5.5v.6h-.5l-.5-.5v-.6zm1.5 1.7v.5l-.9-.5v-.5h.5l.4.5zm-.5-1h.5l.5.5v.5h-.5l-.5-.5v-.5zm1.6 1.7v.5l-.9-.5v-.5h.5l.4.5zm-.5-1.1h.5l.5.5v.5h-.5l-.5-.5v-.5zm1.5 1.7v.5h-.1l-.8-.5v-.5h.5l.4.5zm-.4-1.1h.5l.5.5v.5H44l-.5-.5v-.5zm1.5 1.7v.5l-.9-.5v-.6h.5l.4.6zm-.4-1.1h.5l.5.5v.5h-.5l-.5-.5v-.5zm1.5 1.7v.5H46l-.9-.5-.1-.1v-.5h.5l.6.6zm-.4-1.1h.5l.5.5v.5h-.5l-.5-.5V65zm1.5 1.7v.5h-.1l-.9-.5-.1-.1v-.5h.5l.6.6zm-.5-1h.5l.5.5v.5h-.5l-.5-.5v-.5zm1.6 1.7v.5h-.1l-.9-.5-.1-.1v-.5h.5l.6.6zm-.5-1.1h.5l.5.5v.5h-.5l-.5-.5v-.5zm1.5 1.7v.5h-.1l-.8-.5-.1-.1v-.5h.5l.5.6zm-.4-1.1h.5l.5.5v.6h-.5l-.5-.5v-.6zm1.5 1.7v.5h-.1l-.8-.5-.1-.1V68h.5l.5.6zm-.4-1.1h.5l.5.5v.5h-.5L50 68v-.5zm1.5 1.7v.5h-.1l-.8-.5-.1-.1v-.5h.5l.5.6zm-.4-1.1h.5l.5.5v.5h-.5l-.5-.5v-.5zm1.5 1.7v.5h-.1l-.8-.5-.1-.1v-.5h.5l.5.6zm-.5-1h.5l.5.5v.5h-.5l-.5-.5v-.5zm1.6 1.7v.5h-.1l-.8-.5-.1-.1v-.5h.5l.5.6zm-.5-1.1h.5l.5.5v.5h-.5l-.5-.5v-.5zm1.5 1.7v.5h-.1l-.8-.5v-.6h.5l.4.6zm-.4-1.1h.5l.5.5v.5h-.5l-.5-.5V70zm1.5 1.7v.5h-.1l-.8-.5-.1-.1v-.5h.5l.5.6zm-.4-1.1h.5l.5.5v.5h-.5l-.5-.5v-.5zm1.5 1.7v.5h-.1l-.8-.4-.1-.1v-.5h.5l.5.5zm-.4-1.1h.5l.5.5v.5H57l-.5-.5v-.5zm1.5 1.7v.5h-.1l-.8-.4-.1-.1v-.5h.5l.5.5zm-.5-1h.5l.5.5v.5H58l-.5-.5v-.5zm1.6 1.7v.5H59l-.8-.4-.1-.1V73h.5l.5.6zm-.5-1.1h.5l.5.5v.5h-.5l-.5-.5v-.5zm1.5 1.7v.5H60l-.7-.4-.1-.1v-.5h.5l.4.5zm-.4-1.1h.5l.5.5v.5h-.5l-.5-.5v-.5zm1.5 1.7v.5h-.1l-.7-.4-.1-.1v-.5h.5l.4.5zm-.4-1.1h.5l.5.5v.5h-.5l-.5-.5v-.5zm1.5 1.7v.5h-.1l-.7-.4-.1-.1v-.5h.5l.4.5zm.1.6zm1 0v.5h-.1l-.7-.4-.2-.1v-.5h.5l.5.5zm-.5-1h.5l.5.5v.5h-.5l-.5-.5V75zm1.6.5H64l-.5-.5v-.5h.5l.5.5v.5zm0-1.7H64l-.5-.5v-.5h.5l.5.5v.5zm-.1-1.6h-.5l-.5-.5v-.5h.5l.5.5v.5zm0-1.7h-.5l-.4-.5v-.5h.5l.5.5v.5zm0-1.6h-.5l-.5-.5v-.5h.5l.5.5v.5zm0-1.7h-.5l-.5-.5v-.5h.5l.5.5v.5zm0-1.6h-.5l-.4-.6v-.5h.5l.5.5v.6zm0-1.7h-.5l-.5-.5v-.5h.5l.5.5v.5zm0-1.7h-.5l-.5-.5v-.5h.5l.5.5v.5zm0-1.6h-.5l-.4-.6v-.5h.5l.5.5v.6zm.1-1.7H64l-.5-.5v-.5h.5l.5.5v.5zm0-1.6H64l-.5-.5v-.5h.5l.5.5v.5zm0-1.7H64l-.5-.6v-.5h.5l.5.5v.6zm0-1.7H64l-.5-.5v-.5h.5l.5.5v.5zm0-1.6H64l-.5-.5v-.5h.5l.5.5v.5zm0-2.2v.5H64l-.5-.5v-.5h.5l.5.5zm-.6.5v.5h-.5l-.5-.5v-.5h.5l.5.5zm-.5-1.1v.5h-.5l-.5-.5V49h.5l.5.5zm-.6.5v.5h-.5l-.4-.5v-.5h.5l.4.5zm-.5-1.1v.5h-.5l-.5-.5v-.5h.5l.5.5zm-.5.5v.5h-.5l-.5-.5v-.5h.5l.5.5zm-.6-1.1v.5h-.5l-.5-.5v-.5h.5l.5.5zm-.5.5v.5h-.5l-.5-.5v-.5h.5l.5.5zm-.6-1.2v.5h-.5l-.5-.5v-.5h.5l.5.5zm-.5.6v.5h-.5l-.5-.5v-.5h.5l.5.5zm-.5-1.2v.5h-.5l-.5-.5v-.5h.5l.5.5zm-.6.5v.5H58l-.5-.5V47h.5l.5.5zm-.5-1.1v.5h-.5l-.5-.6v-.5h.5l.5.6zm-.6.5v.5h-.5l-.5-.5v-.5h.5l.5.5zm-.5-1.1v.5h-.5l-.5-.5v-.5h.5l.5.5zm-.5.5v.5h-.5l-.5-.5v-.5h.5l.5.5zm-.6-1.1v.5h-.5l-.5-.5v-.5h.5l.5.5zm-.5.5v.5h-.5l-.5-.5v-.5h.5l.5.5zm-.6-1.2v.5h-.5l-.5-.5V44h.5l.5.5zm-.5.6v.5h-.5l-.5-.6v-.5h.5l.5.6zm-.5-1.2v.5h-.5l-.5-.5v-.5h.5l.5.5zm-.6.5v.5h-.5l-.5-.5v-.5h.5l.5.5zm-.5-1.1v.5h-.5l-.5-.5v-.5h.5l.5.5zm-.6.5v.5h-.5l-.5-.5v-.5h.5l.5.5zm-.5-1.1v.5H51l-.5-.5v-.5h.5l.5.5zm-.5.5v.5h-.5l-.5-.6v-.5h.5l.5.6zm-.6-1.1v.5h-.5l-.5-.6v-.5h.5l.5.6zm-.5.5v.5h-.5l-.5-.5V42h.5l.5.6zm-.6-1.2v.5h-.5l-.5-.5v-.5h.5l.5.5zm-.5.6v.5h-.5l-.5-.5v-.5h.5l.5.5zm-.6-1.2v.5h-.5l-.5-.5v-.5h.5l.5.5zm-.5.5v.5h-.5l-.5-.5v-.5h.5l.5.5zm-.5-1.1v.5h-.5l-.5-.5v-.5h.5l.5.5zm-.6.5v.5h-.5l-.5-.5v-.5h.5l.5.5zm-.5-1.1v.5h-.5l-.5-.5V39h.5l.5.6zm-.5.5v.5h-.5l-.5-.6v-.5h.5l.5.6zM45 39v.5h-.5l-.5-.6v-.5h.5l.5.6zm-.5.5v.5H44l-.5-.5V39h.5l.5.5zm-.6-1.2v.5h-.5l-.5-.5v-.5h.5l.5.5zm-.5.6v.5h-.5l-.5-.5v-.5h.5l.5.5zm-.5-1.2v.5h-.5l-.5-.5v-.5h.5l.5.5zm-.6.5v.5h-.5l-.5-.5v-.5h.5l.5.5zm-.5-1.1v.5h-.5l-.5-.6v-.5h.5l.5.6zm-.6.5v.5h-.5l-.5-.5v-.5h.5l.5.5zm-1.5-1.7h.5l.5.5v.6h-.5l-.5-.5v-.6zm0 1.7h.5l.5.5v.5h-.5l-.5-.5v-.5zm0 1.6h.5l.5.5v.5h-.5l-.5-.5v-.5zm0 1.7h.5l.5.5v.6h-.5l-.5-.5v-.6zm0 1.6h.5l.5.5v.5h-.5l-.5-.5v-.5zm0 1.7h.5l.5.5v.5h-.5l-.5-.5v-.5zm0 1.7h.5l.5.5v.5h-.5l-.5-.5v-.5zm0 1.6h.5l.5.5v.5h-.5l-.5-.5v-.5zm0 1.7h.5l.5.5v.5h-.5l-.5-.5v-.5zm0 1.6h.5l.5.5v.5h-.5l-.5-.5v-.5zm0 1.7h.5l.5.5v.5h-.5l-.5-.5v-.5zm0 1.7h.5l.5.5v.5h-.5l-.5-.5v-.5zm0 1.6h.5l.5.5v.5h-.5l-.5-.5v-.5zm0 1.7h.5l.5.5v.5h-.5l-.5-.5v-.5zm0 1.6h.5l.5.5v.5h-.5l-.5-.5v-.5zm0 2.2v-.5h.5l.5.5v.5h-.5l-.5-.5zm.6-.5v-.5h.5l.5.5v.5h-.5l-.5-.5zm.5 1.1v-.5h.5l.5.5v.5h-.5l-.5-.5zm.5-.5v-.5h.5l.5.5v.6h-.5l-.5-.6zm.6 1.1V62h.5l.5.5v.5h-.5l-.5-.5zm.5-.5v-.5h.5l.5.5v.5h-.5l-.5-.5zm.5 1.2v-.5h.5l.5.5v.5h-.5l-.5-.5zm.6-.6v-.5h.5l.5.5v.5H44l-.5-.5zm.5 1.2v-.5h.5l.5.5v.5h-.5l-.5-.5zm.6-.5v-.5h.5l.5.5v.5h-.5l-.5-.5zm.5 1.1v-.5h.5l.5.5v.6h-.5l-.5-.6zm.6-.5v-.5h.5l.5.5v.5h-.5l-.5-.5zm.5 1.1v-.5h.5l.5.5v.5h-.5l-.5-.5zm.5-.5V64h.5l.5.5v.5h-.5l-.5-.5zm.6 1.1v-.5h.5l.5.5v.5h-.5l-.5-.5zm.5-.5v-.5h.5l.5.5v.5h-.5l-.5-.5zm.5 1.2v-.5h.5l.5.5v.5h-.5l-.5-.5zm.6-.6v-.5h.5l.5.5v.5h-.5l-.5-.5zm.5 1.2v-.5h.5l.5.5v.5h-.5l-.5-.5zm.6-.5v-.5h.5l.5.5v.5h-.5l-.5-.5zm.5 1.1V67h.5l.5.5v.5H51l-.5-.5zm.6-.5v-.5h.5l.4.5v.5h-.5l-.4-.5zm.5 1.1v-.5h.5l.5.5v.5h-.5l-.5-.5zm.5-.5v-.5h.5l.5.5v.5h-.5l-.5-.5zm.6 1.1v-.5h.5l.5.5v.5h-.5l-.5-.5zm.5-.5v-.5h.5l.5.5v.5h-.5l-.5-.5zm.6 1.2v-.5h.5l.5.5v.5h-.5l-.5-.5zm.5-.6v-.5h.5l.5.5v.5h-.5l-.5-.5zm.5 1.2v-.5h.5l.5.5v.5h-.5l-.5-.5zm.6-.5V69h.5l.5.5v.5h-.5l-.5-.5zm.5 1.1v-.5h.5l.5.5v.5h-.5l-.5-.5zm.6-.5v-.5h.5l.5.5v.5H57l-.5-.5zm.5 1.1v-.5h.5l.5.5v.5h-.5l-.5-.5zm.5-.5v-.5h.5l.5.5v.5H58l-.5-.5zm.6 1.1v-.5h.5l.5.5v.5h-.5l-.5-.5zm.5-.5v-.5h.5l.5.5v.5h-.5l-.5-.5zm.6 1.2V72h.5l.5.5v.5h-.5l-.5-.5zm.5-.6v-.5h.5l.5.5v.5h-.5l-.5-.5zm.5 1.2v-.5h.5l.5.5v.5h-.5l-.5-.5zm.6-.5v-.5h.5l.5.5v.5h-.5l-.5-.5zm.5 1.1v-.5h.5l.5.5v.5h-.5l-.5-.5zm.6 1.1v-.5h.5l.5.5v.5h-.5l-.5-.5zm.5-.5v-.5h.5l.5.5v.5h-.5l-.5-.5zm1.5.1h-.5l-.5-.5v-.5h.5l.5.5v.5zm0-1.7h-.5l-.5-.5v-.5h.5l.5.5v.5zm0-1.6h-.5l-.5-.5V70h.5l.5.5v.6zm0-1.7h-.5l-.5-.5v-.5h.5l.5.5v.5zm0-1.7h-.5l-.5-.5v-.5h.5l.5.5v.5zm0-1.6h-.5l-.5-.5V65h.5l.5.5v.6zm0-1.7h-.5l-.5-.5v-.5h.5l.5.5v.5zm0-1.6h-.5l-.5-.5v-.5h.5l.5.5v.5zm0-1.7h-.5l-.5-.5V60h.5l.5.5v.6zm0-1.7h-.5l-.5-.5v-.5h.5l.5.5v.5zm0-1.6h-.5l-.5-.5v-.5h.5l.5.5v.5zm0-1.7h-.5l-.5-.5v-.5h.5l.5.5v.5zm0-1.6h-.5l-.5-.5v-.5h.5l.5.5v.5zm0-2.2v.5h-.5l-.5-.5v-.5h.5l.5.5zm-.5-1.2v.5h-.5l-.5-.5v-.5h.5l.5.5zm-.6.6v.5h-.5l-.5-.5v-.5h.5l.5.5zm-.5-1.2v.5h-.5l-.5-.5V50h.5l.5.5zm-.5.6v.5h-.5l-.5-.6v-.5h.5l.5.6zm-.6-1.2v.5h-.5l-.5-.5v-.5h.5l.5.5zm-.5.5v.5h-.5l-.5-.5v-.5h.5l.5.5zm-.6-1.1v.5h-.5l-.5-.5v-.5h.5l.5.5zm-.5.5v.5h-.5l-.5-.5v-.5h.5l.5.5zm-.5-1.1v.5h-.5l-.5-.5v-.5h.5l.5.5zm-.6.5v.5H58l-.5-.5v-.5h.5l.5.5zm-.5-1.1v.5h-.5L57 48v-.5h.5l.5.6zm-.6.5v.5h-.5l-.5-.5V48h.5l.5.6zm-.5-1.2v.5h-.5l-.5-.5v-.5h.5l.5.5zm-.5.6v.5h-.5l-.5-.5v-.5h.5l.5.5zm-.6-1.2v.5h-.5l-.5-.5v-.5h.5l.5.5zm-.5.5v.5h-.5l-.5-.5v-.5h.5l.5.5zm-.6-1.1v.5h-.5l-.5-.5v-.5h.5l.5.5zm-.5.5v.5h-.5l-.5-.5v-.5h.5l.5.5zm-.5-1.1v.5h-.5l-.5-.5V45h.5l.5.6zm-.6.5v.5h-.5l-.5-.6v-.5h.5l.5.6zm-.5-1.1v.5h-.5l-.5-.5v-.5h.5l.5.5zm-.6.5v.5h-.5l-.5-.5V45h.5l.5.5zm-.5-1.2v.5H51l-.5-.5v-.5h.5l.5.5zm-.5.6v.5h-.5l-.5-.6v-.5h.5l.5.6zm-.6-1.2v.5h-.5l-.5-.5v-.5h.5l.5.5zm-.5.5v.5h-.5l-.5-.5v-.5h.5l.5.5zm-.6-1.1v.5h-.5l-.5-.6v-.5h.5l.5.6zm-.5.5v.5h-.5l-.5-.5v-.5h.5l.5.5zm-.6-1.1v.5h-.5l-.5-.5V42h.5l.5.5zm-.5.5v.5h-.5l-.5-.5v-.5h.5l.5.5zm-.5-1.1v.5h-.5l-.5-.5v-.5h.5l.5.5zm-.6.5v.5h-.5l-.5-.5v-.5h.5l.5.5zm-.5-1.2v.5h-.5l-.5-.5v-.5h.5l.5.5zm-.5.6v.5h-.5l-.5-.5v-.5h.5l.5.5zm-.6-1.2v.5h-.5l-.5-.5V40h.5l.5.6zm-.5.5v.5H44l-.5-.5v-.5h.5l.5.5zm-.6-1.1v.5h-.5l-.5-.5v-.5h.5l.5.5zm-.5.5v.5h-.5l-.5-.5V40h.5l.5.5zm-.5-1.1v.5h-.5l-.5-.5v-.5h.5l.5.5zm-.6.5v.5h-.5l-.5-.5v-.5h.5l.5.5zm-.5-1.1v.5h-.5l-.5-.5v-.5h.5l.5.5zm-1.5-.1h.5l.5.5v.5h-.5l-.5-.5v-.5zm0 1.7h.5l.5.5v.5h-.5l-.5-.5v-.5zm0 1.6h.5l.5.5v.5h-.5l-.5-.5V42zm0 1.7h.5l.5.5v.5h-.5l-.5-.5v-.5zm-.1 1.6h.5l.5.5v.5h-.5l-.5-.5v-.5zm0 1.7h.5l.5.5v.5h-.5l-.5-.5V47zm.1 1.7h.5l.5.5v.5h-.5l-.5-.5v-.5zm0 1.6h.5l.5.5v.5h-.5l-.5-.5v-.5zm0 1.7h.5l.5.5v.5h-.5l-.5-.5V52zm0 1.6h.5l.5.5v.5h-.5l-.5-.5v-.5zm0 1.7h.5l.5.5v.5h-.5l-.5-.5v-.5zm0 1.7h.5l.5.5v.5h-.5l-.5-.5V57zm0 2.1v-.5h.5l.5.5v.5h-.5l-.5-.5zm.5 1.2v-.5h.5l.5.5v.5h-.5l-.5-.5zm.5-.6v-.5h.5l.5.5v.5h-.5l-.5-.5zm.6 1.2v-.5h.5l.5.5v.5h-.5l-.5-.5zm.5-.5v-.5h.5l.5.5v.5h-.5l-.5-.5zm.6 1.1V61h.5l.5.5v.5h-.5l-.5-.5zm.5-.5v-.5h.5l.5.5v.5H44l-.5-.5zm.5 1.1v-.5h.5l.5.5v.5h-.5l-.5-.5zm.6-.5v-.5h.5l.5.5v.5h-.5l-.5-.5zm.5 1.1v-.5h.5l.5.5v.5h-.5l-.5-.5zm.6-.5v-.5h.5l.5.5v.5h-.5l-.5-.5zm.5 1.2v-.5h.5l.5.5v.5h-.5l-.5-.5zm.5-.6v-.5h.5l.5.5v.5h-.5l-.5-.5zm.6 1.2v-.5h.5l.5.5v.5h-.5l-.5-.5zm.5-.5V63h.5l.5.5v.5h-.5l-.5-.5zm.5 1.1v-.5h.5l.5.5v.5h-.5l-.5-.5zm.6-.5v-.5h.5l.5.5v.5h-.5l-.5-.5zm.5 1.1v-.5h.5l.5.5v.5h-.5l-.5-.5zm.6-.5v-.5h.5l.5.5v.5h-.5l-.5-.5zm.5 1.1v-.5h.5l.5.5v.5H51l-.5-.5zm.6-.5v-.5h.5l.5.5v.5h-.5l-.5-.5zm.5 1.2V66h.5l.5.5v.5h-.5l-.5-.5zm.5-.6v-.5h.5l.5.5v.5h-.5l-.5-.5zm.6 1.2v-.5h.5l.5.5v.5h-.5l-.5-.5zm.5-.5v-.5h.5l.5.5v.5h-.5l-.5-.5zm.6 1.1v-.5h.5l.5.5v.5h-.5l-.5-.5zm.5-.5v-.5h.5l.5.5v.5h-.5l-.5-.5zm.5 1.1v-.5h.5l.5.5v.5h-.5l-.5-.5zm.6-.5v-.5h.5l.5.5v.5h-.5l-.5-.5zm.5 1.1v-.5h.5l.5.5v.5h-.5l-.5-.5zm.6-.5v-.5h.5l.5.5v.6H57l-.5-.6zm.5 1.2v-.5h.5l.5.5v.5h-.5l-.5-.5zm.5-.5v-.5h.5l.5.5v.5H58l-.5-.5zm.6 1.1v-.5h.5l.5.5v.5h-.5l-.5-.5zm.5-.5v-.5h.5l.5.5v.5h-.5l-.5-.5zm.6 1.1v-.5h.5l.5.5v.5h-.5l-.5-.5zm.5-.5v-.5h.5l.5.5v.5h-.5l-.5-.5zm.5 1.1v-.5h.5l.5.5v.6h-.5l-.5-.6zm.6-.5v-.5h.5l.5.5v.5h-.5l-.5-.5zm.5 1.1v-.5h.5l.5.5v.5h-.5l-.5-.5zm.6 1.2v-.5h.5l.5.5v.5h-.5l-.5-.5zm1.5 0h-.5l-.5-.5v-.5h.5l.5.5v.5zm0-1.6h-.5l-.5-.6v-.5h.5l.5.5v.6zm0-1.7h-.5l-.5-.5v-.5h.5l.5.5v.5zm0-1.7h-.5l-.5-.5v-.5h.5l.5.5v.5zm0-1.6h-.5l-.5-.6v-.5h.5l.5.5v.6zm0-1.7h-.5l-.5-.5v-.5h.5l.5.5v.5zm0-1.6h-.5l-.5-.5v-.5h.5l.5.5v.5zm0-1.7h-.5l-.5-.6v-.5h.5l.5.5v.6zm0-1.6h-.5l-.5-.5V59h.5l.5.5v.5zm0-1.7h-.5l-.5-.5v-.5h.5l.5.5v.5zm0-1.7h-.5l-.5-.5v-.5h.5l.5.5v.5zm0-1.6h-.5l-.5-.5V54h.5l.5.5v.5zm0-2.2v.5h-.5l-.5-.5v-.5h.5l.5.5zm-.6.5v.5h-.5l-.5-.5v-.5h.5l.5.5zm-.5-1.1v.5h-.5l-.5-.5v-.5h.5l.5.5zm-.5.5v.5h-.5l-.5-.5v-.5h.5l.5.5zm-.6-1.1v.5h-.5l-.5-.5V51h.5l.5.6zm-.5.5v.5h-.5l-.5-.6v-.5h.5l.5.6zm-.6-1.1v.5h-.5l-.5-.5v-.5h.5l.5.5zm-.5.5v.5h-.5l-.5-.5V51h.5l.5.5zm-.5-1.2v.5h-.5l-.5-.5v-.5h.5l.5.5zm-.6.6v.5H58l-.5-.5v-.5h.5l.5.5zm-.5-1.2v.5h-.5l-.5-.5v-.5h.5l.5.5zm-.6.5v.5h-.5l-.5-.5v-.5h.5l.5.5zm-.5-1.1v.5h-.5l-.5-.6v-.5h.5l.5.6zm-.5.5v.5h-.5l-.5-.5v-.5h.5l.5.5zm-.6-1.1v.5h-.5l-.5-.5V48h.5l.5.5zm-.5.5v.5h-.5l-.5-.5v-.5h.5l.5.5zm-.6-1.2v.5h-.5l-.5-.5v-.5h.5l.5.5zm-.5.6v.5h-.5l-.5-.5v-.5h.5l.5.5zm-.5-1.2v.5h-.5l-.5-.5v-.5h.5l.5.5zm-.6.6v.5h-.5l-.5-.5v-.5h.5l.5.5zm-.5-1.2v.5h-.5l-.5-.5V46h.5l.5.6zm-.6.5v.5h-.5l-.5-.5v-.5h.5l.5.5zm-.5-1.1v.5H51l-.5-.5v-.5h.5l.5.5zm-.5.5v.5h-.5l-.5-.5V46h.5l.5.5zm-.6-1.1v.5h-.5l-.5-.5v-.5h.5l.5.5zm-.5.5v.5h-.5l-.5-.5v-.5h.5l.5.5zm-.6-1.2v.5h-.5l-.5-.5v-.5h.5l.5.5zm-.5.6v.5h-.5l-.5-.5v-.5h.5l.5.5zm-.6-1.2v.5h-.5l-.5-.5v-.5h.5l.5.5zm-.5.6v.5h-.5l-.5-.5v-.5h.5l.5.5zm-.5-1.2v.5h-.5l-.5-.5V43h.5l.5.5zm-.6.5v.5h-.5l-.4-.5v-.5h.5l.4.5zm-.5-1.1v.5h-.5l-.5-.5v-.5h.5l.5.5zm-.5.5v.5h-.5l-.5-.5v-.5h.5l.5.5zm-.6-1.1v.5h-.5l-.5-.6v-.5h.5l.5.6zm-.5.5v.5H44l-.5-.5v-.5h.5l.5.5zm-.6-1.2v.5h-.5l-.5-.5v-.5h.5l.5.5zm-.5.6v.5h-.5l-.5-.5v-.5h.5l.5.5zm-.5-1.2v.5h-.5l-.5-.5v-.5h.5l.5.5zm-.6.6v.5h-.5l-.5-.5V41h.5l.5.6zm-1.5-1.8h.5l.5.5v.5h-.5l-.5-.5v-.5zm0 1.7h.5l.5.5v.5h-.5l-.5-.5v-.5zm0 1.7h.5l.5.5v.5h-.5l-.5-.5v-.5zm0 1.6h.5l.5.5v.5h-.5l-.5-.5v-.5zm0 1.7h.5l.5.5v.5h-.5l-.5-.5v-.5zm0 1.6h.5l.5.5v.5h-.5l-.5-.5v-.5zm0 1.7h.5l.5.5v.5h-.5l-.5-.5v-.5zm0 1.7h.5l.5.5v.5h-.5l-.5-.5v-.5zm0 1.6h.5l.5.5v.5h-.5l-.5-.5v-.5zm0 1.7h.5l.5.5v.5h-.5l-.5-.5v-.5zm0 1.6h.5l.5.5v.5h-.5l-.5-.5v-.5zm0 2.2v-.5h.5l.5.5v.5h-.5l-.5-.5zm.5-.5v-.5h.5l.5.5v.5h-.5l-.5-.5zm.6 1.1v-.5h.5l.5.5v.5h-.5l-.5-.5zm.5-.5v-.5h.5l.5.5v.5h-.5l-.5-.5zm.5 1.1v-.5h.5l.5.5v.5h-.5l-.5-.5zm.6-.5v-.5h.5l.5.5v.5H44l-.5-.5zm.5 1.2V60h.5l.5.5v.5h-.5l-.5-.5zm.6-.6v-.5h.5l.5.5v.5h-.5l-.5-.5zm.5 1.2v-.5h.5l.5.5v.5h-.5l-.5-.5zm.5-.5v-.5h.5l.5.5v.5h-.5l-.5-.5zm.6 1.1v-.5h.5l.5.5v.5h-.5l-.5-.5zm.5-.5v-.5h.5l.5.5v.5h-.5l-.5-.5zm.6 1.1v-.5h.5l.5.5v.5h-.5l-.5-.5zm.5-.5v-.5h.5l.5.5v.5h-.5l-.5-.5zm.5 1.1v-.5h.5l.5.5v.5h-.5l-.5-.5zm.6-.5v-.5h.5l.5.5v.6h-.5l-.5-.6zm.5 1.2v-.5h.5l.5.5v.5h-.5l-.5-.5zm.6-.6v-.5h.5l.5.5v.5h-.5L50 63zm.5 1.2v-.5h.5l.5.5v.5H51l-.5-.5zm.6-.5v-.5h.5l.5.5v.5h-.5l-.5-.5zm.5 1.1v-.5h.5l.5.5v.5h-.5l-.5-.5zm.5-.5v-.5h.5l.5.5v.5h-.5l-.5-.5zm.6 1.1v-.5h.5l.5.5v.6h-.5l-.5-.6zm.5-.5v-.5h.5l.5.5v.5h-.5l-.5-.5zm.6 1.1v-.5h.5l.5.5v.5h-.5l-.5-.5zm.5-.5V65h.5l.5.5v.5h-.5l-.5-.5zm.5 1.2v-.5h.5l.5.5v.5h-.5l-.5-.5zm.6-.6v-.5h.5l.5.5v.5h-.5l-.5-.5zm.5 1.2v-.5h.5l.5.5v.5h-.5l-.5-.5zm.6-.5v-.5h.5l.5.5v.5H57l-.5-.5zm.5 1.1v-.5h.5l.5.6v.5h-.5l-.5-.6zm.5-.5v-.5h.5l.5.5v.6H58l-.5-.6zm.6 1.1V68h.5l.5.5v.5h-.5l-.5-.5zm.5-.5v-.5h.5l.5.5v.5h-.5l-.5-.5zm.5 1.1v-.5h.5l.5.5v.5h-.5l-.5-.5zm.6-.5v-.5h.5l.5.5v.5h-.5l-.5-.5zm.5 1.2v-.5h.5l.5.5v.5h-.5l-.5-.5zm.6-.6v-.5h.5l.5.5v.5h-.5l-.5-.5zm.5 1.2v-.5h.5l.5.5v.5h-.5l-.5-.5zm1.5 1.7h-.5l-.5-.5V71h.5l.5.5v.6zm0-1.7h-.5l-.5-.5v-.5h.5l.5.5v.5zm0-1.6h-.5l-.5-.5v-.5h.5l.5.5v.5zm0-1.7h-.5l-.5-.5V66h.5l.5.5v.6zm0-1.6h-.5l-.5-.5v-.5h.5l.5.5v.5zm0-1.7h-.5l-.5-.5v-.5h.5l.5.5v.5zm0-1.7h-.5l-.5-.5v-.5h.5l.5.5v.5zm0-1.6h-.5l-.5-.5v-.5h.5l.5.5v.5zm0-1.7h-.5l-.5-.5v-.5h.5l.5.5v.5zm0-1.6h-.5l-.5-.5v-.5h.5l.5.5v.5zm0-2.2v.5h-.5l-.5-.5v-.5h.5l.5.5zm-.5-1.2v.5h-.5l-.5-.5v-.5h.5l.5.5zm-.5.6v.5h-.5l-.5-.5v-.5h.5l.5.5zm-.6-1.2v.5h-.5l-.5-.5v-.5h.5l.5.5zm-.5.6v.5h-.5l-.5-.5v-.5h.5l.5.5zm-.6-1.2v.5h-.5l-.5-.5V52h.5l.5.6zm-.5.5v.5h-.5l-.5-.5v-.5h.5l.5.5zm-.5-1.1v.5h-.5l-.5-.5v-.5h.5l.5.5zm-.6.5v.5H58l-.5-.5V52h.5l.5.5zm-.5-1.1v.5h-.5l-.5-.6v-.5h.5l.5.6zm-.6.5v.5h-.5l-.5-.5v-.5h.5l.5.5zm-.5-1.1v.5h-.5l-.5-.5v-.5h.5l.5.5zm-.5.5v.5h-.5l-.5-.5v-.5h.5l.5.5zm-.6-1.2v.5h-.5l-.5-.5v-.5h.5l.5.5zm-.5.6v.5h-.5l-.5-.5v-.5h.5l.5.5zm-.6-1.2v.5h-.5l-.5-.5V49h.5l.5.5zm-.5.5v.5h-.5l-.5-.5v-.5h.5l.5.5zm-.5-1.1v.5h-.5l-.5-.5v-.5h.5l.5.5zm-.6.5v.5h-.5l-.5-.5v-.5h.5l.5.5zm-.5-1.1v.5h-.5l-.5-.5v-.5h.5l.5.5zm-.6.5v.5h-.5l-.5-.5v-.5h.5l.5.5zm-.5-1.1v.5H51l-.5-.5v-.5h.5l.5.5zm-.5.5v.5h-.5l-.5-.6v-.5h.5l.5.6zm-.6-1.2v.5h-.5l-.5-.5v-.5h.5l.5.5zm-.5.6v.5h-.5l-.5-.5V47h.5l.5.6zm-.6-1.2v.5h-.5l-.5-.5v-.5h.5l.5.5zm-.5.5v.5h-.5l-.5-.5v-.5h.5l.5.5zm-.6-1.1v.5h-.5l-.5-.5v-.5h.5l.5.5zm-.5.5v.5h-.5l-.5-.5v-.5h.5l.5.5zm-.5-1.1v.5h-.5l-.5-.5v-.5h.5l.5.5zm-.6.5v.5h-.5l-.5-.5v-.5h.5l.5.5zm-.5-1.2v.5h-.5l-.5-.5V44h.5l.5.5zm-.5.6v.5h-.5l-.5-.6v-.5h.5l.5.6zm-.6-1.2v.5h-.5l-.5-.5v-.5h.5l.5.5zm-.5.5v.6H44l-.5-.5V44h.5l.5.4zm-.6-1.1v.5h-.5l-.5-.5v-.5h.5l.5.5zm-.5.5v.5h-.5l-.5-.5v-.5h.5l.5.5zm-.5-1.1v.5h-.5l-.5-.5v-.5h.5l.5.5zm-1.6-.1h.5l.5.5v.5h-.5l-.5-.5v-.5zm0 1.7h.5l.5.5v.5h-.5l-.5-.5v-.5zm0 1.7h.5l.5.5v.5h-.5l-.5-.5V46zm0 1.6h.5l.5.5v.5h-.5l-.5-.5v-.5zm0 1.7h.5l.5.5v.5h-.5l-.5-.5v-.5zm0 1.6h.5l.5.5v.6h-.5l-.5-.5v-.6zm0 1.7h.5l.5.5v.5h-.5l-.5-.5v-.5zm0 1.7h.5l.5.5v.5h-.5l-.5-.5v-.5zm0 2.1v-.5h.5l.5.5v.6h-.5l-.5-.6zm.6 1.2v-.5h.5l.5.5v.5h-.5l-.5-.5zm.5-.6v-.5h.5l.5.5v.5h-.5l-.5-.5zm.5 1.2v-.5h.5l.5.5v.5h-.5l-.5-.5zm.6-.5v-.5h.5l.5.5v.5H44l-.5-.5zm.5 1.1v-.5h.5l.5.5v.5h-.5l-.5-.5zm.6-.5v-.5h.5l.5.5v.5h-.5l-.5-.5zm.5 1.1v-.5h.5l.5.5v.6h-.5l-.5-.6zm.5-.5v-.5h.5l.5.5v.5h-.5l-.5-.5zm.6 1.1v-.5h.5l.5.5v.5h-.5l-.5-.5zm.5-.5V59h.5l.5.5v.5h-.5l-.5-.5zm.6 1.2v-.5h.5l.5.5v.5h-.5l-.5-.5zm.5-.6v-.5h.5l.5.5v.5h-.5l-.5-.5zm.5 1.2v-.5h.5l.5.5v.5h-.5l-.5-.5zm.6-.5v-.5h.5l.5.5v.5h-.5l-.5-.5zm.5 1.1v-.5h.5l.5.5v.5h-.5l-.5-.5zm.6-.5v-.5h.5l.5.5v.6h-.5l-.5-.6zm.5 1.1V62h.5l.5.5v.5H51l-.5-.5zm.6-.5v-.5h.5l.5.5v.5h-.5l-.5-.5zm.5 1.1v-.5h.5l.5.5v.5h-.5l-.5-.5zm.5-.5v-.5h.5l.5.5v.5h-.5l-.5-.5zm.6 1.2v-.5h.5l.5.5v.5h-.5l-.5-.5zm.5-.6v-.5h.5l.5.5v.5h-.5l-.5-.5zm.6 1.2v-.5h.5l.5.5v.5h-.5l-.5-.5zm.5-.5v-.5h.5l.5.5v.5h-.5l-.5-.5zm.5 1.1v-.5h.5l.5.5v.5h-.5l-.5-.5zm.6-.5V64h.5l.5.5v.5h-.5l-.5-.5zm.5 1.1v-.5h.5l.5.5v.5h-.5l-.5-.5zm.6-.5v-.5h.5l.5.5v.5H57l-.5-.5zm.5 1.1v-.5h.5l.5.5v.5h-.5l-.5-.5zm.5-.5v-.5h.5l.5.5v.5H58l-.5-.5zm.6 1.2v-.5h.5l.5.5v.5h-.5l-.5-.5zm.5-.6v-.5h.5l.5.5v.5h-.5l-.5-.5zm.5 1.2V67h.5l.5.5v.5h-.5l-.5-.5zm.6-.5v-.5h.5l.5.5v.5h-.5l-.5-.5zm.5 1.1v-.5h.5l.5.5v.5h-.5l-.5-.5zm.6-.5v-.5h.5l.5.5v.5h-.5l-.5-.5zm1.5 1.7h-.5l-.5-.5v-.5h.5l.5.5v.5zm0-1.7h-.5l-.5-.5v-.5h.5l.5.5v.5zm0-1.6h-.5l-.5-.5V65h.5l.5.5v.5zm0-1.7h-.5l-.5-.5v-.5h.5l.5.5v.5zm0-1.6h-.5l-.5-.5v-.5h.5l.5.5v.5zm0-1.7h-.5l-.5-.5V60h.5l.5.5v.5zm0-1.7h-.5l-.5-.5v-.5h.5l.5.5v.5zm0-1.6h-.5l-.5-.5v-.5h.5l.5.5v.5zm0-2.2v.5h-.5l-.5-.5V55h.5l.5.5zm-.5.5v.5h-.5l-.5-.5v-.5h.5l.5.5zm-.6-1.1v.5h-.5l-.5-.5v-.5h.5l.5.5zm-.5.5v.5h-.5l-.5-.5v-.5h.5l.5.5zm-.6-1.1v.5h-.5l-.5-.5v-.5h.5l.5.5zm-.5.5v.5h-.5l-.5-.5v-.5h.5l.5.5zm-.5-1.1v.5h-.5l-.5-.5v-.5h.5l.5.5zm-.6.5v.5H58l-.5-.5v-.5h.5l.5.5zM58 53v.5h-.5L57 53v-.5h.5l.5.5zm-.6.6v.5L57 54l-.5-.5V53h.5l.4.6zm-.5-1.2v.5h-.5l-.5-.5v-.5h.5l.5.5zm-.5.5v.5h-.5l-.5-.5v-.5h.5l.5.5zm-.6-1.1v.5h-.5l-.5-.5v-.5h.5l.5.5zm-.5.5v.5h-.5l-.5-.5v-.5h.5l.5.5zm-.6-1.1v.5h-.5l-.5-.5v-.5h.5l.5.5zm-.5.5v.5h-.5l-.5-.5v-.5h.5l.5.5zm-.5-1.2v.5h-.5l-.5-.5V50h.5l.5.5zm-.6.6v.5h-.5l-.5-.6v-.5h.5l.5.6zm-.5-1.2v.5h-.5l-.5-.5v-.5h.5l.5.5zm-.6.6v.5h-.5l-.5-.5V50h.5l.5.5zm-.5-1.2v.5H51l-.5-.5v-.5h.5l.5.5zm-.5.5v.5h-.5l-.5-.5v-.5h.5l.5.5zm-.6-1.1v.5h-.5l-.5-.5v-.5h.5l.5.5zm-.5.5v.5h-.5l-.5-.5v-.5h.5l.5.5zm-.6-1.1v.5h-.5l-.5-.6v-.5h.5l.5.6zm-.5.5v.5h-.5l-.5-.5V48h.5l.5.6zm-.5-1.2v.6h-.5l-.5-.5V47h.5l.5.4zm-.6.6v.5h-.5l-.5-.5v-.5h.5l.5.5zm-.5-1.2v.5h-.5l-.5-.5v-.5h.5l.5.5zm-.6.6v.5h-.5l-.5-.5v-.5h.5l.5.5zm-.5-1.2v.5h-.5l-.5-.5v-.5h.5l.5.5zm-.5.5v.5h-.5l-.5-.5v-.5h.5l.5.5zm-.6-1.1v.5h-.5l-.5-.6V45h.5l.5.6zm-.5.5v.5H44l-.5-.5v-.5h.5l.5.5zm-.6-1.1v.5h-.5l-.4-.6v-.5h.5l.4.6zm-.5.5v.5h-.5l-.5-.5V45h.5l.5.5zm-1.5-1.7h.5l.5.5v.5h-.5l-.5-.5v-.5zm0 1.6h.5l.5.5v.5h-.5l-.5-.5v-.5zm0 1.7h.5l.5.5v.5h-.5l-.5-.5v-.5zm0 1.7h.5l.5.5v.5h-.5l-.5-.5v-.5zm0 1.6h.5l.5.5v.5h-.5l-.5-.5v-.5zm0 1.7h.5l.5.5v.5h-.5l-.5-.5v-.5zm0 1.6h.5l.5.5v.5h-.5l-.5-.5v-.5zm0 2.2v-.5h.5l.5.5v.5h-.5l-.5-.5zm.5-.5v-.5h.5l.5.5v.5h-.5l-.5-.5zm.5 1.1V56h.5l.5.5v.5h-.5l-.5-.5zm.6-.5v-.5h.5l.5.5v.5H44l-.5-.5zm.5 1.1v-.5h.5l.5.5v.5h-.5l-.5-.5zm.6-.5v-.5h.5l.5.5v.5h-.5l-.5-.5zm.5 1.2v-.5h.5l.5.5v.5h-.5l-.5-.5zm.5-.6v-.5h.5l.5.5v.5h-.5l-.5-.5zm.6 1.2v-.5h.5l.5.5v.5h-.5l-.5-.5zm.5-.5v-.5h.5l.5.5v.5h-.5l-.5-.5zm.6 1.1v-.5h.5l.5.5v.5h-.5l-.5-.5zm.5-.5V58h.5l.5.5v.5h-.5l-.5-.5zm.5 1.1v-.5h.5l.5.5v.5h-.5l-.5-.5zm.6-.5v-.5h.5l.5.5v.5h-.5l-.5-.5zm.5 1.1v-.5h.5l.5.5v.5h-.5l-.5-.5zm.6-.5v-.5h.5l.5.5v.5h-.5l-.5-.5zm.5 1.2v-.5h.5l.5.5v.5H51l-.5-.5zm.6-.6v-.5h.5l.5.5v.5h-.5l-.5-.5zm.5 1.2V61h.5l.5.5v.5h-.5l-.5-.5zm.5-.5v-.5h.5l.5.5v.5h-.5l-.5-.5zm.6 1.1v-.5h.5l.5.5v.5h-.5l-.5-.5zm.5-.5v-.5h.5l.5.5v.5h-.5l-.5-.5zm.5 1.1v-.5h.5l.5.5v.5h-.5l-.5-.5zm.6-.5v-.5h.5l.5.5v.5h-.5l-.5-.5zm.5 1.1v-.5h.5l.5.5v.5h-.5l-.5-.5zm.6-.5v-.5h.5l.5.5v.5h-.5l-.5-.5zm.5 1.2v-.5h.5l.5.5v.5h-.5l-.5-.5zm.5-.6v-.5h.5l.5.5v.6h-.5l-.5-.6zm.6 1.2v-.5h.5l.5.5v.5h-.5l-.5-.5zm.5-.5v-.5h.5l.5.5v.5H58l-.5-.5zm.6 1.1v-.5h.5l.5.5v.5h-.5l-.5-.5zm.5-.5v-.5h.5l.5.5v.5h-.5l-.5-.5zm.5 1.1v-.5h.5l.5.5v.5h-.5l-.5-.5zm.6-.5v-.5h.5l.5.5v.5h-.5l-.5-.5zm.5 1.1v-.5h.5l.5.5v.6h-.5l-.5-.6zm1.5.1h-.5l-.5-.5v-.5h.5l.5.5v.5zm0-1.7h-.5l-.5-.5v-.5h.5l.5.5v.5zm0-1.6h-.5l-.5-.5v-.5h.5l.5.5v.5zm0-1.7h-.5l-.4-.5v-.5h.5l.5.5v.5zm0-1.6h-.5l-.5-.5v-.5h.5l.5.5v.5zm0-2.2v.5h-.5l-.5-.5v-.5h.5l.5.5zm-.5-1.2v.5h-.5l-.5-.5V56h.5l.5.5zm-.5.6v.5h-.5l-.5-.6v-.5h.5l.5.6zm-.6-1.2v.5h-.5l-.5-.5v-.5h.5l.5.5zm-.5.6v.5h-.5l-.5-.5V56h.5l.5.5zm-.5-1.2v.5h-.5l-.5-.5v-.5h.5l.5.5zm-.6.5v.5H58l-.5-.5v-.5h.5l.5.5zm-.5-1.1v.5h-.5l-.5-.6v-.5h.5l.5.6zm-.6.5v.5h-.5l-.5-.5v-.5h.5l.5.5zm-.5-1.1v.5h-.5l-.5-.6v-.5h.5l.5.6zm-.6.5v.5h-.5l-.5-.5V54h.5l.5.6zm-.5-1.2v.6h-.5l-.5-.5V53h.5l.5.4zm-.5.6v.5h-.5l-.5-.5v-.5h.5l.5.5zm-.6-1.2v.5h-.5l-.5-.5v-.5h.5l.5.5zm-.5.6v.5h-.5l-.5-.5v-.5h.5l.5.5zm-.5-1.2v.5h-.5l-.5-.5v-.5h.5l.5.5zm-.6.5v.5h-.5l-.5-.5v-.5h.5l.5.5zm-.5-1.1v.5h-.5l-.5-.5V51h.5l.5.6zm-.6.5v.5h-.5l-.5-.5v-.5h.5l.5.5zm-.5-1.1v.5H51l-.5-.5v-.5h.5l.5.5zm-.5.5v.5h-.5l-.5-.6v-.5h.5l.5.6zm-.6-1.2v.5h-.5l-.5-.5v-.5h.5l.5.5zm-.5.6v.5h-.5l-.5-.5v-.5h.5l.5.5zm-.6-1.2v.5h-.5l-.5-.5v-.5h.5l.5.5zm-.5.6v.5h-.5l-.5-.5v-.5h.5l.5.5zm-.5-1.2v.5h-.5l-.5-.6v-.5h.5l.5.6zm-.6.5v.5h-.5l-.5-.5v-.5h.5l.5.5zm-.5-1.1v.5h-.5l-.5-.5V48h.5l.5.5zm-.6.5v.5h-.5l-.5-.5v-.5h.5l.5.5zm-.5-1.1v.5h-.5l-.5-.5v-.5h.5l.5.5zm-.6.5v.5H45l-.5-.5v-.5h.5l.5.5zm-.5-1.2v.5h-.5l-.5-.5v-.5h.5l.5.5zm-.5.6v.5H44l-.5-.5v-.5h.5l.5.5zm-.6-1.2v.5h-.5l-.4-.5v-.5h.5l.4.5zm-1.5 0h.5l.5.5v.5h-.5l-.5-.5v-.5zm0 1.6h.5l.5.5v.5h-.5l-.5-.5v-.5zm0 1.7h.5l.5.5v.6h-.5l-.5-.5v-.6zm0 1.7h.5l.5.5v.5h-.5l-.5-.5v-.5zm0 2.1v-.5h.5l.5.5v.5h-.5l-.5-.5zm.5 1.2v-.5h.5l.5.5v.5h-.5l-.5-.5zm.6-.6v-.5h.5l.5.5v.5H44l-.5-.5zm.5 1.2V55h.5l.5.5v.5h-.5l-.5-.5zm.6-.5v-.5h.5l.5.5v.5h-.5l-.5-.5zm.5 1.1v-.5h.5l.5.5v.5h-.5l-.5-.5zm.5-.5v-.5h.5l.5.5v.5h-.5l-.5-.5zm.6 1.1v-.5h.5l.5.5v.5h-.5l-.5-.5zm.5-.5v-.5h.5l.5.5v.5h-.5l-.5-.5zm.6 1.1v-.5h.5l.5.5v.5h-.5l-.5-.5zm.5-.5v-.5h.5l.5.5v.5h-.5l-.5-.5zm.5 1.2v-.5h.5l.5.5v.5h-.5l-.5-.5zm.6-.6v-.5h.5l.5.5v.6h-.5l-.5-.6zm.5 1.2v-.5h.5l.5.5v.5h-.5l-.5-.5zm.6-.5v-.5h.5l.5.5v.5h-.5l-.5-.5zm.5 1.1v-.5h.5l.5.5v.5H51l-.5-.5zm.6-.5v-.5h.5l.5.5v.5h-.5l-.5-.5zm.5 1.1v-.5h.5l.5.5v.5h-.5l-.5-.5zm.5-.5v-.5h.5l.5.5v.5h-.5l-.5-.5zm.6 1.1v-.5h.5l.5.5v.6h-.5l-.5-.6zm.5-.5v-.5h.5l.5.5v.5h-.5l-.5-.5zm.5 1.2v-.5h.5l.5.5v.5h-.5l-.5-.5zm.6-.5V60h.5l.5.5v.5h-.5l-.5-.4zm.5 1.1v-.5h.5l.5.5v.5h-.5l-.5-.5zm.6-.5v-.5h.5l.5.5v.5h-.5l-.5-.5zm.5 1.1v-.5h.5l.5.5v.5h-.5l-.5-.5zm.5-.5v-.5h.5l.5.5v.5h-.5l-.5-.5zm.6 1.1v-.5h.5l.5.6v.5h-.5l-.5-.6zm.5-.5v-.5h.5l.5.5v.6H58l-.5-.6zm.6 1.1V63h.5l.5.5v.5h-.5l-.5-.5zm.5-.5v-.5h.5l.5.5v.5h-.5l-.5-.5zm.5 1.2v-.5h.5l.5.5v.5h-.5l-.5-.5zm.6-.6v-.5h.5l.5.5v.5h-.5l-.5-.5zm1.5 1.7h-.5l-.5-.5v-.5h.5l.5.5v.5zm0-1.6h-.5l-.5-.5v-.5h.5l.5.5v.5zm0-1.7h-.5l-.5-.5V61h.5l.5.5v.5zm0-1.6h-.5l-.5-.5v-.5h.5l.5.5v.5zm0-2.2v.5h-.5l-.5-.5v-.5h.5l.5.5zm-.5.5v.5h-.5l-.5-.5v-.5h.5l.5.5zm-.6-1.1v.5h-.5l-.5-.5V57h.5l.5.6zm-.5.5v.5h-.5l-.5-.5v-.5h.5l.5.5zM59 57v.5h-.5L58 57v-.5h.5l.5.5zm-.5.5v.5H58l-.5-.5V57h.5l.5.5zm-.5-1.2v.5h-.5l-.5-.5v-.5h.5l.5.5zm-.6.6v.5h-.5l-.5-.5v-.5h.5l.5.5zm-.5-1.2v.5h-.5l-.5-.5v-.5h.5l.5.5zm-.6.6v.5h-.5l-.5-.5v-.5h.5l.5.5zm-.5-1.2v.5h-.5l-.5-.5v-.5h.5l.5.5zm-.5.5v.5h-.5l-.5-.5v-.5h.5l.5.5zm-.6-1.1v.5h-.5l-.5-.5V54h.5l.5.5zm-.5.5v.5h-.5l-.5-.5v-.5h.5l.5.5zm-.6-1.1v.5h-.5l-.5-.5v-.5h.5l.5.5zm-.5.5v.5h-.5l-.5-.5v-.5h.5l.5.5zm-.5-1.2v.5h-.5l-.5-.5v-.5h.5l.5.5zm-.6.6v.5h-.5l-.5-.6v-.5h.5l.5.6zm-.5-1.2v.5H51l-.5-.5v-.5h.5l.5.5zm-.5.6v.5h-.5l-.5-.6v-.5h.5l.5.6zm-.6-1.2v.5h-.5l-.5-.5v-.5h.5l.5.5zm-.5.5v.5h-.5l-.5-.5V52h.5l.5.5zm-.6-1.1v.5h-.5l-.5-.5v-.5h.5l.5.5zm-.5.5v.5h-.5l-.5-.5v-.5h.5l.5.5zm-.6-1.1v.5h-.5l-.5-.5v-.5h.5l.5.5zm-.5.5v.5h-.5l-.5-.5v-.5h.5l.5.5zm-.5-1.2v.5h-.5l-.5-.5v-.5h.5l.5.5zm-.6.6v.5h-.5l-.5-.5v-.5h.5l.5.5zm-.5-1.2v.5h-.5l-.5-.5V49h.5l.5.5zm-.6.5v.5H45l-.4-.5v-.5h.5l.4.5zm-.5-1.1v.5h-.5l-.5-.6v-.5h.5l.5.6zm-.5.5v.5H44l-.5-.5v-.5h.5l.5.5zm-1.6-1.7h.5l.5.5v.5h-.5l-.5-.5v-.5zm0 1.7h.5l.5.5v.5h-.5l-.5-.5v-.5zm0 1.6h.5l.5.5v.5h-.5l-.5-.5V51zm0 2.2v-.5h.5l.5.5v.5h-.5l-.5-.5zm.6-.5v-.5h.5l.5.5v.5H44l-.5-.5zm.5 1.1v-.5h.5l.5.5v.5h-.5l-.5-.5zm.6-.5v-.5h.5l.5.5v.5h-.5l-.5-.5zm.5 1.1v-.5h.5l.5.5v.6h-.5l-.5-.6zm.5-.5v-.5h.5l.5.5v.5h-.5l-.5-.5zm.6 1.2v-.5h.5l.5.5v.5h-.5l-.5-.5zm.5-.6V54h.5l.5.5v.5h-.5l-.5-.5zm.6 1.2v-.5h.5l.5.5v.5h-.5l-.5-.5zm.5-.5v-.5h.5l.5.5v.5h-.5l-.5-.5zm.5 1.1v-.5h.5l.5.5v.5h-.5l-.5-.5zm.6-.5v-.5h.5l.5.5v.5h-.5l-.5-.5zm.5 1.1v-.5h.5l.5.5v.5h-.5l-.5-.5zm.6-.5v-.5h.5l.5.5v.6h-.5l-.5-.6zm.5 1.1V57h.5l.5.5v.5H51l-.5-.5zm.6-.5v-.5h.5l.5.5v.5h-.5l-.5-.5zm.5 1.2v-.5h.5l.5.5v.5h-.5l-.5-.5zm.5-.5v-.5h.5l.5.5v.5h-.5l-.5-.5zm.6 1.1v-.5h.5l.5.5v.5h-.5l-.5-.5zm.5-.5v-.5h.5l.5.5v.5h-.5l-.5-.5zm.5 1.1v-.5h.5l.5.5v.6h-.5l-.5-.6zm.6-.5v-.5h.5l.5.5v.5h-.5l-.5-.5zm.5 1.1v-.5h.5l.5.5v.5h-.5l-.5-.5zm.6-.5V59h.5l.5.5v.5h-.5l-.5-.5zm.5 1.1v-.5h.5l.5.5v.5h-.5l-.5-.5zm.5-.5v-.5h.5l.5.5v.5h-.5l-.5-.5zm.6 1.2v-.5h.5l.5.5v.5h-.5l-.5-.5zm.5-.5v-.5h.5l.5.5v.5H58l-.5-.5zm.6 1.1v-.5h.5l.5.5v.5h-.5l-.5-.5zm.5-.5v-.5h.5l.5.5v.5h-.5l-.5-.5zm.5 1.1V62h.5l.5.5v.5h-.5l-.5-.5zm1.6.1h-.5l-.5-.6v-.5h.5l.5.5v.6zm0-2.2v.5h-.5l-.5-.5v-.5h.5l.5.5zm-.6-1.2v.5h-.5l-.5-.5v-.5h.5l.5.5zm0 1.7v.5h-.5l-.5-.5v-.5h.5l.5.5zm-.5-1.1v.5h-.5l-.5-.5v-.5h.5l.5.5zm-.6-1.2v.5h-.5l-.5-.5v-.5h.5l.5.5zm.1 1.7v.5h-.5l-.5-.5v-.5h.5l.5.5zm-.6-1.1v.5H58l-.5-.5v-.5h.5l.5.5zM58 58v.5h-.5L57 58v-.5h.5l.5.5zm0 1.7v.5h-.5l-.5-.6v-.5h.5l.5.6zm-.6-1.2v.5h-.5l-.5-.5V58h.5l.5.5zm-.5-1.1v.5h-.5l-.5-.5v-.5h.5l.5.5zm0 1.6v.5h-.5l-.5-.5v-.5h.5l.5.5zm-.5-1.1v.5h-.5l-.5-.5v-.5h.5l.5.5zm-.6-1.1v.5h-.5l-.5-.5v-.5h.5l.5.5zm0 1.6v.5h-.5l-.5-.5v-.5h.5l.5.5zm-.5-1.1v.5h-.5l-.5-.5v-.5h.5l.5.5zm-.6-1.2v.5h-.5l-.5-.5v-.5h.5l.5.5zm0 1.7v.5h-.5l-.5-.5v-.5h.5l.5.5zm-.5-1.1v.5h-.5l-.5-.5v-.5h.5l.5.5zm-.6-1.2v.5h-.5l-.5-.5V55h.5l.5.5zm0 1.7v.5h-.5l-.5-.5v-.5h.5l.5.5zm-.5-1.1v.5h-.5l-.5-.6v-.5h.5l.5.6zm-.5-1.2v.5h-.5l-.5-.5v-.5h.5l.5.5zm0 1.7v.5h-.5l-.5-.5V56h.5l.5.6zm-.6-1.2v.5h-.5l-.5-.5v-.5h.5l.5.5zm-.5-1.1v.5H51l-.5-.5v-.5h.5l.5.5zm0 1.6v.5H51l-.5-.5v-.5h.5l.5.5zm-.5-1.1v.5h-.5l-.5-.5v-.5h.5l.5.5zm-.6-1.1v.5h-.5l-.5-.5v-.5h.5l.5.5zm0 1.6v.5h-.5l-.5-.5v-.5h.5l.5.5zm-.5-1.1v.5h-.5l-.5-.5v-.5h.5l.5.5zm-.6-1.2v.5h-.5l-.5-.5v-.5h.5l.5.5zm0 1.7v.5h-.5l-.5-.5v-.5h.5l.5.5zm-.5-1.1v.5h-.5l-.5-.5V53h.5l.5.6zm-.6-1.2v.5h-.5l-.5-.5v-.5h.5l.5.5zm0 1.7v.5h-.5l-.4-.6v-.5h.5l.4.6zm-.5-1.2v.5h-.5l-.5-.5v-.5h.5l.5.5zm-.5-1.1v.5h-.5l-.5-.5v-.5h.5l.5.5zm0 1.7v.5h-.5l-.5-.5V53h.5l.5.5zm-.6-1.2v.5h-.5l-.5-.5v-.5h.5l.5.5zm-.5-1.1v.5h-.5l-.5-.5v-.5h.5l.5.5zm0 1.6v.5h-.5l-.5-.5v-.5h.5l.5.5zm-.6-1.1v.5H45l-.5-.5v-.5h.5l.5.5zm-.5-1.1v.5h-.5l-.5-.6V50h.5l.5.6zm0 1.6v.5h-.5l-.5-.5v-.5h.5l.5.5zM43.5 51v-.5h.5l.5.5v.5H44l-.5-.5zm21 25.7v.4c-.2 0-.4-.1-.6-.2l-.2-.1-.1-.1v-.5h.5l.4.5z"/><path id="Фигура_10-4" class="st6" d="M84.2 49.2l.2-.4L83 48c-1.1-.6-2.7-.5-4.4.5-3.5 2-6.3 6.9-6.3 11 0 2 .7 3.4 1.8 4.1l1.4.8.2-.4c.8 0 1.8-.3 2.8-.9 3.5-2 6.3-6.9 6.3-11 0-1.2-.2-2.1-.6-2.9z"/><path id="Фигура_11" class="st6" d="M74 60.4c0 4 2.8 5.6 6.3 3.6 3.5-2 6.3-6.9 6.3-10.9s-2.8-5.6-6.3-3.6c-3.5 2-6.3 6.9-6.3 10.9z"/><path id="Фигура_12-4" class="st3" d="M73.7 60.3c0 4 2.8 5.6 6.3 3.6 3.5-2 6.3-6.9 6.3-10.9s-2.8-5.6-6.3-3.6-6.3 6.8-6.3 10.9z"/><path id="Фигура_14" class="st1" d="M80.8 51.9c-.1.1-.2-.1-.2-.3l.3-1.7c0-.2.2-.4.3-.5.1-.1.2.1.2.3l-.3 1.7c-.1.2-.2.4-.3.5zm-2.4 1.8c-.1 0-.1 0-.2-.1l-.5-1.1c-.1-.1 0-.4.1-.5.1-.2.3-.2.3-.1l.5 1.1c.1.1 0 .4-.1.5 0 .1-.1.1-.1.2zm-1.8 3.1c-.1 0-.1 0 0 0l-1.1-.1c-.1 0-.2-.2-.1-.4s.2-.4.4-.3l1 .1c.1 0 .2.2.1.4-.1.1-.2.3-.3.3zM74.8 61c-.1 0-.2 0-.2-.2s.1-.4.2-.5l1.2-.9c.1-.1.3-.1.3.1s-.1.4-.2.5l-1.3 1zm1.2 2.8h-.1c-.1-.1-.1-.3 0-.5l.9-1.6c.1-.2.3-.3.4-.2.1.1.1.3 0 .5l-.9 1.6c-.2.1-.3.2-.3.2zm2.6.2c-.1.1-.2-.1-.2-.3l.3-1.7c0-.2.2-.4.3-.5.1-.1.2.1.2.3l-.2 1.8c-.1.2-.2.4-.4.4zm3.2-2.4c-.1 0-.1 0-.2-.1l-.5-1.1c-.1-.1 0-.4.1-.5.1-.2.3-.2.3-.1l.5 1.1c.1.1 0 .4-.1.5 0 .2-.1.2-.1.2zm2.4-4.1s-.1 0 0 0l-1.1-.1c-.1 0-.2-.2-.1-.4s.2-.4.4-.3l1 .1c.1 0 .2.2.1.4-.1.1-.2.3-.3.3zm-.5-3.3c-.1 0-.2 0-.2-.2s.1-.4.2-.5l1.2-.9c.1-.1.3-.1.3.1s-.1.4-.2.5l-1.3 1c0-.1 0 0 0 0zm-.9-2.2h-.1c-.1-.1-.1-.3 0-.5l.9-1.6c.1-.2.3-.3.4-.2.1.1.1.3 0 .5l-1 1.6c-.1.1-.1.2-.2.2z"/><path id="Фигура_13" class="st6" d="M83.4 53c-.6-.9-1.7-1.1-3.1-.3-1.9 1.1-3.5 3.8-3.5 6.1 0 1.6.8 2.5 2 2.5l2.7.1 3.4-6.2-1.5-2.2z"/><path id="Фигура_15" class="st1" d="M82.5 54.9c-1.4.8-2.6 2.9-2.6 4.5 0 1.7 1.2 2.3 2.6 1.5 1.4-.8 2.6-2.9 2.6-4.5s-1.2-2.3-2.6-1.5z"/></g><g id="петля_1"><g id="_1"><path id="Фигура_6" class="st7" d="M66.8 53.2l.8.5v3.9l-.8-.5v-3.9z"/><path id="Фигура_7" class="st4" d="M66.8 53.2l4.7-2.7c.1-.1.2-.1.3 0l.8.4-5 2.8-.8-.5z"/><path id="Фигура_8" class="st6" d="M72.7 51.1v3.3c0 .2-.1.4-.3.5l-4.8 2.8v-3.9l4.8-2.8c.2-.1.3 0 .3.1z"/><path id="Фигура_9" class="st3" d="M69.4 54.1c.2-.1.4 0 .4.2s-.2.6-.4.7c-.2.1-.4 0-.4-.2s.2-.6.4-.7zm1.7-1c.2-.1.4 0 .4.2s-.2.6-.4.7c-.2.1-.4 0-.4-.2s.2-.5.4-.7z"/></g><g id="_2"><path id="Фигура_3" class="st3" d="M62.7 57.9l1.7 1c.3.2.7.2 1 0l2-1.2v-3.9l-2 1.2c-.3.2-.7.2-1 0l-1.7-1c-.1-.1-.3 0-.3.2v3.3c0 .1.1.3.3.4z"/><path id="Фигура_4" class="st6" d="M64.9 59c.2 0 .4 0 .5-.1l2-1.2v-3.9l-2 1.2c-.2.1-.3.1-.5.1V59z"/><path id="Фигура_5" class="st4" d="M66.6 53.3l-1.1.7c-.3.2-.7.2-1 0l-.9-.5c-.1-.1-.2-.1-.3 0l-.8.4 1.9 1c.3.2.7.2 1 0l2-1.2-.8-.4z"/></g></g><g id="петля_1-2"><g id="_1-2"><path id="Фигура_6-2" class="st7" d="M66.8 67.3l.8.5v3.9l-.8-.5v-3.9z"/><path id="Фигура_7-2" class="st4" d="M66.8 67.3l4.7-2.7c.1-.1.2-.1.3 0l.8.4-5 2.8-.8-.5z"/><path id="Фигура_8-2" class="st6" d="M72.7 65.2v3.3c0 .2-.1.4-.3.5l-4.8 2.8v-3.9l4.8-2.8c.2-.1.3-.1.3.1z"/><path id="Фигура_9-2" class="st3" d="M69.4 68.2c.2-.1.4 0 .4.2 0 .3-.2.6-.4.7-.2.1-.4 0-.4-.2s.2-.6.4-.7zm1.7-1c.2-.1.4 0 .4.2 0 .3-.2.6-.4.7s-.4 0-.4-.2.2-.5.4-.7z"/></g><g id="_2-2"><path id="Фигура_3-2" class="st3" d="M62.7 72l1.7 1c.3.2.7.2 1 0l2-1.2v-3.9l-2 1.2c-.3.2-.7.2-1 0l-1.7-1c-.1-.1-.3 0-.3.2v3.3c0 .1.1.3.3.4z"/><path id="Фигура_4-2" class="st6" d="M64.9 73.1c.2 0 .4 0 .5-.1l2-1.2v-3.9l-2 1.2c-.2.1-.3.1-.5.1v3.9z"/><path id="Фигура_5-2" class="st4" d="M66.6 67.4l-1.2.7c-.3.2-.7.2-1 0l-.9-.5c-.1-.1-.2-.1-.3 0l-.7.4 1.9 1c.3.2.7.2 1 0l2-1.2-.8-.4z"/></g></g><path id="Прямоугольник_скругл._углы_1" class="st1" d="M54.2 38.3L73 27.4c.5-.3 1.4-.2 2.1.2s.8.9.4 1.2L56.6 39.7c-.5.3-1.4.2-2.1-.2s-.8-.9-.3-1.2z"/><path id="Прямоугольник_скругл._углы_1_копия" class="st3" d="M75 27.6c.7.4.8.9.4 1.2l-1.2-.7-19.6 11.4c-.7-.4-.8-.9-.4-1.2L73 27.4c.2-.1.5-.2.8-.1.2 0 .4.1.6.1.2 0 .4.1.6.2z"/><path id="Фигура_10-5" class="st0" d="M71.8 7.7l.4-.7-2.3-1.3c-1.8-1-4.4-.9-7.1.7-5.6 3.3-10.2 11.2-10.2 17.7 0 3.2 1.1 5.5 2.9 6.6h.2L58 32l.4-.7c1.3 0 2.9-.5 4.5-1.4 5.6-3.3 10.2-11.2 10.2-17.7-.2-1.7-.6-3.3-1.3-4.5z"/><path id="Фигура_12-5" class="st1" d="M54.4 25.3c0 6.5 4.6 9.2 10.2 5.9S74.9 20 74.9 13.5s-4.6-9.2-10.2-5.9-10.3 11.2-10.3 17.7z"/><path id="Фигура_12_копия-13" class="st2" d="M55.1 24.9c0 6.2 4.3 8.7 9.7 5.6s9.7-10.6 9.7-16.8-4.4-8.7-9.8-5.6-9.6 10.6-9.6 16.8z"/><path id="Фигура_12_копия_2-4" class="st0" d="M55.2 24.8c0 6.1 4.2 8.5 9.3 5.5 5.1-3 9.3-10.4 9.3-16.4s-4.2-8.5-9.3-5.5-9.3 10.4-9.3 16.4z"/><path id="Фигура_12_копия-14" class="st1" d="M56.1 24.4c0 5.6 3.9 7.8 8.7 5s8.7-9.6 8.7-15.1-3.9-7.8-8.7-5-8.7 9.5-8.7 15.1z"/><path id="Фигура_12_копия-15" class="st2" d="M56.7 24.2c0 5.2 3.7 7.3 8.2 4.7s8.1-9 8.1-14.2-3.7-7.3-8.2-4.7-8.1 9-8.1 14.2z"/><path id="Фигура_12_копия-16" class="st0" d="M56.7 24c0 5.1 3.5 7.2 7.9 4.6s7.9-8.8 7.9-13.9-3.5-7.2-7.9-4.6-7.9 8.8-7.9 13.9z"/><path id="валюта-4" class="st2" d="M63.6 11.8l.9-.5v1.9l.5-.3.2-.1v-1.9l.9-.5v2l.3-.1h.2l.3-.1c.3 0 .5 0 .8.1l.3.1h.2l.2.1.3.3.2.1.1.1.1.1v.1l.1.1-1 1-.2.2-.1-.3c-.6-1-1.6-1.3-2.8-.7-1.9 1-3.5 4.2-3.6 7-.1 2.8 1.4 4.3 3.3 3.2 1.2-.7 2.2-2.1 2.9-3.8l.2-.8h.2c.2 0 .3-.1.5-.1l.5-.1-.4 1.1c-.5 1.2-1.3 2.4-2.2 3.3l-.7.7v1.9l-.9.5v-1.8l-.2.1-.5.3v1.8l-.9.5v-2.1l-.5.1c-.6 0-1.1-.1-1.5-.4l-.1-.1c-.4-.3-.8-.7-1-1.3-.2-.6-.3-1.2-.3-2 0-.6.1-1.1.2-1.6.1-.6.3-1.1.5-1.6.2-.6.5-1.1.8-1.6l.1-.2c.5-.8 1-1.5 1.6-2.1l.5-.5v-2.1zm-.5 7.3l-.9 1.2c1.8-4 4.1-4.5 5.3-2.9-.3-.1-.5-.1-.8-.2v.3c.2 1.1-.4 2.3-1.3 3.1-.7.6-1.4.9-2 .5-.6-.3-.6-.8-.3-2zm1.6 1.5c.3-.3.7-.5.9-.9.7-.8.8-1.8.3-2.1-.6-.3-1.5.2-2.2 1-.7 1-.7 2 0 2.1.4 0 .7-.1 1-.1zm.4-1.5c0 .2-.2.5-.4.6-.2.1-.3 0-.3-.2s.2-.6.4-.7c.2-.1.3 0 .3.3z"/><path id="валюта_копия-3" class="st1" d="M64.4 12.2l.9-.5v1.9l.5-.3.2-.1v-1.9l.9-.5v2l.3-.1h.2l.3-.1c.3 0 .5 0 .8.1l.3.1h.2l.2.1.3.3.2.1.1.1.1.1v.1l.1.1-1 1-.2.2-.1-.3c-.6-1-1.6-1.3-2.8-.7-1.9 1-3.5 4.2-3.6 7-.1 2.8 1.4 4.3 3.3 3.2 1.2-.7 2.2-2.1 2.9-3.8l.2-.8h.2c.2 0 .3-.1.5-.1l.5-.1-.3.7c-.5 1.2-1.3 2.4-2.2 3.3l-.8.7v1.9l-.9.5v-1.8l-.2.1-.5.7v1.8l-1 .5v-2.1l-.5.1c-.6 0-1.1-.1-1.5-.4-.4-.3-.8-.7-1-1.3-.2-.6-.3-1.2-.3-2 0-.6.1-1.1.2-1.6.1-.6.3-1.1.5-1.6.2-.6.5-1.1.8-1.6l.1-.2c.5-.8 1-1.5 1.6-2.1l.5-.5v-2.2zm-.6 7.3l-.9 1.2c1.8-4 4.1-4.5 5.3-2.9l-.8-.2v.3c.2 1.1-.4 2.3-1.3 3.1-.7.6-1.4.9-2 .5-.5-.4-.6-.9-.3-2zm1.7 1.4c.3-.3.7-.5.9-.9.7-.8.8-1.8.3-2.1-.6-.3-1.5.2-2.2 1-.7 1-.7 2 0 2.1.4.1.7 0 1-.1zm.4-1.5c0 .2-.2.5-.4.6-.2.1-.3 0-.3-.2s.2-.6.4-.7c.1-.1.3.1.3.3z"/></svg>