<svg id="лого" xmlns="http://www.w3.org/2000/svg" xmlns:xlink="http://www.w3.org/1999/xlink" width="3171" height="3171" viewBox="0 0 6342 6342"><defs><linearGradient id="linear-gradient" x1="2988.391" y1="5724" x2="2988.391" y2="2443.13" gradientUnits="userSpaceOnUse"><stop offset="0" stop-color="#a1a1a1"/><stop offset="1" stop-color="#fff"/></linearGradient><linearGradient id="linear-gradient-2" x1="5682.842" y1="5320.25" x2="1365.038" y2="1566.84" gradientUnits="userSpaceOnUse"><stop offset="0" stop-color="#a1a1a1"/><stop offset="1" stop-color="#e1e1e1"/></linearGradient><linearGradient id="linear-gradient-3" x1="4956.573" y1="4819.56" x2="2910.337" y2="803.594" gradientUnits="userSpaceOnUse"><stop offset="0" stop-color="#b2110e"/><stop offset=".366" stop-color="#fc9628"/><stop offset="1" stop-color="#e13507"/></linearGradient><linearGradient id="linear-gradient-4" x1="2812.53" y1="3291.821" x2="5747.03" y2="1796.619" gradientUnits="userSpaceOnUse"><stop offset="0" stop-color="#fff"/><stop offset="1" stop-color="#c2c2c2"/></linearGradient><linearGradient id="linear-gradient-5" x1="2256.06" y1="3558.821" x2="6192.47" y2="1553.12" gradientUnits="userSpaceOnUse"><stop offset="0" stop-color="#fe6d16"/><stop offset=".142" stop-color="#fe6d16"/><stop offset=".776" stop-color="#ac020f"/><stop offset="1" stop-color="#ac020f"/></linearGradient><linearGradient id="linear-gradient-6" x1="2959.94" y1="3218.309" x2="5601.53" y2="1872.351" xlink:href="#linear-gradient-5"/><filter id="filter" x="2720.22" y="967.563" width="3086.59" height="3161.497" filterUnits="userSpaceOnUse"><feGaussianBlur result="blur" stdDeviation="15.811" in="SourceAlpha"/><feFlood result="flood" flood-color="#1e1f1e" flood-opacity=".52"/><feComposite result="composite" operator="out" in2="blur"/><feOffset result="offset" dx="-16"/><feComposite result="composite-2" operator="in" in2="SourceAlpha"/><feBlend result="blend" mode="multiply" in2="SourceGraphic"/></filter><style>.cls-14,.cls-2,.cls-7{fill-rule:evenodd}.cls-2{fill:#fff}.cls-7{fill:#353434}.cls-14{fill:#c2c2c2}</style></defs><path id="Фигура_2" data-name="Фигура 2" d="M207.4 2447.09s-48.628-12.17-83.737 6.16c-61.7 32.21-78.974 133.22-70.737 208.38 8.016 73.13 50.813 141.89 60.089 154.68C532 3393.63 2403.53 5406.18 2557.35 5610.67c9.72 12.92 51.19 63.83 105.78 89.77 44.6 21.2 135.14 36.05 252.15 8.61 32.68-7.66 74.92-21.96 87.33-27.05 186.06-76.41 2182.76-809 2450.12-900.18 82.18-28.03 281.84-144.64 343.84-184.76a279.437 279.437 0 0059.3-51.11 273.423 273.423 0 0020.26-26.63c33.19-49.68 47.39-118.77 49.62-185.01Q3066.57 3390.7 207.4 2447.09z" fill="url(#linear-gradient)" fill-rule="evenodd"/><path id="Фигура_1" data-name="Фигура 1" class="cls-2" d="M85.094 2624.84c-7.877-14.42-23.759-50.12-18.45-86.08 4.3-29.16 20.508-57.7 44.279-76.24 29.433-22.96 68.778-25.47 76.259-25.83 135.784-6.57 1252.008-311.93 1637.108-416.88l2944.57 2865.31c-584.57 231.26-1382.99 540.8-1740.42 667.75-74.06 26.31-254.55 91.23-380.07 9.84-23.29-15.1-50.94-40.03-78.72-67.64-23.5-23.36-53.14-58.26-61.49-68.86-92.23-117.03-2303.393-2582.27-2423.066-2801.37z"/><path id="Фигура_1-2" data-name="Фигура 1" d="M612.755 2343.23q605.768-174.015 1211.535-348.02l3004.84 2888.68c-427.2 154.88-1051.12 375.99-1298.86 480.83-40.35 17.08-182.96 54.01-297.66 75.02-68.33 12.51-175.78 28.21-285.35-24.6-69.29-33.39-124.74-87.44-167.28-154.95Q1696.365 3801.71 612.755 2343.23z" fill="#d6d6d6" fill-rule="evenodd"/><path id="Фигура_2-2" data-name="Фигура 2" d="M947.31 1578.33s-46.039-19.83-83.639-7.38c-66.078 21.87-99.365 118.8-103.318 194.3-3.847 73.48 25.685 144.95 34.439 162.32C983.49 2302.14 2665.36 4927.41 2768.91 5138.45c4.18 8.52 28.61 51.28 56.58 78.7 56.6 55.5 127.06 77.85 196.8 88.54 158.11 24.25 325.6 13.86 388.67 0 358.61-78.81 1015.49-240.33 1537.48-376.3 289.18-77.62 1078.23-290.85 1169.71-330.8 7.26-3.17 43.09-21.17 66.74-40.92a273.551 273.551 0 0024.28-23.03c40.75-43.7 65.87-109.6 78.72-174.62Q3617.59 2969.175 947.31 1578.33z" fill="url(#linear-gradient-2)" fill-rule="evenodd"/><path id="Фигура_1-3" data-name="Фигура 1" class="cls-2" d="M812.012 1767.71c-8.371-11.2-40.66-52.72-33.209-100.84 3.329-21.5 14.869-43.56 35.669-63.95 33.661-33 76.518-41.28 142.678-46.73 19.409-1.6 46.14-3.7 55.35-3.69 106.07.15 908.59-96.48 1451.38-212.74 510.54-109.37 1186.64-253.87 1313.62-317.28 6.15-3.07 90.55-36.945 162.35-36.893 35.46.026 67.92 6.2 98.4 22.133 36.72 19.19 59.73 47.76 71.34 63.95 45.48 63.42 156.51 219.51 180.81 277.92 172.02 413.62 1457.77 2217.01 1719.51 2519.76 51.27 59.3 210.73 302.6 246 356.62a237.186 237.186 0 0119.68 38.13c18.22 45.33 17.3 84.52 12.3 103.3-5.22 19.58-21.4 50.22-56.58 78.7-36.6 29.62-90.13 46.07-98.4 47.96-142.4 32.5-1107.17 302.81-1691.22 447.63-152.9 37.91-450.46 112.88-624.83 159.87-97.28 26.21-182.86 36.42-280.44 61.48-81.17 20.85-259.11 46.05-429.26 39.35-68.27-2.68-140.39-14.16-202.95-63.94-25.26-20.1-58.75-59.73-88.56-108.22-10.43-16.96-22.45-39.67-27.06-49.19-95.51-197.48-1822.737-3007.47-1976.578-3213.33z"/><path id="Фигура_5" data-name="Фигура 5" d="M2053.06 1418.46c-21.57 78.06-39.96 155.6-55.79 235.19-13.35 67.17-25.28 136.6-32.77 195.22-77.36 606.2 64.81 1362.03 742.91 2331.6 171.88 245.76 350.93 444.74 585.47 619.8 193.75 144.61 531.36 298.83 531.36 298.83q998.73-260.715 1997.48-521.42 65.8-471.6 131.61-943.21-1747.8-1146.135-3495.6-2292.26-202.33 38.13-404.67 76.25z" fill="#e1e1e1" fill-rule="evenodd"/><path id="Фигура_5_копия" data-name="Фигура 5 копия" d="M2924.47 2379.61c-299.83 369.36-462.94 841.15-348.67 1290.52 40.41 158.86 303.4 575.85 772.43 910.01 255.32 181.9 537.27 325.21 841.31 427.95q632.205-166.62 1264.42-333.26a2208.218 2208.218 0 00274.29-713.25q-1256.025-820.86-2512.03-1641.72z" fill="#a1a1a1" fill-rule="evenodd"/><g id="А_пики" data-name="А пики"><path id="пики" class="cls-7" d="M1928.72 2478.69c-39.47 6.39-83.9-3.26-120.92-23.51q12.135 14.19 25.2 28.04a852.864 852.864 0 00104.28 93.33l-129.43 22.65a599.022 599.022 0 00-17.16-107.81c-2.61-10.37-5.53-20.74-8.69-31.1-9.72 27.28-36.9 48.12-77.54 54.7-72.64 11.76-160.56-26.34-195.24-85.37-18.85-32.09-17.81-63.31-1.1-86.72 4.47-8.22 34.28-62.94 50.35-90.57 23.4-40.23 35.58-85.84 37.81-136.65q83.79 56.415 172.92 104.53c46.13 24.91 138.25 68.15 138.25 68.15l4.34 2.4c33.89 15.26 63.22 39.09 79.78 67.62 32.29 55.63 4.6 109.39-62.85 120.31z"/><path id="а" class="cls-7" d="M1691.39 2033.09l127.38-12.98-450-402.47-119.36 5.8 26.41 452.01 140.7-14.34-12.46-93.74 199-18.03zm-317.43-301.76l159.31 151.45-138.3 11.31z"/></g><path id="_10" data-name="10" d="M1295.1 3082.97c-.53 2.77-13.33 69.49-20.62 103.1-10.18 46.94-10.28 98.41-1.12 154.22a1665.715 1665.715 0 00-169.33-79.65c-46.61-18.83-141.221-50.07-141.221-50.07s-1.57-.65-4.056-1.69c-35.853-10.97-69.521-33.16-91.708-63.74-42.976-59.24-25.233-125.44 38.512-147.17 43.435-14.81 96.763-4.93 138.923 21.71-5.29-39.24 14.91-74.17 56.22-88.25 58.2-19.85 136.27 9.41 175.32 64.75 20.73 29.38 26.61 60.67 19.08 86.79zm-126.68-262.32q-18 18.645-50 29.14a175.846 175.846 0 01-65.76 8.47q-33.96-2.025-67.62-16.95-33.823-15.015-66.586-43.1-32.881-28.185-62.451-69.57l-73.3-102.6q-29.847-41.775-41.973-76.49-12.094-34.665-7.516-61.11a73.288 73.288 0 0124.888-44q20.184-17.535 54.567-25.64a194.3 194.3 0 0169.038-3.8 211.83 211.83 0 0167.58 20.58q32.993 16.215 64.2 44.33 31.11 28.005 59.02 67.82l68.62 97.82q27.66 39.45 39.48 72.24 11.835 32.835 8.76 58.54a74.969 74.969 0 01-20.947 44.32zm-250.426-326.74q-29.154-16.815-58.851-9.45-30.234 7.545-29.788 33.3.5 25.815 32.918 71.47l56.264 79.2 59.1-115.85q-30.63-41.925-59.643-58.67zm182.946 257.45q-1.305-25.755-32.65-70.21l-52.56-74.54-58.5 116.28q31.064 41.13 59.752 56.64 28.545 15.45 56.44 6.68 28.878-9.045 27.518-34.85zm-348.885 210.52l-246.464-340.06-101.637 75.42-55.623-76.12 174.647-126.43 5.186-1.23 315.865 438.44z" fill="#e24814" fill-rule="evenodd"/><g id="ФИШКА"><path id="Фигура_3" data-name="Фигура 3" d="M5811.88 4150.96q-68.88 81.165-137.75 162.33a2045.197 2045.197 0 01-105.51 109.88c-68.11 65.89-136.78 125.37-195.84 165.58-118.91 80.95-254.69 133.25-394.82 166.02-193.24 45.18-391.32 72.84-594.08 62.71-420.22-20.97-827.59-179.71-1180.79-431.64-229.28-163.54-471.09-393.9-704.71-749.25q-110.835-168.6-191.94-339.08c-141.63-297.5-209.89-553.86-236.16-782.12-48.6-422.4 27.46-767.42 107.01-948.13 57.56-130.77 152.37-281.36 287.82-439.02a2072.327 2072.327 0 01351.77-324.655q1497.51 1673.693 2995 3347.375z" fill="url(#linear-gradient-3)" fill-rule="evenodd"/><path id="Эллипс_1_копия" data-name="Эллипс 1 копия" d="M3705.47 973.944c773.54-75.525 1637.49 529.686 1968.97 1360.426 333.35 835.44 17.62 1618.69-726.61 1769.43-785.7 159.14-1743.18-450.51-2097.7-1348.78-352.84-894.03 39.62-1701.43 855.34-1781.076z" fill="#812d1a" filter="url(#filter)" fill-rule="evenodd"/><g id="МЕТКИ_ВНУТРЕННИЕ" data-name="МЕТКИ ВНУТРЕННИЕ"><path id="Прямоугольник_2" data-name="Прямоугольник 2" d="M3501.17 1054.12l451.15-44.89 105.44 265.41-449.84 48.64zM4593.31 3807.9l437.68-83.51 106.28 267.5-436.36 87.34zm725.42-1672.41l224.28-31.56 188.37 472.14-223.04 35.07zm-2490.46 350.44l262.09-36.88 201.75 510.53-260.67 40.98zm1787.72-1275.48l433.6 303.16-88.73 203.18-436.84-302.97zm-988.03 2184.83l468.79 300.07-99.59 228.01-472.52-299.61zm1886.85-308.18l232.22 156.17-156.96 393.28-235.39-155.78zM3008.39 1401.55l257.68 173.29-192.05 396.55-261.49-173.06z" fill="url(#linear-gradient-4)" fill-rule="evenodd"/></g><path id="Эллипс_1" data-name="Эллипс 1" d="M5118.08 4534.08c-1005.84 218.9-2242.27-561.62-2697.03-1715.8-452.47-1148.37 60.48-2182.712 1114.43-2271.192 982.73-82.5 2069.03 686.432 2487.88 1734.732 422.12 1056.49 29.66 2048.8-905.28 2252.26zm488.21-2190.15C5291.82 1555.62 4471.11 981.014 3736.94 1054.6c-770.95 77.28-1141.5 841.57-807.36 1687.95 335.65 850.18 1240.98 1427.43 1985 1278.87 707.45-141.26 1008.01-884.58 691.71-1677.49z" fill="url(#linear-gradient-5)" fill-rule="evenodd"/><path id="Эллипс_1_копия_2" data-name="Эллипс 1 копия 2" d="M3795.15 1198.48c664.06-69.65 1408.48 450.2 1693.17 1164.2 286.33 718.12 12.47 1390.7-629.42 1515.69-670.73 130.59-1484.91-389.66-1787.5-1155.67-301.21-762.54 30.79-1451.53 723.75-1524.22z" fill="url(#linear-gradient-6)" fill-rule="evenodd"/><path id="Фигура_4" data-name="Фигура 4" class="cls-14" d="M3536.42 4169.41q-188.8-197.385-377.6-394.75-212.79-191.235-425.58-382.46-98.4 149.415-196.79 298.83a2497.874 2497.874 0 00693.7 715.72q153.135-118.68 306.27-237.34z"/><path id="Фигура_4-2" data-name="Фигура 4" class="cls-14" d="M5506.85 4389.53l-518.58 136.96-314.12 38.89q-143.91 126.06-287.81 252.1c140.36 3.86 279.07-4.55 414.5-25.82 139.81-21.96 260.22-53.88 360.38-93.46 32.71-12.93 64.31-26.7 95.94-41.81q124.845-133.44 249.69-266.86z"/><path id="Фигура_4-3" data-name="Фигура 4" class="cls-14" d="M2275.69 2212.88c62.11-69.88 111.49-148.22 146.37-233.66 88.35-216.41 75.24-457.63-13.53-677.59q-67.035 42.435-134.07 84.86a1270.287 1270.287 0 00-107.01 201.67c-43.27 102.94-86.34 276.35-103.32 466.08a2306.545 2306.545 0 00-7.38 293.91z"/><g id="МЕТКИ_ВНЕШНИЕ" data-name="МЕТКИ ВНЕШНИЕ"><path id="Прямоугольник_3" data-name="Прямоугольник 3" class="cls-2" d="M4564.94 4228.4c117.25-64.92 244.34-110.99 378.84-137.59 131.02-25.91 267.29-33 406.48-21.41q77.775 159.03 155.51 317.97c-120 74.22-254.57 127.14-400.71 157.14-136.82 28.08-281.77 35.66-432.09 22.39q-54.06-169.395-108.03-338.5z"/><path id="Прямоугольник_3-2" data-name="Прямоугольник 3" class="cls-2" d="M3273.63 970.092c151.99 24.379 298.68 29.42 437.47 15.262 135.19-13.789 261.02-45.6 375.48-94.67q-49.725-161.541-99.37-322.791c-161.27-31.692-319.52-40.626-470.93-26.214-141.75 13.49-275.47 47.236-398.47 100.8z"/><path id="Прямоугольник_3-3" data-name="Прямоугольник 3" class="cls-2" d="M2966.87 3196.3a2655.108 2655.108 0 01413.88 331.76 2631.185 2631.185 0 01331.78 395.79q-88.185 123.09-177.33 247.54c-162.96-99.5-316.57-219.48-456.77-357.06a2616.956 2616.956 0 01-347.86-420.96q118.875-99.135 236.3-197.07z"/><path id="Прямоугольник_3-4" data-name="Прямоугольник 3" class="cls-2" d="M4881.25 1229.12a2687.459 2687.459 0 00308.56 382.53c111.88 115.3 232.33 218.74 359.08 308.5q97.095-81.3 193.12-161.71a2617.231 2617.231 0 00-328.49-414.47 2581.572 2581.572 0 00-374.32-318.59q-78.57 101.355-157.95 203.74z"/><path id="Прямоугольник_3-5" data-name="Прямоугольник 3" class="cls-2" d="M2745.26 1468.13c19.5 154.64 18.77 305.4-2.31 449.78-20.82 142.53-61.21 277.12-120.7 401.58l-355.71-103.4c-25.11-174.98-24.6-344.64 1.4-504.62 24-147.63 69.31-284.59 134.76-408.17q172.155 82.83 342.56 164.83z"/><path id="Прямоугольник_3-6" data-name="Прямоугольник 3" class="cls-2" d="M5872.37 2727.89c-45.4 117.9-74.31 246.61-86.02 383.74-11.55 135.33-6.19 276.75 16.08 421.69q147.435 71.085 293.48 141.49c52.24-130.46 84.04-272.5 94.84-422.85 9.97-138.82 1.91-282.99-23.9-429.91q-146.475-46.83-294.48-94.16z"/></g><path id="_21" data-name="21" d="M4532.32 2924.13l-502.05 81.48 116.89-288.25q30.78-72.2 53.43-136.87 22.62-64.53 33.1-124.78a468.2 468.2 0 005.55-119.32q-4.9-59.115-29.6-121.34-32.6-82.08-83-146.76-50.475-64.74-114.97-107.32-64.635-42.66-143.1-60.95-78.72-18.33-167.62-7.14-93.285 11.76-157.6 54.43-64.5 42.84-96.92 107.24-32.46 64.56-32.54 145.08-.06 80.64 33.93 166.55l227.15-31.74q-40.05-101.1-16.64-163.51 23.34-62.235 115.73-74.49a177.5 177.5 0 0167.61 3.88 193.371 193.371 0 0162.58 28.8q29.415 20.355 53.64 51.9 24.21 31.56 41.12 74.17a240.044 240.044 0 0115.15 60.34q3.78 31.65-.86 69.57-4.635 37.965-17.85 85.08-13.245 47.19-36.24 106.14l-202.46 504.83 66.7 168.52 785.46-132.63zm202.25-1143.87l-11.29 1.43-406.45 258.08 82.61 207.97 237.11-151.94 378.8 952.61 209.81-35.43z" stroke="#ae040f" stroke-width="1" fill="#fff" fill-rule="evenodd"/></g></svg>