<?xml version="1.0" encoding="utf-8"?>
<!-- Generator: Adobe Illustrator 25.0.1, SVG Export Plug-In . SVG Version: 6.00 Build 0)  -->
<svg version="1.1" id="Layer_1" xmlns="http://www.w3.org/2000/svg" xmlns:xlink="http://www.w3.org/1999/xlink" x="0px" y="0px"
	 viewBox="0 0 101.2 88.8" style="enable-background:new 0 0 101.2 88.8;" xml:space="preserve">
<style type="text/css">
	.st0{fill:#DB8928;}
	.st1{fill:#FFC32E;}
	.st2{fill:#F7DB81;}
	.st3{fill:none;stroke:#000000;stroke-miterlimit:10;}
	.st4{opacity:0.3;fill:#202020;}
	.st5{fill:url(#SVGID_1_);}
	.st6{fill:url(#SVGID_2_);}
	.st7{fill:#727272;}
	.st8{fill:url(#SVGID_3_);}
	.st9{fill:url(#SVGID_4_);}
	.st10{fill:#BA7B31;}
	.st11{fill:#FFFFFF;}
	.st12{fill:#8E5721;}
	.st13{fill:#F7F7FC;}
</style>
<g>
	<g>
		<path class="st0" d="M7,75.2v5.9h0.1c0.9,1.6,9.4,2.8,19.8,2.8c10.3,0,18.8-1.2,19.8-2.8h0.1v-5.9H7z"/>
		<path class="st1" d="M14.2,75.4v7.9c2,0.3,4.3,0.5,6.9,0.6v-8.4H14.2z"/>
		<path class="st1" d="M22.4,76.8v7.1c0.6,0,1.1,0,1.7,0v-7.1H22.4z"/>
		<path class="st2" d="M46.7,75.2c0,1.5-8.9,2.7-19.8,2.7c-11,0-19.8-1.2-19.8-2.7c0-1.5,8.9-2.7,19.8-2.7
			C37.8,72.5,46.7,73.7,46.7,75.2z"/>
		<path class="st0" d="M41.9,75.3c0,1.1-6.7,2-15,2c-8.3,0-15-0.9-15-2c0-1.1,6.7-2,15-2C35.1,73.3,41.9,74.2,41.9,75.3z"/>
		<path class="st1" d="M40.4,75.5c0,1-6.1,1.8-13.5,1.8c-7.5,0-13.5-0.8-13.5-1.8s6.1-1.8,13.5-1.8C34.3,73.7,40.4,74.5,40.4,75.5z"
			/>
	</g>
	<g>
		<path class="st0" d="M5,67.9v5.9h0.1c0.9,1.6,9.4,2.8,19.8,2.8c10.3,0,18.8-1.2,19.8-2.8h0.1v-5.9H5z"/>
		<path class="st1" d="M12.3,68.1v7.9c2,0.3,4.3,0.5,6.9,0.6v-8.4H12.3z"/>
		<path class="st1" d="M20.5,69.5v7.1c0.6,0,1.1,0,1.7,0v-7.1H20.5z"/>
		<path class="st2" d="M44.7,67.9c0,1.5-8.9,2.7-19.8,2.7c-11,0-19.8-1.2-19.8-2.7c0-1.5,8.9-2.7,19.8-2.7
			C35.8,65.2,44.7,66.4,44.7,67.9z"/>
		<path class="st0" d="M39.9,68c0,1.1-6.7,2-15,2c-8.3,0-15-0.9-15-2c0-1.1,6.7-2,15-2C33.2,66,39.9,66.9,39.9,68z"/>
		<path class="st1" d="M38.4,68.2c0,1-6.1,1.8-13.5,1.8c-7.5,0-13.5-0.8-13.5-1.8c0-1,6.1-1.8,13.5-1.8
			C32.4,66.4,38.4,67.2,38.4,68.2z"/>
	</g>
	<g>
		<path class="st0" d="M2.6,60.6v5.9h0.1c0.9,1.6,9.4,2.8,19.8,2.8c10.3,0,18.8-1.2,19.8-2.8h0.1v-5.9H2.6z"/>
		<path class="st1" d="M9.8,60.8v7.9c2,0.3,4.3,0.5,6.9,0.6v-8.4H9.8z"/>
		<path class="st1" d="M18,62.2v7.1c0.6,0,1.1,0,1.7,0v-7.1H18z"/>
		<path class="st2" d="M42.3,60.6c0,1.5-8.9,2.7-19.8,2.7c-11,0-19.8-1.2-19.8-2.7c0-1.5,8.9-2.7,19.8-2.7
			C33.4,57.9,42.3,59.1,42.3,60.6z"/>
		<path class="st0" d="M37.5,60.7c0,1.1-6.7,2-15,2c-8.3,0-15-0.9-15-2c0-1.1,6.7-2,15-2C30.8,58.7,37.5,59.6,37.5,60.7z"/>
		<path class="st1" d="M36,60.9c0,1-6.1,1.8-13.5,1.8c-7.5,0-13.5-0.8-13.5-1.8c0-1,6.1-1.8,13.5-1.8C29.9,59.1,36,59.9,36,60.9z"/>
	</g>
	<g>
		<path class="st0" d="M8.2,53.4v5.9h0.1c0.9,1.6,9.4,2.8,19.8,2.8c10.3,0,18.8-1.2,19.8-2.8h0.1v-5.9H8.2z"/>
		<path class="st1" d="M15.4,53.6v7.9c2,0.3,4.3,0.5,6.9,0.6v-8.4H15.4z"/>
		<path class="st1" d="M23.6,55v7.1c0.6,0,1.1,0,1.7,0V55H23.6z"/>
		<path class="st2" d="M47.9,53.4c0,1.5-8.9,2.7-19.8,2.7c-11,0-19.8-1.2-19.8-2.7c0-1.5,8.9-2.7,19.8-2.7
			C39,50.7,47.9,51.9,47.9,53.4z"/>
		<path class="st0" d="M43.1,53.6c0,1.1-6.7,2-15,2c-8.3,0-15-0.9-15-2c0-1.1,6.7-2,15-2C36.3,51.5,43.1,52.5,43.1,53.6z"/>
		<path class="st1" d="M41.6,53.8c0,1-6.1,1.8-13.5,1.8c-7.5,0-13.5-0.8-13.5-1.8c0-1,6.1-1.8,13.5-1.8C35.5,52,41.6,52.8,41.6,53.8
			z"/>
	</g>
	<g>
		<path class="st0" d="M4.3,46.4v5.9h0.1c0.9,1.6,9.4,2.8,19.8,2.8c10.3,0,18.8-1.2,19.8-2.8H44v-5.9H4.3z"/>
		<path class="st1" d="M11.5,46.6v7.9c2,0.3,4.3,0.5,6.9,0.6v-8.4H11.5z"/>
		<path class="st1" d="M19.7,48v7.1c0.6,0,1.1,0,1.7,0V48H19.7z"/>
		<path class="st2" d="M44,46.4c0,1.5-8.9,2.7-19.8,2.7c-11,0-19.8-1.2-19.8-2.7c0-1.5,8.9-2.7,19.8-2.7C35.1,43.7,44,44.9,44,46.4z
			"/>
		<path class="st0" d="M39.1,46.6c0,1.1-6.7,2-15,2s-15-0.9-15-2c0-1.1,6.7-2,15-2S39.1,45.4,39.1,46.6z"/>
		<path class="st1" d="M37.6,46.8c0,1-6.1,1.8-13.5,1.8c-7.5,0-13.5-0.8-13.5-1.8c0-1,6.1-1.8,13.5-1.8
			C31.6,44.9,37.6,45.8,37.6,46.8z"/>
	</g>
	<g>
		<path class="st0" d="M8.2,39.3v5.9h0.1c0.9,1.6,9.4,2.8,19.8,2.8c10.3,0,18.8-1.2,19.8-2.8h0.1v-5.9H8.2z"/>
		<path class="st1" d="M15.4,39.5v7.9c2,0.3,4.3,0.5,6.9,0.6v-8.4H15.4z"/>
		<path class="st1" d="M23.6,40.9V48c0.6,0,1.1,0,1.7,0v-7.1H23.6z"/>
		<path class="st2" d="M47.9,39.3c0,1.5-8.9,2.7-19.8,2.7S8.2,40.8,8.2,39.3c0-1.5,8.9-2.7,19.8-2.7S47.9,37.8,47.9,39.3z"/>
		<path class="st0" d="M43.1,39.4c0,1.1-6.7,2-15,2c-8.3,0-15-0.9-15-2c0-1.1,6.7-2,15-2C36.3,37.4,43.1,38.3,43.1,39.4z"/>
		<path class="st1" d="M41.6,39.6c0,1-6.1,1.8-13.5,1.8c-7.5,0-13.5-0.8-13.5-1.8c0-1,6.1-1.8,13.5-1.8
			C35.5,37.8,41.6,38.6,41.6,39.6z"/>
	</g>
	<g>
		<g>
			<path class="st0" d="M37.5,80.1V86h0.1c0.9,1.6,9.4,2.8,19.8,2.8c10.3,0,18.8-1.2,19.8-2.8h0.1v-5.9H37.5z"/>
			<path class="st1" d="M44.7,80.3v7.9c2,0.3,4.3,0.5,6.9,0.6v-8.4H44.7z"/>
			<path class="st1" d="M52.9,81.7v7.1c0.6,0,1.1,0,1.7,0v-7.1H52.9z"/>
			<path class="st2" d="M77.1,80.1c0,1.5-8.9,2.7-19.8,2.7c-11,0-19.8-1.2-19.8-2.7c0-1.5,8.9-2.7,19.8-2.7
				C68.3,77.4,77.1,78.6,77.1,80.1z"/>
			<path class="st0" d="M72.3,80.2c0,1.1-6.7,2-15,2c-8.3,0-15-0.9-15-2c0-1.1,6.7-2,15-2C65.6,78.2,72.3,79.1,72.3,80.2z"/>
			<path class="st1" d="M70.8,80.4c0,1-6.1,1.8-13.5,1.8c-7.5,0-13.5-0.8-13.5-1.8s6.1-1.8,13.5-1.8C64.8,78.6,70.8,79.4,70.8,80.4z
				"/>
		</g>
		<g>
			<path class="st0" d="M43.1,72.9v5.9h0.1c0.9,1.6,9.4,2.8,19.8,2.8c10.3,0,18.8-1.2,19.8-2.8h0.1v-5.9H43.1z"/>
			<path class="st1" d="M58.5,74.5v7.1c0.6,0,1.1,0,1.7,0v-7.1H58.5z"/>
			<path class="st2" d="M82.7,72.9c0,1.5-8.9,2.7-19.8,2.7c-11,0-19.8-1.2-19.8-2.7c0-1.5,8.9-2.7,19.8-2.7
				C73.9,70.2,82.7,71.4,82.7,72.9z"/>
			<path class="st0" d="M77.9,73.1c0,1.1-6.7,2-15,2c-8.3,0-15-0.9-15-2c0-1.1,6.7-2,15-2C71.2,71.1,77.9,72,77.9,73.1z"/>
			<path class="st1" d="M76.4,73.3c0,1-6.1,1.8-13.5,1.8c-7.5,0-13.5-0.8-13.5-1.8c0-1,6.1-1.8,13.5-1.8
				C70.4,71.5,76.4,72.3,76.4,73.3z"/>
			<path class="st1" d="M55.4,73.1v8.3c0.6,0,1.2,0.1,1.8,0.1v-8.4H55.4z"/>
		</g>
	</g>
</g>
<path class="st3" d="M35.2,20.2"/>
<path class="st4" d="M62.9,70.2c-9.7,0-17.8,0.9-19.5,2.2c4.8,0.5,11.5,0.8,18.8,0.8c8,0,15.1-0.3,20-0.9
	C80.1,71.1,72.3,70.2,62.9,70.2z"/>
<path class="st4" d="M37.6,79.9c2.7,0.6,8.3,1.2,15.5,1.4c0,0,0,0,0,0c0,0,0,0,0,0v-6c-6-0.5-10-1.3-10-2.3V76l-1.7,0.2l-3.6-0.7
	l4.1-6.3c-1,0.2-2.5,0.5-4.3,0.7l0,8.3c0,0,0,0,0,0v0.8l0,1C37.5,80,37.5,79.9,37.6,79.9z"/>
<g>
	<g>
		<linearGradient id="SVGID_1_" gradientUnits="userSpaceOnUse" x1="60.7502" y1="39.9269" x2="81.8989" y2="70.3319">
			<stop  offset="7.662378e-02" style="stop-color:#FFFFFF"/>
			<stop  offset="1" style="stop-color:#DCDCDC"/>
		</linearGradient>
		<polygon class="st5" points="89.4,69.9 53.7,20.8 39.2,20.2 75.5,72.3 		"/>
		<linearGradient id="SVGID_2_" gradientUnits="userSpaceOnUse" x1="39.6542" y1="22.9784" x2="73.2379" y2="70.7464">
			<stop  offset="0" style="stop-color:#F0F0F0"/>
			<stop  offset="0.2527" style="stop-color:#DCDCDC"/>
			<stop  offset="0.7088" style="stop-color:#AAAAAA"/>
			<stop  offset="1" style="stop-color:#8C8C8C"/>
		</linearGradient>
		<polygon class="st6" points="39.2,20.2 36.8,20.8 72.4,71.7 75.5,72.3 		"/>
		<path class="st7" d="M65.8,58.4c2,2.6,9.9,13.3,9.9,13.3l13.6-1.9l-13.9,2.4L65.8,58.4z"/>
		<polygon class="st7" points="72.4,71.7 75.3,71.7 75.5,72.3 		"/>
	</g>
	<g>
		<g>
			<linearGradient id="SVGID_3_" gradientUnits="userSpaceOnUse" x1="53.7379" y1="72.4289" x2="100.4375" y2="0.2632">
				<stop  offset="1.702254e-02" style="stop-color:#D89653"/>
				<stop  offset="0.1279" style="stop-color:#D99C59"/>
				<stop  offset="0.2717" style="stop-color:#DAAB69"/>
				<stop  offset="0.4087" style="stop-color:#DDC17F"/>
				<stop  offset="0.7272" style="stop-color:#DDC17F"/>
				<stop  offset="1" style="stop-color:#FFE9C4"/>
			</linearGradient>
			<polygon class="st8" points="90.4,11.1 97.1,20.7 101.2,0 88.1,8.1 89.3,9.8 72.3,38.1 69.1,33.7 41.3,76.3 53.9,74.5 66,55.7 
				64.5,46 70.9,56.3 93,20.6 			"/>
		</g>
		<linearGradient id="SVGID_4_" gradientUnits="userSpaceOnUse" x1="44.6513" y1="74.5498" x2="93.9794" y2="0.3092">
			<stop  offset="0" style="stop-color:#E7AB72"/>
			<stop  offset="0.2795" style="stop-color:#FFD784"/>
			<stop  offset="0.6091" style="stop-color:#FFD784"/>
			<stop  offset="1" style="stop-color:#FFF0DC"/>
		</linearGradient>
		<path class="st9" d="M41.3,76.3l-3.6-0.7l27.1-41.9h4.3L41.3,76.3z M89.3,9.8h-3L70.5,35.6l1.8,2.5L89.3,9.8z M101.2,0h-3.7
			L84.5,8.1h3.6L101.2,0z"/>
		<polygon class="st10" points="84.5,8.1 86.3,9.8 89.3,9.8 88.1,8.1 		"/>
		<polygon class="st10" points="64.5,46 66,55.7 70.9,56.3 		"/>
		<polygon class="st10" points="90.4,11.1 93,20.6 97.1,20.7 		"/>
		<path class="st11" d="M101.2,0l-13,8h-3.5C85.8,8,88,7.6,88,7.6c1.8-1.1,4.5-2.5,6.7-3.8L101.2,0L101.2,0z"/>
		<polygon class="st11" points="90.4,11.1 97.3,20 97.1,20.7 		"/>
		<path class="st11" d="M61.2,45.8l7.9-11.7l3.2,4.1l-3.2-4.4c0,0-0.6,0.3-0.6,0.3s-2,3.2-3.3,5.2L61.2,45.8z"/>
		<polygon class="st11" points="64.8,33.7 69.1,33.7 68.9,34.1 		"/>
		<path class="st12" d="M47.6,75.1l6.1-1c1.1-1.5,2.3-3.2,3.5-4.8l-3.3,5.2l-11.7,1.7L47.6,75.1z"/>
		<path class="st12" d="M59.7,65.3c1.4-2.6,5.7-9.3,5.9-9.8c-0.2-2.2-1-9.3-1-9.3l1.4,9.4L59.7,65.3z"/>
	</g>
</g>
<path class="st13" d="M14.5,40.6c0.3-0.3,0.9-1.7,0.9-1.7s0.6,1.3,1,1.7c0.3,0.3,1.7,0.9,1.7,0.9s-1.3,0.6-1.7,1
	c-0.3,0.3-0.9,1.7-0.9,1.7s-0.6-1.3-1-1.7c-0.3-0.3-1.7-0.9-1.7-0.9S14.2,41,14.5,40.6z"/>
<path class="st13" d="M1.7,59.8c0.3-0.3,0.9-1.7,0.9-1.7s0.6,1.3,1,1.7c0.3,0.3,1.7,0.9,1.7,0.9s-1.3,0.6-1.7,1
	c-0.3,0.3-0.9,1.7-0.9,1.7s-0.6-1.3-1-1.7C1.4,61.4,0,60.8,0,60.8S1.3,60.2,1.7,59.8z"/>
<path class="st13" d="M73.9,12.8c0.3-0.3,0.9-1.7,0.9-1.7s0.6,1.3,1,1.7c0.3,0.3,1.7,0.9,1.7,0.9s-1.3,0.6-1.7,1
	c-0.3,0.3-0.9,1.7-0.9,1.7s-0.6-1.3-1-1.7c-0.3-0.3-1.7-0.9-1.7-0.9S73.6,13.1,73.9,12.8z"/>
<path class="st13" d="M83.6,52.5c0.3-0.3,0.9-1.7,0.9-1.7s0.6,1.3,1,1.7c0.3,0.3,1.7,0.9,1.7,0.9s-1.3,0.6-1.7,1
	c-0.3,0.3-0.9,1.7-0.9,1.7s-0.6-1.3-1-1.7c-0.3-0.3-1.7-0.9-1.7-0.9S83.2,52.9,83.6,52.5z"/>
<path class="st13" d="M32.2,24.8c0.2-0.2,0.4-0.9,0.4-0.9s0.3,0.7,0.5,0.8c0.2,0.2,0.9,0.4,0.9,0.4s-0.7,0.3-0.8,0.5
	c-0.2,0.2-0.4,0.9-0.4,0.9s-0.3-0.7-0.5-0.8c-0.2-0.2-0.9-0.4-0.9-0.4S32,25,32.2,24.8z"/>
<path class="st13" d="M0.8,37.7c0.2-0.2,0.4-0.9,0.4-0.9s0.3,0.7,0.5,0.8c0.2,0.2,0.9,0.4,0.9,0.4s-0.7,0.3-0.8,0.5
	c-0.2,0.2-0.4,0.9-0.4,0.9S1,38.8,0.9,38.6C0.7,38.4,0,38.2,0,38.2S0.7,37.9,0.8,37.7z"/>
<path class="st13" d="M93.4,40.4c0.2-0.2,0.4-0.9,0.4-0.9s0.3,0.7,0.5,0.8c0.2,0.2,0.9,0.4,0.9,0.4s-0.7,0.3-0.8,0.5
	c-0.2,0.2-0.4,0.9-0.4,0.9s-0.3-0.7-0.5-0.8c-0.2-0.2-0.9-0.4-0.9-0.4S93.2,40.6,93.4,40.4z"/>
<path class="st13" d="M67.2,7.2c0.2-0.2,0.4-0.9,0.4-0.9S68,7,68.2,7.1C68.3,7.3,69,7.6,69,7.6s-0.7,0.3-0.8,0.5
	c-0.2,0.2-0.4,0.9-0.4,0.9s-0.3-0.7-0.5-0.8c-0.2-0.2-0.9-0.4-0.9-0.4S67.1,7.3,67.2,7.2z"/>
</svg>
