<svg width="151" height="125" viewBox="0 0 151 125" fill="none" xmlns="http://www.w3.org/2000/svg">
<path d="M16.332 103.359V113C16.332 116.664 28.082 119.633 42.582 119.633C57.082 119.633 68.8359 116.664 68.8359 113V103.359H16.332Z" fill="#DB7C27"/>
<path d="M68.8359 103.359C68.8359 107.02 57.082 109.988 42.582 109.988C28.082 109.988 16.332 107.02 16.332 103.359C16.332 99.6953 28.082 96.7266 42.582 96.7266C57.082 96.7266 68.8359 99.6953 68.8359 103.359Z" fill="#F9A72B"/>
<path d="M39.6328 93.5938V102.996C39.6328 102.996 39.8359 103.859 41.8203 103.859C43.8047 103.859 44.0039 102.996 44.0039 102.996V93.5938H39.6328Z" fill="#F6882D"/>
<path d="M85.1602 52.0391C85.1602 75.3945 66.0977 94.332 42.5781 94.332C19.0625 94.332 0 75.3945 0 52.0391C0 28.6836 19.0625 9.74609 42.5781 9.74609C66.0977 9.74609 85.1602 28.6836 85.1602 52.0391Z" fill="#42C1D0"/>
<path d="M45.2031 37.9727C43.8984 38.6797 43.4961 41.3125 42.2187 41.4297C41.957 39.8398 42.5156 38.6641 43.0937 37.4023C43.4101 36.7227 44.2812 37.0859 43.7734 35.7422C43.4336 34.8437 42.6523 35.1523 42.3242 34.6562C41.289 33.0781 41.7031 32.5 39.6445 31.5977C38.125 30.9375 37.4961 30.8281 36.2031 31.1328C34.5312 31.5273 34.1484 32.3633 32.8437 33.3203C31.332 34.4375 30.7851 33.9531 31.4531 35.7383C31.6132 36.1563 32.0234 37.0586 32.4609 37.4023C33.4257 38.168 33.2656 37.207 33.8906 37.4023C34.914 37.7187 35.3632 39.0352 36.5976 39.2031C36.5625 41.0664 34.8593 39.4727 34.1718 39.1953C33.8867 39.8359 33.7304 40.5469 33.7187 41.2344C32.8554 41.0156 32.6484 40.5234 31.6679 40.5352C30.9961 42.7852 35.3945 42.9219 33.1328 45.4453C32.2929 46.3789 31.4531 46.043 31.2461 47.3711C31.125 48.1602 31.8867 49.3359 32.7617 49.293C32.6992 50.2969 33.4804 51.125 33.9921 51.9023C35.4531 50.668 37.3593 55.5469 39.0859 55.1953C39.6484 56.6562 39.164 59.1797 41.3945 58.0547C41.2226 59.3516 44.3711 60.4961 42.3945 61.6016C43.8867 61.625 43.914 63.0078 43.4961 64.0859C41.3632 65.207 44.3515 66.6914 44.9179 67.3125C46.5195 69.0586 45.1054 69.8555 45.2226 71.707C43.0312 72.1367 46.3125 75.6328 46.6328 77.2305C48.6601 77.2344 48.0039 78.7656 48.5507 80.0859C49.332 79.9961 49.9961 80.3164 50.25 81.0703C50.6796 82.3398 49.9218 82.2266 49.2812 82.5977C48.289 83.1719 46.2187 83.0742 45.0703 83.3633C42.3242 84.0547 39.4101 85.6289 36.4648 85.8047C36.5234 85.5586 36.4257 85.1836 36.4648 84.9141C36.5781 84.8945 36.6836 84.8711 36.789 84.8438C36.9218 82.1719 35.1211 84.1914 33.7382 83.9375C33.0234 83.8086 31.0117 82.4727 30.5234 82.0391C30.6093 82.5469 30.3945 83.1953 30.4609 83.7109C29.4843 83.7305 28.3828 83.4414 27.957 84.4766C26.8828 83.6953 25.9179 84.1328 24.9336 83.7422C23.9492 83.3516 23.375 82.2188 22.4687 81.8594C22.6757 84.1602 19.1171 80.6328 17.8359 80.5C17.1406 80.4297 16.5859 80.7734 15.9062 80.6992C15.2656 80.6328 15.25 79.9219 14.3828 80.1211C13.6992 80.2773 13.1796 81.1367 12.4961 81.3711C12.125 79.9844 11.1093 77.0117 13.3984 76.8555C13.1875 75.3047 14.7461 75.7187 15.6953 75.8984C15.6992 75.6758 15.7578 75.418 15.7539 75.1992C16.5703 75.3516 17.2031 75.0586 17.2851 74.2422C18.25 74.082 19.1562 74 20.1054 73.8047C20.0781 73.5352 20.1875 73.1836 20.164 72.9102C20.5429 73.043 21.2617 72.8945 21.6406 73.043C21.5937 72.4531 21.7461 71.7852 21.6992 71.1953C21.8789 71.1523 22.0351 71.1914 22.2109 71.1406C23.6796 69.4844 22.0898 69.2695 21.5234 67.8828C21.1718 67.0195 21.0312 64.7461 21.1289 63.7734C21.5781 63.8086 21.5507 63.5625 22.0156 63.7188C21.9687 62.7109 21.9765 61.2656 22.2304 60.3008C22.5117 59.25 23.5664 58.5977 22.6523 57.2617C23.1914 56.3867 23.8593 55.7773 24.8984 56.2891C24.8515 54.4805 26.2617 54.9492 27.4179 54.7812C28.3164 54.6523 28.1015 54.0234 29.1132 54.2656C29.4453 54.3438 30.0468 55.3047 30.2578 55.5273C30.3711 54.4414 31.2421 54.375 31.6015 53.6055C31.9531 52.8555 31.9961 51.7734 32.2343 50.9805L31.832 50.582C31.4179 50.8164 31.1211 50.6367 30.7109 50.7578C30.8789 49.5898 30.1132 49.082 29.9062 48.1094C29.7617 47.4414 29.7539 45.7109 29.75 44.9141C30.0546 44.9844 30.3906 44.8945 30.6953 45.0039C30.6367 43.9141 26.8554 37.1328 30.082 37.8047C29.4765 36.625 27.8125 36.0859 27.4101 34.6094C26.9336 32.8398 27.6914 30.6797 27.2539 28.9141C27.2929 28.9258 27.7226 28.9297 27.7734 28.9219C28.4726 28.8203 28.3515 30.8594 29.9101 29.2109C30.6367 28.4414 30.5976 26.9844 30.8711 26.0234C31.3632 24.25 32.8437 22.7656 33.1367 20.9414C31.9257 22.8984 31.0546 23.9648 29.1875 25.25C29.3164 22.4219 31.8593 21.1406 33.5078 19.5C35.4921 17.5273 36.7734 16.625 39.3164 15.9297C40.0859 15.7187 41.5703 14.7773 42.5703 14.7852C44.3632 14.8008 44.0586 15.9062 45.875 15.0352C47.1523 14.4219 47.8828 13.75 49.2812 13.457C50.7187 13.1602 51.6445 13.3672 52.3281 11.9609C51.2617 12.1484 50.3086 10.9961 49.6679 10.332C51.6015 10.4414 53.4101 11.1172 55.2148 11.6445C56.6836 12.0703 58.6562 12.6602 60.9765 13.8906C60.3046 13.8008 59.4765 15.2148 59.0429 15.3633C59.6171 16.1406 60.7031 16.3711 60.8203 17.4336C61.6679 16.9883 63.9414 16.2617 63.6367 18C63.4804 18.0586 63.2851 17.9648 63.1562 18.0195C63.3945 18.2188 63.375 18.3164 63.5039 18.5703C64.664 18.6641 64.8867 20.1562 65.4257 21.043C66.9765 21.082 70.1679 21.668 69.9648 23.7148C69.4414 23.7266 69.0546 24.0195 68.4882 23.9609C68.3554 24.9648 69.4687 25.0547 70.0468 25.8281C70.5351 26.4844 70.7461 28.1367 70.6171 28.8867C70.1718 31.4453 68.0039 30.7773 66.9296 29.2656C66.0664 28.0586 65 26.4375 63.7148 25.4062C63.0976 24.9102 62.2343 24.4648 61.5976 24.1172C60.625 23.5898 60.4023 22.9492 58.9023 23.1992C58.8281 23.8125 59.3359 24.2617 59.3086 24.6953C59.2539 25.4297 59.164 25.5234 59.0586 26.2305C58.9218 27.1836 58.5468 28.0781 58.5156 29.0469C58.7617 29.0625 58.9765 29.0664 59.2265 29.0469C59.0507 27.4062 64.3437 26.4844 63.9257 27.9062C64.3906 27.9727 64.5351 28.2578 64.9765 28.3477C64.9375 29.6367 66.0976 29.9492 66.5468 30.9805C66.9804 31.9727 66.6562 33.4492 66.7734 34.5547C66.8867 35.6094 67.5625 36.8789 67.3125 38.0312C67.0546 39.2227 66.3867 39.2578 66.5117 40.8555C65.8086 40.9883 65.1992 40.8594 64.6562 40.4688C64.2304 39.5586 64.4453 38.707 65.3554 38.375C65.4179 38.0781 65.3945 37.7852 65.3632 37.4844C63.8086 37.1992 63.0586 35.0742 61.5742 35.3906C61.8984 35.6836 62.1132 36.2383 62.5312 36.5039C62.2304 36.6719 61.8671 37.2461 61.582 37.4102C62.4218 37.7461 62.9609 38.7148 61.9765 39.1406C61.0312 38.4102 58.9218 38.2031 58.6484 36.918C57.8359 36.7383 57.1132 36.7539 56.7304 37.4219C54.6953 37.8828 53.9648 36.4258 52 37.4297C52.0039 36.707 52.2812 36.1211 52.7109 35.6016L52.3554 35.3359C52.6914 35.7695 49.4882 37.5547 49.1367 37.668C47.8984 38.0742 46.3398 37.3516 45.2031 37.9727Z" fill="#1A332E"/>
<path d="M72.1016 81.4531C70.457 81.4141 69.2773 82.7187 67.3359 82.5664V82.0547C67.6406 82.0352 67.9492 81.875 68.2422 81.7969C67.5859 80.4922 69.0195 80.8711 69.1758 80.0703C69.4648 78.582 68.625 79.3633 68.2617 78.2188C67.8672 76.9844 68.6133 76.7461 69.0781 75.9805C69.457 75.3477 70 74.8711 70.4219 74.0664C71.1953 72.582 71.9805 71.2578 73.0156 69.793C73.4844 69.125 77.0625 64.793 76.3477 68.0898L76.8633 68.0859C76.8594 67.6719 77.1562 67.2969 77.1172 66.8164C78.875 66.8125 78.1367 64.4219 78.8711 63.3516C79.5586 62.3594 80.7891 62.4961 82.1172 61.0977C83.332 61.0977 82.9766 65.1758 82.6641 66.3281C82.1094 68.3906 79.9766 72.3359 78.9062 74.1055C77.0703 77.1562 73.7773 80.8203 72.0312 82.582L72.1016 81.4531Z" fill="#1A332E"/>
<path d="M62.3242 17.2656C62.207 16.1523 61.582 15.3984 61.543 14.168C63.6445 15.0703 67.3984 17.5977 69.6133 19.3633C72.4805 21.6563 74.5391 23.8008 77.1172 27.2969C75.5156 27.1953 73.793 25.1562 72.3242 25.1055C73.1602 26.5625 74.4844 27.8359 75.125 29.3125C75.6602 30.5547 75.6992 33.8242 76.8633 34.0586C76.875 34.2461 76.832 34.5937 76.8672 34.7617C75.9648 34.7773 75.2891 34.332 74.4375 34.25C74.2578 35.2656 73.7422 36.0273 72.707 35.582C72.8047 36.0117 72.5586 36.6133 72.6484 37.0469C70.8867 37.1406 71.4766 35.6406 71.4805 34.7383C71.4805 34 71.582 32.6367 71.668 31.6875C71.7773 30.4414 72 30.1562 71.5703 28.8867C71.2227 27.8555 71.1406 26.8125 70.8164 25.7852C70.7344 25.5234 70.1445 25.0625 69.9961 24.6953C69.7617 24.1328 69.9961 23.5234 69.6602 22.9297C69.1445 22.0156 68.0586 21.5273 67.1211 21.2617C66.6328 21.125 65.8555 21.2773 65.3906 21.0781C64.5938 20.7266 65.0469 20.4687 64.4883 20.0703C63.668 19.4766 62.4219 19.3711 63.0117 18.0195C62.3633 17.6602 61.9766 16.8594 61.75 16.1211" fill="#EEF0D4"/>
<path d="M80.6446 33.0742C82.2657 35.7852 84.0547 41.5977 84.6407 45.4141C85.4102 50.4531 85.4414 56.543 84.0196 61.7969C83.5899 60.2344 83.0742 57.1641 82.8086 55.5664C82.6016 56.0977 81.3008 59.707 80.7852 59.9805C79.2032 60.8203 80.5508 55.9883 80.5742 55.0039C80.793 55.0977 81.25 55.0547 81.4649 55.1328C82.0352 53.7305 82.2461 50.5234 81.8555 49.1055L81.3399 49.1094C81.1016 49.4531 80.8594 49.6289 80.4219 49.5508C79.836 47.3516 80.8594 46.7734 81.5586 45.0195C82.2032 43.4102 81.7383 41.2188 81.3008 39.5586C80.7617 37.5039 78.1407 34.5039 78.4414 33.7852C78.7383 33.0625 80.6446 33.0742 80.6446 33.0742Z" fill="#1A332E"/>
<path d="M45.2773 10.9297C45.2773 11.4297 43.7305 11.832 41.8203 11.832C39.9102 11.832 38.3594 11.4297 38.3594 10.9297C38.3594 10.4336 39.9102 10.0312 41.8203 10.0312C43.7305 10.0312 45.2773 10.4336 45.2773 10.9297Z" fill="#28737F"/>
<path d="M42.582 98.0664V95.6562C66.8008 95.6562 86.5 76.0898 86.5 52.0391C86.5 27.9883 66.8008 8.41797 42.582 8.41797V6.00781C68.1367 6.00781 88.9258 26.6562 88.9258 52.0391C88.9258 77.418 68.1367 98.0664 42.582 98.0664Z" fill="#F6882D"/>
<path d="M39.6328 3.89844V10.5703C39.6328 10.5703 39.8359 11.4297 41.8203 11.4297C43.8047 11.4297 44.0039 10.5703 44.0039 10.5703V3.89844H39.6328Z" fill="#F9A72B"/>
<path d="M37.8203 1.46875V3.60938C37.8203 4.42188 39.6094 5.08203 41.8203 5.08203C44.0273 5.08203 45.8164 4.42188 45.8164 3.60938V1.46875H37.8203Z" fill="#DB7C27"/>
<path d="M45.8164 1.46875C45.8164 2.28516 44.0273 2.94141 41.8203 2.94141C39.6094 2.94141 37.8203 2.28516 37.8203 1.46875C37.8203 0.660157 39.6094 0 41.8203 0C44.0273 0 45.8164 0.660157 45.8164 1.46875Z" fill="#F9A72B"/>
<path d="M140.629 102.172C140.629 102.172 115.094 108.926 112.457 109.562V124.344L140.629 116.953C140.629 116.953 143.797 116.902 143.797 109.562C143.797 102.219 140.629 102.172 140.629 102.172Z" fill="#731A1E"/>
<path d="M87.4531 102.172L59.2773 109.562L112.992 109.703L140.629 102.172H87.4531Z" fill="#D0232B"/>
<path d="M112.457 109.562H59.2773V110.969H62.3086L62.6953 122.938H59.2773V124.344H112.457C112.457 124.344 115.625 124.293 115.625 116.953C115.625 109.613 112.457 109.562 112.457 109.562Z" fill="#B42026"/>
<path d="M111.121 122.938H60.2383C60.2383 122.938 62.2383 121.246 62.2383 116.953C62.2383 112.656 60.2383 110.969 60.2383 110.969H111.121C111.121 110.969 114.066 111.008 114.066 116.953C114.066 122.898 111.121 122.938 111.121 122.938Z" fill="white"/>
<path d="M62.3086 113.258C62.3086 113.258 63.082 113.23 64.4297 113.184C65.7812 113.152 67.707 113.082 70.0234 113.047C72.3359 113.016 75.0352 112.953 77.9258 112.926C79.375 112.918 80.8672 112.906 82.3867 112.895C83.9062 112.891 85.4492 112.887 86.9883 112.883C88.5313 112.887 90.0742 112.891 91.5938 112.895C93.1133 112.906 94.6055 112.918 96.0508 112.926C98.9414 112.949 101.641 113.012 103.957 113.047C106.27 113.078 108.195 113.152 109.547 113.184C110.898 113.23 111.668 113.258 111.668 113.258C111.668 113.258 110.898 113.281 109.547 113.328C108.195 113.359 106.27 113.434 103.957 113.469C101.641 113.5 98.9414 113.566 96.0508 113.586C94.6055 113.598 93.1133 113.609 91.5938 113.617C90.0742 113.625 88.5313 113.625 86.9883 113.633C85.4492 113.625 83.9062 113.625 82.3867 113.617C80.8672 113.605 79.375 113.598 77.9258 113.586C75.0352 113.562 72.3359 113.5 70.0234 113.469C67.707 113.434 65.7812 113.359 64.4297 113.328C63.082 113.281 62.3086 113.258 62.3086 113.258Z" fill="#D3D2D2"/>
<path d="M62.875 119.207C62.875 119.207 63.6016 119.18 64.875 119.133C66.1445 119.105 67.9609 119.031 70.1406 118.996C72.3242 118.965 74.8672 118.902 77.5898 118.879C78.9531 118.867 80.3633 118.855 81.793 118.844C83.2266 118.84 84.6797 118.836 86.1328 118.832C87.5859 118.836 89.0391 118.84 90.4688 118.844C91.9023 118.855 93.3086 118.867 94.6719 118.875C97.3984 118.898 99.9414 118.961 102.121 118.996C104.305 119.027 106.117 119.102 107.391 119.133C108.664 119.18 109.391 119.207 109.391 119.207C109.391 119.207 108.664 119.23 107.391 119.277C106.117 119.309 104.305 119.383 102.121 119.418C99.9414 119.449 97.3984 119.512 94.6719 119.535C93.3086 119.547 91.9023 119.555 90.4688 119.566C89.0391 119.574 87.5859 119.574 86.1328 119.582C84.6797 119.574 83.2266 119.574 81.793 119.566C80.3633 119.555 78.9531 119.547 77.5898 119.535C74.8672 119.512 72.3242 119.449 70.1406 119.418C67.9609 119.383 66.1445 119.309 64.875 119.277C63.6016 119.23 62.875 119.207 62.875 119.207Z" fill="#D3D2D2"/>
<path d="M63.4727 115.395C63.4727 115.395 63.832 115.363 64.4609 115.324C65.082 115.293 65.9766 115.223 67.0508 115.184C68.125 115.133 69.3789 115.094 70.7188 115.066C71.3906 115.059 72.082 115.035 72.7891 115.035C73.4922 115.031 74.207 115.027 74.9219 115.023C75.6406 115.027 76.3555 115.031 77.0586 115.035C77.7617 115.035 78.457 115.059 79.125 115.066C80.4688 115.094 81.7227 115.133 82.793 115.18C83.8672 115.223 84.7617 115.293 85.3867 115.324C86.0117 115.363 86.3711 115.395 86.3711 115.395C86.3711 115.395 86.0117 115.43 85.3867 115.469C84.7617 115.504 83.8672 115.57 82.793 115.613C81.7227 115.66 80.4688 115.699 79.125 115.727C78.457 115.738 77.7617 115.758 77.0586 115.758C76.3555 115.762 75.6406 115.766 74.9219 115.77C74.207 115.766 73.4922 115.762 72.7891 115.758C72.082 115.758 71.3906 115.734 70.7188 115.727C69.3789 115.699 68.125 115.66 67.0508 115.613C65.9766 115.57 65.082 115.5 64.4609 115.469C63.832 115.43 63.4727 115.395 63.4727 115.395Z" fill="#D3D2D2"/>
<path d="M72.8242 116.953C72.8242 116.953 73.1836 116.918 73.8086 116.879C74.4336 116.848 75.3281 116.781 76.4023 116.738C77.4766 116.688 78.7266 116.648 80.0703 116.621C80.7422 116.613 81.4336 116.59 82.1406 116.59C82.8438 116.586 83.5586 116.582 84.2734 116.578C84.9883 116.582 85.707 116.586 86.4102 116.59C87.1133 116.59 87.8086 116.613 88.4766 116.621C89.8203 116.648 91.0742 116.688 92.1445 116.734C93.2188 116.777 94.1133 116.848 94.7383 116.879C95.3672 116.918 95.7227 116.953 95.7227 116.953C95.7227 116.953 95.3672 116.984 94.7383 117.023C94.1133 117.059 93.2188 117.125 92.1445 117.168C91.0742 117.215 89.8203 117.254 88.4766 117.281C87.8086 117.293 87.1133 117.312 86.4102 117.312C85.707 117.316 84.9883 117.324 84.2734 117.324C83.5586 117.324 82.8438 117.316 82.1406 117.312C81.4336 117.312 80.7422 117.289 80.0703 117.281C78.7266 117.254 77.4766 117.215 76.4023 117.168C75.3281 117.125 74.4336 117.055 73.8086 117.023C73.1836 116.984 72.8242 116.953 72.8242 116.953Z" fill="#D3D2D2"/>
<path d="M82.7773 120.875C82.7773 120.875 83.1328 120.84 83.7578 120.801C84.3867 120.77 85.2813 120.703 86.3516 120.66C87.4258 120.613 88.6797 120.57 90.0195 120.543C90.6914 120.535 91.3828 120.516 92.0898 120.512C92.793 120.508 93.5078 120.504 94.2227 120.5C94.9414 120.504 95.6562 120.508 96.3594 120.512C97.0625 120.512 97.7578 120.535 98.4297 120.543C99.7695 120.57 101.023 120.609 102.098 120.66C103.168 120.699 104.066 120.77 104.688 120.801C105.316 120.84 105.676 120.875 105.676 120.875C105.676 120.875 105.316 120.906 104.688 120.945C104.066 120.977 103.168 121.047 102.098 121.09C101.023 121.137 99.7695 121.176 98.4297 121.203C97.7578 121.211 97.0625 121.234 96.3594 121.234C95.6562 121.238 94.9414 121.242 94.2227 121.246C93.5078 121.242 92.793 121.238 92.0898 121.234C91.3828 121.234 90.6914 121.211 90.0195 121.203C88.6797 121.176 87.4258 121.137 86.3516 121.086C85.2813 121.047 84.3867 120.977 83.7578 120.945C83.1328 120.906 82.7773 120.875 82.7773 120.875Z" fill="#D3D2D2"/>
<path d="M92.8828 115.395C92.8828 115.395 93.7656 115.27 95.0938 115.184C95.7539 115.133 96.5273 115.094 97.3555 115.066C97.7734 115.059 98.1992 115.035 98.6328 115.035C99.0703 115.031 99.5117 115.027 99.9531 115.023C100.395 115.027 100.84 115.031 101.273 115.035C101.707 115.035 102.137 115.059 102.551 115.066C103.379 115.094 104.152 115.133 104.816 115.18C106.145 115.27 107.027 115.395 107.027 115.395C107.027 115.395 106.145 115.523 104.816 115.613C104.152 115.66 103.379 115.699 102.551 115.727C102.137 115.738 101.707 115.758 101.273 115.758C100.84 115.762 100.395 115.766 99.9531 115.77C99.5117 115.766 99.0703 115.762 98.6328 115.758C98.1992 115.758 97.7734 115.734 97.3555 115.727C96.5273 115.699 95.7539 115.66 95.0938 115.613C93.7656 115.523 92.8828 115.395 92.8828 115.395Z" fill="#D3D2D2"/>
<path d="M62.3086 120.875C62.3086 120.875 63.1953 120.75 64.5195 120.66C65.1836 120.613 65.957 120.57 66.7852 120.543C67.1992 120.535 67.6289 120.516 68.0625 120.512C68.4961 120.508 68.9414 120.504 69.3828 120.5C69.8242 120.504 70.2656 120.508 70.7031 120.512C71.1367 120.512 71.5664 120.535 71.9805 120.543C72.8086 120.57 73.582 120.609 74.2461 120.66C75.5703 120.746 76.4531 120.875 76.4531 120.875C76.4531 120.875 75.5703 121 74.2461 121.09C73.582 121.137 72.8086 121.176 71.9805 121.203C71.5664 121.211 71.1367 121.234 70.7031 121.234C70.2656 121.238 69.8242 121.242 69.3828 121.246C68.9414 121.242 68.4961 121.238 68.0625 121.234C67.6289 121.234 67.1992 121.211 66.7852 121.203C65.957 121.176 65.1836 121.137 64.5195 121.086C63.1953 121 62.3086 120.875 62.3086 120.875Z" fill="#D3D2D2"/>
<path d="M103.035 121.707L98.9922 119.207L94.9453 121.707C94.9453 121.707 94.9453 114.676 94.9453 113.969C94.9453 113.258 95.7227 112.961 95.7227 112.961H103.695C103.695 112.961 103.035 113.254 103.035 113.906C103.035 114.562 103.035 121.707 103.035 121.707Z" fill="#42C1D0"/>
<path d="M117.43 91.5508H63.3633L91.2148 89.1562H145.285L117.43 91.5508Z" fill="#F9A72B"/>
<path d="M117.43 107.746H63.3633C63.3633 107.746 60.4883 106.078 60.4883 99.6484C60.4883 93.2187 63.3633 91.5508 63.3633 91.5508H117.43C117.43 91.5508 114.555 93.8125 114.555 99.6484C114.555 105.484 117.43 107.746 117.43 107.746Z" fill="#F68712"/>
<path d="M142.762 104.281C142.586 103.375 142.465 91.5352 142.637 90.625L145.285 90.3984V89.1562L117.43 91.5508C117.43 91.5508 114.555 93.8125 114.555 99.6484C114.555 105.484 117.43 107.746 117.43 107.746L145.285 105.348V104.066L142.762 104.281Z" fill="#E45A17"/>
<path d="M119.582 106.277L145.285 104.066C145.285 104.066 142.859 102.66 142.859 97.2344C142.859 91.8047 145.285 90.3984 145.285 90.3984L119.582 92.6094C119.582 92.6094 117.152 94.5195 117.152 99.4414C117.152 104.371 119.582 106.277 119.582 106.277Z" fill="white"/>
<path d="M120.668 93.9258C120.668 93.9258 122.023 93.6992 124.062 93.4609C125.082 93.3359 126.27 93.207 127.547 93.0859C128.188 93.0312 128.844 92.9609 129.516 92.9101C130.188 92.8555 130.867 92.8008 131.551 92.7461C132.23 92.7031 132.914 92.6562 133.586 92.6094C134.258 92.5586 134.918 92.5351 135.562 92.4961C136.84 92.4297 138.035 92.3789 139.062 92.3516C141.117 92.293 142.488 92.3164 142.488 92.3164C142.488 92.3164 141.133 92.543 139.094 92.7812C138.074 92.9062 136.887 93.0351 135.609 93.1562C134.969 93.2109 134.309 93.2812 133.641 93.332C132.969 93.3867 132.289 93.4414 131.605 93.4922C130.926 93.5391 130.242 93.5859 129.57 93.6328C128.898 93.6797 128.234 93.707 127.598 93.7422C126.316 93.8125 125.121 93.8594 124.094 93.8867C122.043 93.9492 120.668 93.9258 120.668 93.9258Z" fill="#BDBCBC"/>
<path d="M120.309 104.207C120.309 104.207 121.664 103.98 123.703 103.738C124.723 103.617 125.914 103.488 127.191 103.367C127.828 103.312 128.488 103.242 129.156 103.191C129.828 103.137 130.512 103.082 131.191 103.027C131.875 102.98 132.559 102.937 133.227 102.891C133.898 102.844 134.562 102.816 135.203 102.777C136.48 102.711 137.676 102.66 138.703 102.633C140.758 102.57 142.129 102.598 142.129 102.598C142.129 102.598 140.777 102.824 138.738 103.062C137.719 103.187 136.527 103.316 135.25 103.437C134.613 103.492 133.953 103.562 133.281 103.613C132.609 103.664 131.93 103.719 131.246 103.773C130.566 103.82 129.883 103.867 129.215 103.91C128.539 103.961 127.879 103.988 127.238 104.027C125.957 104.094 124.762 104.141 123.734 104.168C121.684 104.23 120.309 104.207 120.309 104.207Z" fill="#BDBCBC"/>
<path d="M118.156 97.7578C118.156 97.7578 118.527 97.7031 119.184 97.6172C119.84 97.543 120.777 97.4141 121.906 97.2969C123.031 97.1719 124.348 97.043 125.754 96.9219C126.461 96.8672 127.191 96.7969 127.93 96.7461C128.672 96.6914 129.426 96.6367 130.176 96.582C130.93 96.5352 131.684 96.4922 132.426 96.4453C133.168 96.3945 133.898 96.3672 134.602 96.332C136.02 96.2656 137.34 96.2148 138.473 96.1875C139.605 96.1562 140.551 96.1602 141.211 96.1484C141.871 96.1445 142.25 96.1523 142.25 96.1523C142.25 96.1523 141.879 96.2109 141.223 96.293C140.563 96.3711 139.625 96.5 138.5 96.6172C137.375 96.7422 136.059 96.8711 134.648 96.9922C133.945 97.0469 133.215 97.1172 132.477 97.168C131.734 97.2227 130.98 97.2734 130.23 97.3281C129.477 97.375 128.723 97.4219 127.98 97.4687C127.238 97.5156 126.508 97.543 125.801 97.5781C124.387 97.6484 123.066 97.6953 121.934 97.7227C120.801 97.7539 119.855 97.75 119.195 97.7617C118.531 97.7695 118.156 97.7578 118.156 97.7578Z" fill="#BDBCBC"/>
<path d="M119.012 95.8867C119.012 95.8867 119.605 95.7109 120.508 95.5469C120.957 95.4609 121.484 95.3789 122.051 95.3047C122.332 95.2734 122.625 95.2266 122.922 95.1992C123.219 95.1719 123.523 95.1406 123.824 95.1133C124.129 95.0898 124.43 95.0703 124.73 95.0508C125.027 95.0273 125.32 95.0234 125.609 95.0078C126.176 94.9883 126.711 94.9844 127.168 94.9961C128.086 95.0078 128.699 95.082 128.699 95.082C128.699 95.082 128.105 95.2578 127.203 95.4258C126.754 95.5078 126.23 95.5938 125.664 95.668C125.379 95.6992 125.09 95.7461 124.789 95.7695C124.492 95.8008 124.191 95.8281 123.887 95.8594C123.586 95.8789 123.281 95.8984 122.984 95.9219C122.684 95.9453 122.391 95.9492 122.105 95.9609C121.535 95.9805 121.004 95.9844 120.543 95.9766C119.629 95.9609 119.012 95.8867 119.012 95.8867Z" fill="#BDBCBC"/>
<path d="M130.945 95.082C130.945 95.082 131.66 94.9102 132.734 94.7461C133.273 94.6562 133.898 94.5742 134.574 94.5C134.914 94.4688 135.262 94.4219 135.617 94.3945C135.969 94.3672 136.332 94.3359 136.691 94.3086C137.051 94.2852 137.414 94.2656 137.77 94.2461C138.121 94.2227 138.477 94.2188 138.812 94.2031C139.492 94.1836 140.125 94.1797 140.668 94.1914C141.758 94.2031 142.488 94.2813 142.488 94.2813C142.488 94.2813 141.777 94.457 140.699 94.6211C140.16 94.707 139.535 94.7891 138.859 94.8633C138.523 94.8984 138.176 94.9414 137.82 94.9688C137.465 94.9961 137.102 95.0273 136.742 95.0547C136.383 95.0742 136.023 95.0977 135.664 95.1172C135.309 95.1406 134.961 95.1445 134.621 95.1563C133.945 95.1797 133.309 95.1797 132.766 95.1719C131.676 95.1563 130.945 95.082 130.945 95.082Z" fill="#BDBCBC"/>
<path d="M130.453 100.047C130.453 100.051 131.164 99.8751 132.242 99.711C132.777 99.6251 133.406 99.5391 134.082 99.4688C134.422 99.4336 134.77 99.3868 135.121 99.3594C135.477 99.3321 135.84 99.3047 136.199 99.2735C136.562 99.254 136.922 99.2344 137.277 99.211C137.633 99.1876 137.984 99.1836 138.324 99.1719C139 99.1485 139.637 99.1446 140.18 99.1563C141.27 99.1719 142 99.2461 142 99.2461C142 99.2461 141.285 99.4219 140.211 99.586C139.672 99.6719 139.043 99.7579 138.367 99.8282C138.031 99.8633 137.684 99.9102 137.328 99.9336C136.973 99.961 136.613 99.9922 136.254 100.02C135.891 100.043 135.531 100.063 135.176 100.082C134.82 100.106 134.469 100.109 134.129 100.125C133.449 100.145 132.816 100.148 132.27 100.137C131.184 100.125 130.453 100.047 130.453 100.047Z" fill="#BDBCBC"/>
<path d="M119.402 102.176C119.402 102.176 120.441 101.949 122.008 101.711C122.793 101.586 123.711 101.457 124.691 101.332C125.184 101.277 125.691 101.207 126.207 101.156C126.727 101.102 127.25 101.047 127.773 100.988C128.301 100.941 128.828 100.898 129.344 100.852C129.863 100.801 130.375 100.773 130.871 100.734C131.855 100.668 132.781 100.617 133.578 100.59C135.16 100.527 136.227 100.551 136.227 100.551C136.227 100.551 135.187 100.777 133.617 101.02C132.836 101.141 131.918 101.273 130.934 101.395C130.441 101.449 129.937 101.523 129.418 101.57C128.902 101.625 128.375 101.68 127.852 101.734C127.324 101.781 126.797 101.828 126.281 101.875C125.762 101.922 125.25 101.953 124.758 101.988C123.77 102.059 122.844 102.109 122.051 102.137C120.465 102.199 119.402 102.176 119.402 102.176Z" fill="#BDBCBC"/>
<path d="M123.504 98.8516C123.504 98.8516 124.215 98.6758 125.293 98.5117C125.832 98.4258 126.457 98.3437 127.133 98.2695C127.473 98.2344 127.82 98.1914 128.172 98.1641C128.527 98.1367 128.891 98.1055 129.25 98.0742C129.609 98.0547 129.973 98.0351 130.328 98.0117C130.684 97.9883 131.031 97.9883 131.371 97.9726C132.051 97.9531 132.684 97.9492 133.23 97.957C134.32 97.9726 135.047 98.0469 135.047 98.0469C135.047 98.0469 134.336 98.2226 133.258 98.3867C132.723 98.4726 132.094 98.5586 131.418 98.6328C131.082 98.6641 130.734 98.7109 130.379 98.7344C130.023 98.7656 129.664 98.793 129.301 98.8242C128.941 98.8437 128.582 98.8633 128.227 98.8867C127.871 98.9062 127.52 98.9101 127.18 98.9258C126.504 98.9453 125.867 98.9492 125.32 98.9414C124.234 98.9258 123.504 98.8516 123.504 98.8516Z" fill="#BDBCBC"/>
<path d="M123.008 75.3633H68.9375L96.7891 72.9688H150.859L123.008 75.3633Z" fill="#1A4174"/>
<path d="M123.008 91.5586H68.9375C68.9375 91.5586 66.0625 89.8906 66.0625 83.4609C66.0625 77.0312 68.9375 75.3633 68.9375 75.3633H123.008C123.008 75.3633 120.129 77.625 120.129 83.4609C120.129 89.293 123.008 91.5586 123.008 91.5586Z" fill="#15355F"/>
<path d="M148.332 88.0977C148.16 87.1875 148.039 75.3477 148.211 74.4414L150.859 74.2109V72.9688L123.008 75.3633C123.008 75.3633 120.129 77.625 120.129 83.4609C120.129 89.293 123.008 91.5586 123.008 91.5586L150.859 89.1602V87.8789L148.332 88.0977Z" fill="#0E2543"/>
<path d="M125.152 90.0898L150.859 87.8789C150.859 87.8789 148.43 86.4727 148.43 81.043C148.43 75.6172 150.859 74.2109 150.859 74.2109L125.152 76.4219C125.152 76.4219 122.73 78.332 122.73 83.2578C122.73 88.1797 125.152 90.0898 125.152 90.0898Z" fill="white"/>
<path d="M126.242 77.7383C126.242 77.7383 127.598 77.5118 129.637 77.2735C130.656 77.1485 131.848 77.0196 133.121 76.9024C133.762 76.8438 134.422 76.7735 135.09 76.7227C135.762 76.668 136.445 76.6133 137.125 76.5586C137.809 76.5157 138.488 76.4688 139.164 76.4219C139.832 76.375 140.496 76.3477 141.137 76.3086C142.418 76.2422 143.609 76.1953 144.637 76.168C146.691 76.1055 148.062 76.1289 148.062 76.1289C148.062 76.1289 146.711 76.3555 144.672 76.5938C143.652 76.7188 142.461 76.8477 141.184 76.9688C140.547 77.0235 139.887 77.0938 139.215 77.1446C138.543 77.1993 137.863 77.2539 137.184 77.3086C136.5 77.3555 135.816 77.3985 135.148 77.4453C134.473 77.4922 133.812 77.5196 133.172 77.5586C131.891 77.625 130.695 77.6719 129.668 77.6993C127.613 77.7618 126.242 77.7383 126.242 77.7383Z" fill="#BDBCBC"/>
<path d="M125.883 88.0195C125.883 88.0195 127.238 87.7929 129.277 87.5547C130.297 87.4297 131.488 87.3047 132.766 87.1797C133.402 87.125 134.062 87.0547 134.734 87.0039C135.402 86.9492 136.086 86.8945 136.766 86.8398C137.449 86.7968 138.129 86.75 138.801 86.7031C139.473 86.6523 140.137 86.625 140.773 86.5898C142.055 86.5234 143.25 86.4726 144.277 86.4453C146.328 86.3828 147.703 86.4101 147.703 86.4101C147.703 86.4101 146.348 86.6367 144.309 86.875C143.289 87 142.102 87.1289 140.824 87.25C140.187 87.3047 139.527 87.375 138.855 87.4258C138.184 87.4804 137.504 87.5312 136.82 87.5859C136.141 87.6328 135.457 87.6797 134.785 87.7265C134.113 87.7734 133.453 87.8008 132.812 87.8359C131.531 87.9062 130.336 87.9531 129.309 87.9804C127.258 88.0429 125.883 88.0195 125.883 88.0195Z" fill="#BDBCBC"/>
<path d="M123.73 81.5742C123.73 81.5742 124.102 81.5156 124.758 81.4336C125.414 81.3555 126.352 81.2266 127.48 81.1094C128.605 80.9844 129.922 80.8555 131.328 80.7383C132.035 80.6797 132.766 80.6094 133.504 80.5586C134.246 80.5039 134.996 80.4492 135.75 80.3945C136.504 80.3477 137.258 80.3047 138 80.2578C138.738 80.2109 139.473 80.1836 140.18 80.1445C141.594 80.0781 142.914 80.0312 144.047 80.0039C145.18 79.9687 146.125 79.9727 146.785 79.9609C147.449 79.957 147.824 79.9648 147.824 79.9648C147.824 79.9648 147.453 80.0234 146.797 80.1055C146.141 80.1836 145.203 80.3125 144.074 80.4297C142.949 80.5547 141.633 80.6836 140.223 80.8047C139.52 80.8594 138.789 80.9297 138.051 80.9805C137.309 81.0352 136.555 81.0898 135.805 81.1445C135.051 81.1875 134.297 81.2344 133.555 81.2812C132.812 81.3281 132.082 81.3555 131.375 81.3945C129.961 81.4609 128.641 81.5078 127.508 81.5352C126.375 81.5703 125.43 81.5625 124.77 81.5781C124.109 81.582 123.73 81.5742 123.73 81.5742Z" fill="#BDBCBC"/>
<path d="M124.586 79.6992C124.586 79.6992 125.18 79.5234 126.082 79.3633C126.531 79.2773 127.059 79.1914 127.625 79.1172C127.906 79.0859 128.199 79.0391 128.496 79.0117C128.797 78.9844 129.098 78.957 129.402 78.9258C129.703 78.9063 130.008 78.8828 130.305 78.8633C130.605 78.8398 130.898 78.8359 131.184 78.8203C131.754 78.8008 132.289 78.7969 132.746 78.8086C133.66 78.8203 134.277 78.8984 134.277 78.8984C134.277 78.8984 133.684 79.0742 132.781 79.2344C132.332 79.3242 131.805 79.4063 131.238 79.4805C130.957 79.5117 130.664 79.5586 130.367 79.5859C130.07 79.6133 129.766 79.6445 129.461 79.6719C129.16 79.6914 128.855 79.7148 128.559 79.7344C128.258 79.7578 127.965 79.7617 127.68 79.7734C127.109 79.7969 126.578 79.7969 126.117 79.7891C125.203 79.7773 124.586 79.6992 124.586 79.6992Z" fill="#BDBCBC"/>
<path d="M136.52 78.8985C136.52 78.8985 137.23 78.7227 138.309 78.5586C138.844 78.4727 139.473 78.3868 140.148 78.3126C140.488 78.2813 140.836 78.2344 141.191 78.211C141.543 78.1797 141.906 78.1485 142.266 78.1211C142.625 78.1016 142.988 78.0782 143.344 78.0586C143.695 78.0352 144.051 78.0313 144.387 78.0196C145.066 77.9961 145.699 77.9922 146.242 78.004C147.336 78.0157 148.062 78.0938 148.062 78.0938C148.062 78.0938 147.352 78.2696 146.277 78.4336C145.738 78.5196 145.109 78.6016 144.434 78.6758C144.098 78.711 143.75 78.7579 143.395 78.7813C143.039 78.8126 142.68 78.8399 142.316 78.8672C141.957 78.8907 141.598 78.9102 141.242 78.9297C140.883 78.9532 140.535 78.9571 140.195 78.9727C139.516 78.9922 138.883 78.9961 138.336 78.9844C137.25 78.9727 136.52 78.8985 136.52 78.8985Z" fill="#BDBCBC"/>
<path d="M136.027 83.8633C136.027 83.8633 136.738 83.6875 137.816 83.5235C138.355 83.4375 138.984 83.3516 139.656 83.2813C139.996 83.2461 140.344 83.2032 140.695 83.1758C141.055 83.1446 141.414 83.1172 141.773 83.0899C142.133 83.0664 142.496 83.043 142.852 83.0274C143.207 83 143.555 83 143.895 82.9844C144.574 82.961 145.211 82.961 145.754 82.9688C146.844 82.9844 147.57 83.0586 147.57 83.0586C147.57 83.0586 146.859 83.2344 145.781 83.3985C145.246 83.4844 144.617 83.5703 143.941 83.6407C143.605 83.6758 143.258 83.7227 142.902 83.7461C142.547 83.7774 142.187 83.8047 141.824 83.836C141.465 83.8555 141.105 83.875 140.75 83.8946C140.395 83.9219 140.043 83.9219 139.703 83.9375C139.027 83.9571 138.391 83.961 137.848 83.9493C136.758 83.9375 136.027 83.8633 136.027 83.8633Z" fill="#BDBCBC"/>
<path d="M124.973 85.9882C124.973 85.9882 126.016 85.7617 127.582 85.5234C128.367 85.3945 129.285 85.2695 130.266 85.1445C130.758 85.0859 131.266 85.0195 131.781 84.9687C132.301 84.914 132.824 84.8593 133.352 84.8007C133.879 84.7539 134.406 84.707 134.922 84.664C135.438 84.6132 135.949 84.5859 136.445 84.5468C137.434 84.4804 138.355 84.4296 139.152 84.4023C140.734 84.3359 141.801 84.3632 141.801 84.3632C141.801 84.3632 140.762 84.5898 139.191 84.8281C138.41 84.9531 137.492 85.082 136.508 85.207C136.016 85.2617 135.512 85.332 134.992 85.3828C134.477 85.4375 133.949 85.4921 133.426 85.5468C132.898 85.5937 132.371 85.6406 131.855 85.6875C131.336 85.7343 130.824 85.7656 130.332 85.8007C129.344 85.8711 128.418 85.9179 127.625 85.9453C126.039 86.0117 124.973 85.9882 124.973 85.9882Z" fill="#BDBCBC"/>
<path d="M129.078 82.6641C129.078 82.6641 129.789 82.4883 130.867 82.3242C131.406 82.2383 132.035 82.1563 132.707 82.082C133.047 82.0469 133.395 82.0039 133.75 81.9766C134.105 81.9492 134.465 81.918 134.824 81.8867C135.184 81.8672 135.547 81.8477 135.902 81.8242C136.258 81.8008 136.605 81.7969 136.945 81.7852C137.625 81.7656 138.258 81.7578 138.805 81.7695C139.895 81.7852 140.621 81.8594 140.621 81.8594C140.621 81.8594 139.91 82.0352 138.832 82.1992C138.297 82.2852 137.668 82.3711 136.992 82.4453C136.656 82.4766 136.309 82.5235 135.953 82.5469C135.598 82.5781 135.238 82.6055 134.875 82.6367C134.516 82.6563 134.156 82.6758 133.801 82.6992C133.445 82.7188 133.094 82.7227 132.754 82.7383C132.078 82.7578 131.441 82.7617 130.898 82.7539C129.809 82.7383 129.078 82.6641 129.078 82.6641Z" fill="#BDBCBC"/>
<path d="M124.68 53.4062H78.5039L102.293 51.3594H148.469L124.68 53.4062Z" fill="#6C4232"/>
<path d="M124.68 74.1523H78.5039C78.5039 74.1523 75.6602 68.9062 75.6602 63.418C75.6602 57.9258 78.5039 53.4062 78.5039 53.4062H124.68C124.68 53.4062 121.836 58.4336 121.836 63.418C121.836 68.3984 124.68 74.1523 124.68 74.1523Z" fill="#45291D"/>
<path d="M86.9688 53.4062H84.9258C84.9258 53.4062 82.082 57.9258 82.082 63.418C82.082 68.9062 84.9258 74.1523 84.9258 74.1523H86.9688C86.9688 74.1523 84.125 68.9062 84.125 63.418C84.125 57.9258 86.9688 53.4062 86.9688 53.4062Z" fill="#F9A72B"/>
<path d="M90.2461 53.4062H88.2031C88.2031 53.4062 85.3594 57.9258 85.3594 63.418C85.3594 68.9062 88.2031 74.1523 88.2031 74.1523H90.2461C90.2461 74.1523 87.3984 68.9062 87.3984 63.418C87.3984 57.9258 90.2461 53.4062 90.2461 53.4062Z" fill="#F9A72B"/>
<path d="M117.137 53.4062H115.098C115.098 53.4062 112.25 57.9258 112.25 63.418C112.25 68.9062 115.098 74.1523 115.098 74.1523H117.137C117.137 74.1523 114.293 68.9062 114.293 63.418C114.293 57.9258 117.137 53.4062 117.137 53.4062Z" fill="#F9A72B"/>
<path d="M120.414 53.4062H118.371C118.371 53.4062 115.527 57.9258 115.527 63.418C115.527 68.9062 118.371 74.1523 118.371 74.1523H120.414C120.414 74.1523 117.57 68.9062 117.57 63.418C117.57 57.9258 120.414 53.4062 120.414 53.4062Z" fill="#F9A72B"/>
<path d="M146.309 71.1992C146.434 71.832 144.758 60.2383 146.207 52.6172L148.469 52.418V51.3594L124.68 53.4062C124.68 53.4062 121.836 58.4336 121.836 63.418C121.836 68.3984 124.68 74.1523 124.68 74.1523L148.469 72.1094V71.0156L146.309 71.1992Z" fill="#26140D"/>
<path d="M126.516 72.9023L148.469 71.0117C148.469 71.0117 146.004 65.9883 146.004 61.3555C146.004 56.7187 148.469 52.418 148.469 52.418L126.516 54.3086C126.516 54.3086 124.055 59.0352 124.055 63.2422C124.055 67.4492 126.516 72.9023 126.516 72.9023Z" fill="#EEF0D4"/>
<path d="M127.344 56.3711C127.344 56.3711 128.496 56.1641 130.238 55.9453C131.109 55.8321 132.125 55.7188 133.215 55.6094C133.758 55.5586 134.32 55.4961 134.895 55.4532C135.469 55.4063 136.051 55.3594 136.633 55.3125C137.215 55.2735 137.797 55.2344 138.371 55.1953C138.945 55.1563 139.512 55.1367 140.055 55.1055C141.148 55.0508 142.172 55.0157 143.051 55C144.805 54.961 145.977 55 145.977 55C145.977 55 144.824 55.211 143.082 55.4297C142.211 55.543 141.195 55.6563 140.105 55.7657C139.559 55.8125 138.996 55.875 138.426 55.918C137.852 55.9649 137.27 56.0117 136.688 56.0586C136.105 56.0977 135.523 56.1367 134.949 56.1758C134.375 56.2149 133.809 56.2344 133.262 56.2657C132.168 56.3203 131.148 56.3555 130.27 56.3711C128.516 56.4141 127.344 56.3711 127.344 56.3711Z" fill="#9F9375"/>
<path d="M127.035 65.1524C127.035 65.1524 128.191 64.9414 129.93 64.7227C130.801 64.6094 131.816 64.4961 132.906 64.3907C133.453 64.3399 134.016 64.2774 134.586 64.2344C135.16 64.1875 135.742 64.1407 136.324 64.0938C136.906 64.0547 137.488 64.0157 138.062 63.9766C138.637 63.9336 139.203 63.9141 139.746 63.8867C140.844 63.8321 141.863 63.7969 142.742 63.7774C144.496 63.7383 145.672 63.7774 145.672 63.7774C145.672 63.7774 144.512 63.9922 142.773 64.2071C141.902 64.3203 140.887 64.4375 139.797 64.543C139.254 64.5938 138.691 64.6563 138.117 64.6992C137.547 64.7461 136.961 64.793 136.379 64.8399C135.797 64.8789 135.215 64.918 134.641 64.9532C134.066 64.9961 133.5 65.0157 132.957 65.0469C131.863 65.0977 130.84 65.1367 129.961 65.1524C128.211 65.1914 127.035 65.1524 127.035 65.1524Z" fill="#9F9375"/>
<path d="M125.195 59.6485C125.195 59.6485 126.473 59.4376 128.395 59.2188C129.355 59.1055 130.48 58.9922 131.684 58.8868C132.285 58.836 132.91 58.7735 133.539 58.7305C134.172 58.6836 134.816 58.6368 135.457 58.586C136.102 58.5508 136.746 58.5118 137.379 58.4727C138.012 58.4297 138.637 58.4102 139.238 58.379C140.449 58.3243 141.574 58.293 142.543 58.2774C144.48 58.2344 145.773 58.2774 145.773 58.2774C145.773 58.2774 144.496 58.4883 142.574 58.7032C141.609 58.8165 140.488 58.9336 139.285 59.0391C138.684 59.0899 138.062 59.1524 137.43 59.1954C136.793 59.2422 136.152 59.2891 135.512 59.336C134.867 59.3751 134.223 59.4141 133.59 59.4493C132.957 59.4922 132.332 59.5118 131.73 59.543C130.52 59.5977 129.391 59.6329 128.426 59.6485C126.488 59.6876 125.195 59.6485 125.195 59.6485Z" fill="#9F9375"/>
<path d="M127.035 70.3438C127.035 70.3477 128.313 70.1368 130.238 69.918C131.199 69.8047 132.32 69.6915 133.523 69.586C134.129 69.5352 134.75 69.4727 135.383 69.4258C136.016 69.3829 136.656 69.3321 137.301 69.2852C137.941 69.25 138.586 69.211 139.219 69.1719C139.852 69.129 140.477 69.1094 141.082 69.0782C142.289 69.0235 143.418 68.9883 144.383 68.9727C146.32 68.9336 147.613 68.9766 147.613 68.9727C147.613 68.9727 146.336 69.1875 144.414 69.4024C143.453 69.5157 142.328 69.629 141.125 69.7383C140.523 69.7852 139.902 69.8516 139.27 69.8946C138.637 69.9375 137.992 69.9883 137.348 70.0352C136.707 70.0743 136.062 70.1094 135.43 70.1485C134.797 70.1915 134.172 70.211 133.566 70.2422C132.363 70.293 131.234 70.3282 130.266 70.3438C128.328 70.3868 127.035 70.3438 127.035 70.3438Z" fill="#9F9375"/>
<path d="M125.926 58.0507C125.926 58.0507 126.434 57.8828 127.203 57.7265C127.586 57.6484 128.035 57.5703 128.52 57.5038C128.758 57.4726 129.008 57.4335 129.262 57.4101C129.516 57.3828 129.773 57.3593 130.031 57.332C130.293 57.3163 130.551 57.2968 130.805 57.2812C131.062 57.2617 131.312 57.2617 131.559 57.2499C132.043 57.2382 132.5 57.2382 132.891 57.2578C133.676 57.2812 134.203 57.3632 134.203 57.3632C134.203 57.3632 133.699 57.5312 132.93 57.6835C132.543 57.7656 132.094 57.8437 131.613 57.9101C131.371 57.9374 131.121 57.9804 130.867 58.0038C130.613 58.0273 130.355 58.0546 130.098 58.0781C129.836 58.0976 129.578 58.1132 129.324 58.1288C129.066 58.1484 128.816 58.1484 128.574 58.1601C128.086 58.1718 127.629 58.1718 127.238 58.1562C126.453 58.1328 125.926 58.0507 125.926 58.0507Z" fill="#9F9375"/>
<path d="M136.117 57.3632C136.117 57.3632 136.727 57.1953 137.645 57.039C138.102 56.9609 138.637 56.8828 139.215 56.8163C139.5 56.7851 139.801 56.746 140.102 56.7226C140.406 56.6953 140.715 56.6718 141.02 56.6445C141.328 56.6288 141.637 56.6093 141.941 56.5937C142.246 56.5742 142.547 56.5742 142.832 56.5624C143.414 56.5507 143.957 56.5507 144.422 56.5703C145.352 56.5937 145.977 56.6757 145.977 56.6757C145.977 56.6757 145.367 56.8437 144.453 56.996C143.992 57.0781 143.457 57.1562 142.879 57.2226C142.594 57.2499 142.293 57.2929 141.992 57.3163C141.691 57.3398 141.383 57.3671 141.074 57.3945C140.766 57.4101 140.457 57.4257 140.152 57.4453C139.848 57.4648 139.551 57.4648 139.262 57.4726C138.684 57.4882 138.137 57.4843 137.672 57.4687C136.742 57.4453 136.117 57.3632 136.117 57.3632Z" fill="#9F9375"/>
<path d="M126.258 63.418C126.258 63.418 127.145 63.2071 128.484 62.9883C129.152 62.875 129.934 62.7578 130.773 62.6524C131.191 62.6016 131.629 62.5391 132.066 62.4961C132.512 62.4492 132.957 62.3985 133.406 62.3516C133.859 62.3125 134.305 62.2735 134.75 62.2344C135.191 62.1914 135.629 62.1719 136.051 62.1407C136.895 62.086 137.684 62.0508 138.363 62.0313C139.719 61.9922 140.629 62.0313 140.629 62.0313C140.629 62.0313 139.742 62.2422 138.402 62.461C137.734 62.5742 136.953 62.6914 136.113 62.7969C135.691 62.8477 135.262 62.9102 134.82 62.9571C134.375 63 133.93 63.0508 133.48 63.0977C133.031 63.1367 132.582 63.1758 132.137 63.2149C131.695 63.2539 131.258 63.2774 130.84 63.3086C129.996 63.3633 129.203 63.3985 128.527 63.4141C127.168 63.4571 126.258 63.418 126.258 63.418Z" fill="#9F9375"/>
<path d="M126.258 67.168C126.258 67.168 127.145 66.9571 128.484 66.7383C129.152 66.625 129.934 66.5117 130.773 66.4024C131.191 66.3516 131.629 66.2891 132.066 66.2422C132.512 66.1953 132.957 66.1485 133.406 66.1016C133.859 66.0625 134.305 66.0235 134.75 65.9844C135.191 65.9414 135.629 65.9219 136.051 65.8907C136.895 65.836 137.684 65.8008 138.363 65.7813C139.719 65.7422 140.629 65.7813 140.629 65.7813C140.629 65.7813 139.742 65.9922 138.402 66.211C137.734 66.3242 136.953 66.4414 136.113 66.5469C135.691 66.5977 135.262 66.6641 134.82 66.7032C134.375 66.7539 133.93 66.8008 133.48 66.8477C133.031 66.8867 132.582 66.9258 132.137 66.961C131.695 67.0039 131.258 67.0274 130.84 67.0547C129.996 67.1094 129.203 67.1485 128.527 67.1641C127.168 67.2071 126.258 67.168 126.258 67.168Z" fill="#9F9375"/>
<path d="M129.762 60.5821C129.762 60.5821 130.371 60.4141 131.289 60.2618C131.746 60.1797 132.281 60.1016 132.859 60.0352C133.148 60.004 133.445 59.961 133.746 59.9415C134.051 59.9141 134.359 59.8907 134.668 59.8633C134.973 59.8438 135.281 59.8282 135.586 59.8126C135.891 59.7891 136.187 59.793 136.48 59.7813C137.059 59.7696 137.602 59.7696 138.066 59.7852C138.996 59.8086 139.621 59.8946 139.621 59.8946C139.621 59.8946 139.016 60.0626 138.098 60.2149C137.637 60.2969 137.102 60.3751 136.527 60.4415C136.238 60.4688 135.941 60.5118 135.637 60.5352C135.336 60.5586 135.027 60.586 134.719 60.6094C134.41 60.629 134.102 60.6446 133.797 60.6602C133.496 60.6797 133.195 60.6797 132.906 60.6915C132.324 60.7032 131.781 60.7032 131.32 60.6876C130.387 60.6641 129.762 60.5782 129.762 60.5821Z" fill="#9F9375"/>
<path d="M135.699 67.5117C135.699 67.5117 136.305 67.3437 137.223 67.1874C137.684 67.1093 138.219 67.0312 138.793 66.9648C139.082 66.9335 139.379 66.8945 139.684 66.871C139.984 66.8437 140.293 66.8203 140.602 66.7929C140.91 66.7773 141.219 66.7578 141.523 66.7421C141.824 66.7226 142.125 66.7226 142.414 66.7109C142.992 66.6992 143.535 66.6992 144 66.7187C144.934 66.7421 145.559 66.8242 145.559 66.8242C145.559 66.8242 144.949 66.9921 144.031 67.1445C143.574 67.2265 143.035 67.3046 142.461 67.371C142.172 67.3984 141.875 67.4413 141.57 67.4648C141.27 67.4882 140.961 67.5156 140.652 67.5429C140.344 67.5585 140.039 67.5742 139.734 67.5937C139.43 67.6132 139.129 67.6132 138.84 67.621C138.262 67.6367 137.719 67.6328 137.254 67.6171C136.324 67.5937 135.699 67.5117 135.699 67.5117Z" fill="#9F9375"/>
</svg>
