<svg width="588" height="654" viewBox="0 0 588 654" fill="none" xmlns="http://www.w3.org/2000/svg">
<g clip-path="url(#clip0)">
<path d="M242.146 181.495C248.535 184.478 255.804 184.989 262.549 182.931C269.294 180.874 275.037 176.392 278.668 170.352C275.289 169.89 272.099 168.52 269.439 166.389C266.778 164.258 264.746 161.446 263.558 158.253L265.32 148.314L249.067 135.967L242.208 155.289L249.098 162.667C249.873 166.141 249.629 169.764 248.396 173.103C247.163 176.442 244.993 179.356 242.146 181.495Z" fill="url(#paint0_linear)"/>
<path d="M365.183 181.495C358.794 184.485 351.523 185 344.776 182.942C338.029 180.883 332.287 176.397 328.661 170.352C332.036 169.88 335.221 168.507 337.881 166.377C340.54 164.248 342.574 161.441 343.77 158.253L341.978 148.314L358.261 135.967L365.121 155.289L358.2 162.543C357.403 166.038 357.638 169.69 358.878 173.054C360.117 176.418 362.307 179.35 365.183 181.495Z" fill="url(#paint1_linear)"/>
<path d="M405.783 262.798C406.111 262.751 406.444 262.751 406.772 262.798C434.24 271.039 442.861 321.444 442.861 321.444C442.861 222.671 384.154 225.758 384.154 225.758C391.625 224.312 399.351 224.992 406.453 227.72C413.556 230.449 419.747 235.117 424.322 241.191C418.142 219.584 391.971 206.096 391.971 206.096C364.966 197.361 341.144 213.411 327.703 225.758H279.934C266.494 213.411 242.671 197.361 215.666 206.096C215.666 206.096 189.495 219.584 183.316 241.191C187.891 235.117 194.082 230.449 201.184 227.72C208.286 224.992 216.013 224.312 223.483 225.758C223.483 225.758 164.777 222.671 164.777 321.444C164.777 321.444 173.397 271.101 200.866 262.798C201.194 262.751 201.527 262.751 201.855 262.798C201.855 262.798 141.85 294.59 191.287 405.71C191.287 405.71 180.597 334.007 211.124 302.924C211.124 302.924 167.867 377.004 223.483 463.43C223.483 463.43 215.759 416.05 223.483 389.35C223.483 389.35 217.304 462.875 276.01 503.557C276.01 503.557 255.154 468.523 256.452 434.57C256.452 434.57 264.424 485.5 303.819 525.163C343.214 485.5 351.186 434.57 351.186 434.57C352.483 468.523 331.627 503.557 331.627 503.557C390.334 462.875 384.154 389.35 384.154 389.35C391.879 416.05 384.154 463.43 384.154 463.43C439.771 377.004 396.514 302.924 396.514 302.924C427.01 334.007 416.35 405.71 416.35 405.71C465.787 294.59 405.783 262.798 405.783 262.798ZM387.244 282.12C376.708 260.267 367.531 262.242 367.531 262.242C370.877 261.242 374.443 261.242 377.789 262.242C370.744 249.494 353.843 251.037 353.843 251.037C412.92 223.659 387.244 282.12 387.244 282.12ZM332.987 320.703C332.987 320.703 323.717 295.609 321.4 294.251C321.4 294.251 334.655 273.416 360.795 285.978C360.795 285.978 351.062 304.159 330.978 300.115C330.978 300.115 331.442 316.258 332.987 320.703ZM386.657 235.234C329.248 236.53 328.506 255.143 328.506 255.143L311.358 256.439C332.863 229.832 386.657 235.234 386.657 235.234ZM298.01 256.439L280.861 255.143C280.861 255.143 280.12 236.623 222.711 235.234C222.587 235.234 276.536 229.832 298.01 256.439ZM248.573 285.978C274.713 273.416 287.968 294.251 287.968 294.251C285.743 295.609 276.381 320.703 276.381 320.703C277.926 316.258 278.39 300.115 278.39 300.115C258.306 304.159 248.573 286.009 248.573 286.009V285.978ZM255.525 251.037C255.525 251.037 238.654 249.494 231.579 262.242C234.925 261.242 238.491 261.242 241.837 262.242C241.837 262.242 232.568 260.267 222.124 282.12C222.124 282.12 196.447 223.659 255.525 251.037ZM396.699 361.601L388.789 337.464C376.43 359.07 364.256 426.02 364.256 426.02C362.207 412.873 361.627 399.539 362.525 386.264L331.627 451.083C333.327 447.565 334.717 423.304 334.717 423.304L303.819 457.257L272.921 423.304C272.921 423.304 274.311 447.565 276.01 451.083L245.112 386.264C246.011 399.539 245.43 412.873 243.382 426.02C243.382 426.02 231.208 359.07 218.849 337.464L210.939 361.601C210.939 361.601 204.945 309.128 235.843 284.435C235.843 284.435 210.105 320.734 242.022 355.428C242.022 355.428 247.893 337.865 259.603 336.908C259.912 336.908 237.635 347.989 249.994 369.596L269.831 367.713L251.292 373.886C251.292 373.886 254.382 383.146 257.471 383.146C260.561 383.146 272.921 376.973 272.921 376.973L260.561 386.233C260.561 386.233 266.741 398.58 297.639 376.973V358.453C297.639 358.453 279.1 349.193 276.01 339.933C276.01 339.933 297.639 343.02 303.819 343.02C309.998 343.02 331.627 339.933 331.627 339.933C328.537 349.193 309.998 358.453 309.998 358.453V376.973C340.897 398.58 347.076 386.233 347.076 386.233L334.717 376.973C334.717 376.973 347.076 383.146 350.166 383.146C353.256 383.146 356.346 373.886 356.346 373.886L337.807 367.713L357.643 369.596C370.003 347.989 347.725 336.877 348.034 336.908C359.745 337.803 365.615 355.428 365.615 355.428C397.533 320.734 371.795 284.435 371.795 284.435C402.693 309.097 396.699 361.601 396.699 361.601Z" fill="url(#paint2_linear)"/>
<path d="M315.684 202.67C313.738 201.027 311.672 199.531 309.504 198.194C309.664 198.756 309.747 199.338 309.751 199.923C309.751 201.601 309.084 203.21 307.896 204.397C306.708 205.583 305.097 206.25 303.417 206.25C301.737 206.25 300.126 205.583 298.938 204.397C297.75 203.21 297.083 201.601 297.083 199.923C297.081 199.295 297.175 198.67 297.361 198.071C295.168 199.37 293.099 200.868 291.181 202.546C294.611 205.324 300.265 209.244 303.85 209.244C307.434 209.244 312.47 205.293 315.684 202.67Z" fill="url(#paint3_linear)"/>
<path d="M287.288 203.38L282.221 210.88H298.381C294.362 208.89 290.631 206.367 287.288 203.38Z" fill="url(#paint4_linear)"/>
<path d="M315.035 196.249L303.819 178.964L292.263 196.002C295.492 193.19 299.459 191.359 303.695 190.724C307.952 191.362 311.911 193.291 315.035 196.249Z" fill="url(#paint5_linear)"/>
<path d="M278.451 220.202H329.186C342.658 208.226 365.275 193.873 390.983 201.682L418.266 130.689L387.368 146.122C387.151 171.988 365.399 189.181 347.2 186.249C333.419 184.026 321.214 170.136 319.391 152.295L328.661 133.776L303.942 99.8223L279.224 133.776L288.493 152.295C286.639 170.136 274.465 184.026 260.685 186.249C242.486 189.181 220.703 171.988 220.517 146.122L189.619 130.689L216.902 201.682C242.362 193.873 264.98 208.226 278.451 220.202ZM277.741 211.621L302.459 175.044C302.611 174.815 302.818 174.627 303.061 174.497C303.303 174.367 303.574 174.299 303.85 174.299C304.125 174.299 304.396 174.367 304.639 174.497C304.881 174.627 305.088 174.815 305.24 175.044L328.97 211.621C329.129 211.876 329.213 212.17 329.213 212.47C329.213 212.77 329.129 213.064 328.97 213.319C328.835 213.586 328.627 213.809 328.37 213.962C328.112 214.115 327.817 214.191 327.518 214.183H279.1C278.802 214.184 278.51 214.105 278.254 213.952C277.998 213.8 277.789 213.581 277.648 213.319C277.51 213.053 277.445 212.756 277.461 212.457C277.478 212.158 277.574 211.87 277.741 211.621Z" fill="url(#paint6_linear)"/>
<path d="M324.551 210.88L319.577 203.256C316.414 206.302 312.823 208.871 308.917 210.88H324.551Z" fill="url(#paint7_linear)"/>
<path d="M323.285 388.363C317.251 385.3 310.586 383.684 303.819 383.64C297.051 383.684 290.387 385.3 284.353 388.363C281.469 389.912 279.033 392.176 277.279 394.939C275.526 397.702 274.514 400.869 274.342 404.135C274.17 406.069 274.568 408.011 275.485 409.722C278.575 414.846 288.617 418.241 288.617 418.241C288.617 418.241 287.937 414.383 287.412 411.852C290.502 416.636 303.819 427.748 303.819 427.748C303.819 427.748 317.043 416.636 320.226 411.852C319.701 414.383 319.021 418.241 319.021 418.241C319.021 418.241 329.063 414.846 332.152 409.722C333.07 408.011 333.467 406.069 333.296 404.135C333.123 400.869 332.112 397.702 330.359 394.939C328.605 392.176 326.169 389.912 323.285 388.363Z" fill="url(#paint8_linear)"/>
<path d="M396.792 137.788L303.819 0.679062L210.074 137.788" stroke="white" stroke-width="0.8" stroke-miterlimit="10"/>
<path d="M258.275 139.146L303.819 71.6721L349.208 139.146" stroke="white" stroke-width="0.8" stroke-miterlimit="10"/>
<path d="M196.231 158.037L104.742 291.874H163.541" stroke="white" stroke-width="0.8" stroke-miterlimit="10"/>
<path d="M167.867 273.107L125.32 336.136L303.788 596.403L482.38 337.186L440.173 274.465" stroke="white" stroke-width="0.8" stroke-miterlimit="10"/>
<path d="M410.974 158.716L501.258 291.874H443.942" stroke="white" stroke-width="0.8" stroke-miterlimit="10"/>
<path d="M176.642 376.139L147.999 414.352L303.819 653.29L452.841 416.389L429.049 382.868" stroke="white" stroke-width="0.8" stroke-miterlimit="10"/>
<path d="M372.815 174.303L364.194 161.432" stroke="white" stroke-width="0.8" stroke-miterlimit="10"/>
<path d="M234.545 174.303L243.104 161.617" stroke="white" stroke-width="0.8" stroke-miterlimit="10"/>
</g>
<path d="M2.496 338.872H4.896C7.104 338.872 8.784 337.216 8.784 334.24C8.784 331.504 7.2 329.992 4.368 329.992H0.888V346H2.496V338.872ZM2.496 331.432H4.344C6.072 331.432 7.104 332.272 7.104 334.24C7.104 336.256 6.24 337.384 4.752 337.408L2.496 337.432V331.432Z" fill="white"/>
<path d="M16.5746 339.208V334.936H19.1666C20.6066 334.936 21.2786 335.776 21.2786 336.904C21.2786 338.32 20.2466 339.208 18.6866 339.208H16.5746ZM14.9666 346H16.5746V340.648H18.9026L22.0946 346.312L23.4866 345.472L20.4146 340.408C21.9266 339.952 22.9586 338.44 22.9586 336.904C22.9586 334.48 21.3026 333.496 19.2146 333.496H14.9666V346Z" fill="white"/>
<path d="M30.4132 346H35.5493V344.56H33.7733V334.936H35.5493V333.496H30.4132V334.936H32.1652V344.56H30.4132V346Z" fill="white"/>
<path d="M43.0279 334.936H44.3239V344.56H43.0279V346H47.2039C51.6919 346 52.3639 343.504 52.3639 339.592C52.3639 334.96 50.7559 333.496 47.2039 333.496H43.0279V334.936ZM45.9319 334.936H47.5879C49.5799 334.936 50.6839 335.92 50.6839 339.76C50.6839 343.36 49.7479 344.56 47.6359 344.56H45.9319V334.936Z" fill="white"/>
<path d="M58.3305 346H66.1305V344.56H59.9385V340.12H65.0505V338.68H59.9385V334.936H66.1305V333.496H58.3305V346Z" fill="white"/>
<path d="M536.224 346H537.832V338.152H543.088V336.712H537.832V331.432H544.096V329.992H536.224V346Z" fill="white"/>
<path d="M553.591 333.28C551.527 333.28 549.151 334.768 549.151 339.76C549.151 344.776 551.575 346.216 553.591 346.216C557.959 346.216 558.031 340.768 558.031 339.76C558.031 334.72 555.583 333.28 553.591 333.28ZM553.591 334.792C556.015 334.792 556.351 337.912 556.351 339.76C556.351 341.584 556.015 344.704 553.591 344.704C551.167 344.704 550.831 341.584 550.831 339.76C550.831 337.912 551.167 334.792 553.591 334.792Z" fill="white"/>
<path d="M563.805 346H565.413V338.776L565.269 335.512L565.317 335.464L570.165 346H572.157V333.496H570.549V340.744L570.693 343.984L570.645 344.032L565.797 333.496H563.805V346Z" fill="white"/>
<path d="M578.028 334.936H579.324V344.56H578.028V346H582.204C586.692 346 587.364 343.504 587.364 339.592C587.364 334.96 585.756 333.496 582.204 333.496H578.028V334.936ZM580.932 334.936H582.588C584.58 334.936 585.684 335.92 585.684 339.76C585.684 343.36 584.748 344.56 582.636 344.56H580.932V334.936Z" fill="white"/>
<defs>
<linearGradient id="paint0_linear" x1="188.5" y1="128.5" x2="481.5" y2="477.5" gradientUnits="userSpaceOnUse">
<stop stop-color="#FFDAA0"/>
<stop offset="1" stop-color="#624E29"/>
</linearGradient>
<linearGradient id="paint1_linear" x1="188.5" y1="128.5" x2="481.5" y2="477.5" gradientUnits="userSpaceOnUse">
<stop stop-color="#FFDAA0"/>
<stop offset="1" stop-color="#624E29"/>
</linearGradient>
<linearGradient id="paint2_linear" x1="188.5" y1="128.5" x2="481.5" y2="477.5" gradientUnits="userSpaceOnUse">
<stop stop-color="#FFDAA0"/>
<stop offset="1" stop-color="#624E29"/>
</linearGradient>
<linearGradient id="paint3_linear" x1="188.5" y1="128.5" x2="481.5" y2="477.5" gradientUnits="userSpaceOnUse">
<stop stop-color="#FFDAA0"/>
<stop offset="1" stop-color="#624E29"/>
</linearGradient>
<linearGradient id="paint4_linear" x1="188.5" y1="128.5" x2="481.5" y2="477.5" gradientUnits="userSpaceOnUse">
<stop stop-color="#FFDAA0"/>
<stop offset="1" stop-color="#624E29"/>
</linearGradient>
<linearGradient id="paint5_linear" x1="188.5" y1="128.5" x2="481.5" y2="477.5" gradientUnits="userSpaceOnUse">
<stop stop-color="#FFDAA0"/>
<stop offset="1" stop-color="#624E29"/>
</linearGradient>
<linearGradient id="paint6_linear" x1="188.5" y1="128.5" x2="481.5" y2="477.5" gradientUnits="userSpaceOnUse">
<stop stop-color="#FFDAA0"/>
<stop offset="1" stop-color="#624E29"/>
</linearGradient>
<linearGradient id="paint7_linear" x1="188.5" y1="128.5" x2="481.5" y2="477.5" gradientUnits="userSpaceOnUse">
<stop stop-color="#FFDAA0"/>
<stop offset="1" stop-color="#624E29"/>
</linearGradient>
<linearGradient id="paint8_linear" x1="188.5" y1="128.5" x2="481.5" y2="477.5" gradientUnits="userSpaceOnUse">
<stop stop-color="#FFDAA0"/>
<stop offset="1" stop-color="#624E29"/>
</linearGradient>
<clipPath id="clip0">
<rect width="398" height="654" fill="white" transform="translate(104)"/>
</clipPath>
</defs>
</svg>
