<svg width="26" height="24" viewBox="0 0 26 24" fill="none" xmlns="http://www.w3.org/2000/svg">
<path fill-rule="evenodd" clip-rule="evenodd" d="M11.4243 10.2259C10.2435 10.7084 9.23976 11.4399 8.72314 12.4828C9.8597 10.148 12.1771 8.01565 14.8488 8.00009C17.5204 7.98452 19.8378 10.0858 21.0039 12.4205C20.4873 11.3777 19.4688 10.6461 18.2879 10.1947C18.716 10.7862 18.9817 11.4866 18.9817 12.2493C18.9965 14.3039 17.1514 15.9849 14.8783 15.9849C12.6052 16.0004 10.7601 14.335 10.7453 12.2804C10.7453 11.5178 10.9963 10.8173 11.4243 10.2259ZM17.8008 12.2493C17.8008 13.4478 16.6791 14.7397 14.8783 14.7397C13.0775 14.7553 11.9262 13.4789 11.9262 12.2804C11.9262 11.0819 13.048 9.79005 14.8488 9.79005C16.6643 9.77448 17.8008 11.0508 17.8008 12.2493ZM15.7787 12.2493C15.7787 12.7785 15.3801 13.1988 14.8783 13.1988C14.3764 13.1988 13.9779 12.7785 13.9631 12.2493C13.9631 11.7201 14.3617 11.2998 14.8635 11.2998C15.3654 11.2998 15.7639 11.7357 15.7787 12.2493Z" fill="#ECC289"/>
<path d="M25.1512 13.6604H21.4627L22.5014 18.0091C21.4627 20.4702 19.3408 21.9663 14.7467 21.9663C9.85466 21.9663 6.31779 17.3133 6.31779 12.0004C6.31779 6.72105 8.72766 1.78763 14.4051 1.78763C18.2815 1.78763 20.0634 3.86452 21.2746 5.37851L23.2899 2.70709C21.2746 1.5072 19.6 0 14.4051 0C7.68238 0 2.58643 5.376 2.58643 12.0004C2.58643 19.2908 8.57874 24 14.7467 24C21.1827 24 22.8313 21.7481 24.7713 20.2192L25.1512 13.6604Z" fill="#ECC289"/>
<rect x="8.01733" y="8.94486" width="2.20525" height="8.0174" transform="rotate(90 8.01733 8.94486)" fill="#ECC289"/>
<rect x="8.01733" y="12.8495" width="2.20525" height="8.0174" transform="rotate(90 8.01733 12.8495)" fill="#ECC289"/>
</svg>
