<svg width="23" height="22" viewBox="0 0 23 22" fill="none" xmlns="http://www.w3.org/2000/svg">
<path fill-rule="evenodd" clip-rule="evenodd" d="M22.8756 15.6861L22.2564 16.7181C21.0989 18.4463 19.4606 19.7977 17.5437 20.6052L15.8581 21.1556L13.8286 21.3964C13.347 21.3964 12.8654 21.362 12.3838 21.362C11.6958 21.2244 11.0078 21.0868 10.3542 20.9492L9.18465 20.6052L8.97826 20.502C7.78105 19.9792 6.6951 19.2319 5.77911 18.3005L5.60711 18.0941C4.61489 17.1617 3.8398 16.0226 3.33676 14.7573C2.8065 13.493 2.52614 12.1379 2.51117 10.767C2.51393 9.8256 2.64116 8.8887 2.88955 7.98066C3.13131 7.11062 3.49005 6.27743 3.95594 5.5039C4.39965 4.71645 4.95591 3.99796 5.60712 3.37116L5.64153 3.33676L5.77912 3.16476C6.7569 2.18631 7.91286 1.40399 9.18466 0.86C9.21906 0.86 9.70065 0.68801 9.70065 0.68801C9.74842 0.68626 9.79528 0.67454 9.83825 0.65361C10.141 0.57764 10.4395 0.48578 10.7326 0.37839C11.283 0.30959 11.8334 0.20639 12.3838 0.1032H12.487C12.5902 0.1032 12.6934 0.0688 12.831 0.0688H12.9686L13.003 0.0344H13.3126C13.3311 0.0157 13.3553 0.00361 13.3814 0L15.8581 0.30959L16.5805 0.55039L16.7181 0.58479L16.8557 0.65359L17.0965 0.72239L17.5437 0.85998C18.19 1.11658 18.8023 1.45161 19.3669 1.85757L20.0205 2.37356L20.2269 2.54556L20.3989 2.68315L20.9492 3.16474L21.6372 3.95593L21.9812 4.36872L22.1532 4.57512L22.2564 4.74712L22.394 4.91911L22.6348 5.26311H22.6004C22.2908 5.4007 21.6716 5.6415 20.4333 6.15749L19.9861 6.32949L19.6421 5.6071C18.3005 3.13035 15.9613 1.51357 13.347 1.51357C9.11585 1.51357 5.71031 5.6415 5.71031 10.767C5.71031 15.8926 9.11585 20.0205 13.347 20.0205C15.9613 20.0205 18.3005 18.4037 19.6421 15.927L20.1924 14.7918L20.5708 14.895C20.9492 15.0326 21.362 15.1702 21.7748 15.3078L22.8756 15.6861Z" fill="#ECC289"/>
<path d="M16.3397 10.0447V12.8998H15.1357V10.3887C15.1357 9.9071 14.9293 9.6663 14.5854 9.6663C14.4248 9.6588 14.2667 9.7074 14.1382 9.8039C14.0198 9.9083 13.9259 10.0375 13.863 10.1823V12.8998H12.659V10.1823C12.6625 10.1132 12.6522 10.0441 12.6285 9.9791C12.6049 9.9141 12.5685 9.8545 12.5214 9.8039C12.4795 9.7548 12.4263 9.7167 12.3664 9.6927C12.3064 9.6687 12.2416 9.6597 12.1774 9.6663C12.0062 9.6587 11.8372 9.707 11.6958 9.8039C11.5576 9.8886 11.4586 10.0247 11.4206 10.1823V12.8998H10.2167V8.63429H11.4206V8.90949C11.5545 8.77482 11.7163 8.67115 11.8946 8.60577C12.0729 8.5404 12.2634 8.51491 12.4526 8.5311C12.6595 8.53019 12.8644 8.57256 13.0539 8.6555C13.2435 8.73843 13.4136 8.8601 13.5534 9.0127C13.691 8.85738 13.8607 8.73387 14.0508 8.65071C14.2409 8.56755 14.4467 8.52673 14.6542 8.5311C15.0978 8.51392 15.5343 8.64728 15.8926 8.90949C16.0398 9.0587 16.1554 9.2363 16.2322 9.4313C16.3091 9.6264 16.3457 9.8351 16.3397 10.0447Z" fill="#ECC289"/>
<path fill-rule="evenodd" clip-rule="evenodd" d="M7.05197 8.35913V10.2853H0V8.35913H7.05197Z" fill="#ECC289"/>
<path fill-rule="evenodd" clip-rule="evenodd" d="M7.05197 11.1799V13.1061H0V11.1799H7.05197Z" fill="#ECC289"/>
</svg>
