<svg width="26" height="24" viewBox="0 0 26 24" fill="none" xmlns="http://www.w3.org/2000/svg">
<path d="M25.1512 13.6604H21.4627L22.5014 18.0091C21.4627 20.4702 19.3408 21.9663 14.7467 21.9663C9.85466 21.9663 6.31779 17.3133 6.31779 12.0004C6.31779 6.72105 8.72766 1.78763 14.4051 1.78763C18.2815 1.78763 20.0634 3.86452 21.2746 5.37851L23.2899 2.70709C21.2746 1.5072 19.6 0 14.4051 0C7.68238 0 2.58643 5.376 2.58643 12.0004C2.58643 19.2908 8.57874 24 14.7467 24C21.1827 24 22.8313 21.7481 24.7713 20.2192L25.1512 13.6604Z" fill="#ECC289"/>
<rect x="8.01758" y="8.94486" width="2.20525" height="8.0174" transform="rotate(90 8.01758 8.94486)" fill="#ECC289"/>
<rect x="8.01758" y="12.8497" width="2.20525" height="8.0174" transform="rotate(90 8.01758 12.8497)" fill="#ECC289"/>
<path d="M17.1822 15.0651H19.039V11.4857C19.039 10.0428 18.4014 9.3381 17.2493 9.3381C16.4327 9.3381 15.8623 9.7296 15.5714 10.356C15.3142 9.67367 14.7549 9.3381 13.9943 9.3381C13.2225 9.3381 12.6856 9.74078 12.4842 10.3448V9.47233H10.6274V15.0651H12.4842V11.8772C12.4842 11.139 12.7862 10.7139 13.2896 10.7139C13.7035 10.7139 13.9048 10.9824 13.9048 11.5081V15.0651H15.7616V11.8772C15.7616 11.139 16.0636 10.7139 16.567 10.7139C16.9808 10.7139 17.1822 10.9824 17.1822 11.5081V15.0651Z" fill="#ECC289"/>
</svg>
