<svg width="293" height="61" viewBox="0 0 293 61" fill="none" xmlns="http://www.w3.org/2000/svg">
<g opacity="0.15">
<path opacity="0.5" d="M293 15.6327C270.737 20.569 248.018 23.5595 221.983 23.5595C182.95 23.5595 175.899 4.20654 156.135 4.20654C136.371 4.20654 137.481 22.4585 70.4328 22.4585C44.1158 22.4585 25.0038 16.2964 6.10352e-05 15.6327V52.6217C6.10352e-05 57.04 3.58179 60.6217 8.00006 60.6217H285C289.418 60.6217 293 57.04 293 52.6217V15.6327Z" fill="#626262"/>
<path opacity="0.5" d="M293 38.7295C293 38.7295 267.605 16.1092 236.918 16.1092C206.231 16.1092 187.887 33.4458 158.619 33.4458C129.336 33.4458 111.3 0.887939 74.6116 0.887939C37.923 0.887939 6.10352e-05 34.7741 6.10352e-05 34.7741V52.6217C6.10352e-05 57.04 3.58179 60.6217 8.00006 60.6217H285C289.418 60.6217 293 57.04 293 52.6217V38.7295Z" fill="#626262"/>
<path opacity="0.5" d="M0 40.9901C0 40.9901 20.2255 31.3216 45.3878 31.3216C70.5502 31.3216 99.23 47.1557 119.687 47.1557C140.144 47.1557 149.724 32.6856 174.717 32.6856C199.694 32.6856 212.561 44.122 238.201 44.122C263.842 44.122 271.602 18.5867 293 18.5867V52.6217C293 57.04 289.418 60.6217 285 60.6217H8C3.58172 60.6217 0 57.04 0 52.6217V40.9901Z" fill="#626262"/>
</g>
</svg>
