<svg width="293" height="70" viewBox="0 0 293 70" fill="none" xmlns="http://www.w3.org/2000/svg">
<g opacity="0.15">
<path opacity="0.5" d="M293 41.3744C293 41.3744 261.044 35.9649 222.044 35.9649C183.043 35.9649 175.999 18.3268 156.252 18.3268C136.505 18.3268 113.49 30.7568 66.9667 30.7568C20.459 30.7568 0.249664 0.847412 0.249664 0.847412V61.7432C0.249664 66.1614 3.83139 69.7432 8.24966 69.7432H285C289.418 69.7432 293 66.1614 293 61.7432V41.3744Z" fill="#EA5050"/>
<path opacity="0.5" d="M293 47.6707C293 47.6707 267.627 24.8642 236.966 24.8642C206.305 24.8642 187.976 42.3436 158.733 42.3436C129.475 42.3436 111.455 9.5177 74.7977 9.5177C38.1403 9.5177 0.249664 43.6828 0.249664 43.6828V61.7432C0.249664 66.1615 3.83139 69.7432 8.24966 69.7432H285C289.418 69.7432 293 66.1614 293 61.7432V47.6707Z" fill="#EA5050"/>
<path opacity="0.5" d="M293 51.8968C293 51.8968 272.791 43.1075 247.648 43.1075C222.506 43.1075 193.849 57.5017 173.409 57.5017C152.968 57.5017 143.395 44.3475 118.423 44.3475C93.4655 44.3475 80.6092 54.7439 54.9891 54.7439C29.369 54.7439 21.6152 31.5306 0.234253 31.5306V61.7432C0.234253 66.1614 3.81598 69.7432 8.23425 69.7432H285C289.418 69.7432 293 66.1614 293 61.7432V51.8968Z" fill="#EA5050"/>
</g>
</svg>
