<svg width="293" height="70" viewBox="0 0 293 70" fill="none" xmlns="http://www.w3.org/2000/svg">
<g opacity="0.15">
<path opacity="0.5" d="M0.19873 41.3744C0.19873 41.3744 32.1583 35.9649 71.1635 35.9649C110.169 35.9649 117.214 18.3268 136.964 18.3268C156.713 18.3268 179.731 30.7568 226.259 30.7568C272.773 30.7568 292.984 0.847412 292.984 0.847412V61.7432C292.984 66.1614 289.403 69.7432 284.984 69.7432H8.19873C3.78045 69.7432 0.19873 66.1614 0.19873 61.7432V41.3744Z" fill="#03D99D"/>
<path opacity="0.5" d="M0.19873 47.6707C0.19873 47.6707 25.5752 24.8642 56.2398 24.8642C86.9044 24.8642 105.235 42.3436 134.482 42.3436C163.743 42.3436 181.766 9.5177 218.427 9.5177C255.089 9.5177 292.984 43.6828 292.984 43.6828V61.7432C292.984 66.1615 289.403 69.7432 284.984 69.7432H8.19873C3.78045 69.7432 0.19873 66.1614 0.19873 61.7432V47.6707Z" fill="#03D99D"/>
<path opacity="0.5" d="M0.19873 51.8968C0.19873 51.8968 20.4105 43.1075 45.5558 43.1075C70.701 43.1075 99.3614 57.5017 119.804 57.5017C140.247 57.5017 149.822 44.3475 174.797 44.3475C199.757 44.3475 212.615 54.7439 238.238 54.7439C263.862 54.7439 271.616 31.5306 293 31.5306V61.7432C293 66.1614 289.418 69.7432 285 69.7432H8.19875C3.78047 69.7432 0.19873 66.1614 0.19873 61.7432V51.8968Z" fill="#03D99D"/>
</g>
</svg>
