<svg width="21" height="22" viewBox="0 0 21 22" fill="none" xmlns="http://www.w3.org/2000/svg">
<rect x="17.9517" y="0.5" width="21" height="15.7742" rx="0.5" transform="rotate(90 17.9517 0.5)" stroke="#8C8C8C"/>
<rect x="0.5" y="3.03845" width="19.129" height="15.9231" rx="0.5" fill="#262626" stroke="#8C8C8C"/>
<path d="M13.0813 9.52935C12.823 8.41581 11.9541 7.37335 10.3102 7.37335C8.56068 7.37335 7.35126 8.78304 7.35126 11.0693C7.35126 13.4386 8.63113 14.7535 10.3102 14.7535C11.6018 14.7535 12.6938 14.0309 13.0461 12.5975H13.868C13.4923 14.3389 12.2594 15.5117 10.3337 15.5117C7.89138 15.5117 6.51758 13.6874 6.51758 11.0693C6.51758 8.47504 7.85616 6.6152 10.2985 6.6152C12.3181 6.6152 13.5275 7.81166 13.9033 9.52935H13.0813Z" fill="#8C8C8C"/>
</svg>
