<svg width="34" height="34" viewBox="0 0 34 34" fill="none" xmlns="http://www.w3.org/2000/svg">
<path d="M11.1407 10.8889C11.0908 8.64549 12.8958 6.8 15.1397 6.8H18.8599C21.1039 6.8 22.9088 8.64549 22.8589 10.8889L22.7924 13.8847C22.7224 17.0337 20.1496 19.55 16.9998 19.55V19.55C13.85 19.55 11.2772 17.0337 11.2072 13.8847L11.1407 10.8889Z" stroke="#8C8C8C"/>
<path d="M27.3217 29.75L27.0871 26.7C26.8769 23.9673 24.5982 21.8571 21.8574 21.8571V21.8571H19.1252M6.61133 29.75L6.87233 26.6966C7.10628 23.9597 9.39618 21.8571 12.1431 21.8571V21.8571H14.8752" stroke="#8C8C8C"/>
<path d="M13.3574 21.8571V21.8571C13.3574 23.869 14.9884 25.5 17.0003 25.5V25.5V25.5C19.0122 25.5 20.6431 23.869 20.6431 21.8571V21.8571" stroke="#8C8C8C"/>
<circle cx="17" cy="17" r="16.5" stroke="#8C8C8C"/>
<path d="M11.0498 12.75C11.0498 12.75 14.0248 11.05 16.9998 11.05C19.9748 11.05 22.9498 12.75 22.9498 12.75" stroke="#8C8C8C" stroke-linecap="round" stroke-linejoin="round"/>
<path d="M19.5502 22.1V19.55H14.4502V22.1" stroke="#8C8C8C"/>
</svg>
