<svg width="34" height="50" viewBox="0 0 34 50" fill="none" xmlns="http://www.w3.org/2000/svg">
<path d="M26.2068 23.7289L24.6339 24.4777L26.3645 24.677C28.11 24.8781 29.8913 25.5884 31.2321 26.9411C32.5646 28.2855 33.5 30.3023 33.5 33.1967C33.5 35.554 32.6218 38.145 30.6486 40.1449C28.6824 42.1376 25.5918 43.5806 21.0964 43.5806H19.8792H19.3792V44.0806V49.5H16.0719V44.0806V43.5806H15.5719H12.306H11.806V44.0806V49.5H8.29039V44.0806V43.5806H7.7904H7.79026H7.78971H7.78731L7.77747 43.5806L7.73818 43.5805L7.58545 43.5798C7.45232 43.579 7.25883 43.5774 7.0182 43.5742C6.53682 43.5678 5.86739 43.5551 5.11544 43.5296C3.8101 43.4854 2.27428 43.4033 1.04249 43.2528L1.9993 39.7588C2.893 39.9134 3.75534 39.9961 4.42289 40.0406C4.8145 40.0667 5.14127 40.0797 5.37086 40.0863C5.48571 40.0896 5.57636 40.0912 5.6388 40.0921L5.71083 40.0928L5.73005 40.0929L5.7353 40.0929L5.73681 40.0929H5.73729H5.73746C5.73752 40.0929 5.73758 40.0929 5.73758 39.5929L5.73758 40.0929H6.23758V39.5929V10.4079V9.90786H5.73758H0.5V6.83003H7.79039H8.29039V6.33003V0.5H11.7717V6.33003V6.83003H12.2717H15.5719H16.0719V6.33003V0.5H19.3792V6.33003V6.83003H19.8792H19.8863C25.8194 6.83003 29.9262 10.7633 30.2125 14.9909C30.3887 17.5929 30.133 19.4071 29.481 20.7445C28.8373 22.0648 27.777 22.9813 26.2068 23.7289ZM11.862 9.90786H11.362V10.4079V21.8331V22.3331H11.862H16.5904C21.5434 22.3331 24.0542 19.2006 24.0542 16.1885C24.0542 14.73 23.5582 13.1627 22.4889 11.9533C21.4097 10.7328 19.7732 9.90786 17.5651 9.90786H11.862ZM11.362 40.0929H11.862H19.5474C21.1508 40.0929 22.992 39.8217 24.4435 38.8019C25.9277 37.7591 26.9217 35.9934 26.9217 33.1967C26.9217 31.1034 26.0071 29.5473 24.663 28.5281C23.3342 27.5206 21.6059 27.0503 19.9571 27.0503H11.862H11.362V27.5503V39.5929V40.0929Z" stroke="#ECC289"/>
</svg>
