<svg width="36" height="50" viewBox="0 0 36 50" fill="none" xmlns="http://www.w3.org/2000/svg">
<path d="M20.9646 49.4358L20.938 44.2317L20.9353 43.705L20.4095 43.7351C19.8832 43.7651 19.3417 43.7943 18.803 43.7943C18.4186 43.7943 18.0613 43.794 17.7362 43.7661L17.1907 43.7193L17.1935 44.2668L17.2201 49.4741L14.5999 49.4959L14.5731 43.6614L14.5713 43.2812L14.2045 43.1813C6.57857 41.1033 0.557648 33.9293 0.500104 25.8541V25.8258V24.9249L0.500107 24.6246L0.500101 24.6229C0.47175 16.5162 6.40779 9.28434 14.0328 7.14813L14.3996 7.04537L14.3979 6.66446L14.3709 0.555912L16.9891 0.534195V6.00601V6.50601H17.4891C17.6892 6.50601 17.8803 6.49814 18.0601 6.49074L18.0644 6.49057C18.2483 6.483 18.4207 6.47598 18.5986 6.47598C19.1563 6.47598 19.6964 6.47612 20.2051 6.50519L20.7362 6.53554L20.7336 6.00356L20.7069 0.52588L23.3294 0.504127L23.3833 6.46098L23.3869 6.86622L23.7842 6.94654C30.0225 8.20787 33.0203 11.8226 35.1196 14.6104L31.7154 15.9553C31.596 15.7584 31.4708 15.5559 31.3471 15.3561L31.3458 15.354L31.3449 15.3525L31.3284 15.3257C30.4571 13.9067 29.3224 12.0587 27.3918 10.5791C25.4345 9.07914 22.6965 7.98311 18.6551 7.9985L18.6549 7.9985C14.8596 8.01431 11.493 10.0688 9.09511 13.1381C6.69732 16.2074 5.23714 20.3252 5.25191 24.5654L5.2519 25.8258L5.25192 25.8294C5.28191 30.0548 6.77969 34.1499 9.20393 37.1922C11.6281 40.2345 15.01 42.2575 18.8051 42.2417L18.8067 42.2417C22.9036 42.2109 25.7147 40.9489 27.6985 39.337C29.658 37.7449 30.7828 35.8316 31.5414 34.541L31.5497 34.5269C31.6359 34.3933 31.7089 34.2669 31.7718 34.1577L35.2086 35.46C33.138 38.2707 30.1655 41.8912 23.9527 43.235L23.5565 43.3207L23.5584 43.7261L23.5853 49.4141L20.9646 49.4358ZM13.949 22.5202L14.9986 21.1056L13.3624 21.7578C12.7681 21.9946 12.1913 22.2635 11.6432 22.5671C13.9716 20.1507 17.0223 18.4467 20.3241 18.4279C23.6209 18.4092 26.6673 20.0704 29.0106 22.4606C28.4634 22.1688 27.8889 21.9137 27.2988 21.6937L25.716 21.1035L26.7226 22.4601C27.5156 23.5289 27.9964 24.778 27.9964 26.1261L27.9964 26.1298C28.0231 29.7586 24.6597 32.8333 20.3796 32.8333L20.3763 32.8333C16.0995 32.8619 12.7323 29.8176 12.7044 26.1843C12.7049 24.8305 13.1607 23.5827 13.949 22.5202ZM20.3818 31.4309C24.1745 31.4299 26.6606 28.7563 26.6606 26.1261C26.6606 23.4874 24.1351 20.8504 20.3191 20.8814C16.5264 20.8824 14.0402 23.556 14.0402 26.1862C14.0402 28.8265 16.5966 31.4619 20.3818 31.4309ZM21.6606 26.1335C21.6569 26.8881 21.0807 27.458 20.3796 27.458C19.6805 27.458 19.0949 26.8873 19.0694 26.119C19.073 25.3643 19.6492 24.7943 20.3504 24.7943C21.0441 24.7943 21.6349 25.3891 21.6606 26.1335Z" stroke="#ECC289"/>
</svg>
