<svg width="39" height="24" viewBox="0 0 39 24" fill="none" xmlns="http://www.w3.org/2000/svg">
<circle cx="27" cy="12" r="11.5" stroke="#222222"/>
<path d="M32 9.13636C31.5 8.34091 29.9 6.75 27.5 6.75C24.5 6.75 22 9.13636 22 12C22 14.8636 24.5 17.25 27.5 17.25C29.9 17.25 31.5 15.6591 32 14.8636" stroke="#222222"/>
<path d="M26.0001 5V6.75" stroke="#222222"/>
<path d="M26.0002 17.25V19" stroke="#222222"/>
<path d="M29.0002 5V6.75" stroke="#222222"/>
<path d="M29.0002 17.25V19" stroke="#222222"/>
<path d="M29.5002 12.25C29.5002 12.9801 28.7147 13.75 27.5002 13.75C26.2858 13.75 25.5002 12.9801 25.5002 12.25C25.5002 11.5199 26.2858 10.75 27.5002 10.75C28.7147 10.75 29.5002 11.5199 29.5002 12.25Z" stroke="#222222"/>
<path d="M30.7056 12.2568C30.1638 11.3328 28.9324 10.6875 27.5001 10.6875C26.0678 10.6875 24.8365 11.3328 24.2947 12.2568" stroke="#222222"/>
<path d="M13 5.5L4 5.5" stroke="#222222"/>
<path d="M12 15.5L3 15.5" stroke="#222222"/>
<path d="M10 10.5H8" stroke="#222222"/>
<path d="M6 10.5H0" stroke="#222222"/>
<path d="M14 19.5H8" stroke="#222222"/>
</svg>
