<svg width="23" height="32" viewBox="0 0 23 32" fill="none" xmlns="http://www.w3.org/2000/svg">
<path d="M8.8 21.12H9.8V20.12H8.8V21.12ZM1.88 21.12V20.12H0.88V21.12H1.88ZM16.24 15.12L15.9634 14.159L16.0219 16.0959L16.24 15.12ZM2.72 10.04H1.72V11.04H2.72V10.04ZM9.4 10.04V11.04H10.4V10.04H9.4ZM8.76 12.64V11.64H7.76V12.64H8.76ZM8.76 17.92H7.76V18.92H8.76V17.92ZM11.64 24.16C10.9247 24.16 10.5265 23.9417 10.2832 23.6498C10.0139 23.3267 9.8 22.7516 9.8 21.8H7.8C7.8 23.0084 8.06607 24.1133 8.74678 24.9302C9.45352 25.7783 10.4753 26.16 11.64 26.16V24.16ZM9.8 21.8V21.12H7.8V21.8H9.8ZM8.8 20.12H1.88V22.12H8.8V20.12ZM0.88 21.12V22.08H2.88V21.12H0.88ZM0.88 22.08C0.88 24.8715 1.95232 27.2544 3.88592 28.9264C5.806 30.5867 8.49593 31.48 11.64 31.48V29.48C8.86407 29.48 6.674 28.6933 5.19408 27.4136C3.72768 26.1456 2.88 24.3285 2.88 22.08H0.88ZM11.64 31.48C14.7655 31.48 17.4542 30.586 19.378 28.9274C21.3153 27.2571 22.4 24.8747 22.4 22.08H20.4C20.4 24.3253 19.5447 26.1429 18.072 27.4126C16.5858 28.694 14.3946 29.48 11.64 29.48V31.48ZM22.4 22.08C22.4 20.1021 21.9212 18.3316 20.9039 16.932C19.8791 15.5222 18.3665 14.5706 16.4581 14.1441L16.0219 16.0959C17.5135 16.4294 18.5809 17.1378 19.2861 18.108C19.9988 19.0884 20.4 20.4179 20.4 22.08H22.4ZM16.5166 16.081C17.9994 15.6541 19.2812 14.8797 20.1871 13.6839C21.094 12.4868 21.56 10.9522 21.56 9.12H19.56C19.56 10.6078 19.186 11.6932 18.5929 12.4761C17.9988 13.2603 17.1206 13.8259 15.9634 14.159L16.5166 16.081ZM21.56 9.12C21.56 6.63276 20.611 4.4511 18.844 2.90288C17.088 1.36422 14.6056 0.52 11.64 0.52V2.52C14.2344 2.52 16.212 3.25578 17.526 4.40712C18.829 5.5489 19.56 7.16724 19.56 9.12H21.56ZM11.64 0.52C8.66249 0.52 6.17348 1.34007 4.41564 2.90259C2.64497 4.47651 1.72 6.71286 1.72 9.32H3.72C3.72 7.20714 4.45503 5.54348 5.74436 4.39741C7.04652 3.23993 9.01751 2.52 11.64 2.52V0.52ZM1.72 9.32V10.04H3.72V9.32H1.72ZM2.72 11.04H9.4V9.04H2.72V11.04ZM10.4 10.04V9.52H8.4V10.04H10.4ZM10.4 9.52C10.4 8.77342 10.5717 8.36929 10.744 8.16518C10.8928 7.98902 11.144 7.84 11.64 7.84V5.84C10.696 5.84 9.82722 6.15098 9.21597 6.87482C8.62833 7.5707 8.4 8.50658 8.4 9.52H10.4ZM11.64 7.84C12.1074 7.84 12.3494 7.9833 12.4968 8.16018C12.6684 8.36618 12.84 8.77377 12.84 9.52H14.84C14.84 8.50622 14.6116 7.57382 14.0332 6.87981C13.4306 6.1567 12.5726 5.84 11.64 5.84V7.84ZM12.84 9.52C12.84 10.5428 12.5819 10.9964 12.3318 11.221C12.0599 11.4652 11.5774 11.64 10.72 11.64V13.64C11.7826 13.64 12.8601 13.4348 13.6682 12.709C14.4981 11.9636 14.84 10.8572 14.84 9.52H12.84ZM10.72 11.64H8.76V13.64H10.72V11.64ZM7.76 12.64V17.92H9.76V12.64H7.76ZM8.76 18.92H10.72V16.92H8.76V18.92ZM10.72 18.92C11.9945 18.92 12.588 19.1498 12.9008 19.46C13.2134 19.77 13.48 20.3938 13.48 21.8H15.48C15.48 20.2462 15.2066 18.93 14.3092 18.04C13.412 17.1502 12.1255 16.92 10.72 16.92V18.92ZM13.48 21.8C13.48 22.7516 13.2661 23.3267 12.9968 23.6498C12.7535 23.9417 12.3553 24.16 11.64 24.16V26.16C12.8047 26.16 13.8265 25.7783 14.5332 24.9302C15.2139 24.1133 15.48 23.0084 15.48 21.8H13.48Z" fill="white"/>
</svg>
