<svg width="22" height="32" viewBox="0 0 22 32" fill="none" xmlns="http://www.w3.org/2000/svg">
<path d="M20.04 9.16V10.16H21.1178L21.0372 9.08521L20.04 9.16ZM7.96 14.08L6.96011 14.0648L6.90234 17.8778L8.82378 14.5839L7.96 14.08ZM13.24 9.16L12.2412 9.20872L12.2876 10.16H13.24V9.16ZM21.0372 9.08521C20.8415 6.47614 19.8722 4.3008 18.1316 2.78572C16.3987 1.27738 14.0127 0.52 11.16 0.52V2.52C13.6673 2.52 15.5413 3.18262 16.8185 4.29428C18.0878 5.39919 18.8785 7.04386 19.0428 9.23479L21.0372 9.08521ZM11.16 0.52C7.67547 0.52 4.8261 1.59579 2.9122 4.36667C1.05983 7.04846 0.2 11.1636 0.2 16.96H2.2C2.2 11.2764 3.06017 7.67154 4.5578 5.50333C5.9939 3.42421 8.12453 2.52 11.16 2.52V0.52ZM0.2 16.96C0.2 21.3006 0.841354 24.9272 2.56544 27.4884C4.34523 30.1324 7.16366 31.48 11.08 31.48V29.48C7.67634 29.48 5.55477 28.3476 4.22456 26.3716C2.83865 24.3128 2.2 21.1794 2.2 16.96H0.2ZM11.08 31.48C14.2283 31.48 16.8814 30.5014 18.7499 28.6443C20.6191 26.7865 21.6 24.1521 21.6 21.04H19.6C19.6 23.7279 18.7609 25.8135 17.3401 27.2257C15.9186 28.6386 13.8117 29.48 11.08 29.48V31.48ZM21.6 21.04C21.6 17.8723 20.6226 15.313 18.9601 13.5367C17.2969 11.7596 15.0153 10.84 12.56 10.84V12.84C14.5047 12.84 16.2431 13.5604 17.4999 14.9033C18.7574 16.247 19.6 18.2877 19.6 21.04H21.6ZM12.56 10.84C10.2836 10.84 8.16836 11.7382 7.09622 13.5761L8.82378 14.5839C9.43164 13.5418 10.7564 12.84 12.56 12.84V10.84ZM8.95989 14.0951C8.99957 11.4763 9.26072 9.782 9.69033 8.77114C9.89846 8.28142 10.1217 8.01194 10.3225 7.86281C10.511 7.7228 10.7445 7.64 11.08 7.64V5.64C10.3755 5.64 9.709 5.82719 9.13002 6.25718C8.56332 6.67805 8.15154 7.27857 7.84967 7.98886C7.25929 9.378 7.00043 11.4037 6.96011 14.0648L8.95989 14.0951ZM11.08 7.64C11.5272 7.64 11.7432 7.77345 11.877 7.93134C12.0401 8.12398 12.2069 8.50559 12.2412 9.20872L14.2388 9.11128C14.1931 8.17441 13.9599 7.29602 13.403 6.63865C12.8168 5.94654 11.9928 5.64 11.08 5.64V7.64ZM13.24 10.16H20.04V8.16H13.24V10.16ZM9.16 21C9.16 19.6999 9.38231 18.8926 9.68389 18.4369C9.93825 18.0526 10.2967 17.84 10.92 17.84V15.84C9.7033 15.84 8.68176 16.3274 8.01611 17.3331C7.39769 18.2674 7.16 19.5401 7.16 21H9.16ZM10.92 17.84C11.5433 17.84 11.9018 18.0526 12.1561 18.4369C12.4577 18.8926 12.68 19.6999 12.68 21H14.68C14.68 19.5401 14.4423 18.2674 13.8239 17.3331C13.1582 16.3274 12.1367 15.84 10.92 15.84V17.84ZM12.68 21C12.68 22.3001 12.4577 23.1074 12.1561 23.5631C11.9018 23.9474 11.5433 24.16 10.92 24.16V26.16C12.1367 26.16 13.1582 25.6726 13.8239 24.6669C14.4423 23.7326 14.68 22.4599 14.68 21H12.68ZM10.92 24.16C10.2967 24.16 9.93825 23.9474 9.68389 23.5631C9.38231 23.1074 9.16 22.3001 9.16 21H7.16C7.16 22.4599 7.39769 23.7326 8.01611 24.6669C8.68176 25.6726 9.7033 26.16 10.92 26.16V24.16Z" fill="white"/>
</svg>
