<svg width="41" height="31" viewBox="0 0 41 31" fill="none" xmlns="http://www.w3.org/2000/svg">
<path d="M13.96 30V31H14.96V30H13.96ZM13.96 2H14.96V0.999998H13.96V2ZM8.04 2V0.999998H7.82077L7.62164 1.09172L8.04 2ZM1.44 5.04L1.02164 4.13172L0.44 4.39963V5.04H1.44ZM1.44 10.64H0.44V12.1765L1.84493 11.5543L1.44 10.64ZM7.04 8.16H8.04V6.62347L6.63507 7.24565L7.04 8.16ZM7.04 30H6.04V31H7.04V30ZM14.96 30V2H12.96V30H14.96ZM13.96 0.999998H8.04V3H13.96V0.999998ZM7.62164 1.09172L1.02164 4.13172L1.85836 5.94828L8.45836 2.90828L7.62164 1.09172ZM0.44 5.04V10.64H2.44V5.04H0.44ZM1.84493 11.5543L7.44493 9.07435L6.63507 7.24565L1.03507 9.72565L1.84493 11.5543ZM6.04 8.16V30H8.04V8.16H6.04ZM7.04 31H13.96V29H7.04V31ZM20.5156 11.24H19.5156V12.24H20.5156V11.24ZM27.4356 11.24V12.24H28.4356V11.24H27.4356ZM30.3956 14.16L29.6406 13.5043L29.6405 13.5044L30.3956 14.16ZM20.9156 25.08L20.1605 24.4244L19.9156 24.7065V25.08H20.9156ZM20.9156 30H19.9156V31H20.9156V30ZM39.5556 30V31H40.5556V30H39.5556ZM39.5556 24.68H40.5556V23.68H39.5556V24.68ZM29.5956 24.68L28.8421 24.0226L27.3963 25.68H29.5956V24.68ZM36.1556 17.16L36.9092 17.8174L36.914 17.8118L36.1556 17.16ZM40.1556 9.96C40.1556 7.44075 39.2576 5.06375 37.4759 3.3161C35.6904 1.56475 33.0946 0.52 29.8356 0.52V2.52C32.6566 2.52 34.7208 3.41525 36.0754 4.74389C37.4337 6.07625 38.1556 7.91924 38.1556 9.96H40.1556ZM29.8356 0.52C26.5766 0.52 23.9808 1.56475 22.1954 3.3161C20.4137 5.06375 19.5156 7.44075 19.5156 9.96H21.5156C21.5156 7.91924 22.2376 6.07625 23.5959 4.74389C24.9504 3.41525 27.0146 2.52 29.8356 2.52V0.52ZM19.5156 9.96V11.24H21.5156V9.96H19.5156ZM20.5156 12.24H27.4356V10.24H20.5156V12.24ZM28.4356 11.24V9.88H26.4356V11.24H28.4356ZM28.4356 9.88C28.4356 8.9917 28.6044 8.49079 28.8028 8.22871C28.9597 8.02151 29.2278 7.84 29.8356 7.84V5.84C28.7635 5.84 27.8315 6.19849 27.2084 7.02129C26.6269 7.78921 26.4356 8.8083 26.4356 9.88H28.4356ZM29.8356 7.84C30.4435 7.84 30.7115 8.02151 30.8684 8.22871C31.0669 8.49079 31.2356 8.9917 31.2356 9.88H33.2356C33.2356 8.8083 33.0444 7.78921 32.4628 7.02129C31.8397 6.19849 30.9078 5.84 29.8356 5.84V7.84ZM31.2356 9.88C31.2356 10.5838 31.1261 11.1342 30.8943 11.6645C30.6562 12.2094 30.2677 12.7822 29.6406 13.5043L31.1507 14.8157C31.8436 14.0178 32.3751 13.2706 32.7269 12.4655C33.0852 11.6458 33.2356 10.8162 33.2356 9.88H31.2356ZM29.6405 13.5044L20.1605 24.4244L21.6708 25.7356L31.1508 14.8156L29.6405 13.5044ZM19.9156 25.08V30H21.9156V25.08H19.9156ZM20.9156 31H39.5556V29H20.9156V31ZM40.5556 30V24.68H38.5556V30H40.5556ZM39.5556 23.68H29.5956V25.68H39.5556V23.68ZM30.3492 25.3374L36.9092 17.8174L35.4021 16.5026L28.8421 24.0226L30.3492 25.3374ZM36.914 17.8118C38.0394 16.5023 38.8659 15.3516 39.4 14.1034C39.9411 12.8388 40.1556 11.5379 40.1556 9.96H38.1556C38.1556 11.3421 37.9701 12.3612 37.5613 13.3166C37.1454 14.2884 36.4719 15.2577 35.3972 16.5082L36.914 17.8118Z" fill="white"/>
</svg>
