<svg width="53" height="24" viewBox="0 0 53 24" fill="none" xmlns="http://www.w3.org/2000/svg">
<path d="M24.7059 9.5L28 13L24.7059 16.5" stroke="#ECC289" stroke-width="2"/>
<path fill-rule="evenodd" clip-rule="evenodd" d="M44.2587 0.0144144L42.5491 0.0288288L42.5629 3.2C38.8678 4.25225 35.9863 7.81261 36 11.8198V11.964V12.3964V12.4108C36.0276 16.4036 38.9506 19.9351 42.6456 20.9586L42.6594 24L44.369 23.9856L44.3553 21.2468C44.5207 21.2613 44.6999 21.2613 44.8792 21.2613C45.1411 21.2613 45.4031 21.2468 45.6513 21.2324L45.6651 23.9712L47.3747 23.9568L47.3609 20.9874C50.5734 20.2811 52.0073 18.2919 53 16.9081L50.9043 16.1009C50.8354 16.2018 50.7802 16.3171 50.6975 16.4468C49.9805 17.6865 48.6432 20.0072 44.8792 20.036C41.4737 20.0505 38.7438 16.3459 38.7162 12.3964V11.791C38.7024 7.82703 41.4047 4.09369 44.8102 4.07928C48.5329 4.06486 49.7737 6.12613 50.601 7.4955C50.6975 7.65405 50.794 7.81261 50.8767 7.95676L52.9586 7.12072C51.9522 5.75135 50.5045 3.76216 47.2782 3.0991L47.2506 0L45.541 0.0144144L45.5548 2.88288C45.3066 2.86847 45.0446 2.86847 44.7827 2.86847C44.6034 2.86847 44.438 2.88288 44.2587 2.88288V0.0144144ZM42.3974 10.6667C41.2944 11.1135 40.3569 11.791 39.8743 12.7568C40.936 10.5946 43.1006 8.61982 45.5961 8.60541C48.0917 8.59099 50.2563 10.5369 51.3455 12.6991C50.8629 11.7333 49.9116 11.0559 48.8086 10.6378C49.2084 11.1856 49.4566 11.8342 49.4566 12.5405C49.4704 14.4432 47.747 16 45.6237 16C43.5004 16.0144 41.777 14.4721 41.7632 12.5694C41.7632 11.8631 41.9976 11.2144 42.3974 10.6667ZM48.3536 12.5405C48.3536 13.6505 47.3058 14.8468 45.6237 14.8468C43.9416 14.8613 42.8662 13.6793 42.8662 12.5694C42.8662 11.4595 43.9141 10.2631 45.5961 10.2631C47.292 10.2486 48.3536 11.4306 48.3536 12.5405ZM46.4647 12.5405C46.4647 13.0306 46.0925 13.4198 45.6237 13.4198C45.1549 13.4198 44.7827 13.0306 44.7689 12.5405C44.7689 12.0505 45.1411 11.6613 45.6099 11.6613C46.0787 11.6613 46.451 12.0649 46.4647 12.5405Z" fill="#ECC289"/>
<path d="M12.4337 11.123C13.977 10.4048 14.6207 9.30952 14.4524 6.88027C14.3078 4.79255 12.2498 2.91181 9.35826 2.91181H9.35491V0H7.32794V2.91181H5.7749V0H3.66607V2.91181H0V4.78762H2.70004V18.2127C2.70004 18.2127 1.73494 18.2127 0.771084 18.0242L0.192771 20.0885C1.44578 20.2771 3.66607 20.2771 3.66607 20.2771V23H5.79105V20.2771H7.32794V23H9.35491V20.2771H9.92771C14.2651 20.2771 16 17.5489 16 15.2705C16 12.5007 14.1609 11.3175 12.4337 11.123ZM5.58213 4.78762H8.26594C10.2169 4.78762 11.0843 6.2033 11.0843 7.44672C11.0843 8.69014 10.0241 10.0432 7.80723 10.0432H5.58213V4.78762ZM9.1988 18.2127H5.58213V12.6731H9.39157C10.8617 12.6731 12.4337 13.4956 12.4337 15.2705C12.4337 17.7213 10.6689 18.2127 9.1988 18.2127Z" fill="#ECC289"/>
</svg>
