<svg width="117" height="52" viewBox="0 0 117 52" fill="none" xmlns="http://www.w3.org/2000/svg">
<path fill-rule="evenodd" clip-rule="evenodd" d="M97.7191 0.0312312L94.0149 0.0624625L94.0448 6.93333C86.0389 9.21321 79.7954 16.9273 79.8253 25.6096V25.9219V26.8589V26.8901C79.885 35.5411 86.2181 43.1928 94.224 45.4102L94.2539 52L97.9581 51.9688L97.9282 46.0348C98.2867 46.0661 98.6751 46.0661 99.0634 46.0661C99.631 46.0661 100.199 46.0348 100.736 46.0036L100.766 51.9375L104.47 51.9063L104.441 45.4727C111.401 43.9423 114.508 39.6324 116.659 36.6342L112.118 34.8853C111.968 35.1039 111.849 35.3538 111.67 35.6348C110.116 38.3207 107.219 43.349 99.0634 43.4114C91.6848 43.4426 85.77 35.4162 85.7103 26.8589V25.5471C85.6804 16.9586 91.5355 8.86967 98.9141 8.83844C106.98 8.80721 109.668 13.2733 111.461 16.2402C111.67 16.5838 111.879 16.9273 112.058 17.2396L116.569 15.4282C114.388 12.4613 111.252 8.15135 104.261 6.71472L104.202 0L100.497 0.0312312L100.527 6.24625C99.9895 6.21502 99.4219 6.21502 98.8543 6.21502C98.466 6.21502 98.1075 6.24625 97.7191 6.24625V0.0312312ZM93.6863 23.1111C91.2965 24.0793 89.2651 25.5471 88.2196 27.6396C90.5198 22.955 95.2098 18.6763 100.617 18.645C106.024 18.6138 110.714 22.83 113.074 27.5147C112.028 25.4222 109.967 23.9544 107.577 23.0487C108.443 24.2354 108.981 25.6408 108.981 27.1712C109.011 31.2937 105.277 34.6667 100.677 34.6667C96.0761 34.6979 92.342 31.3562 92.3122 27.2336C92.3122 25.7033 92.82 24.2979 93.6863 23.1111ZM106.591 27.1712C106.591 29.576 104.321 32.1682 100.677 32.1682C97.0321 32.1994 94.702 29.6384 94.702 27.2336C94.702 24.8288 96.9723 22.2366 100.617 22.2366C104.291 22.2054 106.591 24.7664 106.591 27.1712ZM102.499 27.1712C102.499 28.233 101.692 29.0763 100.677 29.0763C99.6609 29.0763 98.8543 28.233 98.8244 27.1712C98.8244 26.1093 99.631 25.2661 100.647 25.2661C101.662 25.2661 102.469 26.1405 102.499 27.1712Z" fill="#ECC289"/>
<path fill-rule="evenodd" clip-rule="evenodd" d="M14.3999 0H18.0792V6.32696L19.9189 6.13716L20.7435 6.20043V0H24.4862V6.70658L25.8184 7.14947L26.0721 7.21274L26.3258 7.27601L27.5945 7.65562C28.7677 8.16633 29.8929 8.78037 30.9566 9.49044L32.1619 10.5028L32.5425 10.7558L32.7962 11.0088L33.8747 11.8946L35.0799 13.3498L35.7143 14.109L36.0315 14.4887L36.2852 14.805L36.4755 15.1214L36.9196 15.7541H36.8561C36.2852 16.0071 35.1434 16.45 32.9231 17.3991L32.0985 17.7154L31.4641 16.3235C28.9267 11.8314 24.6765 8.85767 19.8553 8.85767C12.1796 8.85767 5.89944 16.45 5.89944 25.8139C5.89944 35.1778 12.1796 42.7702 19.8553 42.7702C24.6765 42.7702 28.9267 39.7965 31.4641 35.3044L32.4156 33.1532L33.1134 33.4063C33.8112 33.6593 34.5725 33.9124 35.3337 34.1655L37.3636 34.7982L36.2853 36.6964C34.1357 39.8614 31.1189 42.3432 27.5946 43.8459L24.4862 44.7949V51.375H20.7435V45.3011L19.9189 45.3644L18.0792 45.1746V51.375H14.3999V44.4786L12.2431 43.8459C9.92119 42.8369 7.8118 41.3985 6.0264 39.6068L5.70922 39.2272C3.81247 37.5704 2.37135 35.4579 1.52246 33.09C0.538641 30.7886 0.0212159 28.3158 0 25.814C0.00506822 24.1033 0.239749 22.401 0.697788 20.7525C1.14361 19.1522 1.80516 17.6198 2.6643 16.1971C3.46156 14.7349 4.4897 13.4104 5.70922 12.2743V12.2743L6.0264 11.8947C7.8118 10.103 9.92119 8.66462 12.2431 7.6556L14.3999 7.02291V0V0Z" fill="#ECC289"/>
<path d="M20.3604 23.6655C20.0849 22.8968 19.6039 22.2184 18.9698 21.704C18.3357 21.1895 17.5727 20.8587 16.7637 20.7476C15.9548 20.6365 15.1308 20.7492 14.3815 21.0736C13.6321 21.398 12.9861 21.9216 12.5135 22.5876C12.0409 23.2535 11.7599 24.0362 11.7011 24.8506C11.6422 25.665 11.8078 26.48 12.1797 27.2069C12.5516 27.9339 13.1157 28.5449 13.8107 28.9737C14.5056 29.4024 15.3048 29.6325 16.1213 29.6388C17.0527 29.6332 17.9597 29.3403 18.7184 28.8C19.4771 28.2597 20.0505 27.4984 20.3604 26.62H23.5718V29.6387H26.5906V26.62H28.0678V23.6655H20.3604ZM16.1213 26.62C15.8318 26.6077 15.5523 26.5106 15.3176 26.3408C15.0828 26.1709 14.9031 25.9359 14.8008 25.6648C14.6985 25.3936 14.6781 25.0985 14.7422 24.8159C14.8063 24.5333 14.9519 24.2757 15.1611 24.0753C15.3704 23.8748 15.6339 23.7402 15.9189 23.6882C16.204 23.6362 16.498 23.6691 16.7645 23.7828C17.031 23.8966 17.2583 24.0861 17.418 24.3279C17.5777 24.5697 17.6628 24.853 17.6628 25.1428C17.6607 25.3416 17.6189 25.538 17.5398 25.7205C17.4608 25.903 17.3462 26.0679 17.2026 26.2055C17.059 26.343 16.8894 26.4506 16.7038 26.5218C16.5181 26.593 16.3201 26.6264 16.1213 26.62V26.62Z" fill="#ECC289"/>
<path d="M57.4093 20.5833L64.5466 28.1667L57.4093 35.7501" stroke="#ECC289" stroke-width="2"/>
</svg>
