<svg width="58" height="24" viewBox="0 0 58 24" fill="none" xmlns="http://www.w3.org/2000/svg">
<path d="M29.7058 9.5L32.9999 13L29.7058 16.5" stroke="#ECC289" stroke-width="2"/>
<path fill-rule="evenodd" clip-rule="evenodd" d="M48.7719 0.0144144L47.0623 0.0288288L47.0761 3.2C43.381 4.25225 40.4994 7.81261 40.5132 11.8198V11.964V12.3964V12.4108C40.5408 16.4036 43.4638 19.9351 47.1588 20.9586L47.1726 24L48.8822 23.9856L48.8684 21.2468C49.0339 21.2613 49.2131 21.2613 49.3924 21.2613C49.6543 21.2613 49.9163 21.2468 50.1645 21.2324L50.1782 23.9712L51.8879 23.9568L51.8741 20.9874C55.0866 20.2811 56.5205 18.2919 57.5132 16.9081L55.4175 16.1009C55.3485 16.2018 55.2934 16.3171 55.2107 16.4468C54.4937 17.6865 53.1563 20.0072 49.3924 20.036C45.9869 20.0505 43.2569 16.3459 43.2294 12.3964V11.791C43.2156 7.82703 45.9179 4.09369 49.3234 4.07928C53.046 4.06486 54.2869 6.12613 55.1142 7.4955C55.2107 7.65405 55.3072 7.81261 55.3899 7.95676L57.4718 7.12072C56.4653 5.75135 55.0177 3.76216 51.7914 3.0991L51.7638 0L50.0542 0.0144144L50.0679 2.88288C49.8198 2.86847 49.5578 2.86847 49.2959 2.86847C49.1166 2.86847 48.9512 2.88288 48.7719 2.88288V0.0144144ZM46.9106 10.6667C45.8076 11.1135 44.8701 11.791 44.3875 12.7568C45.4491 10.5946 47.6138 8.61982 50.1093 8.60541C52.6048 8.59099 54.7695 10.5369 55.8587 12.6991C55.3761 11.7333 54.4248 11.0559 53.3218 10.6378C53.7216 11.1856 53.9698 11.8342 53.9698 12.5405C53.9836 14.4432 52.2602 16 50.1369 16C48.0136 16.0144 46.2902 14.4721 46.2764 12.5694C46.2764 11.8631 46.5108 11.2144 46.9106 10.6667ZM52.8668 12.5405C52.8668 13.6505 51.819 14.8468 50.1369 14.8468C48.4548 14.8613 47.3794 13.6793 47.3794 12.5694C47.3794 11.4595 48.4272 10.2631 50.1093 10.2631C51.8052 10.2486 52.8668 11.4306 52.8668 12.5405ZM50.9779 12.5405C50.9779 13.0306 50.6057 13.4198 50.1369 13.4198C49.6681 13.4198 49.2959 13.0306 49.2821 12.5405C49.2821 12.0505 49.6543 11.6613 50.1231 11.6613C50.5919 11.6613 50.9641 12.0649 50.9779 12.5405Z" fill="#ECC289"/>
<path fill-rule="evenodd" clip-rule="evenodd" d="M10.6391 22H2.10527H0.0415798L2.10527 19.5143V15.0529H0L1.5127e-05 13.2359H2.10527V11.8355H0L1.5127e-05 10.0184H2.10527V4.4857L0.0415798 2H2.10527H10.6391C17.1478 2 22 6.05715 22 12C22 17.9428 17.1478 22 10.6391 22ZM4.99807 13.2359V11.8355H6.68859V10.0184H4.99807V4.4857L10.4693 4.13218C16.439 4.13218 18.681 7.51429 18.681 12C18.681 16.4857 16.3429 19.8768 10.4811 19.8768L4.99807 19.5143V15.0529H6.68859V13.2359H4.99807ZM6.68859 12.455C7.15559 11.5319 8.06288 10.8844 9.13031 10.4573C8.74337 10.9808 8.51654 11.6008 8.51654 12.2759C8.52988 14.0945 10.1977 15.5687 12.2525 15.5549C14.3073 15.5549 15.9751 14.0669 15.9618 12.2483C15.9618 11.5733 15.7216 10.9533 15.3347 10.4297C16.391 10.8251 17.3035 11.4633 17.775 12.371C16.7161 10.316 14.6296 8.47338 12.2258 8.48709C9.81077 8.50089 7.71598 10.3884 6.68859 12.455ZM12.2525 14.4527C13.8803 14.4527 14.8943 13.3093 14.8943 12.2483C14.8943 11.1875 13.8669 10.0577 12.2258 10.0715C10.598 10.0715 9.58397 11.2151 9.58397 12.2759C9.58397 13.3367 10.6247 14.4665 12.2525 14.4527ZM12.2525 13.0888C12.7062 13.0888 13.0664 12.7168 13.0664 12.2483C13.0531 11.7937 12.6928 11.4079 12.2391 11.4079C11.7855 11.4079 11.4252 11.7799 11.4252 12.2483C11.4386 12.7168 11.7988 13.0888 12.2525 13.0888Z" fill="#ECC289"/>
</svg>
