<svg width="61" height="24" viewBox="0 0 61 24" fill="none" xmlns="http://www.w3.org/2000/svg">
<path d="M32.7059 9.5L36 13L32.7059 16.5" stroke="#ECC289" stroke-width="2"/>
<path fill-rule="evenodd" clip-rule="evenodd" d="M51.7719 0.0144144L50.0623 0.0288288L50.0761 3.2C46.381 4.25225 43.4994 7.81261 43.5132 11.8198V11.964V12.3964V12.4108C43.5408 16.4036 46.4638 19.9351 50.1588 20.9586L50.1726 24L51.8822 23.9856L51.8684 21.2468C52.0339 21.2613 52.2131 21.2613 52.3924 21.2613C52.6543 21.2613 52.9163 21.2468 53.1645 21.2324L53.1782 23.9712L54.8879 23.9568L54.8741 20.9874C58.0866 20.2811 59.5205 18.2919 60.5132 16.9081L58.4175 16.1009C58.3485 16.2018 58.2934 16.3171 58.2107 16.4468C57.4937 17.6865 56.1563 20.0072 52.3924 20.036C48.9869 20.0505 46.2569 16.3459 46.2294 12.3964V11.791C46.2156 7.82703 48.9179 4.09369 52.3234 4.07928C56.046 4.06486 57.2869 6.12613 58.1142 7.4955C58.2107 7.65405 58.3072 7.81261 58.3899 7.95676L60.4718 7.12072C59.4653 5.75135 58.0177 3.76216 54.7914 3.0991L54.7638 0L53.0542 0.0144144L53.0679 2.88288C52.8198 2.86847 52.5578 2.86847 52.2959 2.86847C52.1166 2.86847 51.9512 2.88288 51.7719 2.88288V0.0144144ZM49.9106 10.6667C48.8076 11.1135 47.8701 11.791 47.3875 12.7568C48.4491 10.5946 50.6138 8.61982 53.1093 8.60541C55.6048 8.59099 57.7695 10.5369 58.8587 12.6991C58.3761 11.7333 57.4248 11.0559 56.3218 10.6378C56.7216 11.1856 56.9698 11.8342 56.9698 12.5405C56.9836 14.4432 55.2602 16 53.1369 16C51.0136 16.0144 49.2902 14.4721 49.2764 12.5694C49.2764 11.8631 49.5108 11.2144 49.9106 10.6667ZM55.8668 12.5405C55.8668 13.6505 54.819 14.8468 53.1369 14.8468C51.4548 14.8613 50.3794 13.6793 50.3794 12.5694C50.3794 11.4595 51.4272 10.2631 53.1093 10.2631C54.8052 10.2486 55.8668 11.4306 55.8668 12.5405ZM53.9779 12.5405C53.9779 13.0306 53.6057 13.4198 53.1369 13.4198C52.6681 13.4198 52.2959 13.0306 52.2821 12.5405C52.2821 12.0505 52.6543 11.6613 53.1231 11.6613C53.5919 11.6613 53.9641 12.0649 53.9779 12.5405Z" fill="#ECC289"/>
<path fill-rule="evenodd" clip-rule="evenodd" d="M10.6022 10.9406C9.54651 11.3683 8.64918 12.0167 8.18732 12.941C9.20342 10.8716 11.2752 8.98152 13.6637 8.96773C16.0522 8.95393 18.124 10.8164 19.1665 12.8858C18.7046 11.9615 17.7941 11.3131 16.7384 10.913C17.1211 11.4372 17.3586 12.0581 17.3586 12.7341C17.3718 14.5552 15.7223 16.0451 13.6901 16.0451C11.6579 16.0589 10.0084 14.5828 9.99518 12.7617C9.99518 12.0857 10.2195 11.4648 10.6022 10.9406ZM16.3029 12.7341C16.3029 13.7964 15.3 14.9415 13.6901 14.9415C12.0802 14.9553 11.0509 13.824 11.0509 12.7617C11.0509 11.6994 12.0538 10.5543 13.6637 10.5543C15.2868 10.5405 16.3029 11.6718 16.3029 12.7341ZM14.495 12.7341C14.495 13.2031 14.1388 13.5756 13.6901 13.5756C13.2414 13.5756 12.8851 13.2031 12.8719 12.7341C12.8719 12.265 13.2282 11.8925 13.6769 11.8925C14.1256 11.8925 14.4818 12.2788 14.495 12.7341Z" fill="#ECC289"/>
<path d="M22.8742 13.9844H19.5765L20.5051 17.8722C19.5765 20.0725 17.6795 21.41 13.5724 21.41C9.19883 21.41 6.03682 17.2502 6.03682 12.5003C6.03682 7.78053 8.19127 3.36999 13.267 3.36999C16.7325 3.36999 18.3256 5.22675 19.4084 6.58028L21.2101 4.192C19.4084 3.11928 17.9113 1.77182 13.267 1.77182C7.25678 1.77182 2.70093 6.57804 2.70093 12.5003C2.70093 19.018 8.05813 23.2281 13.5724 23.2281C19.3263 23.2281 20.8001 21.2149 22.5345 19.8481L22.8742 13.9844Z" fill="#ECC289"/>
<rect x="7.55634" y="9.76871" width="1.97152" height="7.16766" transform="rotate(90 7.55634 9.76871)" fill="#ECC289"/>
<rect x="7.55634" y="13.2597" width="1.97152" height="7.16766" transform="rotate(90 7.55634 13.2597)" fill="#ECC289"/>
</svg>
