<svg width="43" height="10" viewBox="0 0 43 10" fill="none" xmlns="http://www.w3.org/2000/svg">
<path d="M0.576 4.8C0.576 7.092 1.308 9.144 3.78 9.144C4.788 9.144 5.496 8.688 5.796 8.004L6 9H7.2V4.56H3.984V5.832H5.592C5.52 6.984 5.088 7.74 3.948 7.74C2.796 7.74 2.244 7.092 2.244 4.8C2.244 3.552 2.376 2.916 2.676 2.472C2.94 2.076 3.36 1.86 3.936 1.86C4.932 1.86 5.484 2.472 5.544 3.456H7.212C7.116 1.632 5.928 0.456 3.936 0.456C2.712 0.456 1.896 0.875999 1.356 1.608C0.732 2.448 0.576 3.588 0.576 4.8ZM8.72588 9H13.9579V7.596H10.3939V0.599999H8.72588V9ZM21.253 4.8C21.253 3.588 21.097 2.448 20.473 1.608C19.933 0.875999 19.117 0.456 17.893 0.456C16.669 0.456 15.853 0.875999 15.313 1.608C14.689 2.448 14.533 3.588 14.533 4.8C14.533 6.012 14.689 7.152 15.313 7.992C15.853 8.724 16.669 9.144 17.893 9.144C19.117 9.144 19.933 8.724 20.473 7.992C21.097 7.152 21.253 6.012 21.253 4.8ZM19.585 4.8C19.585 6.048 19.453 6.684 19.153 7.128C18.889 7.524 18.469 7.74 17.893 7.74C17.317 7.74 16.897 7.524 16.633 7.128C16.333 6.684 16.201 6.048 16.201 4.8C16.201 3.552 16.333 2.916 16.633 2.472C16.897 2.076 17.317 1.86 17.893 1.86C18.469 1.86 18.889 2.076 19.153 2.472C19.453 2.916 19.585 3.552 19.585 4.8ZM26.032 9C27.856 9 28.756 8.16 28.756 6.576C28.756 5.604 28.204 4.86 27.304 4.62C28.06 4.368 28.516 3.768 28.516 2.88C28.516 1.38 27.616 0.599999 25.84 0.599999H22.636V9H26.032ZM27.076 6.492C27.076 7.296 26.656 7.596 25.756 7.596H24.304V5.388H25.756C26.656 5.388 27.076 5.688 27.076 6.492ZM26.86 3C26.86 3.768 26.404 3.996 25.564 3.996H24.304V2.004H25.564C26.404 2.004 26.86 2.232 26.86 3ZM34.7382 9H36.4542L33.7542 0.599999H31.8822L29.1822 9H30.8982L31.3662 7.344H34.2582L34.7382 9ZM32.8182 2.292L33.8622 5.964H31.7622L32.8182 2.292ZM37.3665 9H42.5985V7.596H39.0345V0.599999H37.3665V9Z" fill="#ECC289"/>
</svg>
