<svg width="55" height="24" viewBox="0 0 55 24" fill="none" xmlns="http://www.w3.org/2000/svg">
<path d="M26.3172 9.5L29.6113 13L26.3172 16.5" stroke="#ECC289" stroke-width="2"/>
<path fill-rule="evenodd" clip-rule="evenodd" d="M45.3833 0.0144144L43.6736 0.0288288L43.6874 3.2C39.9924 4.25225 37.1108 7.81261 37.1246 11.8198V11.964V12.3964V12.4108C37.1521 16.4036 40.0751 19.9351 43.7701 20.9586L43.7839 24L45.4936 23.9856L45.4798 21.2468C45.6452 21.2613 45.8245 21.2613 46.0037 21.2613C46.2657 21.2613 46.5276 21.2468 46.7758 21.2324L46.7896 23.9712L48.4992 23.9568L48.4854 20.9874C51.6979 20.2811 53.1318 18.2919 54.1245 16.9081L52.0288 16.1009C51.9599 16.2018 51.9047 16.3171 51.822 16.4468C51.1051 17.6865 49.7677 20.0072 46.0037 20.036C42.5982 20.0505 39.8683 16.3459 39.8407 12.3964V11.791C39.8269 7.82703 42.5292 4.09369 45.9348 4.07928C49.6574 4.06486 50.8982 6.12613 51.7255 7.4955C51.822 7.65405 51.9185 7.81261 52.0012 7.95676L54.0831 7.12072C53.0767 5.75135 51.629 3.76216 48.4027 3.0991L48.3751 0L46.6655 0.0144144L46.6793 2.88288C46.4311 2.86847 46.1691 2.86847 45.9072 2.86847C45.7279 2.86847 45.5625 2.88288 45.3833 2.88288V0.0144144ZM43.5219 10.6667C42.4189 11.1135 41.4814 11.791 40.9988 12.7568C42.0605 10.5946 44.2251 8.61982 46.7206 8.60541C49.2162 8.59099 51.3808 10.5369 52.47 12.6991C51.9875 11.7333 51.0361 11.0559 49.9331 10.6378C50.333 11.1856 50.5811 11.8342 50.5811 12.5405C50.5949 14.4432 48.8715 16 46.7482 16C44.6249 16.0144 42.9015 14.4721 42.8877 12.5694C42.8877 11.8631 43.1221 11.2144 43.5219 10.6667ZM49.4781 12.5405C49.4781 13.6505 48.4303 14.8468 46.7482 14.8468C45.0661 14.8613 43.9907 13.6793 43.9907 12.5694C43.9907 11.4595 45.0386 10.2631 46.7206 10.2631C48.4165 10.2486 49.4781 11.4306 49.4781 12.5405ZM47.5893 12.5405C47.5893 13.0306 47.217 13.4198 46.7482 13.4198C46.2794 13.4198 45.9072 13.0306 45.8934 12.5405C45.8934 12.0505 46.2657 11.6613 46.7344 11.6613C47.2032 11.6613 47.5755 12.0649 47.5893 12.5405Z" fill="#ECC289"/>
<path d="M11.03 13.7054L15.1246 13.7829C15.9265 13.7829 16.7113 13.714 17.479 13.5762C17.5473 13.7485 17.5814 13.8949 17.5814 14.0155L17.5302 14.3256C16.8819 14.6012 16.5236 15.1611 16.4554 16.0052C16.3359 17.1766 16.2762 18.8303 16.2762 20.9664C15.2526 20.9664 14.0668 21.0956 12.719 21.354C11.3712 21.6296 10.2963 21.7674 9.49446 21.7674C6.55995 21.7674 4.23966 20.8458 2.53356 19.0026C0.844521 17.1421 0 14.8079 0 12C0 9.17482 0.921293 6.84063 2.76388 4.9974C4.60646 3.15417 6.96089 2.23254 9.82716 2.23254C12.1475 2.23254 14.2033 2.48233 15.9947 2.9819C16.1142 3.01634 16.1738 3.07665 16.1738 3.16277C16.1738 3.24892 16.1653 3.36088 16.1483 3.49868C16.1483 3.63652 16.1312 3.8346 16.0971 4.09302C16.08 4.33419 16.063 4.6098 16.0459 4.91987C16.0118 5.57449 15.9947 6.43581 15.9947 7.50386C15.8753 7.57277 15.7132 7.60723 15.5085 7.60723C15.3037 7.60723 15.1417 7.58139 15.0222 7.52971C14.7152 6.13436 14.4933 5.26441 14.3569 4.91987C13.009 3.74848 11.3712 3.16277 9.44327 3.16277C7.53246 3.16277 5.93724 3.85185 4.65767 5.22995C3.39513 6.60808 2.76388 8.4944 2.76388 10.8889C2.76388 12.5771 3.03686 14.1619 3.58281 15.6434C4.14583 17.1249 4.9733 18.348 6.06519 19.3126C7.17416 20.2601 8.45375 20.7338 9.90393 20.7338C11.3712 20.7338 12.7702 20.4238 14.1009 19.8036V18.2274C14.1009 16.9354 14.0498 15.764 13.9474 14.7132C13.0773 14.6098 12.1048 14.5581 11.03 14.5581C10.9617 14.4375 10.9276 14.2997 10.9276 14.1447L11.03 13.7054Z" fill="#ECC289"/>
<path d="M8.93022 0H7.2558V2.7907H8.93022V0Z" fill="#ECC289"/>
<path d="M8.93022 21.2092H7.2558V23.9999H8.93022V21.2092Z" fill="#ECC289"/>
<path d="M12.279 0H10.6046V2.7907H12.279V0Z" fill="#ECC289"/>
<path d="M12.279 21.2092H10.6046V23.9999H12.279V21.2092Z" fill="#ECC289"/>
</svg>
