<?xml version="1.0" encoding="utf-8"?>
<!-- Generator: Adobe Illustrator 25.0.1, SVG Export Plug-In . SVG Version: 6.00 Build 0)  -->
<svg version="1.1" id="Layer_1" xmlns="http://www.w3.org/2000/svg" xmlns:xlink="http://www.w3.org/1999/xlink" x="0px" y="0px"
	 viewBox="0 0 54.8 24" style="enable-background:new 0 0 54.8 24;" xml:space="preserve">
<style type="text/css">
	.st0{fill:none;stroke:#ECC289;stroke-width:2;}
	.st1{fill-rule:evenodd;clip-rule:evenodd;fill:#ECC289;}
	.st2{fill:#ECC289;}
</style>
<path class="st0" d="M27,9.5l3.3,3.5L27,16.5"/>
<path class="st1" d="M46,0l-1.7,0l0,3.2c-3.7,1.1-6.6,4.6-6.6,8.6V12v0.4v0c0,4,3,7.5,6.6,8.5l0,3l1.7,0l0-2.7c0.2,0,0.3,0,0.5,0
	c0.3,0,0.5,0,0.8,0l0,2.7l1.7,0l0-3c3.2-0.7,4.6-2.7,5.6-4.1l-2.1-0.8c-0.1,0.1-0.1,0.2-0.2,0.3c-0.7,1.2-2.1,3.6-5.8,3.6
	c-3.4,0-6.1-3.7-6.2-7.6v-0.6c0-4,2.7-7.7,6.1-7.7c3.7,0,5,2,5.8,3.4c0.1,0.2,0.2,0.3,0.3,0.5l2.1-0.8c-1-1.4-2.5-3.4-5.7-4L49,0
	l-1.7,0l0,2.9c-0.2,0-0.5,0-0.8,0c-0.2,0-0.3,0-0.5,0V0z M44.2,10.7c-1.1,0.4-2,1.1-2.5,2.1c1.1-2.2,3.2-4.1,5.7-4.2
	c2.5,0,4.7,1.9,5.7,4.1c-0.5-1-1.4-1.6-2.5-2.1c0.4,0.5,0.6,1.2,0.6,1.9c0,1.9-1.7,3.5-3.8,3.5c-2.1,0-3.8-1.5-3.9-3.4
	C43.5,11.9,43.8,11.2,44.2,10.7z M50.1,12.5c0,1.1-1,2.3-2.7,2.3c-1.7,0-2.8-1.2-2.8-2.3s1-2.3,2.7-2.3
	C49.1,10.2,50.1,11.4,50.1,12.5z M48.2,12.5c0,0.5-0.4,0.9-0.8,0.9s-0.8-0.4-0.9-0.9c0-0.5,0.4-0.9,0.8-0.9S48.2,12.1,48.2,12.5z"/>
<path class="st2" d="M9,11.8L5.4,6.8H8l2.3,3.1L9,11.8z M14.2,18.6h2.7l-3.7-5l-1.3,1.8L14.2,18.6z M19.1,1.7l1.3,1.7L21.2,0
	l-2.4,1.1l0.2,0.3l-7.4,10.2l-0.8-1.1l-6,8.1l2.4,0l2.9-4l-0.3-1.9l1.4,2.2l8.4-11.3L19.1,1.7z M5.7,22.5c-1.8-1-3.2-2.3-4.2-4.1
	c-1-1.7-1.5-3.7-1.5-5.9c0-2.2,0.5-4.1,1.5-5.9c1-1.7,2.4-3.1,4.2-4.1c1.8-1,3.8-1.5,6-1.5c1.6,0,3.1,0.3,4.4,0.8l-0.9,1.3
	c-1-0.3-2.2-0.5-3.4-0.5C9.9,2.7,8.1,3.1,6.6,4C5.1,4.8,3.8,6,3,7.5C2.1,9,1.6,10.7,1.6,12.6s0.4,3.6,1.3,5.1
	c0.9,1.5,2.1,2.7,3.6,3.6c1.5,0.9,3.3,1.3,5.1,1.3c2.5,0,4.6-0.7,6.3-2.2l0.9,1.2c-0.8,0.7-1.8,1.3-2.8,1.7
	c-1.4,0.5-2.9,0.8-4.5,0.8C9.5,24,7.5,23.5,5.7,22.5z"/>
</svg>
