<svg width="69" height="22" viewBox="0 0 69 22" fill="none" xmlns="http://www.w3.org/2000/svg">
<path fill-rule="evenodd" clip-rule="evenodd" d="M22.8756 15.6861L22.2564 16.7181C21.0989 18.4463 19.4606 19.7977 17.5437 20.6052L15.8581 21.1556L13.8286 21.3964C13.347 21.3964 12.8654 21.362 12.3838 21.362C11.6958 21.2244 11.0078 21.0868 10.3542 20.9492L9.1847 20.6052L8.9783 20.502C7.7811 19.9792 6.6951 19.2319 5.77911 18.3005L5.60711 18.0941C4.61489 17.1617 3.8398 16.0226 3.33676 14.7573C2.8065 13.493 2.52614 12.1379 2.51117 10.767C2.51393 9.82561 2.64116 8.8887 2.88955 7.98066C3.13131 7.11062 3.49005 6.27743 3.95594 5.5039C4.39965 4.71645 4.95591 3.99796 5.60712 3.37116L5.64153 3.33676L5.77912 3.16476C6.7569 2.18631 7.9129 1.40399 9.1847 0.86C9.2191 0.86 9.7007 0.688006 9.7007 0.688006C9.7484 0.686258 9.7953 0.67454 9.8382 0.653606C10.141 0.577645 10.4395 0.485779 10.7326 0.378392C11.283 0.309594 11.8334 0.206395 12.3838 0.103199H12.487C12.5902 0.103199 12.6934 0.0687982 12.831 0.0687982H12.9686L13.003 0.0344009H13.3126C13.3311 0.0157011 13.3553 0.00361382 13.3814 0L15.8581 0.309594L16.5805 0.550389L16.7181 0.58479L16.8557 0.653588L17.0965 0.722387L17.5437 0.859983C18.19 1.11658 18.8023 1.45161 19.3669 1.85757L20.0205 2.37356L20.2269 2.54556L20.3989 2.68315L20.9492 3.16474L21.6372 3.95593L21.9812 4.36872L22.1532 4.57512L22.2564 4.74712L22.394 4.91911L22.6348 5.26311H22.6004C22.2908 5.4007 21.6716 5.6415 20.4333 6.15749L19.9861 6.32949L19.6421 5.6071C18.3005 3.13035 15.9613 1.51357 13.347 1.51357C9.1158 1.51357 5.71031 5.6415 5.71031 10.767C5.71031 15.8926 9.1158 20.0205 13.347 20.0205C15.9613 20.0205 18.3005 18.4037 19.6421 15.927L20.1924 14.7918L20.5708 14.895C20.9492 15.0326 21.362 15.1702 21.7748 15.3078L22.8756 15.6861Z" fill="#ECC289"/>
<path d="M16.3397 10.0447V12.8998H15.1357V10.3887C15.1357 9.90707 14.9293 9.66628 14.5854 9.66628C14.4248 9.65877 14.2667 9.70743 14.1382 9.80387C14.0198 9.90834 13.9259 10.0375 13.863 10.1823V12.8998H12.659V10.1823C12.6625 10.1132 12.6522 10.0441 12.6285 9.97913C12.6049 9.91414 12.5685 9.85454 12.5214 9.80387C12.4795 9.75482 12.4263 9.71667 12.3664 9.69271C12.3064 9.66874 12.2416 9.65967 12.1774 9.66628C12.0062 9.65868 11.8372 9.70697 11.6958 9.80387C11.5576 9.88858 11.4586 10.0247 11.4206 10.1823V12.8998H10.2167V8.63429H11.4206V8.90949C11.5545 8.77482 11.7163 8.67115 11.8946 8.60577C12.0729 8.5404 12.2634 8.51491 12.4526 8.5311C12.6595 8.53019 12.8644 8.57256 13.0539 8.6555C13.2435 8.73843 13.4136 8.8601 13.5534 9.01269C13.691 8.85738 13.8607 8.73387 14.0508 8.65071C14.2409 8.56755 14.4467 8.52673 14.6542 8.5311C15.0978 8.51392 15.5343 8.64728 15.8926 8.90949C16.0398 9.05874 16.1554 9.23626 16.2322 9.43135C16.3091 9.62644 16.3457 9.83507 16.3397 10.0447Z" fill="#ECC289"/>
<path fill-rule="evenodd" clip-rule="evenodd" d="M7.052 8.35913V10.2853H0V8.35913H7.052Z" fill="#ECC289"/>
<path fill-rule="evenodd" clip-rule="evenodd" d="M7.052 11.1799V13.1061H0V11.1799H7.052Z" fill="#ECC289"/>
<path d="M32.0001 7.5L35.2942 11L32.0001 14.5" stroke="#ECC289" stroke-width="2"/>
<path fill-rule="evenodd" clip-rule="evenodd" d="M56.2134 9.16872C55.1577 9.5964 54.2604 10.2448 53.7985 11.1692C54.8146 9.09974 56.8864 7.20967 59.2749 7.19588C61.6634 7.18208 63.7352 9.04456 64.7777 11.114C64.3158 10.1896 63.4053 9.54122 62.3496 9.14113C62.7323 9.66539 62.9698 10.2862 62.9698 10.9622C62.983 12.7833 61.3335 14.2733 59.3013 14.2733C57.2691 14.2871 55.6196 12.8109 55.6064 10.9898C55.6064 10.3138 55.8307 9.69298 56.2134 9.16872ZM61.9141 10.9622C61.9141 12.0245 60.9112 13.1696 59.3013 13.1696C57.6914 13.1834 56.6621 12.0521 56.6621 10.9898C56.6621 9.92751 57.665 8.78243 59.2749 8.78243C60.898 8.76864 61.9141 9.89992 61.9141 10.9622ZM60.1063 10.9622C60.1063 11.4313 59.75 11.8038 59.3013 11.8038C58.8526 11.8038 58.4964 11.4313 58.4832 10.9622C58.4832 10.4932 58.8394 10.1207 59.2881 10.1207C59.7368 10.1207 60.0931 10.5069 60.1063 10.9622Z" fill="#ECC289"/>
<path d="M68.4855 12.2125H65.1879L66.1165 16.1004C65.1879 18.3007 63.2909 19.6382 59.1837 19.6382C54.8102 19.6382 51.6481 15.4784 51.6481 10.7285C51.6481 6.00871 53.8026 1.59817 58.8783 1.59817C62.3439 1.59817 63.9369 3.45493 65.0197 4.80846L66.8215 2.42018C65.0197 1.34746 63.5226 0 58.8783 0C52.8681 0 48.3123 4.80622 48.3123 10.7285C48.3123 17.2462 53.6695 21.4563 59.1837 21.4563C64.9376 21.4563 66.4115 19.4431 68.1459 18.0763L68.4855 12.2125Z" fill="#ECC289"/>
<path d="M53.1677 9.96835V7.99683H46V9.96835H53.1677Z" fill="#ECC289"/>
<path d="M53.1677 13.4593V11.4878H46V13.4593H53.1677Z" fill="#ECC289"/>
</svg>
