<svg width="61" height="24" viewBox="0 0 61 24" fill="none" xmlns="http://www.w3.org/2000/svg">
<g clip-path="url(#clip0)">
<path fill-rule="evenodd" clip-rule="evenodd" d="M22.8756 16.6861L22.2564 17.7181C21.0989 19.4463 19.4606 20.7977 17.5437 21.6052L15.8581 22.1556L13.8286 22.3964C13.347 22.3964 12.8654 22.362 12.3838 22.362C11.6958 22.2244 11.0078 22.0868 10.3542 21.9492L9.18465 21.6052L8.97826 21.502C7.78105 20.9792 6.6951 20.2319 5.77911 19.3005L5.60711 19.0941C4.61489 18.1617 3.8398 17.0226 3.33676 15.7573C2.8065 14.493 2.52614 13.1379 2.51117 11.767C2.51393 10.8256 2.64116 9.8887 2.88955 8.98066C3.13131 8.11062 3.49005 7.27743 3.95594 6.5039C4.39965 5.71645 4.95591 4.99796 5.60712 4.37116L5.64153 4.33676L5.77912 4.16476C6.7569 3.18631 7.91286 2.40399 9.18466 1.86C9.21906 1.86 9.70065 1.68801 9.70065 1.68801C9.74842 1.68626 9.79528 1.67454 9.83825 1.65361V1.65361C10.141 1.57764 10.4395 1.48578 10.7326 1.37839C11.283 1.30959 11.8334 1.20639 12.3838 1.1032H12.487C12.5902 1.1032 12.6934 1.0688 12.831 1.0688H12.9686L13.003 1.0344H13.3126C13.3311 1.0157 13.3553 1.00361 13.3814 1L15.8581 1.30959L16.5805 1.55039L16.7181 1.58479L16.8557 1.65359L17.0965 1.72239L17.5437 1.85998C18.19 2.11658 18.8023 2.45161 19.3669 2.85757L20.0205 3.37356L20.2269 3.54556L20.3989 3.68315L20.9492 4.16474L21.6372 4.95593L21.9812 5.36872L22.1532 5.57512L22.2564 5.74712L22.394 5.91911L22.6348 6.26311H22.6004C22.2908 6.4007 21.6716 6.6415 20.4333 7.15749L19.9861 7.32949L19.6421 6.6071C18.3005 4.13035 15.9613 2.51357 13.347 2.51357C9.11585 2.51357 5.71031 6.6415 5.71031 11.767C5.71031 16.8926 9.11585 21.0205 13.347 21.0205C15.9613 21.0205 18.3005 19.4037 19.6421 16.927L20.1924 15.7918L20.5708 15.895C20.9492 16.0326 21.362 16.1702 21.7748 16.3078L22.8756 16.6861Z" fill="#ECC289"/>
<path d="M16.3397 11.0447V13.8998H15.1357V11.3887C15.1357 10.9071 14.9293 10.6663 14.5854 10.6663C14.4248 10.6588 14.2667 10.7074 14.1382 10.8039C14.0198 10.9083 13.9259 11.0375 13.863 11.1823V13.8998H12.659V11.1823C12.6625 11.1132 12.6522 11.0441 12.6285 10.9791C12.6049 10.9141 12.5685 10.8545 12.5214 10.8039C12.4795 10.7548 12.4263 10.7167 12.3664 10.6927C12.3064 10.6687 12.2416 10.6597 12.1774 10.6663C12.0062 10.6587 11.8372 10.707 11.6958 10.8039C11.5576 10.8886 11.4586 11.0247 11.4206 11.1823V13.8998H10.2167V9.63429H11.4206V9.90949C11.5545 9.77482 11.7163 9.67115 11.8946 9.60577C12.0729 9.5404 12.2634 9.51491 12.4526 9.5311C12.6595 9.53019 12.8644 9.57256 13.0539 9.6555C13.2435 9.73843 13.4136 9.8601 13.5534 10.0127C13.691 9.85738 13.8607 9.73387 14.0508 9.65071C14.2409 9.56755 14.4467 9.52673 14.6542 9.5311C15.0978 9.51392 15.5343 9.64728 15.8926 9.90949C16.0398 10.0587 16.1554 10.2363 16.2322 10.4313C16.3091 10.6264 16.3457 10.8351 16.3397 11.0447H16.3397Z" fill="#ECC289"/>
<path fill-rule="evenodd" clip-rule="evenodd" d="M7.05197 9.35913V11.2853H0V9.35913H7.05197Z" fill="#ECC289"/>
<path fill-rule="evenodd" clip-rule="evenodd" d="M7.05197 12.1799V14.1061H0V12.1799H7.05197Z" fill="#ECC289"/>
</g>
<path d="M32.0001 8.5L35.2942 12L32.0001 15.5" stroke="#ECC289" stroke-width="2"/>
<path fill-rule="evenodd" clip-rule="evenodd" d="M52.2587 0.0144144L50.5491 0.0288288L50.5629 3.2C46.8678 4.25225 43.9863 7.81261 44 11.8198V11.964V12.3964V12.4108C44.0276 16.4036 46.9506 19.9351 50.6456 20.9586L50.6594 24L52.369 23.9856L52.3553 21.2468C52.5207 21.2613 52.6999 21.2613 52.8792 21.2613C53.1411 21.2613 53.4031 21.2468 53.6513 21.2324L53.6651 23.9712L55.3747 23.9568L55.3609 20.9874C58.5734 20.2811 60.0073 18.2919 61 16.9081L58.9043 16.1009C58.8354 16.2018 58.7802 16.3171 58.6975 16.4468C57.9805 17.6865 56.6432 20.0072 52.8792 20.036C49.4737 20.0505 46.7438 16.3459 46.7162 12.3964V11.791C46.7024 7.82703 49.4047 4.09369 52.8102 4.07928C56.5329 4.06486 57.7737 6.12613 58.601 7.4955C58.6975 7.65405 58.794 7.81261 58.8767 7.95676L60.9586 7.12072C59.9522 5.75135 58.5045 3.76216 55.2782 3.0991L55.2506 0L53.541 0.0144144L53.5548 2.88288C53.3066 2.86847 53.0446 2.86847 52.7827 2.86847C52.6034 2.86847 52.438 2.88288 52.2587 2.88288V0.0144144ZM50.3974 10.6667C49.2944 11.1135 48.3569 11.791 47.8743 12.7568C48.936 10.5946 51.1006 8.61982 53.5961 8.60541C56.0917 8.59099 58.2563 10.5369 59.3455 12.6991C58.8629 11.7333 57.9116 11.0559 56.8086 10.6378C57.2084 11.1856 57.4566 11.8342 57.4566 12.5405C57.4704 14.4432 55.747 16 53.6237 16C51.5004 16.0144 49.777 14.4721 49.7632 12.5694C49.7632 11.8631 49.9976 11.2144 50.3974 10.6667ZM56.3536 12.5405C56.3536 13.6505 55.3058 14.8468 53.6237 14.8468C51.9416 14.8613 50.8662 13.6793 50.8662 12.5694C50.8662 11.4595 51.9141 10.2631 53.5961 10.2631C55.292 10.2486 56.3536 11.4306 56.3536 12.5405ZM54.4647 12.5405C54.4647 13.0306 54.0925 13.4198 53.6237 13.4198C53.1549 13.4198 52.7827 13.0306 52.7689 12.5405C52.7689 12.0505 53.1411 11.6613 53.6099 11.6613C54.0787 11.6613 54.451 12.0649 54.4647 12.5405Z" fill="#ECC289"/>
<defs>
<clipPath id="clip0">
<rect width="22.8756" height="21.3964" fill="white" transform="translate(0 1)"/>
</clipPath>
</defs>
</svg>
