<svg width="68" height="22" viewBox="0 0 68 22" fill="none" xmlns="http://www.w3.org/2000/svg">
<path d="M32.0001 7.5L35.2942 11L32.0001 14.5" stroke="#ECC289" stroke-width="2"/>
<path fill-rule="evenodd" clip-rule="evenodd" d="M55.2135 9.16872C54.1578 9.5964 53.2605 10.2448 52.7986 11.1692C53.8147 9.09974 55.8865 7.20967 58.275 7.19588C60.6635 7.18208 62.7353 9.04456 63.7778 11.114C63.3159 10.1896 62.4054 9.54122 61.3497 9.14113C61.7324 9.66539 61.9699 10.2862 61.9699 10.9622C61.9831 12.7833 60.3336 14.2733 58.3014 14.2733C56.2692 14.2871 54.6197 12.8109 54.6065 10.9898C54.6065 10.3138 54.8308 9.69298 55.2135 9.16872ZM60.9142 10.9622C60.9142 12.0245 59.9113 13.1696 58.3014 13.1696C56.6915 13.1834 55.6622 12.0521 55.6622 10.9898C55.6622 9.92751 56.6651 8.78243 58.275 8.78243C59.8981 8.76864 60.9142 9.89992 60.9142 10.9622ZM59.1064 10.9622C59.1064 11.4313 58.7501 11.8038 58.3014 11.8038C57.8527 11.8038 57.4965 11.4313 57.4833 10.9622C57.4833 10.4932 57.8395 10.1207 58.2882 10.1207C58.7369 10.1207 59.0932 10.5069 59.1064 10.9622Z" fill="#ECC289"/>
<path d="M67.4855 12.2125H64.1879L65.1165 16.1003C64.1879 18.3006 62.2909 19.6381 58.1837 19.6381C53.8102 19.6381 50.6481 15.4783 50.6481 10.7285C50.6481 6.00868 52.8026 1.59813 57.8783 1.59813C61.3439 1.59813 62.9369 3.4549 64.0197 4.80842L65.8215 2.42014C64.0197 1.34743 62.5226 -3.43323e-05 57.8783 -3.43323e-05C51.8681 -3.43323e-05 47.3123 4.80618 47.3123 10.7285C47.3123 17.2462 52.6695 21.4563 58.1837 21.4563C63.9376 21.4563 65.4115 19.443 67.1459 18.0762L67.4855 12.2125Z" fill="#ECC289"/>
<rect x="52.1677" y="7.99686" width="1.97152" height="7.16766" transform="rotate(90 52.1677 7.99686)" fill="#ECC289"/>
<rect x="52.1677" y="11.4878" width="1.97152" height="7.16766" transform="rotate(90 52.1677 11.4878)" fill="#ECC289"/>
<path d="M22.4855 12.2125H19.1879L20.1165 16.1003C19.1879 18.3006 17.2909 19.6381 13.1837 19.6381C8.81016 19.6381 5.64815 15.4783 5.64815 10.7285C5.64815 6.00868 7.8026 1.59813 12.8783 1.59813C16.3439 1.59813 17.9369 3.4549 19.0197 4.80842L20.8215 2.42014C19.0197 1.34743 17.5226 -3.43323e-05 12.8783 -3.43323e-05C6.86811 -3.43323e-05 2.31226 4.80618 2.31226 10.7285C2.31226 17.2462 7.66946 21.4563 13.1837 21.4563C18.9376 21.4563 20.4115 19.443 22.1459 18.0762L22.4855 12.2125Z" fill="#ECC289"/>
<rect x="7.16766" y="7.99686" width="1.97152" height="7.16766" transform="rotate(90 7.16766 7.99686)" fill="#ECC289"/>
<rect x="7.16766" y="11.4878" width="1.97152" height="7.16766" transform="rotate(90 7.16766 11.4878)" fill="#ECC289"/>
<path d="M15.3611 13.4684H17.0211V10.2684C17.0211 8.97839 16.4511 8.34839 15.4211 8.34839C14.6911 8.34839 14.1811 8.69839 13.9211 9.25839C13.6911 8.64839 13.1911 8.34839 12.5111 8.34839C11.8211 8.34839 11.3411 8.70839 11.1611 9.24839V8.46839H9.5011V13.4684H11.1611V10.6184C11.1611 9.95839 11.4311 9.57839 11.8811 9.57839C12.2511 9.57839 12.4311 9.81839 12.4311 10.2884V13.4684H14.0911V10.6184C14.0911 9.95839 14.3611 9.57839 14.8111 9.57839C15.1811 9.57839 15.3611 9.81839 15.3611 10.2884V13.4684Z" fill="#ECC289"/>
</svg>
