<svg width="62" height="24" viewBox="0 0 62 24" fill="none" xmlns="http://www.w3.org/2000/svg">
<path d="M32.0001 9.5L35.2942 13L32.0001 16.5" stroke="#ECC289" stroke-width="2"/>
<path fill-rule="evenodd" clip-rule="evenodd" d="M53.2587 0.0144144L51.5491 0.0288288L51.5629 3.2C47.8678 4.25225 44.9863 7.81261 45 11.8198V11.964V12.3964V12.4108C45.0276 16.4036 47.9506 19.9351 51.6456 20.9586L51.6594 24L53.369 23.9856L53.3553 21.2468C53.5207 21.2613 53.6999 21.2613 53.8792 21.2613C54.1411 21.2613 54.4031 21.2468 54.6513 21.2324L54.6651 23.9712L56.3747 23.9568L56.3609 20.9874C59.5734 20.2811 61.0073 18.2919 62 16.9081L59.9043 16.1009C59.8354 16.2018 59.7802 16.3171 59.6975 16.4468C58.9805 17.6865 57.6432 20.0072 53.8792 20.036C50.4737 20.0505 47.7438 16.3459 47.7162 12.3964V11.791C47.7024 7.82703 50.4047 4.09369 53.8102 4.07928C57.5329 4.06486 58.7737 6.12613 59.601 7.4955C59.6975 7.65405 59.794 7.81261 59.8767 7.95676L61.9586 7.12072C60.9522 5.75135 59.5045 3.76216 56.2782 3.0991L56.2506 0L54.541 0.0144144L54.5548 2.88288C54.3066 2.86847 54.0446 2.86847 53.7827 2.86847C53.6034 2.86847 53.438 2.88288 53.2587 2.88288V0.0144144ZM51.3974 10.6667C50.2944 11.1135 49.3569 11.791 48.8743 12.7568C49.936 10.5946 52.1006 8.61982 54.5961 8.60541C57.0917 8.59099 59.2563 10.5369 60.3455 12.6991C59.8629 11.7333 58.9116 11.0559 57.8086 10.6378C58.2084 11.1856 58.4566 11.8342 58.4566 12.5405C58.4704 14.4432 56.747 16 54.6237 16C52.5004 16.0144 50.777 14.4721 50.7632 12.5694C50.7632 11.8631 50.9976 11.2144 51.3974 10.6667ZM57.3536 12.5405C57.3536 13.6505 56.3058 14.8468 54.6237 14.8468C52.9416 14.8613 51.8662 13.6793 51.8662 12.5694C51.8662 11.4595 52.9141 10.2631 54.5961 10.2631C56.292 10.2486 57.3536 11.4306 57.3536 12.5405ZM55.4647 12.5405C55.4647 13.0306 55.0925 13.4198 54.6237 13.4198C54.1549 13.4198 53.7827 13.0306 53.7689 12.5405C53.7689 12.0505 54.1411 11.6613 54.6099 11.6613C55.0787 11.6613 55.451 12.0649 55.4647 12.5405Z" fill="#ECC289"/>
<path d="M22.4855 14.2125H19.1879L20.1165 18.1003C19.1879 20.3006 17.2909 21.6381 13.1837 21.6381C8.81016 21.6381 5.64815 17.4783 5.64815 12.7285C5.64815 8.00868 7.8026 3.59813 12.8783 3.59813C16.3439 3.59813 17.9369 5.4549 19.0197 6.80843L20.8215 4.42015C19.0197 3.34743 17.5226 1.99997 12.8783 1.99997C6.86811 1.99997 2.31226 6.80619 2.31226 12.7285C2.31226 19.2462 7.66946 23.4563 13.1837 23.4563C18.9376 23.4563 20.4115 21.443 22.1459 20.0762L22.4855 14.2125Z" fill="#ECC289"/>
<rect x="7.16766" y="9.99686" width="1.97152" height="7.16766" transform="rotate(90 7.16766 9.99686)" fill="#ECC289"/>
<rect x="7.16766" y="13.4878" width="1.97152" height="7.16766" transform="rotate(90 7.16766 13.4878)" fill="#ECC289"/>
<path d="M15.3611 15.4684H17.0211V12.2684C17.0211 10.9784 16.4511 10.3484 15.4211 10.3484C14.6911 10.3484 14.1811 10.6984 13.9211 11.2584C13.6911 10.6484 13.1911 10.3484 12.5111 10.3484C11.8211 10.3484 11.3411 10.7084 11.1611 11.2484V10.4684H9.5011V15.4684H11.1611V12.6184C11.1611 11.9584 11.4311 11.5784 11.8811 11.5784C12.2511 11.5784 12.4311 11.8184 12.4311 12.2884V15.4684H14.0911V12.6184C14.0911 11.9584 14.3611 11.5784 14.8111 11.5784C15.1811 11.5784 15.3611 11.8184 15.3611 12.2884V15.4684Z" fill="#ECC289"/>
</svg>
