<?xml version="1.0" encoding="utf-8"?>
<!-- Generator: Adobe Illustrator 25.0.1, SVG Export Plug-In . SVG Version: 6.00 Build 0)  -->
<svg version="1.1" id="Layer_1" xmlns="http://www.w3.org/2000/svg" xmlns:xlink="http://www.w3.org/1999/xlink" x="0px" y="0px"
	 viewBox="0 0 54.8 24" style="enable-background:new 0 0 54.8 24;" xml:space="preserve">
<style type="text/css">
	.st0{fill:none;stroke:#ECC289;stroke-width:2;}
	.st1{fill:#ECC289;}
</style>
<path class="st0" d="M26,9.5l3.3,3.5L26,16.5"/>
<g>
	<path class="st1" d="M13.1,22.3C13.1,22.3,13.1,22.3,13.1,22.3c-0.1,0-0.2,0-0.2,0c-0.4,0-0.8,0.1-1.2,0.1c-1.9,0-3.6-0.4-5.1-1.3
		c-1.5-0.9-2.7-2-3.6-3.5c-0.9-1.5-1.3-3.2-1.3-5s0.4-3.5,1.3-5C3.8,6,5,4.8,6.6,3.9c1.5-0.9,3.3-1.3,5.1-1.3c0.4,0,0.8,0,1.2,0.1
		c0.1,0,0.1,0,0.2,0c0,0,0,0,0.1,0C15,3,16.6,3.7,18,4.8l0.9-1.2c-0.8-0.7-1.7-1.3-2.8-1.7c-1.4-0.5-2.9-0.8-4.5-0.8h0l0,0
		c-2.2,0-4.2,0.5-5.9,1.5C3.9,3.6,2.5,5,1.5,6.7C0.6,8.3,0.1,10.1,0,12.1c0,0.1,0,0.3,0,0.4s0,0.3,0,0.4c0.1,2,0.6,3.8,1.5,5.4
		c1,1.7,2.4,3.1,4.2,4.1c1.8,1,3.7,1.5,5.9,1.5l0,0h0c1.5,0,3-0.3,4.3-0.7c0,0,0.1,0,0.1,0l0,0c0,0,0,0,0,0c1.1-0.4,2-1,2.8-1.7
		L18,20.2C16.6,21.4,15,22.1,13.1,22.3z"/>
	<path class="st1" d="M12.8,11.8l-3.6-5h2.6l2.3,3.1L12.8,11.8z M17.9,18.5h2.6l-3.7-5l-1.3,1.8L17.9,18.5z M22.8,1.7l1.3,1.7L25,0
		l-2.4,1.1l0.2,0.3l-7.4,10.1l-0.8-1.1l-6,8.1l2.4,0l2.9-4l-0.3-1.8l1.4,2.2l8.4-11.3L22.8,1.7z"/>
	<g>
		<path class="st1" d="M9.6,10.8c0.3,0.3,0.4,0.8,0.4,1.4v2.5H8.9v-2.3c0-0.3-0.1-0.6-0.2-0.8c-0.1-0.2-0.3-0.3-0.5-0.3
			c-0.3,0-0.5,0.1-0.6,0.3s-0.2,0.5-0.2,0.8v2.2H6.2v-2.3c0-0.7-0.2-1-0.7-1c-0.3,0-0.5,0.1-0.6,0.3c-0.2,0.2-0.2,0.5-0.2,0.8v2.2
			H3.5v-4.3h1.1v0.5c0.1-0.2,0.3-0.3,0.5-0.4c0.2-0.1,0.4-0.1,0.7-0.1c0.3,0,0.5,0.1,0.7,0.2C6.7,10.6,6.9,10.8,7,11
			c0.2-0.2,0.4-0.4,0.6-0.5c0.2-0.1,0.5-0.2,0.8-0.2C8.9,10.3,9.3,10.5,9.6,10.8z"/>
	</g>
</g>
<path class="st1" d="M42.5,11.7l-3.6-5.1h2.6l2.3,3.1L42.5,11.7z M47.7,18.5h2.7l-3.7-5l-1.3,1.8L47.7,18.5z M52.6,1.6l1.3,1.7
	l0.9-3.4L52.4,1l0.2,0.3l-7.4,10.2l-0.8-1.1l-6,8.1h2.4l2.9-4l-0.3-1.9l1.4,2.2l8.4-11.3L52.6,1.6z M39.3,22.4
	c-1.8-1-3.2-2.3-4.2-4.1c-1-1.7-1.5-3.7-1.5-5.9s0.5-4.1,1.5-5.9c1-1.7,2.4-3.1,4.2-4.1s3.8-1.5,6-1.5c1.6,0,3.1,0.3,4.4,0.8L48.8,3
	c-1-0.3-2.2-0.5-3.4-0.5c-1.9,0-3.6,0.4-5.1,1.3s-2.8,2-3.6,3.6c-0.9,1.5-1.3,3.2-1.3,5.1s0.4,3.6,1.3,5.1c0.9,1.5,2.1,2.7,3.6,3.6
	s3.3,1.3,5.1,1.3c2.5,0,4.6-0.7,6.3-2.2l0.9,1.2c-0.8,0.7-1.8,1.3-2.8,1.7c-1.4,0.5-2.9,0.8-4.5,0.8C43,23.9,41,23.4,39.3,22.4z"/>
</svg>
