<svg width="62" height="25" viewBox="0 0 62 25" fill="none" xmlns="http://www.w3.org/2000/svg">
<path d="M33.3172 9.5L36.6113 13L33.3172 16.5" stroke="#ECC289" stroke-width="2"/>
<path fill-rule="evenodd" clip-rule="evenodd" d="M52.3833 0.0144144L50.6736 0.0288288L50.6874 3.2C46.9924 4.25225 44.1108 7.81261 44.1246 11.8198V11.964V12.3964V12.4108C44.1521 16.4036 47.0751 19.9351 50.7701 20.9586L50.7839 24L52.4936 23.9856L52.4798 21.2468C52.6452 21.2613 52.8245 21.2613 53.0037 21.2613C53.2657 21.2613 53.5276 21.2468 53.7758 21.2324L53.7896 23.9712L55.4992 23.9568L55.4854 20.9874C58.6979 20.2811 60.1318 18.2919 61.1245 16.9081L59.0288 16.1009C58.9599 16.2018 58.9047 16.3171 58.822 16.4468C58.1051 17.6865 56.7677 20.0072 53.0037 20.036C49.5982 20.0505 46.8683 16.3459 46.8407 12.3964V11.791C46.8269 7.82703 49.5292 4.09369 52.9348 4.07928C56.6574 4.06486 57.8982 6.12613 58.7255 7.4955C58.822 7.65405 58.9185 7.81261 59.0012 7.95676L61.0831 7.12072C60.0767 5.75135 58.629 3.76216 55.4027 3.0991L55.3751 0L53.6655 0.0144144L53.6793 2.88288C53.4311 2.86847 53.1691 2.86847 52.9072 2.86847C52.7279 2.86847 52.5625 2.88288 52.3833 2.88288V0.0144144ZM50.5219 10.6667C49.4189 11.1135 48.4814 11.791 47.9988 12.7568C49.0605 10.5946 51.2251 8.61982 53.7206 8.60541C56.2162 8.59099 58.3808 10.5369 59.47 12.6991C58.9875 11.7333 58.0361 11.0559 56.9331 10.6378C57.333 11.1856 57.5811 11.8342 57.5811 12.5405C57.5949 14.4432 55.8715 16 53.7482 16C51.6249 16.0144 49.9015 14.4721 49.8877 12.5694C49.8877 11.8631 50.1221 11.2144 50.5219 10.6667ZM56.4781 12.5405C56.4781 13.6505 55.4303 14.8468 53.7482 14.8468C52.0661 14.8613 50.9907 13.6793 50.9907 12.5694C50.9907 11.4595 52.0386 10.2631 53.7206 10.2631C55.4165 10.2486 56.4781 11.4306 56.4781 12.5405ZM54.5893 12.5405C54.5893 13.0306 54.217 13.4198 53.7482 13.4198C53.2794 13.4198 52.9072 13.0306 52.8934 12.5405C52.8934 12.0505 53.2657 11.6613 53.7344 11.6613C54.2032 11.6613 54.5755 12.0649 54.5893 12.5405Z" fill="#ECC289"/>
<g clip-path="url(#clip0_1426:11)">
<path d="M13.2828 17.7998H13.2206C13.2411 17.8007 13.2624 17.8007 13.2828 17.8007V25C12.4724 25.0003 11.664 24.9197 10.8697 24.7595V3.7026C10.024 3.91904 9.21199 4.2495 8.45632 4.68479V24.0016C7.59988 23.6294 6.78988 23.1595 6.04265 22.6011V6.65242C4.48523 8.40387 3.62679 10.6619 3.62954 13V20.2002H3.62781C2.05921 18.1238 1.21113 15.5969 1.21118 12.9998C1.21123 10.4027 2.05941 7.87591 3.62808 5.79955H3.62981V5.79783C4.31666 4.88989 5.1286 4.08262 6.04174 3.39978H6.04265V3.39887C8.13045 1.83933 10.6717 0.997354 13.2828 1.00001V17.7998Z" fill="#ECC289"/>
<path d="M25.1077 15.4004C24.7518 17.1407 24.0104 18.7803 22.9375 20.2H22.9366V20.2008C22.25 21.1098 21.4375 21.9177 20.5235 22.6005H20.5226V22.6014C19.095 23.6683 17.4463 24.4056 15.6964 24.7595V1.24048C17.4463 1.59456 19.0949 2.33179 20.5226 3.39864V3.40037H20.5243C21.4378 4.08311 22.2497 4.89064 22.9362 5.79905V5.7996H22.9372C24.011 7.21933 24.7525 8.85955 25.1077 10.6006H22.6327C22.3098 9.36607 21.7438 8.20754 20.9674 7.19208C20.1911 6.17662 19.2199 5.32442 18.1101 4.68483V21.3161C19.5766 20.471 20.7953 19.2591 21.6451 17.8007C22.0824 17.049 22.4147 16.2414 22.6327 15.4004H25.1077Z" fill="#ECC289"/>
<path d="M1.33514e-05 12.425H4.99225V10.0334H1.33514e-05V12.425Z" fill="#ECC289"/>
<path d="M1.33514e-05 15.9667H4.99225V13.5751H1.33514e-05V15.9667Z" fill="#ECC289"/>
</g>
<defs>
<clipPath id="clip0_1426:11">
<rect width="25.1077" height="24" fill="white" transform="translate(0 1)"/>
</clipPath>
</defs>
</svg>
