<svg width="162" height="40" viewBox="0 0 162 40" fill="none" xmlns="http://www.w3.org/2000/svg">
<path d="M12.431 32V33H13.431V32H12.431ZM12.431 10.3H13.431V9.3H12.431V10.3ZM8.866 10.3V9.3H8.64848L8.45061 9.39035L8.866 10.3ZM3.503 12.749L3.08761 11.8394L2.503 12.1063V12.749H3.503ZM3.503 16.531H2.503V18.0882L3.91904 17.4403L3.503 16.531ZM8.246 14.361H9.246V12.8038L7.82996 13.4517L8.246 14.361ZM8.246 32H7.246V33H8.246V32ZM13.431 32V10.3H11.431V32H13.431ZM12.431 9.3H8.866V11.3H12.431V9.3ZM8.45061 9.39035L3.08761 11.8394L3.91839 13.6586L9.28139 11.2096L8.45061 9.39035ZM2.503 12.749V16.531H4.503V12.749H2.503ZM3.91904 17.4403L8.66204 15.2703L7.82996 13.4517L3.08696 15.6217L3.91904 17.4403ZM7.246 14.361V32H9.246V14.361H7.246ZM8.246 33H12.431V31H8.246V33ZM19.6622 17.213H18.6622V18.213H19.6622V17.213ZM23.8472 17.213V18.213H24.8472V17.213H23.8472ZM27.8772 19.724L28.6338 20.378L28.6421 20.3681L27.8772 19.724ZM19.9722 28.869L19.2157 28.215L18.9722 28.4967V28.869H19.9722ZM19.9722 32H18.9722V33H19.9722V32ZM33.7982 32V33H34.7982V32H33.7982ZM33.7982 28.559H34.7982V27.559H33.7982V28.559ZM25.3972 28.559L24.6438 27.9015L23.1972 29.559H25.3972V28.559ZM31.3492 21.739L32.1027 22.3965L32.1049 22.3939L31.3492 21.739ZM34.4882 16.469C34.4882 14.4432 33.7958 12.5441 32.4175 11.1476C31.0335 9.74528 29.0356 8.928 26.5752 8.928V10.928C28.5788 10.928 30.0374 11.5832 30.994 12.5524C31.9562 13.5274 32.4882 14.8987 32.4882 16.469H34.4882ZM26.5752 8.928C24.1288 8.928 22.1322 9.74622 20.7458 11.1464C19.3647 12.5412 18.6622 14.4398 18.6622 16.469H20.6622C20.6622 14.9022 21.1998 13.5303 22.1669 12.5536C23.1288 11.5823 24.5887 10.928 26.5752 10.928V8.928ZM18.6622 16.469V17.213H20.6622V16.469H18.6622ZM19.6622 18.213H23.8472V16.213H19.6622V18.213ZM24.8472 17.213V16.469H22.8472V17.213H24.8472ZM24.8472 16.469C24.8472 15.658 25.0591 15.1455 25.3214 14.8486C25.5692 14.568 25.9587 14.369 26.5752 14.369V12.369C25.4868 12.369 24.5123 12.7435 23.8223 13.5246C23.1468 14.2895 22.8472 15.3269 22.8472 16.469H24.8472ZM26.5752 14.369C27.2035 14.369 27.5909 14.573 27.8356 14.8544C28.097 15.155 28.3032 15.6696 28.3032 16.469H30.3032C30.3032 15.3464 30.0134 14.311 29.3448 13.5421C28.6596 12.754 27.683 12.369 26.5752 12.369V14.369ZM28.3032 16.469C28.3032 17.3482 28.0268 17.994 27.1123 19.0799L28.6421 20.3681C29.7117 19.098 30.3032 18.0078 30.3032 16.469H28.3032ZM27.1207 19.07L19.2157 28.215L20.7288 29.523L28.6338 20.378L27.1207 19.07ZM18.9722 28.869V32H20.9722V28.869H18.9722ZM19.9722 33H33.7982V31H19.9722V33ZM34.7982 32V28.559H32.7982V32H34.7982ZM33.7982 27.559H25.3972V29.559H33.7982V27.559ZM26.1507 29.2165L32.1027 22.3965L30.5958 21.0815L24.6438 27.9015L26.1507 29.2165ZM32.1049 22.3939C32.9382 21.4325 33.5537 20.5777 33.9474 19.6256C34.3464 18.6605 34.4882 17.6676 34.4882 16.469H32.4882C32.4882 17.5024 32.3666 18.2145 32.0991 18.8614C31.8263 19.5213 31.3723 20.1855 30.5935 21.0841L32.1049 22.3939Z" fill="#ECC289"/>
<path d="M132 16L135.294 19.5L132 23" stroke="#ECC289" stroke-width="2"/>
<path fill-rule="evenodd" clip-rule="evenodd" d="M153.259 8.01441L151.549 8.02883L151.563 11.2C147.868 12.2523 144.986 15.8126 145 19.8198V19.964V20.3964V20.4108C145.028 24.4036 147.951 27.9351 151.646 28.9586L151.659 32L153.369 31.9856L153.355 29.2468C153.521 29.2613 153.7 29.2613 153.879 29.2613C154.141 29.2613 154.403 29.2468 154.651 29.2324L154.665 31.9712L156.375 31.9568L156.361 28.9874C159.573 28.2811 161.007 26.2919 162 24.9081L159.904 24.1009C159.835 24.2018 159.78 24.3171 159.697 24.4468C158.981 25.6865 157.643 28.0072 153.879 28.036C150.474 28.0505 147.744 24.3459 147.716 20.3964V19.791C147.702 15.827 150.405 12.0937 153.81 12.0793C157.533 12.0649 158.774 14.1261 159.601 15.4955C159.697 15.6541 159.794 15.8126 159.877 15.9568L161.959 15.1207C160.952 13.7514 159.504 11.7622 156.278 11.0991L156.251 8L154.541 8.01441L154.555 10.8829C154.307 10.8685 154.045 10.8685 153.783 10.8685C153.603 10.8685 153.438 10.8829 153.259 10.8829V8.01441ZM151.397 18.6667C150.294 19.1135 149.357 19.791 148.874 20.7568C149.936 18.5946 152.101 16.6198 154.596 16.6054C157.092 16.591 159.256 18.5369 160.346 20.6991C159.863 19.7333 158.912 19.0559 157.809 18.6378C158.208 19.1856 158.457 19.8342 158.457 20.5405C158.47 22.4432 156.747 24 154.624 24C152.5 24.0144 150.777 22.4721 150.763 20.5694C150.763 19.8631 150.998 19.2144 151.397 18.6667ZM157.354 20.5405C157.354 21.6505 156.306 22.8468 154.624 22.8468C152.942 22.8613 151.866 21.6793 151.866 20.5694C151.866 19.4595 152.914 18.2631 154.596 18.2631C156.292 18.2486 157.354 19.4306 157.354 20.5405ZM155.465 20.5405C155.465 21.0306 155.092 21.4198 154.624 21.4198C154.155 21.4198 153.783 21.0306 153.769 20.5405C153.769 20.0505 154.141 19.6613 154.61 19.6613C155.079 19.6613 155.451 20.0649 155.465 20.5405Z" fill="#ECC289"/>
<path d="M46.526 34.06C47.828 34.06 48.788 33.148 48.788 31.9C48.788 30.652 47.828 29.74 46.526 29.74C45.224 29.74 44.264 30.658 44.264 31.9C44.264 33.142 45.224 34.06 46.526 34.06ZM46.526 33.376C45.68 33.376 45.05 32.758 45.05 31.9C45.05 31.042 45.68 30.424 46.526 30.424C47.372 30.424 48.002 31.042 48.002 31.9C48.002 32.758 47.372 33.376 46.526 33.376ZM53.7428 29.8H52.0148V34H52.7948V32.788H53.7428C54.8468 32.788 55.5308 32.218 55.5308 31.294C55.5308 30.364 54.8468 29.8 53.7428 29.8ZM53.7068 32.128H52.7948V30.46H53.7068C54.3908 30.46 54.7448 30.766 54.7448 31.294C54.7448 31.822 54.3908 32.128 53.7068 32.128ZM59.4387 34H60.2187V30.46H61.6107V29.8H58.0467V30.46H59.4387V34ZM64.596 34H65.376V29.8H64.596V34ZM70.874 34.06C72.176 34.06 73.136 33.148 73.136 31.9C73.136 30.652 72.176 29.74 70.874 29.74C69.572 29.74 68.612 30.658 68.612 31.9C68.612 33.142 69.572 34.06 70.874 34.06ZM70.874 33.376C70.028 33.376 69.398 32.758 69.398 31.9C69.398 31.042 70.028 30.424 70.874 30.424C71.72 30.424 72.35 31.042 72.35 31.9C72.35 32.758 71.72 33.376 70.874 33.376ZM79.3208 29.8V32.644L77.0048 29.8H76.3628V34H77.1368V31.156L79.4528 34H80.0948V29.8H79.3208Z" fill="#ECC289"/>
<path d="M46.5898 10H45V24.9982H46.5898V10Z" fill="#ECC289"/>
<path d="M60.9975 12.2845C60.302 11.5892 59.5071 11.0926 58.6128 10.6953C56.8243 9.9007 54.5389 9.9007 52.7504 10.6953C51.9555 11.0926 51.1606 11.5892 50.465 12.2845C49.7695 12.9798 49.2727 13.7744 48.8752 14.6683C48.4778 15.5623 48.2791 16.5555 48.2791 17.5488V24.9982H49.9682V17.5488C49.9682 16.7542 50.167 15.9596 50.465 15.2643C50.7631 14.6683 51.1606 13.973 51.6574 13.4764C52.1542 12.9798 52.8498 12.5825 53.5453 12.2845C54.9364 11.6886 56.6255 11.6886 58.0166 12.2845C58.7122 12.5825 59.3084 12.9798 59.9045 13.5757C60.4013 14.0724 60.7988 14.7677 61.1962 15.4629C61.4943 16.1582 61.6931 16.9528 61.6931 17.7474V25.1968H63.3822V17.5488C63.3822 16.5555 63.1835 15.5623 62.7861 14.6683C62.2892 13.7744 61.6931 12.9798 60.9975 12.2845Z" fill="#ECC289"/>
<path d="M73.2191 16.6548H68.8472V18.3434H73.2191V16.6548Z" fill="#ECC289"/>
<path d="M69.4433 10.596C68.549 10.9933 67.7541 11.4899 67.0585 12.1852C66.363 12.8804 65.8662 13.675 65.4687 14.569C65.0713 15.5622 64.8726 16.5555 64.8726 17.5487V25.0975H66.5617V17.5487C66.5617 16.7541 66.7605 15.9595 67.0585 15.2643C67.3566 14.569 67.7541 13.973 68.3503 13.3771C68.8471 12.8804 69.5426 12.4831 70.2382 12.0858C70.9337 11.7879 71.7286 11.5892 72.5235 11.5892H73.4178V10H72.5235C71.3312 10 70.3375 10.1987 69.4433 10.596Z" fill="#ECC289"/>
<path d="M76.3986 10H74.8088V24.9982H76.3986V10Z" fill="#ECC289"/>
<path d="M90.9057 12.2845C90.2102 11.5892 89.4153 11.0926 88.521 10.6953C86.7325 9.9007 84.4471 9.9007 82.6586 10.6953C81.7643 11.0926 80.9694 11.5892 80.2739 12.2845C79.5783 12.9798 79.0815 13.7744 78.6841 14.6683C78.2866 15.5623 78.0879 16.5555 78.0879 17.5488V24.9982H79.7771V17.5488C79.7771 16.7542 79.9758 15.9596 80.2739 15.2643C80.572 14.569 80.9694 13.973 81.5656 13.3771C82.0624 12.8805 82.6586 12.4832 83.4535 12.0859C84.8446 11.4899 86.5338 11.4899 87.9248 12.0859C88.6204 12.3838 89.2166 12.7811 89.8127 13.3771C90.3095 13.8737 90.707 14.569 91.1045 15.2643C91.4025 15.9596 91.6013 16.7542 91.6013 17.5488V24.9982H93.2904V17.5488C93.2904 16.5555 93.0917 15.5623 92.6943 14.6683C92.0981 13.7744 91.5019 12.9798 90.9057 12.2845Z" fill="#ECC289"/>
<path d="M96.2714 10H94.6816V24.9982H96.2714V10Z" fill="#ECC289"/>
<path d="M106.307 16.6548H101.935V18.4427H106.307V16.6548Z" fill="#ECC289"/>
<path d="M103.227 22.9123C102.531 22.6143 101.935 22.217 101.339 21.6211C100.842 21.1245 100.345 20.4292 100.047 19.7339C99.749 19.138 99.6496 18.3433 99.6496 17.5487V10H97.9604V17.5487C97.9604 18.542 98.1592 19.5353 98.5566 20.4292C98.9541 21.3231 99.5503 22.1177 100.146 22.813C100.842 23.5083 101.637 24.0049 102.531 24.4022C103.425 24.7995 104.419 24.9982 105.413 24.9982H106.307V23.3096H105.413C104.618 23.3096 103.922 23.2103 103.227 22.9123Z" fill="#ECC289"/>
<path d="M121.311 17.5487C121.311 18.3433 121.112 19.138 120.814 19.8332C120.516 20.5285 120.118 21.1245 119.522 21.7204C119.025 22.217 118.429 22.6143 117.634 23.0117C116.243 23.6076 114.554 23.6076 113.064 23.0117C112.368 22.7137 111.772 22.3164 111.176 21.7204C110.679 21.2238 110.281 20.5285 109.884 19.8332C109.586 19.138 109.387 18.3433 109.387 17.5487V10H107.698V17.5487C107.698 18.542 107.897 19.5353 108.294 20.4292C108.692 21.3231 109.188 22.1177 109.884 22.813C110.58 23.5083 111.374 24.0049 112.269 24.4022C113.163 24.7995 114.157 24.9982 115.15 24.9982C116.442 24.9982 117.634 24.7002 118.727 24.1042C119.622 23.6076 120.317 23.0117 120.913 22.3164V23.9056C120.913 24.9982 120.814 26.0907 120.516 26.9847C120.218 27.8786 119.82 28.6732 119.323 29.3685C118.827 30.0638 118.23 30.5604 117.535 30.8584C116.839 31.2557 116.044 31.355 115.15 31.355H114.554V33.0435H115.448C116.74 33.0435 117.833 32.7456 118.827 32.2489C119.721 31.7523 120.516 30.9577 121.211 30.1631C121.808 29.2692 122.304 28.2759 122.602 27.1833C122.901 26.0907 123 24.9982 123 23.8063V10H121.211V17.5487H121.311Z" fill="#ECC289"/>
</svg>
