<svg width="147" height="40" viewBox="0 0 147 40" fill="none" xmlns="http://www.w3.org/2000/svg">
<path d="M12.121 20.468L11.8184 19.5149L8.52927 20.559L11.8671 21.4352L12.121 20.468ZM2.17 16.283H1.17V17.283H2.17V16.283ZM6.293 16.283V17.283H7.293V16.283H6.293ZM6.541 18.856V17.856H5.541V18.856H6.541ZM6.541 22.204H5.541V23.204H6.541V22.204ZM5.735 25.366H6.735V24.366H5.735V25.366ZM1.519 25.366V24.366H0.519V25.366H1.519ZM0.519 25.862C0.519 28.1124 1.37128 30.0197 2.87908 31.3539C4.37487 32.6775 6.43977 33.372 8.773 33.372V31.372C6.82823 31.372 5.26613 30.7955 4.20442 29.8561C3.15472 28.9273 2.519 27.5796 2.519 25.862H0.519ZM8.773 33.372C11.1203 33.372 13.1864 32.6782 14.6797 31.3529C16.1848 30.017 17.027 28.1092 17.027 25.862H15.027C15.027 27.5828 14.3967 28.93 13.3521 29.8571C12.2956 30.7948 10.7347 31.372 8.773 31.372V33.372ZM17.027 25.862C17.027 24.2826 16.6264 22.8794 15.8121 21.7623C14.9944 20.6402 13.8107 19.8777 12.3749 19.5008L11.8671 21.4352C12.9113 21.7093 13.6806 22.2333 14.1959 22.9402C14.7146 23.6521 15.027 24.6204 15.027 25.862H17.027ZM12.4236 21.4211C14.8175 20.6611 16.376 18.5202 16.376 15.756H14.376C14.376 17.7038 13.3305 19.0349 11.8184 19.5149L12.4236 21.4211ZM16.376 15.756C16.376 13.8317 15.6751 12.0977 14.3213 10.8509C12.9729 9.60908 11.0626 8.928 8.773 8.928V10.928C10.6684 10.928 12.0596 11.4869 12.9664 12.3221C13.8679 13.1523 14.376 14.3323 14.376 15.756H16.376ZM8.773 8.928C6.4973 8.928 4.58841 9.60996 3.23757 10.8498C1.88125 12.0946 1.17 13.828 1.17 15.756H3.17C3.17 14.336 3.68325 13.1554 4.58993 12.3232C5.5021 11.486 6.8947 10.928 8.773 10.928V8.928ZM1.17 15.756V16.283H3.17V15.756H1.17ZM2.17 17.283H6.293V15.283H2.17V17.283ZM7.293 16.283V16.066H5.293V16.283H7.293ZM7.293 16.066C7.293 15.4252 7.48025 15.014 7.70606 14.7721C7.92581 14.5366 8.26708 14.369 8.773 14.369V12.369C7.79092 12.369 6.8922 12.7129 6.24395 13.4074C5.60175 14.0955 5.293 15.0328 5.293 16.066H7.293ZM8.773 14.369C9.27892 14.369 9.6202 14.5366 9.83994 14.7721C10.0658 15.014 10.253 15.4252 10.253 16.066H12.253C12.253 15.0328 11.9442 14.0955 11.3021 13.4074C10.6538 12.7129 9.75508 12.369 8.773 12.369V14.369ZM10.253 16.066C10.253 16.7814 10.0451 17.1985 9.80481 17.4369C9.56188 17.6778 9.16484 17.856 8.556 17.856V19.856C9.55916 19.856 10.5106 19.5537 11.2132 18.8569C11.9184 18.1575 12.253 17.1796 12.253 16.066H10.253ZM8.556 17.856H6.541V19.856H8.556V17.856ZM5.541 18.856V22.204H7.541V18.856H5.541ZM6.541 23.204H8.556V21.204H6.541V23.204ZM8.556 23.204C9.39618 23.204 9.92868 23.4364 10.2543 23.7665C10.5815 24.0981 10.842 24.6723 10.842 25.645H12.842C12.842 24.3237 12.4825 23.1774 11.6782 22.362C10.8723 21.5451 9.76182 21.204 8.556 21.204V23.204ZM10.842 25.645C10.842 26.5033 10.5929 27.0535 10.2739 27.384C9.95743 27.7118 9.46888 27.931 8.773 27.931V29.931C9.90612 29.931 10.9521 29.5612 11.7129 28.773C12.4711 27.9875 12.842 26.8947 12.842 25.645H10.842ZM8.773 27.931C8.09719 27.931 7.61623 27.7148 7.30174 27.3866C6.98421 27.0553 6.735 26.5033 6.735 25.645H4.735C4.735 26.8947 5.10579 27.9857 5.85776 28.7704C6.61277 29.5582 7.65081 29.931 8.773 29.931V27.931ZM6.735 25.645V25.366H4.735V25.645H6.735ZM5.735 24.366H1.519V26.366H5.735V24.366ZM0.519 25.366V25.862H2.519V25.366H0.519Z" fill="#ECC289"/>
<path d="M113 17L116.294 20.5L113 24" stroke="#ECC289" stroke-width="2"/>
<path fill-rule="evenodd" clip-rule="evenodd" d="M134.259 9.01441L132.549 9.02883L132.563 12.2C128.868 13.2523 125.986 16.8126 126 20.8198V20.964V21.3964V21.4108C126.028 25.4036 128.951 28.9351 132.646 29.9586L132.659 33L134.369 32.9856L134.355 30.2468C134.521 30.2613 134.7 30.2613 134.879 30.2613C135.141 30.2613 135.403 30.2468 135.651 30.2324L135.665 32.9712L137.375 32.9568L137.361 29.9874C140.573 29.2811 142.007 27.2919 143 25.9081L140.904 25.1009C140.835 25.2018 140.78 25.3171 140.697 25.4468C139.981 26.6865 138.643 29.0072 134.879 29.036C131.474 29.0505 128.744 25.3459 128.716 21.3964V20.791C128.702 16.827 131.405 13.0937 134.81 13.0793C138.533 13.0649 139.774 15.1261 140.601 16.4955C140.697 16.6541 140.794 16.8126 140.877 16.9568L142.959 16.1207C141.952 14.7514 140.504 12.7622 137.278 12.0991L137.251 9L135.541 9.01441L135.555 11.8829C135.307 11.8685 135.045 11.8685 134.783 11.8685C134.603 11.8685 134.438 11.8829 134.259 11.8829V9.01441ZM132.397 19.6667C131.294 20.1135 130.357 20.791 129.874 21.7568C130.936 19.5946 133.101 17.6198 135.596 17.6054C138.092 17.591 140.256 19.5369 141.346 21.6991C140.863 20.7333 139.912 20.0559 138.809 19.6378C139.208 20.1856 139.457 20.8342 139.457 21.5405C139.47 23.4432 137.747 25 135.624 25C133.5 25.0144 131.777 23.4721 131.763 21.5694C131.763 20.8631 131.998 20.2144 132.397 19.6667ZM138.354 21.5405C138.354 22.6505 137.306 23.8468 135.624 23.8468C133.942 23.8613 132.866 22.6793 132.866 21.5694C132.866 20.4595 133.914 19.2631 135.596 19.2631C137.292 19.2486 138.354 20.4306 138.354 21.5405ZM136.465 21.5405C136.465 22.0306 136.092 22.4198 135.624 22.4198C135.155 22.4198 134.783 22.0306 134.769 21.5405C134.769 21.0505 135.141 20.6613 135.61 20.6613C136.079 20.6613 136.451 21.0649 136.465 21.5405Z" fill="#ECC289"/>
<path d="M25.526 33.06C26.828 33.06 27.788 32.148 27.788 30.9C27.788 29.652 26.828 28.74 25.526 28.74C24.224 28.74 23.264 29.658 23.264 30.9C23.264 32.142 24.224 33.06 25.526 33.06ZM25.526 32.376C24.68 32.376 24.05 31.758 24.05 30.9C24.05 30.042 24.68 29.424 25.526 29.424C26.372 29.424 27.002 30.042 27.002 30.9C27.002 31.758 26.372 32.376 25.526 32.376ZM32.7428 28.8H31.0148V33H31.7948V31.788H32.7428C33.8468 31.788 34.5308 31.218 34.5308 30.294C34.5308 29.364 33.8468 28.8 32.7428 28.8ZM32.7068 31.128H31.7948V29.46H32.7068C33.3908 29.46 33.7448 29.766 33.7448 30.294C33.7448 30.822 33.3908 31.128 32.7068 31.128ZM38.4387 33H39.2187V29.46H40.6107V28.8H37.0467V29.46H38.4387V33ZM43.596 33H44.376V28.8H43.596V33ZM49.874 33.06C51.176 33.06 52.136 32.148 52.136 30.9C52.136 29.652 51.176 28.74 49.874 28.74C48.572 28.74 47.612 29.658 47.612 30.9C47.612 32.142 48.572 33.06 49.874 33.06ZM49.874 32.376C49.028 32.376 48.398 31.758 48.398 30.9C48.398 30.042 49.028 29.424 49.874 29.424C50.72 29.424 51.35 30.042 51.35 30.9C51.35 31.758 50.72 32.376 49.874 32.376ZM58.3208 28.8V31.644L56.0048 28.8H55.3628V33H56.1368V30.156L58.4528 33H59.0948V28.8H58.3208Z" fill="#ECC289"/>
<path d="M25.5898 9H24V23.9982H25.5898V9Z" fill="#ECC289"/>
<path d="M39.9975 11.2845C39.3019 10.5892 38.507 10.0926 37.6127 9.69529C35.8242 8.90068 33.5389 8.90068 31.7503 9.69529C30.9554 10.0926 30.1605 10.5892 29.465 11.2845C28.7694 11.9798 28.2726 12.7744 27.8752 13.6683C27.4777 14.5622 27.279 15.5555 27.279 16.5488V23.9982H28.9682V16.5488C28.9682 15.7541 29.1669 14.9595 29.465 14.2643C29.7631 13.6683 30.1605 12.973 30.6573 12.4764C31.1542 11.9798 31.8497 11.5825 32.5452 11.2845C33.9363 10.6885 35.6255 10.6885 37.0166 11.2845C37.7121 11.5825 38.3083 11.9798 38.9045 12.5757C39.4013 13.0724 39.7987 13.7676 40.1962 14.4629C40.4943 15.1582 40.693 15.9528 40.693 16.7474V24.1968H42.3822V16.5488C42.3822 15.5555 42.1834 14.5622 41.786 13.6683C41.2892 12.7744 40.693 11.9798 39.9975 11.2845Z" fill="#ECC289"/>
<path d="M52.2191 15.6548H47.8471V17.3434H52.2191V15.6548Z" fill="#ECC289"/>
<path d="M48.4433 9.59595C47.5491 9.99326 46.7541 10.4899 46.0586 11.1852C45.3631 11.8804 44.8663 12.675 44.4688 13.569C44.0713 14.5622 43.8726 15.5555 43.8726 16.5487V24.0975H45.5618V16.5487C45.5618 15.7541 45.7605 14.9595 46.0586 14.2643C46.3567 13.569 46.7541 12.973 47.3503 12.3771C47.8471 11.8804 48.5427 11.4831 49.2382 11.0858C49.9338 10.7879 50.7287 10.5892 51.5236 10.5892H52.4178V9H51.5236C50.3312 9 49.3376 9.19865 48.4433 9.59595Z" fill="#ECC289"/>
<path d="M55.3988 9H53.809V23.9982H55.3988V9Z" fill="#ECC289"/>
<path d="M69.9057 11.2845C69.2102 10.5892 68.4153 10.0926 67.521 9.69529C65.7325 8.90068 63.4471 8.90068 61.6586 9.69529C60.7643 10.0926 59.9694 10.5892 59.2739 11.2845C58.5783 11.9798 58.0815 12.7744 57.6841 13.6683C57.2866 14.5622 57.0879 15.5555 57.0879 16.5488V23.9982H58.7771V16.5488C58.7771 15.7541 58.9758 14.9595 59.2739 14.2643C59.572 13.569 59.9694 12.973 60.5656 12.3771C61.0624 11.8805 61.6586 11.4831 62.4535 11.0858C63.8446 10.4899 65.5338 10.4899 66.9248 11.0858C67.6204 11.3838 68.2166 11.7811 68.8127 12.3771C69.3095 12.8737 69.707 13.569 70.1045 14.2643C70.4025 14.9595 70.6013 15.7541 70.6013 16.5488V23.9982H72.2904V16.5488C72.2904 15.5555 72.0917 14.5622 71.6943 13.6683C71.0981 12.7744 70.5019 11.9798 69.9057 11.2845Z" fill="#ECC289"/>
<path d="M75.2713 9H73.6815V23.9982H75.2713V9Z" fill="#ECC289"/>
<path d="M85.307 15.6548H80.935V17.4427H85.307V15.6548Z" fill="#ECC289"/>
<path d="M82.2268 21.9123C81.5312 21.6143 80.935 21.217 80.3389 20.6211C79.842 20.1245 79.3452 19.4292 79.0471 18.7339C78.749 18.138 78.6497 17.3433 78.6497 16.5487V9H76.9605V16.5487C76.9605 17.542 77.1592 18.5353 77.5567 19.4292C77.9541 20.3231 78.5503 21.1177 79.1465 21.813C79.842 22.5083 80.6369 23.0049 81.5312 23.4022C82.4255 23.7995 83.4191 23.9982 84.4127 23.9982H85.307V22.3096H84.4127C83.6178 22.3096 82.9223 22.2103 82.2268 21.9123Z" fill="#ECC289"/>
<path d="M100.311 16.5487C100.311 17.3433 100.112 18.138 99.814 18.8332C99.5159 19.5285 99.1184 20.1245 98.5223 20.7204C98.0255 21.217 97.4293 21.6143 96.6344 22.0117C95.2433 22.6076 93.5541 22.6076 92.0637 22.0117C91.3681 21.7137 90.7719 21.3164 90.1758 20.7204C89.679 20.2238 89.2815 19.5285 88.8841 18.8332C88.586 18.138 88.3872 17.3433 88.3872 16.5487V9H86.6981V16.5487C86.6981 17.542 86.8968 18.5353 87.2942 19.4292C87.6917 20.3231 88.1885 21.1177 88.8841 21.813C89.5796 22.5083 90.3745 23.0049 91.2688 23.4022C92.163 23.7995 93.1567 23.9982 94.1503 23.9982C95.442 23.9982 96.6344 23.7002 97.7274 23.1042C98.6216 22.6076 99.3172 22.0117 99.9134 21.3164V22.9056C99.9134 23.9982 99.814 25.0907 99.5159 25.9847C99.2178 26.8786 98.8204 27.6732 98.3235 28.3685C97.8267 29.0638 97.2305 29.5604 96.535 29.8584C95.8395 30.2557 95.0446 30.355 94.1503 30.355H93.5541V32.0435H94.4484C95.7401 32.0435 96.8331 31.7456 97.8267 31.2489C98.721 30.7523 99.5159 29.9577 100.211 29.1631C100.808 28.2692 101.304 27.2759 101.603 26.1833C101.901 25.0907 102 23.9982 102 22.8063V9H100.211V16.5487H100.311Z" fill="#ECC289"/>
</svg>
