<svg width="55" height="24" viewBox="0 0 55 24" fill="none" xmlns="http://www.w3.org/2000/svg">
<path d="M26.0001 8.5L29.2942 12L26.0001 15.5" stroke="#ECC289" stroke-width="2"/>
<path fill-rule="evenodd" clip-rule="evenodd" d="M46.2587 0.0144144L44.5491 0.0288288L44.5629 3.2C40.8678 4.25225 37.9863 7.81261 38 11.8198V11.964V12.3964V12.4108C38.0276 16.4036 40.9506 19.9351 44.6456 20.9586L44.6594 24L46.369 23.9856L46.3553 21.2468C46.5207 21.2613 46.6999 21.2613 46.8792 21.2613C47.1411 21.2613 47.4031 21.2468 47.6513 21.2324L47.6651 23.9712L49.3747 23.9568L49.3609 20.9874C52.5734 20.2811 54.0073 18.2919 55 16.9081L52.9043 16.1009C52.8354 16.2018 52.7802 16.3171 52.6975 16.4468C51.9805 17.6865 50.6432 20.0072 46.8792 20.036C43.4737 20.0505 40.7438 16.3459 40.7162 12.3964V11.791C40.7024 7.82703 43.4047 4.09369 46.8102 4.07928C50.5329 4.06486 51.7737 6.12613 52.601 7.4955C52.6975 7.65405 52.794 7.81261 52.8767 7.95676L54.9586 7.12072C53.9522 5.75135 52.5045 3.76216 49.2782 3.0991L49.2506 0L47.541 0.0144144L47.5548 2.88288C47.3066 2.86847 47.0446 2.86847 46.7827 2.86847C46.6034 2.86847 46.438 2.88288 46.2587 2.88288V0.0144144ZM44.3974 10.6667C43.2944 11.1135 42.3569 11.791 41.8743 12.7568C42.936 10.5946 45.1006 8.61982 47.5961 8.60541C50.0917 8.59099 52.2563 10.5369 53.3455 12.6991C52.8629 11.7333 51.9116 11.0559 50.8086 10.6378C51.2084 11.1856 51.4566 11.8342 51.4566 12.5405C51.4704 14.4432 49.747 16 47.6237 16C45.5004 16.0144 43.777 14.4721 43.7632 12.5694C43.7632 11.8631 43.9976 11.2144 44.3974 10.6667ZM50.3536 12.5405C50.3536 13.6505 49.3058 14.8468 47.6237 14.8468C45.9416 14.8613 44.8662 13.6793 44.8662 12.5694C44.8662 11.4595 45.9141 10.2631 47.5961 10.2631C49.292 10.2486 50.3536 11.4306 50.3536 12.5405ZM48.4647 12.5405C48.4647 13.0306 48.0925 13.4198 47.6237 13.4198C47.1549 13.4198 46.7827 13.0306 46.7689 12.5405C46.7689 12.0505 47.1411 11.6613 47.6099 11.6613C48.0787 11.6613 48.451 12.0649 48.4647 12.5405Z" fill="#ECC289"/>
<path d="M6.63861 24H4V1H9.72772C14.3936 1 17 3.15713 17 7.10719C17 11.3934 14.2327 13.7467 10.5965 13.7467H6.63861V24ZM6.63861 11.7016L10.3391 11.6456C12.7847 11.6175 14.2327 9.99269 14.2327 7.10719C14.2327 4.27771 12.5272 3.07308 9.69554 3.07308H6.63861V11.7016V11.7016Z" fill="#ECC289"/>
<path d="M0 6H10" stroke="#ECC289" stroke-width="1.5" stroke-miterlimit="10"/>
<path d="M0 9H10" stroke="#ECC289" stroke-width="1.5" stroke-miterlimit="10"/>
</svg>
