<svg width="42" height="42" viewBox="0 0 42 42" fill="none" xmlns="http://www.w3.org/2000/svg">
<circle cx="20.2958" cy="20.8803" r="3.22755" stroke="white"/>
<circle cx="12.8405" cy="8.45509" r="1.98503" stroke="#DEC27F"/>
<circle cx="32.7207" cy="27.0928" r="1.98503" stroke="#DEC27F"/>
<path d="M5.38538 7.83385C7.24915 5.5559 12.9647 0.87575 20.9168 2.86378C30.8569 5.34881 33.2479 12.8414 32.7207 16.5315C32.0995 20.8803 30.2357 23.9866 25.2656 25.8503" stroke="#DEC27F" stroke-linecap="round" stroke-linejoin="round"/>
<path d="M2.27914 30.1992C1.03662 26.4716 0.415358 18.3953 5.38535 12.804C6.46467 11.5897 7.56797 10.6104 8.67032 9.82773M27.7507 19.6378C30.857 12.8039 24.6444 9.07639 21.5381 7.83388C20.419 7.38621 18.8059 7.01022 16.9132 7.03524" stroke="#DEC27F" stroke-linecap="round" stroke-linejoin="round"/>
<path d="M22.1595 14.0464C19.0532 10.3189 9.68996 12.1827 7.2493 19.0165C5.08195 25.0851 5.93907 30.2463 8.34343 34.0782M22.1595 40.7605C19.9148 41.3217 16.5392 41.0347 13.2659 38.9929" stroke="#DEC27F" stroke-linecap="round" stroke-linejoin="round"/>
<path d="M12.2192 20.259C9.11298 27.0928 12.7163 34.7964 22.1594 35.7904C33.9633 37.033 40.797 29.5779 40.797 19.0165" stroke="#DEC27F" stroke-linecap="round" stroke-linejoin="round"/>
<path d="M27.1296 1C29.1262 1.90755 31.0592 3.12269 32.7209 4.62371M16.5682 27.0928C19.1777 30.4479 24.6951 31.5661 29.4964 29.3736M36.837 10.3189C38.0055 13.1605 38.2592 16.4923 37.0697 20.259C36.598 21.7529 35.9869 23.0677 35.2705 24.2135" stroke="#DEC27F" stroke-linecap="round" stroke-linejoin="round"/>
<path fill-rule="evenodd" clip-rule="evenodd" d="M11.5781 35.4854L10.4274 35.0167L9.95866 36.1674L8.80798 35.6986L8.33923 36.8493L9.48991 37.3181L9.02117 38.4688L10.1719 38.9375L10.6406 37.7868L11.7913 38.2556L12.2601 37.1049L11.1094 36.6361L11.5781 35.4854Z" fill="#DEC27F"/>
<path fill-rule="evenodd" clip-rule="evenodd" d="M36.4284 5.66509L35.2777 5.19635L34.8089 6.34712L33.6582 5.87835L33.1894 7.02905L34.3402 7.49783L33.8715 8.64846L35.0222 9.11721L35.4909 7.96658L36.6415 8.4353L37.1103 7.28459L35.9597 6.81587L36.4284 5.66509Z" fill="#DEC27F"/>
</svg>
