<svg width="41" height="40" viewBox="0 0 41 40" fill="none" xmlns="http://www.w3.org/2000/svg">
<circle cx="20.797" cy="16.6666" r="10" stroke="#DEC27F"/>
<path d="M10.797 16.3398C10.797 14.5997 11.5764 12.9353 13.1931 12.2916C14.8186 11.6444 17.3121 11 20.797 11C24.2819 11 26.7754 11.6444 28.4009 12.2916C30.0176 12.9353 30.797 14.5997 30.797 16.3398V17.0585C30.797 19.7663 29.414 22.3309 26.8211 23.1115C25.2026 23.5987 23.1541 24 20.797 24C18.4399 24 16.3914 23.5987 14.7729 23.1115C12.18 22.3309 10.797 19.7663 10.797 17.0585V16.3398Z" stroke="#DEC27F"/>
<path d="M13.797 15.5C13.797 15.5 15.797 14 20.297 14M21.797 14H22.797" stroke="white"/>
<path d="M34.797 33.5L34.6745 32.7376C33.9993 28.5357 30.5392 25.3398 26.297 25V25M6.797 33.5L6.9995 32.1476C7.61461 28.0395 11.1431 25 15.297 25V25" stroke="#DEC27F"/>
<path d="M26.797 39V31C26.797 30.4477 26.3493 30 25.797 30H15.797C15.2447 30 14.797 30.4477 14.797 31V39" stroke="#DEC27F"/>
<path d="M30.797 14L33.297 15V19L30.797 20V14Z" stroke="#DEC27F"/>
<path d="M10.797 14L8.297 15V19L10.797 20V14Z" stroke="#DEC27F"/>
<circle cx="18.5" cy="33.5" r="1" stroke="#DEC27F"/>
<circle cx="33.297" cy="23.5" r="0.5" fill="white"/>
<circle cx="37.297" cy="21.5" r="0.5" fill="white"/>
<circle cx="32.297" cy="9.5" r="0.5" fill="white"/>
<circle cx="16.297" cy="3.5" r="0.5" fill="white"/>
<circle cx="6.297" cy="23.5" r="0.5" fill="white"/>
<circle cx="8.297" cy="9.5" r="0.5" fill="white"/>
<circle cx="20.797" cy="20" r="19.5" stroke="#404040"/>
</svg>
