<svg width="48" height="42" viewBox="0 0 48 42" fill="none" xmlns="http://www.w3.org/2000/svg">
<path d="M7.19708 25C9.05016 34.129 17.1212 41 26.797 41C37.8427 41 46.797 32.0457 46.797 21C46.797 9.9543 37.8427 1 26.797 1C16.7709 1 8.46796 8.37747 7.02051 18" stroke="#404040"/>
<path d="M22.8466 30.1894C19.2883 28.6578 16.797 25.1198 16.797 21C16.797 15.4772 21.2741 11 26.797 11C32.3198 11 36.797 15.4772 36.797 21C36.797 25.6479 33.626 29.5552 29.3294 30.6765" stroke="#DEC27F"/>
<circle cx="24.797" cy="30.7106" r="2" stroke="#DEC27F"/>
<circle cx="37.297" cy="9.5" r="1.5" stroke="#DEC27F"/>
<path d="M10.797 21.5C10.797 22.4061 10.4527 23.2317 9.88778 23.8533C9.24753 24.5577 8.32391 25 7.297 25C5.364 25 3.797 23.433 3.797 21.5C3.797 20.7564 4.0289 20.0669 4.42434 19.5C5.05681 18.5933 6.10762 18 7.297 18C9.22999 18 10.797 19.567 10.797 21.5Z" stroke="#DEC27F"/>
<circle cx="26.797" cy="21" r="2.5" stroke="#DEC27F"/>
<line x1="26.797" y1="19" x2="26.797" y2="16" stroke="#DEC27F"/>
<line x1="26.797" y1="26" x2="26.797" y2="23" stroke="#DEC27F"/>
<line x1="28.797" y1="21" x2="30.797" y2="21" stroke="#DEC27F"/>
<line x1="22.797" y1="21" x2="24.797" y2="21" stroke="#DEC27F"/>
<line x1="28.797" y1="21" x2="31.797" y2="21" stroke="#DEC27F"/>
<line x1="21.797" y1="21" x2="24.797" y2="21" stroke="#DEC27F"/>
<rect x="22.908" y="24.182" width="10" height="1" transform="rotate(-45 22.908 24.182)" fill="#DEC27F"/>
<rect x="23.6151" y="17.1109" width="10" height="1" transform="rotate(45 23.6151 17.1109)" fill="#DEC27F"/>
<circle cx="26.797" cy="21" r="2" fill="#262626"/>
<path d="M4.57463 19.2135C2.86312 19.0467 1.64184 19.2402 1.49337 19.7943C1.26498 20.6467 3.66186 22.0295 6.84696 22.8829C10.0321 23.7364 12.7992 23.7373 13.0276 22.8849C13.1755 22.3332 12.2234 21.5592 10.6696 20.8504" stroke="#DEC27F"/>
<circle cx="18.297" cy="7.5" r="0.5" fill="white"/>
<circle cx="27.297" cy="7.5" r="0.5" fill="white"/>
<circle cx="38.297" cy="15.5" r="0.5" fill="white"/>
<circle cx="43.297" cy="18.5" r="0.5" fill="white"/>
<circle cx="41.297" cy="24.5" r="0.5" fill="white"/>
<circle cx="37.297" cy="33.5" r="0.5" fill="white"/>
<circle cx="29.297" cy="34.5" r="0.5" fill="white"/>
<circle cx="20.297" cy="36.5" r="0.5" fill="white"/>
<circle cx="14.297" cy="29.5" r="0.5" fill="white"/>
<circle cx="13.297" cy="15.5" r="0.5" fill="white"/>
</svg>
