<svg width="41" height="40" viewBox="0 0 41 40" fill="none" xmlns="http://www.w3.org/2000/svg">
<circle cx="20.797" cy="20" r="19.5" stroke="#404040"/>
<circle cx="32.547" cy="9.09241" r="0.5" fill="white"/>
<circle cx="28.5973" cy="6.5" r="0.5" fill="white"/>
<circle cx="10.8555" cy="7.5" r="0.5" fill="white"/>
<circle cx="9.07239" cy="29.824" r="0.5" fill="white"/>
<circle cx="30.547" cy="32.0005" r="0.5" fill="white"/>
<circle cx="13.5825" cy="34.0005" r="0.5" fill="white"/>
<path d="M17.547 20C16.8803 19 15.147 17 13.547 17C11.547 17 10.547 18.5 10.547 20C10.547 21.5 11.547 23 13.547 23C15.547 23 16.547 21 17.547 20ZM17.547 20C18.047 19.5 19.347 18.2 20.547 17C22.047 15.5 24.047 12.5 28.547 12.5C33.047 12.5 35.547 16.5 35.547 20C35.547 23.5 33.047 27.5 28.547 27.5C24.947 27.5 22.047 24.8333 21.047 23.5" stroke="#DEC27F"/>
<path d="M24.047 20C24.7137 19 26.447 17 28.047 17C30.047 17 31.047 18.5 31.047 20C31.047 21.5 30.047 23 28.047 23C26.047 23 25.047 21 24.047 20ZM24.047 20L20.547 23.5C19.547 24.5 16.647 27.5 13.047 27.5C8.547 27.5 6.047 23.5 6.047 20C6.047 16.5 8.547 12.5 13.047 12.5C17.547 12.5 19.547 15.5 21.047 17" stroke="#DEC27F"/>
<line x1="20.8571" y1="10" x2="20.8571" y2="6" stroke="white"/>
<line x1="23.9015" y1="10.4265" x2="25.1047" y2="8.3424" stroke="white"/>
<line y1="-0.5" x2="2.40649" y2="-0.5" transform="matrix(-0.5 -0.866025 -0.866025 0.5 17.4889 10.6765)" stroke="white"/>
<line y1="-0.5" x2="4" y2="-0.5" transform="matrix(-4.37113e-08 1 1 4.37113e-08 21.3571 30.0005)" stroke="white"/>
<line y1="-0.5" x2="2.40649" y2="-0.5" transform="matrix(0.5 0.866025 0.866025 -0.5 24.3345 29.324)" stroke="white"/>
<line x1="17.9219" y1="29.574" x2="16.7187" y2="31.6581" stroke="white"/>
</svg>
