<svg width="41" height="40" viewBox="0 0 41 40" fill="none" xmlns="http://www.w3.org/2000/svg">
<circle cx="20.797" cy="20" r="19.5" stroke="#404040"/>
<path d="M10.5469 24C10.0627 22.7603 9.797 21.4112 9.797 20C9.797 13.9249 14.7219 9 20.797 9C21.837 9 22.8433 9.14433 23.797 9.41406M11.5759 26C12.3418 27.1746 13.3259 28.1937 14.4708 29M31.6683 18.3123C31.264 15.6865 29.9311 13.367 28.0156 11.6997M31.7858 20.5C31.5244 26.3431 26.7046 31 20.797 31C19.3858 31 18.0367 30.7343 16.797 30.2501" stroke="#DEC27F"/>
<path d="M30.797 16C33.797 15.5 36.0986 15.7596 36.297 16.5C36.7258 18.1004 30.4266 22.1877 21.797 24.5C13.1674 26.8123 5.72585 26.6004 5.29703 25C5.0548 24.096 6.94514 22.8774 10.3006 21.4087" stroke="#DEC27F"/>
<path d="M31.0085 15.9788C32.8151 15.842 33.797 15.9788 34.0611 16.4106C34.178 16.8469 33.2735 17.5206 31.6527 18.3015C29.3099 19.4303 25.4703 20.783 21.0558 21.9659C16.9451 23.0674 13.1927 23.792 10.6017 24.0431C8.48516 24.2482 7.42553 23.9797 7.297 23.5C7.16698 23.0148 8.0185 22.3934 9.99548 21.5" stroke="#DEC27F"/>
<circle cx="26.797" cy="9" r="3" stroke="#DEC27F"/>
<circle cx="14.797" cy="31" r="2" stroke="#DEC27F"/>
<circle cx="25.297" cy="35.5" r="0.5" fill="white"/>
<circle cx="34.297" cy="11.5" r="0.5" fill="white"/>
<circle cx="34.297" cy="24.5" r="0.5" fill="white"/>
<circle cx="9.297" cy="29.5" r="0.5" fill="white"/>
<circle cx="8.297" cy="9.5" r="0.5" fill="white"/>
<circle cx="18.297" cy="6.5" r="0.5" fill="white"/>
</svg>
