<svg width="37" height="34" viewBox="0 0 37 34" fill="none" xmlns="http://www.w3.org/2000/svg">
    <style>
        path {
            fill: #000;
        }
        @media (prefers-color-scheme: dark) {
            path {
                fill: #DEC27F;
            }
        }
    </style>
<path d="M6.16565 29.7636L10.1607 22.2569C10.1607 22.2569 13.3603 24.9485 18.1097 24.9485C23.2789 24.9485 26.4652 22.1623 27.497 21.1463L18.0877 3.70456L12.4709 14.0359C11.4875 14.3613 10.535 14.9927 9.45766 15.8165L18.0877 0L30.0728 22.1845L27.0141 24.0671L30.0977 29.7134L6.16565 29.7636Z" fill="black"/>
<path d="M6.87314 20.7116L0 33.3633H17.7898H36.2238L31.0062 23.8039L29.4417 24.7297L33.1211 31.5916H17.7898H3.03663L8.26009 21.9198C10.6598 17.4862 15.1567 16.5663 17.9644 16.5663C21.5632 16.5663 23.5387 17.6814 23.5387 17.6814L18.0994 7.54822L13.9136 15.3152C13.9151 15.3167 9.18326 16.5235 6.87314 20.7116Z" fill="black"/>
<path d="M18.1228 18.7698C19.178 18.7698 20.0337 19.632 20.0337 20.6953C20.0337 21.7586 19.178 22.6207 18.1228 22.6207C17.0675 22.6207 16.2119 21.7586 16.2119 20.6953C16.2119 19.632 17.0675 18.7698 18.1228 18.7698Z" fill="black"/>
</svg>
