<?xml version="1.0" encoding="utf-8"?>
<!-- Generator: Adobe Illustrator 23.0.3, SVG Export Plug-In . SVG Version: 6.00 Build 0)  -->
<svg version="1.1" id="Layer_1" xmlns="http://www.w3.org/2000/svg" xmlns:xlink="http://www.w3.org/1999/xlink" x="0px" y="0px"
	 viewBox="0 0 26.88 21.37" style="enable-background:new 0 0 26.88 21.37;" xml:space="preserve">
<g>
	<g>
		<g>
			<path d="M7.85,13.17c0.22-0.14,0.45-0.27,0.68-0.39c-0.18-0.62-0.28-1.27-0.28-1.94c0-1.05,0.26-1.98,0.7-2.78
				c-0.35-0.12-0.69-0.21-1-0.28c0.76-0.69,1.27-1.81,1.27-3.09c0-2.11-1.36-3.23-3.04-3.23S3.15,2.58,3.15,4.69
				c0,1.27,0.5,2.4,1.27,3.09C3.64,7.94,2.69,8.25,1.73,8.85C1.54,8.97,1.41,9.19,1.4,9.42l-0.23,4.34h6.01
				C7.38,13.53,7.59,13.33,7.85,13.17z"/>
		</g>
		<g>
			<path d="M18.45,19.91c0,0-0.23-4.34-0.23-4.34c-0.01-0.23-0.13-0.45-0.33-0.57c-0.96-0.6-1.91-0.9-2.68-1.07
				c0.76-0.69,1.27-1.81,1.27-3.09c0-2.11-1.36-3.23-3.04-3.23s-3.04,1.12-3.04,3.23c0,1.27,0.5,2.4,1.27,3.09
				C10.89,14.09,9.94,14.4,8.99,15c-0.2,0.12-0.32,0.34-0.33,0.57l-0.23,4.34c0,0,0,0,0,0H18.45z"/>
		</g>
	</g>
	<g>
		<path d="M17.93,8.06c0.44,0.8,0.7,1.74,0.7,2.78c0,0.67-0.1,1.33-0.28,1.94c0.23,0.12,0.46,0.25,0.68,0.39
			c0.26,0.16,0.47,0.37,0.66,0.59h6.01l-0.22-4.34c-0.01-0.23-0.13-0.45-0.33-0.57c-0.96-0.6-1.91-0.9-2.68-1.07
			c0.76-0.69,1.27-1.81,1.27-3.09c0-2.11-1.36-3.23-3.04-3.23s-3.04,1.12-3.04,3.23c0,1.27,0.5,2.4,1.27,3.09
			C18.62,7.84,18.28,7.94,17.93,8.06z"/>
	</g>
</g>
</svg>
