<?xml version="1.0" encoding="utf-8"?>
<!-- Generator: Adobe Illustrator 23.0.3, SVG Export Plug-In . SVG Version: 6.00 Build 0)  -->
<svg version="1.1" id="Layer_1" xmlns="http://www.w3.org/2000/svg" xmlns:xlink="http://www.w3.org/1999/xlink" x="0px" y="0px"
	 viewBox="0 0 20.44 23.21" style="enable-background:new 0 0 20.44 23.21;" xml:space="preserve">
<g>
	<path d="M15.04,12.43c-2.98,0-5.39,2.41-5.39,5.39s2.41,5.39,5.39,5.39c2.98,0,5.39-2.41,5.39-5.39S18.02,12.43,15.04,12.43z
		 M17.74,18.71h-1.81v1.81c0,0.49-0.4,0.89-0.89,0.89s-0.89-0.4-0.89-0.89v-1.81h-1.81c-0.49,0-0.89-0.4-0.89-0.89
		c0-0.49,0.4-0.89,0.89-0.89h1.81v-1.81c0-0.49,0.4-0.89,0.89-0.89s0.89,0.4,0.89,0.89v1.81h1.81c0.49,0,0.89,0.4,0.89,0.89
		C18.63,18.31,18.24,18.71,17.74,18.71z"/>
	<path d="M13.02,10.71c-0.98-0.45-1.92-0.73-2.73-0.9c1.18-1.08,1.95-2.82,1.95-4.79C12.24,1.75,10.13,0,7.52,0
		c-2.6,0-4.72,1.75-4.72,5.02c0,1.97,0.77,3.71,1.95,4.79c-1.2,0.26-2.68,0.75-4.15,1.67C0.3,11.67,0.11,12,0.09,12.36
		c-0.07,1.26-0.18,4.44,0.03,8.2c0.03,0.58,0.09,1.12,0.16,1.63h8.81c-0.9-1.23-1.45-2.74-1.45-4.37
		C7.65,14.45,9.92,11.6,13.02,10.71z"/>
</g>
</svg>
