<svg width="14" height="11" viewBox="0 0 14 11" fill="none" xmlns="http://www.w3.org/2000/svg">
<path d="M0.875063 3.50315L3.82028 5.68196L4.28157 6.02322L4.55651 5.51958L7 1.04351L9.44349 5.51958L9.71843 6.02322L10.1797 5.68196L13.1249 3.50315L11.3602 9.79881C11.3515 9.80349 11.3423 9.80836 11.3325 9.8134C11.2024 9.88071 10.9802 9.97937 10.6409 10.081C9.96187 10.2845 8.81411 10.5 7 10.5C5.18589 10.5 4.03813 10.2845 3.35909 10.081C3.0198 9.97937 2.7976 9.88071 2.66746 9.8134C2.65772 9.80836 2.64849 9.80349 2.63977 9.79881L0.875063 3.50315Z" stroke="#DEC27F"/>
</svg>
