<svg xmlns="http://www.w3.org/2000/svg" width="124mm" height="124mm" viewBox="0 0 124 124"><path d="M51.254 113.622c-7.319-.399-14.072-2.234-20.702-5.625-15.188-7.77-25.345-21.741-28.289-38.917-.632-3.686-.632-12.718 0-16.404 2.97-17.327 13.328-31.47 28.649-39.122C47.773 5.134 67.71 6.252 83.4 16.498c12.742 8.32 21.008 21.107 23.498 36.347l.447 2.741 7.915.133 7.915.132-8.669 9.922c-4.768 5.457-8.875 10.136-9.126 10.398-.437.455-.862.014-9.499-9.852-4.972-5.68-9.041-10.39-9.041-10.464 0-.075 3.393-.136 7.54-.136h7.541v-.766c0-1.35-1.05-6.061-1.996-8.947-4.882-14.904-17.022-26.62-32.135-31.012-7.204-2.093-15.272-2.426-22.7-.935-18.692 3.752-33.575 18.72-37.38 37.59-.808 4.012-1.007 11.77-.405 15.847 2.37 16.057 12.143 29.372 26.718 36.398 11.143 5.372 23.629 6.189 35.487 2.321 3.364-1.097 9.868-4.397 12.825-6.507 2.982-2.128 8.295-7.322 10.422-10.189l1.521-2.05h2.616v5.188l-1.51 1.838c-8.336 10.136-20.69 17.057-33.467 18.747-3.76.498-6.626.6-10.663.38zm-17.86-42.16V55.718h5.24l.117-6.813c.13-7.545.241-8.187 2.004-11.56 1.86-3.56 5.77-6.619 9.837-7.694 1.934-.512 5.994-.498 8.032.028 4.969 1.282 9.162 5.18 10.942 10.17.682 1.913.709 2.205.81 8.923l.105 6.946h5.247v31.485H33.394zm31.7-22.556l-.082-6.813-.74-1.507c-1.146-2.333-2.827-4.02-5.154-5.17-1.906-.942-2.154-.996-4.543-.996-2.278 0-2.699.08-4.26.82-2.99 1.417-4.777 3.393-5.79 6.403-.492 1.458-.547 2.256-.547 7.85v6.226H65.177z"/></svg>