<?xml version="1.0" encoding="UTF-8" standalone="no"?>
<svg
   xmlns:dc="http://purl.org/dc/elements/1.1/"
   xmlns:cc="http://creativecommons.org/ns#"
   xmlns:rdf="http://www.w3.org/1999/02/22-rdf-syntax-ns#"
   xmlns:svg="http://www.w3.org/2000/svg"
   xmlns="http://www.w3.org/2000/svg"
   xmlns:sodipodi="http://sodipodi.sourceforge.net/DTD/sodipodi-0.dtd"
   xmlns:inkscape="http://www.inkscape.org/namespaces/inkscape"
   version="1.0"
   width="600.000000pt"
   height="600.000000pt"
   viewBox="0 0 600.000000 600.000000"
   preserveAspectRatio="xMidYMid meet"
   id="svg3735"
   sodipodi:docname="circle6.svg"
   inkscape:version="0.92.4 (5da689c313, 2019-01-14)">
  <defs
     id="defs3739" />
  <sodipodi:namedview
     pagecolor="#ffffff"
     bordercolor="#666666"
     borderopacity="1"
     objecttolerance="10"
     gridtolerance="10"
     guidetolerance="10"
     inkscape:pageopacity="0"
     inkscape:pageshadow="2"
     inkscape:window-width="1920"
     inkscape:window-height="1001"
     id="namedview3737"
     showgrid="false"
     inkscape:zoom="1.01"
     inkscape:cx="237.12871"
     inkscape:cy="388.79126"
     inkscape:window-x="-9"
     inkscape:window-y="-9"
     inkscape:window-maximized="1"
     inkscape:current-layer="svg3735"
     inkscape:lockguides="false">
    <sodipodi:guide
       position="0,0"
       orientation="0,800"
       id="guide3745"
       inkscape:locked="false" />
    <sodipodi:guide
       position="600,0"
       orientation="-800,0"
       id="guide3747"
       inkscape:locked="false" />
    <sodipodi:guide
       position="600,600"
       orientation="0,-800"
       id="guide3749"
       inkscape:locked="false" />
    <sodipodi:guide
       position="0,600"
       orientation="800,0"
       id="guide3751"
       inkscape:locked="false" />
  </sodipodi:namedview>
  <metadata
     id="metadata3727">
Created by potrace 1.15, written by Peter Selinger 2001-2017
<rdf:RDF>
  <cc:Work
     rdf:about="">
    <dc:format>image/svg+xml</dc:format>
    <dc:type
       rdf:resource="http://purl.org/dc/dcmitype/StillImage" />
    <dc:title></dc:title>
  </cc:Work>
</rdf:RDF>
</metadata>
  <path
     style="stroke:none;stroke-width:300;stroke-miterlimit:4;stroke-dasharray:none"
     inkscape:connector-curvature="0"
     id="path3729"
     d="m 279.36809,7.3870627 c -17.45552,0.931278 -30.89826,3.1042593 -54.57353,8.7953993 -33.3059,8.071072 -57.48278,17.590799 -81.3587,32.180815 -35.4126,21.626335 -64.103836,47.702108 -86.876245,78.951643 -27.487403,37.76849 -39.52568,64.15469 -49.958856,109.37338 -7.22296733,31.4565 -9.3296659,53.08283 -7.9252002,80.81421 0.90287097,17.38385 2.8089317,29.6974 7.9252002,52.25502 10.433176,45.21869 22.471453,71.60489 49.958856,109.37338 33.807498,46.4604 83.966995,84.02193 136.032535,102.02662 14.7469,5.0703 45.8458,12.83095 61.59587,15.31435 23.27401,3.82859 57.38246,3.82859 80.65646,0 15.75009,-2.4834 46.84896,-10.24405 61.59586,-15.31435 52.06556,-18.00469 102.22504,-55.56622 136.03255,-102.02662 27.48739,-37.76849 39.52568,-64.15469 49.95885,-109.37338 7.22297,-31.45649 9.32967,-53.08283 7.9252,-80.71072 -0.90287,-17.48733 -2.80893,-29.80089 -7.9252,-52.35851 C 571.99857,191.46961 559.96028,165.08341 532.47289,127.31492 509.70047,96.065385 481.00925,69.989612 445.59665,48.363277 421.72073,33.773261 397.54385,24.253534 364.23795,16.182462 341.56586,10.698273 328.82534,8.5252917 314.58005,7.8009647 c -5.81851,-0.310426 -13.04147,-0.724327 -16.05104,-0.931278 -3.00956,-0.103475 -11.637,0.103475 -19.16092,0.517376 z m 42.73589,43.4596213 c 28.49059,2.793833 64.10383,13.451787 89.58485,26.696624 74.93828,39.113662 125.49904,111.442892 136.23317,195.154402 0.90288,6.51894 1.5048,19.55683 1.5048,30.52521 0,10.96838 -0.60192,24.00627 -1.5048,30.52521 -14.94751,116.20274 -105.63589,206.64015 -221.90559,221.43711 -16.85358,2.17298 -46.14673,2.17298 -63.00032,0 C 176.03953,544.11338 101.4022,490.30623 63.782582,411.35459 52.346217,387.24485 44.521336,360.75518 41.110491,333.74813 c -1.906061,-14.79697 -1.906061,-46.25346 0,-61.05042 C 54.653553,167.67029 129.99312,82.820548 232.71976,56.84825 c 28.59091,-7.139794 57.48278,-9.105824 89.38422,-6.001566 z" />
  <path
     style="stroke:none;stroke-width:0.06252874"
     inkscape:connector-curvature="0"
     id="path3731"
     d="m 277.63503,176.43754 c -23.63368,3.68953 -46.26699,13.50744 -63.77342,27.64023 -5.56455,4.50249 -16.06842,15.19589 -20.06989,20.51133 -13.37992,17.50964 -22.44575,39.27165 -25.88452,62.09673 -1.18794,7.8168 -1.18794,24.95126 0,32.76806 3.43877,22.8251 12.5046,44.58709 25.88452,62.09676 4.00147,5.31542 14.50534,16.00882 20.06989,20.5113 17.69399,14.32041 40.38983,24.07578 64.27361,27.64025 7.81538,1.18816 24.94667,1.18816 32.76204,0 23.88379,-3.56447 46.57964,-13.31984 64.27364,-27.64025 5.56456,-4.50248 16.06841,-15.19588 20.06989,-20.5113 13.44243,-17.57222 22.44575,-39.1466 25.88451,-62.09676 1.18793,-7.8168 1.18793,-24.95126 0,-32.76806 -3.43876,-22.82508 -12.50459,-44.58709 -25.88451,-62.09673 -4.00148,-5.31544 -14.50533,-16.00884 -20.06989,-20.51133 -17.694,-14.32039 -40.38985,-24.07578 -64.27364,-27.64023 -7.50274,-1.12563 -25.94702,-1.12563 -33.26223,0 z" />
  <path
     style="stroke:none;stroke-width:260.12658691;stroke-miterlimit:4;stroke-dasharray:none"
     inkscape:connector-curvature="0"
     id="path3729-3"
     d="m 281.38145,46.689797 c -15.13546,0.807501 -26.79151,2.691662 -47.32008,7.626391 -28.87915,6.998337 -49.84265,15.252782 -70.5452,27.903613 -30.70585,18.751949 -55.5837,41.361949 -75.329407,68.458069 -23.834004,32.74863 -34.272273,55.6278 -43.318761,94.83641 -6.262943,27.27559 -8.089644,46.02752 -6.871851,70.07308 0.782876,15.07334 2.435609,25.75027 6.871851,45.30973 9.046488,39.20861 19.484757,62.08778 43.318761,94.83641 29.314107,40.2853 72.806827,72.85447 117.952267,88.46612 12.78688,4.39641 39.75236,11.12558 53.40908,13.27891 20.18063,3.31971 49.75567,3.31971 69.93629,0 13.65673,-2.15333 40.62222,-8.8825 53.40909,-13.27891 45.14543,-15.61165 88.63816,-48.18082 117.95226,-88.46612 23.83398,-32.74863 34.27226,-55.6278 43.31876,-94.83641 6.26293,-27.27556 8.08964,-46.02751 6.87184,-69.98335 -0.78287,-15.16305 -2.43559,-25.84 -6.87184,-45.39946 -9.0465,-39.20861 -19.48478,-62.08778 -43.31876,-94.83641 C 481.10004,123.58175 456.22221,100.97175 425.51634,82.219801 404.81381,69.56897 383.85032,61.314525 354.97115,54.316188 c -19.65871,-4.755282 -30.70587,-6.639443 -43.05779,-7.267496 -5.04517,-0.269171 -11.30813,-0.628065 -13.91768,-0.807501 -2.60955,-0.08973 -10.09031,0.08974 -16.61423,0.448606 z m 37.05582,37.683347 c 24.70386,2.422503 55.5837,11.663884 77.678,23.148326 64.97812,33.91501 108.81879,96.63087 118.12621,169.21617 0.7829,5.65249 1.30481,16.9575 1.30481,26.46805 0,9.51057 -0.52191,20.81557 -1.30481,26.46807 -12.96079,100.75807 -91.59566,179.17532 -192.41179,192.00558 -14.61355,1.88418 -40.01331,1.88418 -54.62686,0 C 191.78645,512.07907 127.06927,465.4235 94.449718,396.96542 84.533373,376.06015 77.748505,353.09125 74.791007,329.67376 c -1.652735,-12.83028 -1.652735,-40.10585 0,-52.93612 11.743035,-91.06808 77.069123,-164.64032 166.142223,-187.160619 24.79085,-6.190825 49.84266,-7.89555 77.50404,-5.203877 z" />
  <path
     style="stroke:none;stroke-width:61.1862793;stroke-miterlimit:4;stroke-dasharray:none"
     inkscape:connector-curvature="0"
     id="path3729-3-8"
     d="m 282.24417,63.533759 c -14.14105,0.754467 -25.03126,2.51487 -44.21131,7.12543 -26.98193,6.53858 -46.56824,14.25078 -65.91073,26.070507 -28.68881,17.520104 -51.93234,38.644744 -70.38088,63.960874 -22.268215,30.59726 -32.020695,51.97341 -40.473025,88.60622 -5.85145,25.48383 -7.55819,43.00383 -6.42038,65.46975 0.73154,14.0831 2.27569,24.05865 6.42038,42.33325 8.45233,36.63282 18.20481,58.00896 40.473025,88.60623 27.38851,37.63878 68.02396,68.06846 110.20367,82.65453 11.94678,4.10757 37.14086,10.39463 49.90019,12.40662 18.85508,3.10154 46.48723,3.10154 65.3421,0 12.75963,-2.01199 37.95344,-8.29905 49.9005,-12.40662 42.17968,-14.58607 82.8151,-45.01575 110.20361,-82.65453 22.26814,-30.59727 32.02077,-51.97341 40.47298,-88.60623 5.85154,-25.48376 7.5581,-43.00382 6.42038,-65.38596 -0.73149,-14.16687 -2.27561,-24.14244 -6.42038,-42.41704 -8.45221,-36.63281 -18.20484,-58.00896 -40.47298,-88.60622 C 468.8427,135.37444 445.59919,114.2498 416.91046,96.729696 397.56801,84.909969 377.98171,77.197769 350.99952,70.659189 332.63226,66.216257 322.31093,64.455906 310.77043,63.869119 306.05671,63.61763 300.20521,63.28227 297.7671,63.114652 c -2.43803,-0.08372 -9.42741,0.08372 -15.52293,0.419107 z m 34.6217,35.207867 c 23.08097,2.263334 51.93211,10.897624 72.57506,21.627604 60.70942,31.68705 101.67,90.2829 110.36601,158.09977 0.73153,5.28121 1.21912,15.84357 1.21912,24.72931 0,8.88571 -0.48759,19.44803 -1.21912,24.7293 -12.10935,94.13892 -85.57855,167.40471 -179.77148,179.39205 -13.65365,1.76049 -37.38487,1.76049 -51.03831,0 C 198.53507,498.35009 138.06929,454.75951 107.59273,390.79859 98.327945,371.2667 91.988545,349.80675 89.225495,327.92761 c -1.54408,-11.98743 -1.54408,-37.47119 0,-49.45861 10.971665,-85.08548 72.006195,-153.8245 155.227835,-174.86537 23.16232,-5.784124 46.56825,-7.376841 72.41254,-4.862004 z" />
</svg>
