<?xml version="1.0" encoding="utf-8"?>
<!-- Generator: Adobe Illustrator 22.0.0, SVG Export Plug-In . SVG Version: 6.00 Build 0)  -->
<svg version="1.1" id="Слой_1" xmlns="http://www.w3.org/2000/svg" xmlns:xlink="http://www.w3.org/1999/xlink" x="0px" y="0px"
	 viewBox="0 0 18.7 22.1" style="enable-background:new 0 0 18.7 22.1;" xml:space="preserve">
<g>
	<defs>
		<rect id="SVGID_1_" y="0" width="18.7" height="22.1"/>
	</defs>
	<clipPath id="SVGID_2_">
		<use xlink:href="#SVGID_1_"  style="overflow:visible;"/>
	</clipPath>
	<path d="M8.3,6.8c0-0.2-0.1-0.4-0.3-0.5C7.1,5.8,6.3,5.6,5.7,5.4c0.7-0.6,1.1-1.6,1.1-2.6C6.8,1,5.6,0,4.2,0
		S1.5,1,1.5,2.8c0,1.1,0.4,2.1,1.1,2.6C2,5.6,1.2,5.8,0.3,6.3C0.2,6.4,0.1,6.6,0.1,6.8c0,0.7-0.1,2.5,0,4.5c0.2,2.7,1.1,3.9,1.1,3.9
		s0.3,3.8,1.2,6.8h1.7h1.7c0.9-3.1,1.2-6.8,1.2-6.8s1-1.2,1.1-3.9C8.4,9.3,8.3,7.5,8.3,6.8"/>
	<path d="M13.4,6.8c0-0.2-0.1-0.4-0.3-0.5c-0.7-0.5-1.4-0.7-2.1-0.9C11,5.5,11,5.3,11,5.2c0.5-0.6,0.9-1.5,0.9-2.5
		c0-1.8-1.3-2.9-2.4-2.8c-0.4,0-0.7,0.5-0.7,0.8c0,0.7,1,0.6,1,2c0,0.8-0.2,1.5-0.6,2.1C9.1,5.1,9.2,5.5,9.5,5.6
		c0.5,0.2,1,0.4,1.6,0.7c0.2,0.1,0.3,0.3,0.3,0.5c0,0.7,0.1,2.5,0,4.5c-0.1,1.6-0.5,2.6-0.8,3.3c-0.2,0.5-0.4,1-0.5,1.6
		c-0.2,1.2-0.5,3.5-1,5.6c0,0.2,0.1,0.3,0.3,0.3h1.6c0.1,0,0.1,0,0.2-0.1c0.6-2.1,0.9-4.5,1.1-5.8c0.1-0.6,0.2-1.1,0.5-1.6
		c0.3-0.6,0.7-1.7,0.8-3.3C13.5,9.3,13.5,7.5,13.4,6.8"/>
	<path d="M18.6,6.8c0-0.2-0.1-0.4-0.3-0.5c-0.7-0.5-1.4-0.7-2.1-0.9c-0.1,0-0.1-0.2-0.1-0.2c0.5-0.6,0.9-1.5,0.9-2.5
		c0-1.8-1.3-2.9-2.4-2.8c-0.4,0-0.7,0.5-0.7,0.8c0,0.7,1,0.6,1,2c0,0.8-0.2,1.5-0.6,2.1c-0.2,0.3-0.1,0.6,0.2,0.7
		c0.5,0.2,1,0.4,1.6,0.7c0.2,0.1,0.3,0.3,0.3,0.5c0,0.7,0.1,2.5,0,4.5c-0.1,1.6-0.5,2.6-0.8,3.3c-0.2,0.5-0.4,1-0.5,1.6
		c-0.2,1.2-0.5,3.5-1,5.6c0,0.2,0.1,0.3,0.3,0.3h1.6c0.1,0,0.1,0,0.2-0.1c0.6-2.1,0.9-4.5,1.1-5.8c0.1-0.6,0.2-1.1,0.5-1.6
		c0.3-0.6,0.7-1.7,0.7-3.3C18.7,9.3,18.6,7.5,18.6,6.8"/>
</g>
</svg>
