<?xml version="1.0" encoding="utf-8"?>
<!-- Generator: Adobe Illustrator 23.0.3, SVG Export Plug-In . SVG Version: 6.00 Build 0)  -->
<svg version="1.1" id="Layer_1" xmlns="http://www.w3.org/2000/svg" xmlns:xlink="http://www.w3.org/1999/xlink" x="0px" y="0px"
	 viewBox="0 0 14.86 17.2" style="enable-background:new 0 0 14.86 17.2;" xml:space="preserve">
<path d="M12.89,3.95h-0.86v9.03c0,1.09-0.88,1.97-1.97,1.97H4.52v0.29c0,1.09,0.88,1.97,1.97,1.97h6.41c1.09,0,1.97-0.88,1.97-1.97
	V5.92C14.86,4.83,13.98,3.95,12.89,3.95z"/>
<path d="M8.37,0H1.97C0.88,0,0,0.88,0,1.97v9.32c0,1.09,0.88,1.97,1.97,1.97h0.86h5.55c1.09,0,1.97-0.88,1.97-1.97V2.26V1.97
	C10.34,0.88,9.46,0,8.37,0z"/>
</svg>
