<?xml version="1.0" encoding="utf-8"?>
<!-- Generator: Adobe Illustrator 23.0.3, SVG Export Plug-In . SVG Version: 6.00 Build 0)  -->
<svg version="1.1" id="Layer_1" xmlns="http://www.w3.org/2000/svg" xmlns:xlink="http://www.w3.org/1999/xlink" x="0px" y="0px"
	 viewBox="0 0 21.37 17.83" style="enable-background:new 0 0 21.37 17.83;" xml:space="preserve">
<g>
	<path d="M14.85,17.83c-1.02,0-1.93-0.66-2.24-1.64l-1.92-6.07l-1.92,6.07c-0.31,0.98-1.22,1.64-2.24,1.64l0,0
		c-1.02,0-1.93-0.66-2.24-1.64L0.11,3.06C-0.28,1.82,0.4,0.5,1.64,0.11C2.88-0.28,4.2,0.4,4.59,1.64l1.92,6.06l1.92-6.06
		C8.75,0.66,9.66,0,10.68,0s1.93,0.66,2.24,1.64l1.92,6.06l1.92-6.06c0.39-1.24,1.71-1.92,2.95-1.53c1.24,0.39,1.92,1.71,1.53,2.95
		l-4.17,13.13C16.78,17.17,15.87,17.83,14.85,17.83z"/>
</g>
</svg>
