<?xml version="1.0" encoding="utf-8"?>
<!-- Generator: Adobe Illustrator 24.0.1, SVG Export Plug-In . SVG Version: 6.00 Build 0)  -->
<svg version="1.1" id="Layer_1" xmlns="http://www.w3.org/2000/svg" xmlns:xlink="http://www.w3.org/1999/xlink" x="0px" y="0px"
	 viewBox="0 0 31 31.5" style="enable-background:new 0 0 31 31.5;" xml:space="preserve">
<style type="text/css">
	.st0{fill:#FFFFFF;}
</style>
<g>
	<path class="st0" d="M22.6,19.5L22.6,19.5l-1.7-0.7c-0.1,0.1-0.1,0.2-0.2,0.3c-0.6,1-1.7,2.8-4.9,2.8c-2.8,0-5.1-3-5.1-6.1h0v-0.5
		h0c0-3.2,2.3-6.1,5.1-6.1c3.1,0,4.3,1.8,4.9,2.8c0.1,0.1,0.1,0.2,0.2,0.3l1.7-0.7l0,0c-0.8-1.1-2-2.7-4.7-3.2V6h-1.4v2.3
		c-0.2,0-0.4,0-0.6,0c-0.1,0-0.3,0-0.4,0V6h-1.4v2.5c-3.1,0.8-5.5,3.7-5.5,6.9v0.5c0,3.2,2.4,6,5.5,6.9v2.4h1.4v-2.2
		c0.1,0,0.3,0,0.4,0c0.2,0,0.4,0,0.6,0v2.2h1.4v-2.4C20.5,22.2,21.7,20.6,22.6,19.5z"/>
	<path class="st0" d="M20.9,16.1c-0.9-1.7-2.7-3.3-4.8-3.3c-2.1,0-3.9,1.6-4.8,3.3c0.4-0.8,1.2-1.3,2.1-1.7c-0.3,0.4-0.5,1-0.5,1.5
		c0,1.5,1.4,2.8,3.2,2.8s3.2-1.2,3.2-2.8c0-0.6-0.2-1.1-0.5-1.5C19.7,14.8,20.5,15.4,20.9,16.1z M16.1,17.8c-1.4,0-2.3-0.9-2.3-1.8
		c0-0.9,0.9-1.8,2.3-1.8c1.4,0,2.3,0.9,2.3,1.8C18.4,16.9,17.5,17.8,16.1,17.8z"/>
	<path class="st0" d="M16.1,15.3c-0.4,0-0.7,0.3-0.7,0.7s0.3,0.7,0.7,0.7c0.4,0,0.7-0.3,0.7-0.7S16.5,15.3,16.1,15.3z"/>
	<path class="st0" d="M1,15.8C1,10.1,4.3,5,9.4,2.7l0.3,1.5l3.1-2.9L8.7,0l0.4,1.7C3.7,4.1,0,9.7,0,15.8c0,8.5,7,15.5,15.5,15.5v-1
		C7.5,30.3,1,23.8,1,15.8z"/>
	<path class="st0" d="M31,15.8c0-8.5-7-15.5-15.5-15.5v1c8,0,14.5,6.5,14.5,14.5c0,5.7-3.3,10.8-8.3,13.1l-0.4-1.4l-2.9,3.1l4.1,0.9
		L22,29.9C27.4,27.4,31,21.9,31,15.8z"/>
</g>
</svg>
