<svg xmlns="http://www.w3.org/2000/svg" xmlns:xlink="http://www.w3.org/1999/xlink" viewBox="0 0 25.91 12.88"><defs><style>.cls-1{fill:none;}.cls-2{clip-path:url(#clip-path);}.cls-3{fill:#fff;}</style><clipPath id="clip-path" transform="translate(0)"><rect class="cls-1" width="25.91" height="12.88"/></clipPath></defs><title>Ресурс 1</title><g id="Слой_2" data-name="Слой 2"><g id="Слой_1-2" data-name="Слой 1"><g class="cls-2"><path class="cls-3" d="M5.78,6.44A8.22,8.22,0,0,1,8.37.37.21.21,0,0,0,8.16,0,15.74,15.74,0,0,0,.21,5.78a1.14,1.14,0,0,0,0,1.32,15.8,15.8,0,0,0,8,5.77.21.21,0,0,0,.21-.36A8.22,8.22,0,0,1,5.78,6.44" transform="translate(0)"/><path class="cls-3" d="M17.75,0a.21.21,0,0,0-.21.36,8.2,8.2,0,0,1,2.59,6.07,8.22,8.22,0,0,1-2.59,6.07.21.21,0,0,0,.21.36,15.8,15.8,0,0,0,8-5.77,1.14,1.14,0,0,0,0-1.32A15.74,15.74,0,0,0,17.75,0" transform="translate(0)"/><path class="cls-3" d="M13,2.9a3.46,3.46,0,0,0-1,.15,1.7,1.7,0,0,1,1,1.52,1.67,1.67,0,0,1-1.67,1.67A1.65,1.65,0,0,1,9.7,5.06,3.53,3.53,0,1,0,13,2.9" transform="translate(0)"/></g></g></g></svg>