<svg width="24" height="15" viewBox="0 0 24 15" fill="none" xmlns="http://www.w3.org/2000/svg">
<path d="M0.289808 6.43636C2.64055 2.46593 7.12539 0 11.9974 0C16.8694 0 21.3589 2.46593 23.7096 6.43636C24.0968 7.09067 24.0968 7.90968 23.7096 8.564C21.3589 12.5344 16.874 15.0004 12.002 15.0004C7.13 15.0004 2.64055 12.5344 0.29442 8.564C-0.0973701 7.90968 -0.0973721 7.09067 0.289808 6.43636ZM11.9974 1.46888C7.66928 1.46888 3.68686 3.64994 1.60807 7.16634C1.48362 7.3711 1.48362 7.62926 1.60807 7.83847C3.69147 11.3504 7.66928 13.5315 11.9974 13.5315C16.3255 13.5315 20.308 11.3504 22.3867 7.83401C22.5112 7.62926 22.5112 7.3711 22.3867 7.16189C20.308 3.64994 16.3255 1.46888 11.9974 1.46888Z" fill="#454545"/>
<path d="M11.9974 12.3163C9.24567 12.3163 7.01016 10.1575 7.01016 7.50019C7.01016 4.84286 9.25028 2.68405 11.9974 2.68405C14.7446 2.68405 16.9847 4.84286 16.9847 7.50019C16.9847 10.1575 14.7492 12.3163 11.9974 12.3163ZM11.9974 4.11732C10.0661 4.11732 8.49435 5.63516 8.49435 7.50019C8.49435 9.36522 10.0661 10.8831 11.9974 10.8831C13.9287 10.8831 15.5005 9.36522 15.5005 7.50019C15.5051 5.63516 13.9333 4.11732 11.9974 4.11732Z" fill="#454545"/>
</svg>
