<svg width="18" height="17" viewBox="0 0 18 17" fill="none" xmlns="http://www.w3.org/2000/svg">
<path d="M8.55223 1.02492C8.73607 0.654896 9.26393 0.654895 9.44778 1.02492L11.2705 4.69344C11.4889 5.13304 11.9086 5.43795 12.3942 5.50983L16.4464 6.10971C16.8551 6.17021 17.0182 6.67223 16.7231 6.96143L13.7974 9.82857C13.4468 10.1721 13.2865 10.6655 13.3682 11.1495L14.0499 15.1888C14.1186 15.5962 13.6916 15.9065 13.3254 15.7152L9.69446 13.8186C9.25938 13.5914 8.74062 13.5914 8.30553 13.8186L4.67462 15.7152C4.30839 15.9065 3.88135 15.5962 3.95011 15.1888L4.6318 11.1495C4.71349 10.6655 4.55318 10.1721 4.2026 9.82857L1.27688 6.96142C0.981778 6.67223 1.14489 6.17021 1.55362 6.10971L5.60584 5.50983C6.09141 5.43795 6.51109 5.13304 6.72951 4.69344L8.55223 1.02492Z" stroke="#DEC27F"/>
</svg>
