<svg width="106" height="144" viewBox="0 0 106 144" fill="none" xmlns="http://www.w3.org/2000/svg">
<path d="M61.0803 142.8L60.9803 127V126.5H60.4803C58.9803 126.6 57.3803 126.7 55.7803 126.7C54.6803 126.7 53.5803 126.7 52.5803 126.6H52.0803V127.1L52.1803 142.9L42.5803 143L42.4803 125.4V125L42.0803 124.9C19.4803 118.9 1.58031 98 1.38031 74.5V74.4V71.8V70.9C1.28031 47.3 18.8803 26.3 41.5803 20L41.9803 19.9V19.5L41.8803 1.2L51.4803 1.1V17.7V18.2H51.8803C52.4803 18.2 52.9803 18.2 53.4803 18.2C53.9803 18.2 54.5803 18.2 55.0803 18.2C56.6803 18.2 58.2803 18.2 59.7803 18.3H60.2803V17.8V1.1L69.8803 1L70.0803 19V19.4L70.4803 19.5C89.7803 23.3 98.6803 34.6 104.88 42.7L93.0803 47.3C92.5803 46.5 92.0803 45.7 91.5803 44.9C88.8803 40.8 85.6803 35.6 80.1803 31.5C74.6803 27.3 66.8803 24.3 55.2803 24.3C44.5803 24.3 34.9803 30 28.1803 38.6C21.2803 47.2 17.0803 58.8 17.1803 70.7V74.3C17.2803 86.2 21.5803 97.7 28.4803 106.2C35.3803 114.7 44.9803 120.3 55.6803 120.3C67.3803 120.2 75.3803 116.7 80.9803 112.2C86.5803 107.8 89.7803 102.4 91.9803 98.7C92.1803 98.3 92.4803 98 92.5803 97.7V97.6C92.6803 97.4 92.7803 97.2 92.9803 97L104.88 101.4C98.7803 109.6 89.9803 120.9 70.7803 125L70.3803 125.1V125.5L70.4803 142.7L61.0803 142.8ZM40.7803 64.4L41.8803 63L40.2803 63.6C36.2803 65.2 32.5803 67.2 29.5803 69.8C36.7803 60 47.8803 52.3 60.1803 52.3C72.4803 52.2 83.4803 59.7 90.7803 69.4C87.7803 66.9 84.1803 64.9 80.1803 63.5L78.5803 62.9L79.5803 64.3C81.9803 67.5 83.4803 71.3 83.4803 75.3C83.5803 86.3 73.1803 95.4 60.2803 95.4C47.3803 95.5 36.9803 86.5 36.9803 75.5C36.9803 71.3 38.3803 67.5 40.7803 64.4ZM64.9803 75.2C64.9803 77.8 62.8803 79.9 60.2803 79.9C57.6803 79.9 55.5803 77.8 55.4803 75.2C55.4803 72.6 57.5803 70.5 60.1803 70.5C62.8803 70.5 64.9803 72.6 64.9803 75.2ZM77.6803 75.2C77.6803 83.1 69.8803 89.5 60.2803 89.5C50.6803 89.5 42.8803 83.1 42.8803 75.2C42.8803 67.3 50.6803 61 60.2803 61C69.8803 61 77.6803 67.4 77.6803 75.2Z" stroke="#ECC289"/>
</svg>
