<svg width="20" height="20" viewBox="0 0 20 20" fill="none" xmlns="http://www.w3.org/2000/svg">
<path d="M0 18.9998C0 19.5521 0.447715 19.9998 1 19.9998H9.09088V10.9089H0V18.9998ZM1.81804 12.7272H7.27265V18.1677H1.81804V12.7272Z" fill="#242424"/>
<path d="M5.45447 14.5452H3.63633V16.3636H5.45447V14.5452Z" fill="#242424"/>
<path d="M16.3637 18.1818H14.5451V20H16.3637V18.1818Z" fill="#242424"/>
<path d="M20 18.1818H18.1815V20H19C19.5523 20 20 19.5523 20 19V18.1818Z" fill="#242424"/>
<path d="M18.1817 12.7272H16.3636V10.9089H10.9089V19.9998H12.7272V14.5452H14.5451V16.3636H19.9998V10.9089H18.1817V12.7272Z" fill="#242424"/>
<path d="M0 9.09108H9.09088V0H1C0.447715 0 0 0.447715 0 1V9.09108ZM1.81804 1.81804H7.27265V7.27265H1.81804V1.81804Z" fill="#242424"/>
<path d="M5.45447 3.63632H3.63633V5.45461H5.45447V3.63632Z" fill="#242424"/>
<path d="M10.9089 0V9.09108H20V0.999998C20 0.447714 19.5523 0 19 0H10.9089ZM18.1817 7.27265H12.7272V1.81804H18.1817V7.27265Z" fill="#242424"/>
<path d="M16.3637 3.63632H14.5451V5.45461H16.3637V3.63632Z" fill="#242424"/>
</svg>
