<?xml version="1.0" encoding="utf-8"?>
<!-- Generator: Adobe Illustrator 23.0.3, SVG Export Plug-In . SVG Version: 6.00 Build 0)  -->
<svg version="1.1" id="Layer_1" xmlns="http://www.w3.org/2000/svg" xmlns:xlink="http://www.w3.org/1999/xlink" x="0px" y="0px"
	 viewBox="0 0 25.91 18.29" style="enable-background:new 0 0 25.91 18.29;" xml:space="preserve">
<g>
	<path d="M10.27,0.69L6.34,0C6.2-0.01,6.05,0.03,5.95,0.13l-5.6,5.6C0.34,5.73,0.33,5.74,0.33,5.75c-0.16,0.16-0.16,0.42,0,0.58
		l2.31,2.31c0.01,0.01,0.02,0.02,0.02,0.02c0.17,0.15,0.43,0.13,0.58-0.05l7.22-7.22C10.77,1.08,10.69,0.76,10.27,0.69z"/>
	<path d="M18.36,5.46c-0.16-0.16-0.42-0.16-0.58,0l-4.83,4.83L8.12,5.46c-0.16-0.16-0.42-0.16-0.58,0L6.39,6.62
		c-0.16,0.16-0.16,0.42,0,0.58l4.83,4.83l-4.41,4.41c-0.16,0.16-0.16,0.42,0,0.58l1.16,1.16c0.16,0.16,0.42,0.16,0.58,0l4.41-4.41
		l4.41,4.41c0.16,0.16,0.42,0.16,0.58,0l1.16-1.16c0.16-0.16,0.16-0.42,0-0.58l-4.41-4.41l4.83-4.83c0.16-0.16,0.16-0.42,0-0.58
		L18.36,5.46z"/>
	<path d="M25.59,5.75c-0.01-0.01-0.02-0.02-0.02-0.02l-5.6-5.6c-0.11-0.1-0.25-0.14-0.39-0.13l-3.93,0.69
		c-0.42,0.07-0.5,0.39-0.19,0.7l7.22,7.22c0.15,0.17,0.4,0.19,0.58,0.05c0.01-0.01,0.02-0.02,0.02-0.02l2.31-2.31
		C25.74,6.17,25.75,5.91,25.59,5.75z"/>
</g>
</svg>
