<?xml version="1.0" encoding="utf-8"?>
<!-- Generator: Adobe Illustrator 23.0.3, SVG Export Plug-In . SVG Version: 6.00 Build 0)  -->
<svg version="1.1" id="Layer_1" xmlns="http://www.w3.org/2000/svg" xmlns:xlink="http://www.w3.org/1999/xlink" x="0px" y="0px"
	 viewBox="0 0 22.9 23.06" style="enable-background:new 0 0 22.9 23.06;" xml:space="preserve">
<g>
	<path d="M20.59,13.04l-1.05-1.95l-0.66-1.23c-0.51-0.95-1.71-1.3-2.66-0.77c-0.34,0.19-0.45,0.64-0.26,0.98l0.11,0.2
		c-0.51-0.95-1.71-1.3-2.66-0.77c-0.34,0.19-0.45,0.64-0.26,0.98l0.22,0.41c-0.51-0.94-1.68-1.3-2.63-0.79
		c-0.36,0.19-0.49,0.64-0.3,1l-2.2-4.09C7.89,6.41,7.15,6.08,6.5,6.35C5.76,6.66,5.46,7.54,5.83,8.23l4.18,7.76l-1.66-0.76
		c-2.46-1.44-4.61-0.39-4.46,0.35c0.16,0.84,0.39,0.71,2.39,1.56c1.15,0.49,2.3,1.91,3.26,2.59c0.6,0.42,2.52,1.57,3.66,2.77
		c0.46,0.48,1.18,0.6,1.77,0.28l5.91-3.19c0.43-0.23,0.72-0.66,0.77-1.14C21.86,16.59,21.49,14.7,20.59,13.04z"/>
	<path d="M4.29,9.06C3.88,8.29,3.81,7.38,4.1,6.56c0.29-0.82,0.92-1.48,1.73-1.82c0.37-0.15,0.75-0.23,1.15-0.23
		c1.16,0,2.22,0.65,2.78,1.68l1.09,2.03c0.26-0.06,0.53-0.09,0.79-0.09c0,0,0,0,0.01,0c0.21-0.59,0.33-1.22,0.33-1.88
		c0-3.09-2.51-5.6-5.6-5.6c-3.09,0-5.6,2.51-5.6,5.6c0,2.89,2.19,5.27,5,5.57L4.29,9.06z"/>
</g>
</svg>
