<svg width="14" height="18" viewBox="0 0 14 18" fill="none" xmlns="http://www.w3.org/2000/svg">
<path d="M9.43851 2.94995H1.54508C0.692622 2.94995 0 3.6426 0 4.49007V15.7436C0 16.591 0.692622 17.2796 1.54508 17.2796H9.43441C10.2869 17.2796 10.9795 16.591 10.9795 15.7436V4.486C10.9795 3.63852 10.2869 2.94995 9.43851 2.94995ZM1.34426 15.7395V4.49007C1.34426 4.38006 1.43442 4.2945 1.54098 4.2945H9.43031C9.54097 4.2945 9.62704 4.38414 9.62704 4.49007V15.7395C9.62704 15.8495 9.53687 15.9351 9.43031 15.9351H1.54508C1.43442 15.9391 1.34426 15.8495 1.34426 15.7395Z" fill="#DEC27F"/>
<path d="M12.455 0H4.56558C3.70902 0 3.01639 0.688576 3.01639 1.53605H4.36476C4.36476 1.42604 4.45492 1.34048 4.56148 1.34048H12.4509C12.5615 1.34048 12.6476 1.43012 12.6476 1.53605V12.7937C12.6476 12.9037 12.4509 12.9892 12.4509 12.9892V14.3297C13.3034 14.3297 13.996 13.6411 13.996 12.7937V1.53605C14.0001 0.688576 13.3075 0 12.455 0Z" fill="#DEC27F"/>
</svg>
