<svg width="21" height="31" viewBox="0 0 21 31" fill="none" xmlns="http://www.w3.org/2000/svg">
<path fill-rule="evenodd" clip-rule="evenodd" d="M10.5 1.5C7.18957 1.5 4.5 4.20335 4.5 7.54545V11.882C6.20075 10.6957 8.26913 10 10.5 10C12.7309 10 14.7992 10.6957 16.5 11.882V7.54545C16.5 4.20335 13.8104 1.5 10.5 1.5ZM17.4763 12.6525C17.4917 12.6044 17.5 12.5532 17.5 12.5V7.54545C17.5 3.65765 14.3693 0.5 10.5 0.5C6.63073 0.5 3.5 3.65765 3.5 7.54545V12.5C3.5 12.5532 3.5083 12.6044 3.52368 12.6525C1.36182 14.5757 0 17.3788 0 20.5C0 26.299 4.70101 31 10.5 31C16.299 31 21 26.299 21 20.5C21 17.3788 19.6382 14.5757 17.4763 12.6525ZM11.1454 19.9549L11.5314 19.5892C11.8213 19.3145 12 18.9289 12 18.5C12 17.6716 11.3284 17 10.5 17C9.67157 17 9 17.6716 9 18.5C9 18.9289 9.17874 19.3145 9.46861 19.5892L9.85464 19.9549L9.18046 24H11.8195L11.1454 19.9549ZM13 25H8L8.78082 20.3151C8.29994 19.8594 8 19.2147 8 18.5C8 17.1193 9.11929 16 10.5 16C11.8807 16 13 17.1193 13 18.5C13 19.2147 12.7001 19.8594 12.2192 20.3151L13 25ZM20 20.5C20 25.7467 15.7467 30 10.5 30C5.25329 30 1 25.7467 1 20.5C1 15.2533 5.25329 11 10.5 11C15.7467 11 20 15.2533 20 20.5Z" fill="#8C8C8C"/>
</svg>
