<svg width="20" height="28" viewBox="0 0 20 28" fill="none" xmlns="http://www.w3.org/2000/svg">
<path fill-rule="evenodd" clip-rule="evenodd" d="M10 0.304352C5.56972 0.304352 1.97826 3.8958 1.97826 8.32609V11.3697C0.883706 11.3813 0 12.2723 0 13.3696V25.0217C0 26.1263 0.895431 27.0217 2 27.0217H18C19.1046 27.0217 20 26.1263 20 25.0217V13.3696C20 12.2723 19.1163 11.3813 18.0217 11.3697V8.32609C18.0217 3.89581 14.4303 0.304352 10 0.304352ZM15.0217 11.3696V8.32609C15.0217 5.55266 12.7734 3.30435 10 3.30435C7.22657 3.30435 4.97826 5.55266 4.97826 8.32609V11.3696H15.0217ZM11.3043 19.6306C11.8324 19.234 12.1739 18.6025 12.1739 17.8913C12.1739 16.6907 11.2006 15.7174 10 15.7174C8.79938 15.7174 7.82609 16.6907 7.82609 17.8913C7.82609 18.6025 8.16762 19.234 8.69563 19.6306V23.5435H11.3043V19.6306Z" fill="#dec27f"/>
</svg>
