<svg width="30" height="27" viewBox="0 0 30 27" fill="none" xmlns="http://www.w3.org/2000/svg">
<path d="M14.9877 15.1566C15.8312 15.1566 16.5151 15.8457 16.5151 16.6955C16.5151 17.5453 15.8312 18.2344 14.9877 18.2344C14.1442 18.2344 13.4603 17.5453 13.4603 16.6955C13.4603 15.8457 14.1442 15.1566 14.9877 15.1566Z" fill="#DEC27F"/>
<path d="M5.43015 23.9433L8.62342 17.9437C8.62342 17.9437 11.1809 20.0948 14.9771 20.0948C19.1089 20.0948 21.6558 17.8681 22.4805 17.0561L14.9595 3.11617L10.4699 11.3733C9.68393 11.6333 8.92257 12.138 8.06149 12.7963L14.9595 0.155396L24.5393 17.8858L22.0945 19.3904L24.5593 23.9031L5.43015 23.9433Z" fill="#DEC27F"/>
<path d="M5.99559 16.7086L0.501801 26.8202H14.7214H29.4559L25.2854 19.1801L24.0349 19.92L26.9759 25.4042H14.7214H2.92902L7.1042 17.6743C9.02228 14.1308 12.6168 13.3956 14.861 13.3956C17.7375 13.3956 19.3165 14.2868 19.3165 14.2868L14.9689 6.18811L11.6231 12.3957C11.6243 12.3969 7.84211 13.3613 5.99559 16.7086Z" fill="#DEC27F"/>
</svg>
