<?xml version="1.0" encoding="utf-8"?>
<!-- Generator: Adobe Illustrator 23.0.3, SVG Export Plug-In . SVG Version: 6.00 Build 0)  -->
<svg version="1.1" id="Слой_1" xmlns="http://www.w3.org/2000/svg" xmlns:xlink="http://www.w3.org/1999/xlink" x="0px" y="0px"
	 viewBox="0 0 610.17 504.24" style="enable-background:new 0 0 610.17 504.24;" xml:space="preserve">
<g>
	<g>
		<path d="M171.15,256.57c-0.05,0.79-0.2,1.55-0.42,2.27l3.19,1.4c0.33-1.04,0.52-2.12,0.59-3.21c0.16-2.74-0.85-5.66-3.03-8.66
			l-2.3,1.68C170.58,251.92,171.29,254.2,171.15,256.57z"/>
	</g>
	<g>
		<path d="M154.48,249.91c0.6,0,1.09-0.49,1.09-1.09s-0.49-1.08-1.09-1.08s-1.08,0.49-1.08,1.08S153.88,249.91,154.48,249.91z"/>
	</g>
	<g>
		<path d="M189.37,259.37c0,0-5.74-13.17-21.32-17.83c-2.89-0.86-6.07-0.95-7.32-0.98c-9.44-0.22-23.2,5.92-29.63,20.51
			c0,0,6.92-10.21,18.92-14.63c0,0,7.86-2.97,18.09-0.59l-2.83,2.75l0.75,0.54c2.41,1.72,3.75,4.46,3.58,7.34
			c-0.28,4.66-4.43,8.23-9.26,7.93c-2.61-0.16-5-1.42-6.55-3.46l-0.66,0.51c-0.8-1.04-1.36-2.25-1.61-3.54l0.42-0.07
			c-0.44-2.65,0.32-5.38,2.07-7.5c0.15,0.05,0.3,0.08,0.47,0.08c0.88,0,1.6-0.72,1.6-1.6c0-0.88-0.72-1.6-1.6-1.6
			c-0.88,0-1.6,0.72-1.6,1.6c0,0.34,0.11,0.66,0.3,0.92c-1.91,2.33-2.73,5.34-2.25,8.26l0.34-0.06c0.26,1.34,0.83,2.58,1.66,3.66
			l-0.36,0.27c1.83,2.4,4.63,3.88,7.69,4.06c0.22,0.01,0.43,0.02,0.64,0.02c3.36,0,6.39-1.59,8.27-4.07l3.3,1.67
			c-2.72,4.03-7.44,6.33-12.44,6.03c-3.12-0.19-6.37-1.35-8.5-3.04l-0.64,0.8c1.12,0.89,2.53,1.64,4.07,2.21l-1.25,2.32l0.13,0.06
			c0.03,0.02,3.38,1.51,7.78,1.51c0.13,0,0.25,0,0.38,0c4.22-0.08,10.21-1.64,14.84-8.56l2.38,1.3c-0.83,1.5-1.83,2.9-3,4.14
			c-0.23,0.29-0.53,0.52-0.79,0.78l-0.81,0.76c-0.57,0.47-1.16,0.92-1.75,1.36l-0.94,0.59c-0.32,0.19-0.61,0.41-0.95,0.56
			l-0.99,0.49l-0.49,0.25l-0.52,0.2c-2.73,1.12-5.69,1.65-8.63,1.54c-2.95-0.06-5.86-0.83-8.5-2.15c-1.08-0.53-2.11-1.16-3.08-1.87
			l1.63-2.53l-0.14-0.11c-6.13-4.7-7.11-12.14-6.08-17.2l2.14,0.34c-0.08,0.4-0.13,0.66-0.13,0.7l-0.01,0.06
			c-0.36,3.27,0.33,7.96,2.67,11.08l1.64-1.23c-1.98-2.65-2.57-6.82-2.27-9.59c0.16-0.94,0.7-3.53,1.3-4.71l-1.83-0.93
			c-0.58,1.14-1.04,3.05-1.29,4.25l-2.53-0.41l-0.02,0.12c-1.13,5.14-0.21,12.82,6.03,17.71l-1.43,2.21c-1.3-0.97-2.48-2.1-3.5-3.37
			c-3.74-4.61-5.64-10.78-5.01-16.87c-1.28,6,0.28,12.6,4.07,17.61c3.77,5.04,9.95,8.22,16.28,8.42c3.16,0.09,6.34-0.49,9.25-1.74
			c2.9-1.25,5.54-3.13,7.57-5.54c2.07-2.37,3.56-5.21,4.37-8.22c0.78-3.01,0.88-6.18,0.27-9.18c0.27,3.05-0.04,6.11-1,8.96
			c-0.38,1.13-0.85,2.22-1.41,3.27l-2.59-1.42l-0.07,0.1c-4.58,6.91-10.52,8.46-14.69,8.54c-0.13,0-0.26,0-0.39,0
			c-3.86,0-6.9-1.17-7.54-1.44l1.14-2.11c1.52,0.53,3.16,0.88,4.76,0.97c0.31,0.02,0.62,0.03,0.93,0.03
			c5.22,0,10.04-2.63,12.75-7.02l0.29-0.48l-4.19-2.11c0.35-0.58,0.64-1.19,0.86-1.84l3.54,1.55l0.07-0.2
			c0.37-1.13,0.6-2.31,0.67-3.51c0.17-2.88-0.91-5.93-3.22-9.06l-0.11-0.15l-2.63,1.92c-0.38-0.47-0.81-0.91-1.28-1.31l2.19-2.13
			l-0.02-0.02c2.09,0.6,4.27,1.43,6.48,2.56c1.21,2.46,1.76,5.16,1.6,7.94c-0.09,1.48-0.39,2.94-0.89,4.35l1.45,0.52
			c0.55-1.54,0.87-3.15,0.97-4.77c0.14-2.33-0.2-4.65-0.97-6.84C182.1,252.22,185.8,255.23,189.37,259.37z M154.48,247.74
			c0.6,0,1.09,0.49,1.09,1.08s-0.49,1.09-1.09,1.09s-1.08-0.49-1.08-1.09S153.88,247.74,154.48,247.74z M171.48,248.37
			c2.17,3,3.19,5.91,3.03,8.66c-0.07,1.09-0.26,2.17-0.59,3.21l-3.19-1.4c0.22-0.73,0.37-1.48,0.42-2.27
			c0.14-2.37-0.58-4.65-1.98-6.51L171.48,248.37z"/>
	</g>
	<g>
		<polygon points="237.52,303.42 187.58,272.45 232.48,303.42 		"/>
	</g>
	<g>
		<polygon points="162.5,195.63 168.54,203.49 183.12,223.66 172.39,239.58 184,224.88 199.13,245.81 186.44,249.13 200.06,247.1 
			222.05,277.51 197.17,266.6 224.81,281.34 222.43,277.68 158.09,179.1 159.98,236.56 		"/>
	</g>
	<g>
		<path d="M100.7,283.91l27.65-14.74l-25.08,11c3.67-5.34,7.2-10.76,10.66-16.22c2.16-3.36,4.23-6.77,6.34-10.16l4.22-6.98
			l11.99,2.75l-11.27-3.94l1.26-2.08c3.92-6.57,7.73-13.21,11.47-19.89l10.12,15.92l-9.3-17.39c3.77-6.78,7.45-13.61,10.88-20.59
			c-4.63,6.53-9,13.22-13.28,19.97c-4.27,6.75-8.46,13.54-12.53,20.41l-6.05,10.33c-1.97,3.47-3.98,6.92-5.9,10.42
			c-3.89,6.98-7.68,14.01-11.21,21.19c0.18-0.26,0.36-0.52,0.54-0.77L100.7,283.91z"/>
	</g>
	<g>
		<polygon points="190.73,301.55 190.78,301.52 176.32,281.45 187.37,302.74 165.84,302.39 162.42,284.17 160.86,302.31 
			141.04,301.99 151.82,281.25 137.03,301.92 137.03,301.92 96.88,301.28 138.23,268.78 82.54,305.1 81.06,306.07 237.52,303.55 
			191.66,302.81 		"/>
	</g>
</g>
<g>
	<g>
		<path d="M291.47,284.26c0.03,0.75-0.28,1.39-0.91,1.91c-0.63,0.52-1.37,0.78-2.21,0.78h-3.2v-9.48H288c0.8,0,1.49,0.22,2.08,0.66
			c0.62,0.47,0.93,1.06,0.93,1.77c0,0.85-0.38,1.5-1.15,1.97C290.89,282.34,291.43,283.14,291.47,284.26z M287.98,278.37h-1.78v3.16
			h1.83c0.52,0,0.98-0.15,1.38-0.44c0.4-0.29,0.6-0.67,0.6-1.13c0-0.51-0.21-0.91-0.63-1.19C289,278.5,288.54,278.37,287.98,278.37z
			 M290.44,284.17c-0.03-0.6-0.29-1.05-0.76-1.36c-0.43-0.28-1-0.42-1.71-0.42h-1.78v3.66h1.83c0.77,0,1.38-0.17,1.81-0.52
			C290.27,285.19,290.47,284.73,290.44,284.17z"/>
		<path d="M294.72,286.96h-0.99v-9.49h0.99V286.96z"/>
		<path d="M304.8,283.45c0,1.01-0.39,1.88-1.17,2.62c-0.78,0.73-1.7,1.09-2.77,1.05c-1.04-0.02-1.91-0.39-2.63-1.11
			c-0.72-0.71-1.08-1.56-1.08-2.55c0-1.03,0.39-1.91,1.16-2.64c0.77-0.73,1.7-1.08,2.77-1.05c1.04,0.03,1.91,0.41,2.64,1.13
			C304.44,281.61,304.8,282.46,304.8,283.45z M303.8,283.37c-0.03-0.74-0.31-1.38-0.84-1.9c-0.54-0.53-1.18-0.79-1.94-0.79
			c-0.79-0.01-1.47,0.25-2.03,0.78c-0.56,0.53-0.84,1.17-0.85,1.92c-0.02,0.74,0.24,1.39,0.77,1.95c0.53,0.56,1.18,0.85,1.95,0.87
			c0.82,0.04,1.52-0.23,2.1-0.8C303.54,284.82,303.82,284.15,303.8,283.37z"/>
		<path d="M314.82,284.89l-0.1,0.21c-0.78,1.36-1.99,2.03-3.63,2.02c-1.08-0.01-2.01-0.37-2.79-1.07c-0.78-0.71-1.18-1.56-1.19-2.57
			c-0.02-1.02,0.37-1.89,1.16-2.62c0.79-0.73,1.73-1.1,2.83-1.11c0.78-0.01,1.51,0.18,2.19,0.58c0.64,0.38,1.11,0.85,1.38,1.43
			l0.14,0.31h-1.13c-0.56-0.91-1.41-1.38-2.56-1.4c-0.77-0.02-1.46,0.25-2.07,0.79c-0.64,0.56-0.95,1.22-0.95,1.99
			s0.3,1.42,0.89,1.97c0.59,0.55,1.29,0.82,2.11,0.81c1.16-0.02,2.03-0.46,2.6-1.32H314.82z"/>
		<path d="M322.61,286.96h-1.29l-2.42-2.76l-1.19,1.42v1.34h-1.07v-9.49h1.03v6.69l3.45-4.21h1.23l-2.84,3.54L322.61,286.96z"/>
		<path d="M330.83,284.89l-0.1,0.21c-0.78,1.36-1.99,2.03-3.63,2.02c-1.08-0.01-2.01-0.37-2.79-1.07c-0.78-0.71-1.18-1.56-1.19-2.57
			c-0.02-1.02,0.37-1.89,1.16-2.62c0.79-0.73,1.73-1.1,2.83-1.11c0.78-0.01,1.51,0.18,2.19,0.58c0.64,0.38,1.11,0.85,1.38,1.43
			l0.14,0.31h-1.13c-0.56-0.91-1.41-1.38-2.56-1.4c-0.77-0.02-1.46,0.25-2.07,0.79c-0.64,0.56-0.95,1.22-0.95,1.99
			s0.3,1.42,0.89,1.97c0.59,0.55,1.29,0.82,2.11,0.81c1.16-0.02,2.03-0.46,2.6-1.32H330.83z"/>
		<path d="M339.21,286.96h-0.99v-4.09c0-0.59-0.23-1.1-0.7-1.53c-0.46-0.43-1.01-0.64-1.63-0.62c-0.63,0.01-1.17,0.21-1.6,0.6
			c-0.43,0.39-0.65,0.88-0.65,1.48v4.16h-0.99v-9.49h0.99v3.47c0.57-0.7,1.29-1.07,2.18-1.11c0.92-0.04,1.72,0.25,2.39,0.86
			c0.67,0.62,1,1.37,1,2.28V286.96z"/>
		<path d="M349.1,283.44v0.05v3.47h-0.99v-1.1c-0.81,0.87-1.79,1.29-2.96,1.26c-1.02-0.03-1.89-0.41-2.61-1.12
			c-0.72-0.71-1.08-1.56-1.08-2.55c0-1.03,0.39-1.91,1.16-2.64c0.77-0.73,1.7-1.08,2.78-1.04c1.04,0.03,1.93,0.41,2.66,1.13
			C348.79,281.61,349.13,282.46,349.1,283.44z M348.11,283.37c-0.02-0.74-0.3-1.37-0.84-1.9c-0.54-0.53-1.19-0.79-1.95-0.79
			c-0.79,0-1.47,0.26-2.03,0.79c-0.56,0.53-0.84,1.16-0.85,1.91c-0.02,0.74,0.24,1.39,0.78,1.94s1.18,0.85,1.94,0.88
			c0.82,0.03,1.52-0.24,2.1-0.81C347.84,284.83,348.12,284.15,348.11,283.37z"/>
		<path d="M352.44,279.1h-0.99v-1.64h0.99V279.1z M352.44,286.96h-0.99v-7.02h0.99V286.96z"/>
		<path d="M361.4,286.96h-0.99v-4.1c0-0.59-0.23-1.1-0.69-1.53c-0.46-0.43-1-0.64-1.61-0.64c-0.62,0-1.16,0.21-1.62,0.64
			c-0.46,0.43-0.69,0.93-0.69,1.53v4.1h-0.99v-4c0-0.91,0.31-1.67,0.94-2.27c0.63-0.6,1.41-0.9,2.36-0.9c0.94,0,1.72,0.3,2.35,0.9
			c0.63,0.6,0.94,1.36,0.94,2.27V286.96z"/>
		<path d="M372.57,279.1h-0.99v-1.64h0.99V279.1z M372.57,286.96h-0.99v-7.02h0.99V286.96z"/>
		<path d="M381.52,286.96h-0.99v-4.1c0-0.59-0.23-1.1-0.69-1.53c-0.46-0.43-1-0.64-1.61-0.64c-0.62,0-1.16,0.21-1.62,0.64
			c-0.46,0.43-0.69,0.93-0.69,1.53v4.1h-0.99v-4c0-0.91,0.31-1.67,0.94-2.27c0.63-0.6,1.41-0.9,2.36-0.9c0.94,0,1.72,0.3,2.35,0.9
			c0.63,0.6,0.94,1.36,0.94,2.27V286.96z"/>
		<path d="M386.59,287.1c-1.81,0-2.72-0.73-2.72-2.18v-7.45h0.99v2.45h1.72v0.87h-1.72v3.96c0,1.04,0.57,1.56,1.72,1.56V287.1z"/>
		<path d="M395.39,283.77h-6.68c0.08,0.71,0.4,1.29,0.95,1.75c0.56,0.46,1.21,0.69,1.97,0.68c1.17-0.02,2.01-0.53,2.52-1.54h1.06
			c-0.28,0.76-0.75,1.35-1.41,1.8c-0.66,0.44-1.4,0.67-2.21,0.68c-1.02,0.02-1.92-0.33-2.7-1.05c-0.78-0.72-1.18-1.57-1.2-2.57
			c-0.03-1.05,0.37-1.95,1.18-2.71c0.81-0.76,1.77-1.11,2.88-1.05c0.99,0.06,1.85,0.44,2.58,1.16c0.7,0.71,1.06,1.49,1.06,2.36
			V283.77z M394.41,282.91c-0.14-0.66-0.47-1.19-0.98-1.59c-0.51-0.41-1.13-0.61-1.84-0.62c-0.71-0.01-1.34,0.19-1.87,0.6
			c-0.54,0.41-0.87,0.95-1.01,1.61H394.41z"/>
		<path d="M400.5,280.74c-0.46,0.02-0.84,0.14-1.12,0.36c-0.29,0.22-0.48,0.41-0.59,0.58c-0.17,0.27-0.25,0.63-0.25,1.08v4.2h-1.04
			v-7.02h0.93v1c0.21-0.38,0.52-0.67,0.93-0.87c0.37-0.19,0.76-0.28,1.15-0.26V280.74z"/>
		<path d="M408.49,286.96h-0.99v-4.1c0-0.59-0.23-1.1-0.69-1.53c-0.46-0.43-1-0.64-1.61-0.64c-0.62,0-1.16,0.21-1.62,0.64
			c-0.46,0.43-0.69,0.93-0.69,1.53v4.1h-0.99v-4c0-0.91,0.31-1.67,0.94-2.27c0.63-0.6,1.41-0.9,2.36-0.9c0.94,0,1.72,0.3,2.35,0.9
			c0.63,0.6,0.94,1.36,0.94,2.27V286.96z"/>
		<path d="M418.48,283.44v0.05v3.47h-0.99v-1.1c-0.81,0.87-1.79,1.29-2.96,1.26c-1.02-0.03-1.89-0.41-2.61-1.12
			c-0.72-0.71-1.08-1.56-1.08-2.55c0-1.03,0.39-1.91,1.16-2.64c0.77-0.73,1.7-1.08,2.78-1.04c1.04,0.03,1.93,0.41,2.66,1.13
			C418.16,281.61,418.51,282.46,418.48,283.44z M417.48,283.37c-0.02-0.74-0.3-1.37-0.84-1.9c-0.54-0.53-1.19-0.79-1.95-0.79
			c-0.79,0-1.47,0.26-2.03,0.79c-0.56,0.53-0.84,1.16-0.85,1.91c-0.02,0.74,0.24,1.39,0.78,1.94s1.18,0.85,1.94,0.88
			c0.82,0.03,1.52-0.24,2.1-0.81C417.22,284.83,417.5,284.15,417.48,283.37z"/>
		<path d="M423.54,287.1c-1.81,0-2.72-0.73-2.72-2.18v-7.45h0.99v2.45h1.72v0.87h-1.72v3.96c0,1.04,0.57,1.56,1.72,1.56V287.1z"/>
		<path d="M426.71,279.1h-0.99v-1.64h0.99V279.1z M426.71,286.96h-0.99v-7.02h0.99V286.96z"/>
		<path d="M436.75,283.45c0,1.01-0.39,1.88-1.17,2.62c-0.78,0.73-1.7,1.09-2.77,1.05c-1.04-0.02-1.91-0.39-2.63-1.11
			c-0.72-0.71-1.08-1.56-1.08-2.55c0-1.03,0.39-1.91,1.16-2.64c0.77-0.73,1.7-1.08,2.77-1.05c1.04,0.03,1.91,0.41,2.64,1.13
			C436.39,281.61,436.75,282.46,436.75,283.45z M435.76,283.37c-0.03-0.74-0.31-1.38-0.84-1.9c-0.54-0.53-1.18-0.79-1.94-0.79
			c-0.79-0.01-1.47,0.25-2.03,0.78c-0.56,0.53-0.84,1.17-0.85,1.92c-0.02,0.74,0.24,1.39,0.77,1.95c0.53,0.56,1.18,0.85,1.95,0.87
			c0.82,0.04,1.52-0.23,2.1-0.8C435.5,284.82,435.78,284.15,435.76,283.37z"/>
		<path d="M445.63,286.96h-0.99v-4.1c0-0.59-0.23-1.1-0.69-1.53c-0.46-0.43-1-0.64-1.61-0.64c-0.62,0-1.16,0.21-1.62,0.64
			c-0.46,0.43-0.69,0.93-0.69,1.53v4.1h-0.99v-4c0-0.91,0.31-1.67,0.94-2.27c0.63-0.6,1.41-0.9,2.36-0.9c0.94,0,1.72,0.3,2.35,0.9
			c0.63,0.6,0.94,1.36,0.94,2.27V286.96z"/>
		<path d="M455.61,283.44v0.05v3.47h-0.99v-1.1c-0.81,0.87-1.79,1.29-2.96,1.26c-1.02-0.03-1.89-0.41-2.61-1.12
			c-0.72-0.71-1.08-1.56-1.08-2.55c0-1.03,0.39-1.91,1.16-2.64c0.77-0.73,1.7-1.08,2.78-1.04c1.04,0.03,1.93,0.41,2.66,1.13
			C455.3,281.61,455.65,282.46,455.61,283.44z M454.62,283.37c-0.02-0.74-0.3-1.37-0.84-1.9c-0.54-0.53-1.19-0.79-1.95-0.79
			c-0.79,0-1.47,0.26-2.03,0.79c-0.56,0.53-0.84,1.16-0.85,1.91c-0.02,0.74,0.24,1.39,0.78,1.94c0.54,0.55,1.18,0.85,1.94,0.88
			c0.82,0.03,1.52-0.24,2.1-0.81C454.36,284.83,454.64,284.15,454.62,283.37z"/>
		<path d="M458.95,286.96h-0.99v-9.49h0.99V286.96z"/>
		<path d="M470.22,286.96h-0.99v-9.48h0.99V286.96z"/>
		<path d="M477.78,278.38h-2.28v8.58h-0.99v-8.58h-2.27v-0.89h5.55V278.38z"/>
		<path d="M483.39,283.47v0.79h-3.23v-0.79H483.39z"/>
		<path d="M492.76,283.44c0,1.03-0.39,1.91-1.16,2.64c-0.77,0.73-1.7,1.09-2.77,1.05c-1.1-0.04-2.01-0.46-2.75-1.24v3.53h-0.97
			v-5.92c0-0.02,0-0.04,0-0.05c0-1.01,0.39-1.88,1.17-2.62s1.7-1.08,2.77-1.05c1.04,0.02,1.91,0.39,2.63,1.11
			C492.4,281.6,492.76,282.45,492.76,283.44z M491.77,283.51c0.01-0.74-0.25-1.39-0.79-1.95c-0.53-0.56-1.18-0.85-1.95-0.87
			c-0.82-0.04-1.52,0.23-2.11,0.8c-0.58,0.58-0.86,1.25-0.85,2.03c0.02,0.74,0.3,1.38,0.84,1.9c0.54,0.53,1.2,0.79,1.97,0.79
			c0.79,0,1.46-0.26,2.02-0.79C491.46,284.9,491.75,284.26,491.77,283.51z"/>
		<path d="M497.96,280.74c-0.46,0.02-0.84,0.14-1.12,0.36c-0.29,0.22-0.48,0.41-0.59,0.58c-0.17,0.27-0.25,0.63-0.25,1.08v4.2h-1.04
			v-7.02h0.93v1c0.21-0.38,0.52-0.67,0.93-0.87c0.37-0.19,0.76-0.28,1.15-0.26V280.74z"/>
		<path d="M506.65,283.45c0,1.01-0.39,1.88-1.17,2.62c-0.78,0.73-1.7,1.09-2.77,1.05c-1.04-0.02-1.91-0.39-2.63-1.11
			c-0.72-0.71-1.08-1.56-1.08-2.55c0-1.03,0.39-1.91,1.16-2.64c0.77-0.73,1.7-1.08,2.77-1.05c1.04,0.03,1.91,0.41,2.64,1.13
			C506.29,281.61,506.65,282.46,506.65,283.45z M505.66,283.37c-0.03-0.74-0.31-1.38-0.84-1.9c-0.54-0.53-1.18-0.79-1.94-0.79
			c-0.79-0.01-1.47,0.25-2.03,0.78c-0.56,0.53-0.84,1.17-0.85,1.92c-0.02,0.74,0.24,1.39,0.77,1.95c0.53,0.56,1.18,0.85,1.95,0.87
			c0.82,0.04,1.52-0.23,2.1-0.8C505.39,284.82,505.68,284.15,505.66,283.37z"/>
		<path d="M509.93,287.13c0,0.65-0.12,1.1-0.37,1.37c-0.29,0.32-0.7,0.52-1.22,0.62l-0.28,0.05v-0.93c0.31-0.02,0.54-0.15,0.69-0.38
			c0.1-0.15,0.14-0.44,0.14-0.89v-7.03h1.03V287.13z M509.93,279.13h-1.03v-1.66h1.03V279.13z"/>
		<path d="M520.02,283.77h-6.68c0.08,0.71,0.4,1.29,0.95,1.75c0.56,0.46,1.21,0.69,1.97,0.68c1.17-0.02,2.01-0.53,2.52-1.54h1.06
			c-0.28,0.76-0.75,1.35-1.41,1.8c-0.66,0.44-1.4,0.67-2.21,0.68c-1.02,0.02-1.92-0.33-2.7-1.05c-0.78-0.72-1.18-1.57-1.2-2.57
			c-0.03-1.05,0.37-1.95,1.18-2.71c0.81-0.76,1.77-1.11,2.88-1.05c0.99,0.06,1.85,0.44,2.58,1.16c0.7,0.71,1.06,1.49,1.06,2.36
			V283.77z M519.04,282.91c-0.14-0.66-0.47-1.19-0.98-1.59c-0.51-0.41-1.13-0.61-1.84-0.62c-0.71-0.01-1.34,0.19-1.87,0.6
			c-0.54,0.41-0.87,0.95-1.01,1.61H519.04z"/>
		<path d="M529.92,284.89l-0.1,0.21c-0.78,1.36-1.99,2.03-3.63,2.02c-1.08-0.01-2.01-0.37-2.79-1.07c-0.78-0.71-1.18-1.56-1.19-2.57
			c-0.02-1.02,0.37-1.89,1.16-2.62c0.79-0.73,1.73-1.1,2.83-1.11c0.78-0.01,1.51,0.18,2.19,0.58c0.64,0.38,1.11,0.85,1.38,1.43
			l0.14,0.31h-1.13c-0.56-0.91-1.41-1.38-2.56-1.4c-0.77-0.02-1.46,0.25-2.07,0.79c-0.64,0.56-0.95,1.22-0.95,1.99
			s0.3,1.42,0.89,1.97c0.59,0.55,1.29,0.82,2.11,0.81c1.16-0.02,2.03-0.46,2.6-1.32H529.92z"/>
		<path d="M534.47,287.1c-1.81,0-2.72-0.73-2.72-2.18v-7.45h0.99v2.45h1.72v0.87h-1.72v3.96c0,1.04,0.57,1.56,1.72,1.56V287.1z"/>
	</g>
	<g>
		<polygon points="266.21,265.01 302.61,264.71 339.01,264.53 411.8,264.38 484.59,264.53 520.99,264.7 557.38,265.01 
			520.99,265.32 484.59,265.5 411.8,265.64 339.01,265.5 302.61,265.32 		"/>
	</g>
	<g>
		<path d="M253.06,234.81c0,2.01,0.29,3.81,0.88,5.41c0.59,1.6,1.39,2.95,2.41,4.06c1.02,1.1,2.23,1.95,3.62,2.54
			c1.39,0.59,2.9,0.89,4.52,0.89c0.96,0,1.9-0.2,2.81-0.59c0.91-0.39,1.75-0.9,2.52-1.53c0.78-0.63,1.47-1.34,2.07-2.12
			c0.6-0.79,1.11-1.58,1.5-2.39l1.96,1.3c-0.57,0.96-1.24,1.89-2.01,2.79c-0.78,0.9-1.67,1.68-2.69,2.36
			c-1.02,0.68-2.17,1.22-3.46,1.64c-1.29,0.41-2.72,0.62-4.31,0.62c-2.29,0-4.37-0.4-6.25-1.19c-1.88-0.8-3.49-1.88-4.82-3.25
			c-1.33-1.37-2.36-2.95-3.09-4.76c-0.73-1.81-1.09-3.73-1.09-5.75c0-2.03,0.37-3.95,1.12-5.78c0.75-1.83,1.8-3.44,3.16-4.82
			c1.36-1.39,2.99-2.49,4.89-3.3c1.9-0.82,4-1.22,6.31-1.22c1.47,0,2.83,0.21,4.07,0.62c1.24,0.41,2.37,0.96,3.39,1.64
			c1.02,0.68,1.93,1.47,2.74,2.36c0.8,0.9,1.49,1.82,2.06,2.79l-2.01,1.39c-1.17-2.34-2.47-4.05-3.89-5.12
			c-1.42-1.07-3.06-1.61-4.94-1.61c-1.59,0-3.08,0.3-4.48,0.9c-1.4,0.6-2.61,1.47-3.64,2.6c-1.03,1.13-1.84,2.5-2.44,4.12
			C253.35,230.97,253.06,232.79,253.06,234.81z"/>
		<path d="M292.7,220.33h9.59c1.66,0,3.12,0.19,4.37,0.56c1.25,0.37,2.29,0.89,3.12,1.55c0.83,0.66,1.46,1.45,1.89,2.37
			s0.64,1.93,0.64,3.01c0,0.91-0.16,1.75-0.48,2.52c-0.32,0.78-0.78,1.48-1.38,2.11c-0.6,0.63-1.31,1.17-2.14,1.62
			c-0.83,0.45-1.75,0.81-2.75,1.06l10.07,13.95h-5.39l-9.62-13.51h-3.26v13.51h-4.65V220.33z M297.35,234.13h2.69
			c1.04,0,2-0.14,2.89-0.43c0.89-0.28,1.65-0.69,2.3-1.22c0.64-0.53,1.14-1.17,1.5-1.93c0.36-0.76,0.54-1.61,0.54-2.55
			c0-0.87-0.14-1.66-0.43-2.37c-0.28-0.72-0.69-1.34-1.21-1.86c-0.52-0.52-1.14-0.92-1.86-1.21c-0.72-0.28-1.5-0.43-2.35-0.43h-4.08
			V234.13z"/>
		<path d="M343.6,249.77c-2.14,0-4.14-0.4-6-1.19c-1.86-0.8-3.48-1.89-4.85-3.27c-1.37-1.39-2.45-3-3.23-4.84
			c-0.78-1.84-1.18-3.81-1.18-5.91c0-2.07,0.39-4,1.18-5.81c0.78-1.81,1.86-3.38,3.23-4.72c1.37-1.34,2.99-2.39,4.85-3.17
			c1.86-0.78,3.86-1.16,6-1.16c2.14,0,4.14,0.39,6,1.16c1.86,0.78,3.48,1.83,4.85,3.17c1.37,1.34,2.45,2.91,3.23,4.72
			c0.78,1.81,1.18,3.75,1.18,5.81c0,2.1-0.39,4.08-1.18,5.91c-0.78,1.84-1.86,3.45-3.23,4.84c-1.37,1.39-2.99,2.48-4.85,3.27
			C347.74,249.37,345.74,249.77,343.6,249.77z M343.6,248.32c1.59,0,2.99-0.34,4.2-1.03c1.21-0.69,2.23-1.64,3.06-2.86
			c0.83-1.22,1.46-2.67,1.89-4.37c0.43-1.69,0.64-3.53,0.64-5.52c0-1.97-0.21-3.78-0.64-5.43s-1.05-3.07-1.89-4.26
			c-0.83-1.19-1.85-2.11-3.06-2.77c-1.21-0.66-2.61-0.99-4.2-0.99c-1.61,0-3.03,0.33-4.25,0.99c-1.23,0.66-2.26,1.58-3.08,2.77
			c-0.82,1.19-1.44,2.61-1.86,4.26c-0.42,1.65-0.62,3.46-0.62,5.43c0,1.99,0.21,3.82,0.62,5.52c0.42,1.69,1.04,3.15,1.86,4.37
			c0.82,1.22,1.85,2.17,3.08,2.86C340.58,247.98,342,248.32,343.6,248.32z"/>
		<path d="M376.64,220.33l8.25,21.86l7.26-19.74l7.49,19.82l8.06-21.95h2.27l-10.64,29h-1.39l-6.84-17.94l-6.55,17.94h-1.59
			l-10.98-29H376.64z"/>
		<path d="M425.07,220.33h9.22c2.84,0,5.28,0.28,7.32,0.83c2.04,0.55,3.74,1.44,5.11,2.65c1.57,1.38,2.75,2.96,3.53,4.75
			c0.78,1.79,1.18,3.76,1.18,5.9c0,2.03-0.35,3.92-1.05,5.69c-0.7,1.77-1.73,3.32-3.09,4.65c-1.36,1.33-3.04,2.37-5.03,3.14
			c-2,0.77-4.28,1.15-6.85,1.15h-10.32V220.33z M429.73,247h4.94c1.57,0,3.04-0.27,4.41-0.81c1.37-0.54,2.57-1.34,3.59-2.39
			c1.02-1.05,1.83-2.35,2.43-3.89c0.6-1.54,0.89-3.33,0.89-5.35c0-1.77-0.28-3.4-0.84-4.88c-0.56-1.48-1.34-2.76-2.34-3.82
			c-1-1.06-2.19-1.89-3.57-2.49c-1.38-0.6-2.89-0.9-4.54-0.9h-4.96V247z"/>
		<path d="M469.06,220.33l8.25,21.86l7.26-19.74l7.49,19.82l8.06-21.95h2.27l-10.64,29h-1.39l-6.84-17.94l-6.55,17.94h-1.59
			l-10.98-29H469.06z"/>
		<path d="M517.49,220.33h4.65v28.76h-4.65V220.33z"/>
		<path d="M563.89,220.33l-20,26.9h20v1.86h-26.27v-0.71l19.43-26.2h-19.43v-1.86H563.89z"/>
	</g>
</g>
</svg>
