<?xml version="1.0" encoding="utf-8"?>
<!-- Generator: Adobe Illustrator 23.0.3, SVG Export Plug-In . SVG Version: 6.00 Build 0)  -->
<svg version="1.1" id="Layer_1" xmlns="http://www.w3.org/2000/svg" xmlns:xlink="http://www.w3.org/1999/xlink" x="0px" y="0px"
	 viewBox="0 0 21.78 19.67" style="enable-background:new 0 0 21.78 19.67;" xml:space="preserve">
<g>
	<path d="M11.57,12.46c-0.21,0.14-0.44,0.21-0.68,0.21s-0.48-0.07-0.68-0.21L1.53,6.62C1.11,6.34,0.55,6.64,0.55,7.14v9.18
		c0,0.83,0.67,1.51,1.51,1.51h17.66c0.83,0,1.51-0.67,1.51-1.51V7.14c0-0.5-0.56-0.8-0.98-0.52L11.57,12.46z"/>
	<path d="M10.54,9.74c0.21,0.14,0.49,0.14,0.7,0l9.4-6.33c-0.25-0.2-0.57-0.32-0.92-0.32H2.06c-0.35,0-0.66,0.12-0.92,0.32
		L10.54,9.74z"/>
</g>
</svg>
