<?xml version="1.0" encoding="utf-8"?>
<!-- Generator: Adobe Illustrator 23.0.3, SVG Export Plug-In . SVG Version: 6.00 Build 0)  -->
<svg version="1.1" id="Layer_1" xmlns="http://www.w3.org/2000/svg" xmlns:xlink="http://www.w3.org/1999/xlink" x="0px" y="0px"
	 viewBox="0 0 20.01 21.37" style="enable-background:new 0 0 20.01 21.37;" xml:space="preserve">
<path d="M14.86,7.92V5.95c0-2.68-2.18-4.86-4.86-4.86c-2.68,0-4.86,2.18-4.86,4.86v1.97C4.36,8.16,3.78,8.89,3.78,9.76v4.28
	c0,3.44,2.79,6.23,6.23,6.23c3.44,0,6.23-2.79,6.23-6.23V9.76C16.23,8.89,15.66,8.16,14.86,7.92z M10.01,3.18
	c1.53,0,2.77,1.24,2.77,2.77v1.87H7.23V5.95C7.23,4.42,8.48,3.18,10.01,3.18z M11.48,15.27c0,0.81-0.66,1.48-1.48,1.48
	s-1.48-0.66-1.48-1.48v-2.45c0-0.81,0.66-1.48,1.48-1.48s1.48,0.66,1.48,1.48V15.27z"/>
</svg>
