<svg width="12" height="19" viewBox="0 0 12 19" fill="none" xmlns="http://www.w3.org/2000/svg">
<circle cx="6" cy="4" r="3" stroke="#262626" stroke-width="2"/>
<mask id="path-2-inside-1" fill="white">
<path d="M0 14C0 11.2386 2.23858 9 5 9H7C9.76142 9 12 11.2386 12 14V18C12 18.5523 11.5523 19 11 19H1C0.447715 19 0 18.5523 0 18V14Z"/>
</mask>
<path d="M0 14C0 11.2386 2.23858 9 5 9H7C9.76142 9 12 11.2386 12 14V18C12 18.5523 11.5523 19 11 19H1C0.447715 19 0 18.5523 0 18V14Z" stroke="#262626" stroke-width="4" mask="url(#path-2-inside-1)"/>
</svg>
