<svg width="64" height="64" viewBox="0 0 64 64" fill="none" xmlns="http://www.w3.org/2000/svg">
<path d="M20.1875 0.5H0.5V20.1875H20.1875V0.5ZM16.25 16.25H4.4375V4.4375H16.25V16.25Z" fill="#ECC38A"/>
<path d="M12.3125 8.375H8.375V12.3125H12.3125V8.375Z" fill="#ECC38A"/>
<path d="M43.8125 0.5V20.1875H63.5V0.5H43.8125ZM59.5625 16.25H47.75V4.4375H59.5625V16.25Z" fill="#ECC38A"/>
<path d="M55.625 8.375H51.6875V12.3125H55.625V8.375Z" fill="#ECC38A"/>
<path d="M0.5 63.5H20.1875V43.8125H0.5V63.5ZM4.4375 47.75H16.25V59.5625H4.4375V47.75Z" fill="#ECC38A"/>
<path d="M12.3125 51.6875H8.375V55.625H12.3125V51.6875Z" fill="#ECC38A"/>
<path d="M39.875 0.5H32V4.4375H39.875V0.5Z" fill="#ECC38A"/>
<path d="M32 16.25H35.9375V12.3125H39.875V8.375H28.0625V4.4375H24.125V12.3125H32V16.25Z" fill="#ECC38A"/>
<path d="M28.0625 16.25H24.125V20.1875H28.0625V16.25Z" fill="#ECC38A"/>
<path d="M39.875 20.1875H35.9375V24.125H24.125V28.0625H39.875V20.1875Z" fill="#ECC38A"/>
<path d="M4.4375 35.9375H8.375V32H4.4375V24.125H0.5V39.875H4.4375V35.9375Z" fill="#ECC38A"/>
<path d="M12.3125 24.125H8.375V28.0625H12.3125V24.125Z" fill="#ECC38A"/>
<path d="M24.125 39.875H32V35.9375H28.0625V32H20.1875V24.125H16.25V32H12.3125V39.875H16.25V35.9375H24.125V39.875Z" fill="#ECC38A"/>
<path d="M39.875 32H35.9375V39.875H39.875V32Z" fill="#ECC38A"/>
<path d="M35.9375 43.8125H24.125V47.75H32V59.5625H24.125V63.5H35.9375V59.5625H43.8125V55.625H35.9375V43.8125Z" fill="#ECC38A"/>
<path d="M28.0625 51.6875H24.125V55.625H28.0625V51.6875Z" fill="#ECC38A"/>
<path d="M43.8125 43.8125H39.875V51.6875H43.8125V43.8125Z" fill="#ECC38A"/>
<path d="M59.5625 51.6875H47.75V63.5H51.6875V55.625H59.5625V51.6875Z" fill="#ECC38A"/>
<path d="M63.5 59.5625H55.625V63.5H63.5V59.5625Z" fill="#ECC38A"/>
<path d="M63.5 43.8125H59.5625V47.75H63.5V43.8125Z" fill="#ECC38A"/>
<path d="M47.75 47.75H51.6875V35.9375H43.8125V39.875H47.75V47.75Z" fill="#ECC38A"/>
<path d="M55.625 28.0625H51.6875V24.125H47.75V28.0625H43.8125V32H59.5625V28.0625H63.5V24.125H55.625V28.0625Z" fill="#ECC38A"/>
<path d="M63.5 35.9375H55.625V39.875H63.5V35.9375Z" fill="#ECC38A"/>
</svg>
