<?xml version="1.0" encoding="utf-8"?>
<!-- Generator: Adobe Illustrator 23.0.3, SVG Export Plug-In . SVG Version: 6.00 Build 0)  -->
<svg version="1.1" id="Layer_1" xmlns="http://www.w3.org/2000/svg" xmlns:xlink="http://www.w3.org/1999/xlink" x="0px" y="0px"
	 viewBox="0 0 9.3 16.52" style="enable-background:new 0 0 9.3 16.52;" xml:space="preserve">
<g>
	<g>
		<path d="M4.65,11.69c-0.88,0-1.59-0.71-1.59-1.59v-0.08c0-1.64,0.89-3.19,2.37-4.13c0.41-0.26,0.82-0.83,0.64-1.61
			C5.96,3.77,5.52,3.34,5.01,3.22C4.38,3.08,3.94,3.34,3.73,3.5C3.38,3.78,3.18,4.2,3.18,4.65c0,0.88-0.71,1.59-1.59,1.59
			S0,5.53,0,4.65C0,3.23,0.64,1.9,1.75,1.01C2.86,0.12,4.31-0.2,5.72,0.12c1.71,0.39,3.06,1.75,3.45,3.45
			c0.45,1.97-0.35,3.93-2.04,5c-0.57,0.36-0.9,0.89-0.9,1.44v0.08C6.24,10.98,5.53,11.69,4.65,11.69z"/>
	</g>
	<circle cx="4.65" cy="14.93" r="1.59"/>
</g>
</svg>
