<svg version="1.1" xmlns="http://www.w3.org/2000/svg" xmlns:xlink="http://www.w3.org/1999/xlink" viewBox="0 0 172 172"><g fill="none" fill-rule="nonzero" stroke="none" stroke-width="1" stroke-linecap="butt" stroke-linejoin="miter" stroke-miterlimit="10" stroke-dasharray="" stroke-dashoffset="0" font-family="none" font-weight="none" font-size="none" text-anchor="none" style="mix-blend-mode: normal"><path d="M0,172v-172h172v172z" fill="none"></path><g fill="#e1c697"><path d="M86,46.58333l10.39167,21.14167l3.225,6.80833l7.525,1.075l23.29167,3.225l-16.84167,16.48333l-5.375,5.375l1.43333,7.525l3.94167,23.29167l-20.78333,-11.10833l-6.80833,-3.58333l-6.80833,3.58333l-20.78333,11.10833l3.94167,-23.29167l1.43333,-7.525l-5.375,-5.375l-16.84167,-16.48333l23.29167,-3.225l7.525,-1.075l3.225,-6.80833l10.39167,-21.14167M86,14.33333l-23.29167,47.3l-51.95833,7.525l37.625,36.55l-8.95833,51.95833l46.58333,-24.36667l46.58333,24.36667l-8.95833,-51.95833l37.625,-36.55l-51.95833,-7.525l-23.29167,-47.3z"></path></g></g></svg>