<?xml version="1.0" encoding="utf-8"?>
<!-- Generator: Adobe Illustrator 23.0.3, SVG Export Plug-In . SVG Version: 6.00 Build 0)  -->
<svg version="1.1" id="Layer_1" xmlns="http://www.w3.org/2000/svg" xmlns:xlink="http://www.w3.org/1999/xlink" x="0px" y="0px"
	 viewBox="0 0 15.71 15.18" style="enable-background:new 0 0 15.71 15.18;" xml:space="preserve">
<path d="M3.23,6.97H1.06C0.47,6.97,0,7.45,0,8.03v6.09c0,0.58,0.47,1.06,1.06,1.06h2.17c0.58,0,1.06-0.47,1.06-1.06V8.03
	C4.29,7.45,3.81,6.97,3.23,6.97z"/>
<path d="M14.65,4.67h-2.17c-0.58,0-1.06,0.47-1.06,1.06v8.39c0,0.58,0.47,1.06,1.06,1.06h2.17c0.58,0,1.06-0.47,1.06-1.06V5.73
	C15.71,5.14,15.24,4.67,14.65,4.67z"/>
<path d="M8.94,0H6.77C6.18,0,5.71,0.47,5.71,1.06v13.06c0,0.58,0.47,1.06,1.06,1.06h2.17c0.58,0,1.06-0.47,1.06-1.06V1.06
	C10,0.47,9.52,0,8.94,0z"/>
</svg>
