<svg width="24" height="24" viewBox="0 0 24 24" fill="none" xmlns="http://www.w3.org/2000/svg">
<circle cx="12" cy="12" r="12" fill="#DEC27F"/>
<path d="M12.564 7.682C10.016 7.682 8.252 8.942 8.252 11.154H10.492C10.492 10.02 11.36 9.53 12.536 9.53C13.488 9.53 14.09 9.894 14.09 10.454C14.09 11.042 13.068 11.308 12.382 11.658C11.43 12.134 10.702 12.722 10.702 14.108C10.702 14.29 10.702 14.57 10.744 14.78H13.054V14.416C13.054 13.52 13.544 13.212 14.538 12.764C15.616 12.246 16.456 11.616 16.456 10.272C16.456 8.494 14.58 7.682 12.564 7.682ZM13.194 18V15.508H10.59V18H13.194Z" fill="#1A1A1A"/>
</svg>
