<svg width="20" height="28" viewBox="0 0 20 28" fill="none" xmlns="http://www.w3.org/2000/svg">
<path fill-rule="evenodd" clip-rule="evenodd" d="M10 0C5.56973 0 1.97827 3.59145 1.97827 8.02174V12.0653C0.883711 12.077 0 12.9679 0 14.0652V25.7174C0 26.822 0.895431 27.7174 2 27.7174H18C19.1046 27.7174 20 26.822 20 25.7174V14.0652C20 12.9606 19.1046 12.0652 18 12.0652H4.97827V8.02174C4.97827 5.24831 7.22658 3 10 3C12.7734 3 15.0218 5.24831 15.0218 8.02174H18.0218C18.0218 3.59145 14.4303 0 10 0ZM11.3043 20.3263C11.8324 19.9297 12.1739 19.2982 12.1739 18.587C12.1739 17.3863 11.2006 16.413 10 16.413C8.79938 16.413 7.82609 17.3863 7.82609 18.587C7.82609 19.2982 8.16762 19.9296 8.69563 20.3262V24.2391H11.3043V20.3263Z" fill="#dec27f"/>
</svg>
