<svg width="21" height="31" viewBox="0 0 21 31" fill="none" xmlns="http://www.w3.org/2000/svg">
<path d="M17 7.54545C17 3.9305 14.0899 1 10.5 1C6.91015 1 4 3.9305 4 7.54545V12.5" stroke="#DEC27F" stroke-linecap="round"/>
<mask id="path-2-inside-1" fill="white">
<path fill-rule="evenodd" clip-rule="evenodd" d="M12.2192 20.3151C12.7001 19.8594 13 19.2147 13 18.5C13 17.1193 11.8807 16 10.5 16C9.11929 16 8 17.1193 8 18.5C8 19.2147 8.29994 19.8594 8.78082 20.3151L8 25H13L12.2192 20.3151Z"/>
</mask>
<path d="M12.2192 20.3151L11.5314 19.5892L11.1454 19.9549L11.2328 20.4795L12.2192 20.3151ZM8.78082 20.3151L9.76722 20.4795L9.85464 19.9549L9.46861 19.5892L8.78082 20.3151ZM8 25L7.01361 24.8356L6.81954 26H8V25ZM13 25V26H14.1805L13.9864 24.8356L13 25ZM12 18.5C12 18.9289 11.8213 19.3145 11.5314 19.5892L12.907 21.041C13.5789 20.4044 14 19.5005 14 18.5H12ZM10.5 17C11.3284 17 12 17.6716 12 18.5H14C14 16.567 12.433 15 10.5 15V17ZM9 18.5C9 17.6716 9.67157 17 10.5 17V15C8.567 15 7 16.567 7 18.5H9ZM9.46861 19.5892C9.17874 19.3145 9 18.9289 9 18.5H7C7 19.5005 7.42114 20.4044 8.09303 21.041L9.46861 19.5892ZM8.98639 25.1644L9.76722 20.4795L7.79443 20.1507L7.01361 24.8356L8.98639 25.1644ZM13 24H8V26H13V24ZM11.2328 20.4795L12.0136 25.1644L13.9864 24.8356L13.2056 20.1507L11.2328 20.4795Z" fill="#DEC27F" mask="url(#path-2-inside-1)"/>
<circle cx="10.5" cy="20.5" r="10" stroke="#DEC27F"/>
</svg>
