<?xml version="1.0" encoding="utf-8"?>
<!-- Generator: Adobe Illustrator 23.0.3, SVG Export Plug-In . SVG Version: 6.00 Build 0)  -->
<svg version="1.1" id="Layer_1" xmlns="http://www.w3.org/2000/svg" xmlns:xlink="http://www.w3.org/1999/xlink" x="0px" y="0px"
	 viewBox="0 0 19.34 20.09" style="enable-background:new 0 0 19.34 20.09;" xml:space="preserve">
<g>
	<g>
		<path d="M18.13,12.13c-0.94-0.79-2.59-1.07-3.96-1.17c-0.4-0.03-0.8,0.08-1.11,0.34c-0.69,0.58-1.49,0.98-2.35,1.17l-0.2,0.64
			l1.08,6.96h7.02c0.41,0,0.74-0.34,0.72-0.75C19.26,17.48,18.98,12.84,18.13,12.13z"/>
		<path d="M8.82,13.11l-0.2-0.64c-0.86-0.18-1.66-0.59-2.35-1.17c-0.31-0.26-0.71-0.36-1.11-0.34c-1.37,0.09-3.02,0.38-3.96,1.17
			C0.36,12.84,0.08,17.48,0,19.32c-0.02,0.41,0.31,0.75,0.72,0.75h7.02L8.82,13.11z"/>
	</g>
	<path d="M14.71,5.31c0,3.41-2.26,6.17-5.05,6.17S4.62,8.72,4.62,5.31S6.88,0,9.67,0S14.71,1.91,14.71,5.31z"/>
</g>
</svg>
