<svg width="23" height="29" viewBox="0 0 23 29" fill="none" xmlns="http://www.w3.org/2000/svg">
<path fill-rule="evenodd" clip-rule="evenodd" d="M4 6H1C0.447715 6 0 6.44772 0 7V28C0 28.5523 0.447715 29 1 29H16C16.5523 29 17 28.5523 17 28V25H5C4.44772 25 4 24.5523 4 24V6Z" fill="#6D6D6D"/>
<path d="M19 0L21 2L23 4H19V0Z" fill="#6D6D6D"/>
<path fill-rule="evenodd" clip-rule="evenodd" d="M6 1C6 0.447715 6.44772 0 7 0H18V5H23V22C23 22.5523 22.5523 23 22 23H6V1ZM13.8725 6H15.0159V7.08467C16.7171 7.31808 17.6375 8.45767 17.6375 9.76201V9.89931H15.6992V9.76201C15.6992 9.28146 15.4622 8.91076 15.0159 8.73227V11.1213L15.3924 11.2037C17.0936 11.5744 18 12.4805 18 14.0595C18 15.6384 16.9124 16.778 15.0159 16.9428V18H13.8725V16.9291C12.0598 16.7231 11.0139 15.611 11.0139 14.087V13.9085H12.9522V14.1144C12.9522 14.7048 13.2869 15.1442 13.8725 15.3227V12.6316L13.6076 12.5767C12.004 12.2471 11 11.3822 11 9.78947C11 8.38902 11.9761 7.20824 13.8725 7.05721V6ZM15.0159 15.3501C15.6713 15.1991 16.0618 14.7735 16.0618 14.1144C16.0618 13.4828 15.7271 13.0435 15.0159 12.8787V15.3501ZM13.8725 8.64989C13.245 8.78719 12.9382 9.19909 12.9382 9.76201C12.9382 10.3524 13.2311 10.7094 13.8725 10.8741V8.64989Z" fill="#6D6D6D"/>
</svg>
