<?xml version="1.0" encoding="utf-8"?>
<!-- Generator: Adobe Illustrator 23.0.3, SVG Export Plug-In . SVG Version: 6.00 Build 0)  -->
<svg version="1.1" id="Layer_1" xmlns="http://www.w3.org/2000/svg" xmlns:xlink="http://www.w3.org/1999/xlink" x="0px" y="0px"
	 viewBox="0 0 17.71 15.38" style="enable-background:new 0 0 17.71 15.38;" xml:space="preserve">
<g>
	<path d="M11.69,11.55c-2.36,0-4.25-2.03-4.01-4.43c0.2-2.09,2.09-3.63,4.19-3.63l4.07,0V2.49c0-0.64-0.52-1.16-1.16-1.16H2.27
		c-0.64,0-1.16,0.52-1.16,1.16v10.39c0,0.64,0.52,1.16,1.16,1.16h12.51c0.64,0,1.16-0.52,1.16-1.16v-1.34H11.69z"/>
	<path d="M15.56,5.49h-3.87c-1.12,0-2.03,0.91-2.03,2.03c0,1.12,0.91,2.03,2.03,2.03h3.87c0.57,0,1.04-0.47,1.04-1.04V6.53
		C16.6,5.95,16.13,5.49,15.56,5.49z M12.13,8.68c-0.55,0-0.99-0.44-0.99-0.99c0-0.55,0.44-0.99,0.99-0.99s0.99,0.44,0.99,0.99
		C13.12,8.24,12.67,8.68,12.13,8.68z"/>
</g>
</svg>
