<svg width="24" height="24" viewBox="0 0 24 24" fill="none" xmlns="http://www.w3.org/2000/svg">
<path d="M17 7H13V9H17C18.65 9 20 10.35 20 12C20 13.65 18.65 15 17 15H13V17H17C19.76 17 22 14.76 22 12C22 9.24 19.76 7 17 7Z" fill="url(#paint0_linear)"/>
<path d="M11 15H7C5.35 15 4 13.65 4 12C4 10.35 5.35 9 7 9H11V7H7C4.24 7 2 9.24 2 12C2 14.76 4.24 17 7 17H11V15Z" fill="url(#paint1_linear)"/>
<path d="M8 11H16V13H8V11Z" fill="url(#paint2_linear)"/>
<defs>
<linearGradient id="paint0_linear" x1="17.5" y1="7" x2="17.5" y2="17" gradientUnits="userSpaceOnUse">
<stop stop-color="#F2CB96"/>
<stop offset="1" stop-color="#E6BA7D"/>
</linearGradient>
<linearGradient id="paint1_linear" x1="6.5" y1="7" x2="6.5" y2="17" gradientUnits="userSpaceOnUse">
<stop stop-color="#F2CB96"/>
<stop offset="1" stop-color="#E6BA7D"/>
</linearGradient>
<linearGradient id="paint2_linear" x1="12" y1="11" x2="12" y2="13" gradientUnits="userSpaceOnUse">
<stop stop-color="#F2CB96"/>
<stop offset="1" stop-color="#E6BA7D"/>
</linearGradient>
</defs>
</svg>
